<svg id="Layer_1" data-name="Layer 1" xmlns="http://www.w3.org/2000/svg" viewBox="0 0 449.35 73.83"><defs><style>.cls-1{fill:#fff;}</style></defs><title>sixinsixlogo</title><path class="cls-1" d="M-51.09,1395.9a12.47,12.47,0,0,0-4.74-5,13.71,13.71,0,0,0-7.25-1.93,17.32,17.32,0,0,0-3.75.42,10.22,10.22,0,0,0-3.34,1.36,7.34,7.34,0,0,0-2.35,2.4,6.51,6.51,0,0,0-.89,3.44,5.9,5.9,0,0,0,2.82,5.27q2.82,1.83,8.86,3.08,8.65,1.77,12.77,5.16a11.21,11.21,0,0,1,4.12,9.12,14.16,14.16,0,0,1-1.62,7,14.08,14.08,0,0,1-4.22,4.69,17,17,0,0,1-5.89,2.61,28.5,28.5,0,0,1-6.62.78,26.44,26.44,0,0,1-10.74-2.29,19.87,19.87,0,0,1-8.55-7.2l5.63-4.17a15.31,15.31,0,0,0,5.53,5.42,15.3,15.3,0,0,0,8,2.19,22.24,22.24,0,0,0,4.38-.42,10,10,0,0,0,3.65-1.46,8,8,0,0,0,2.5-2.66,7.89,7.89,0,0,0,.94-4,6.2,6.2,0,0,0-3.7-5.79,48.48,48.48,0,0,0-10.69-3.6q-2.19-.52-4.64-1.3a15.92,15.92,0,0,1-4.54-2.29,12.41,12.41,0,0,1-3.44-3.81,11.11,11.11,0,0,1-1.36-5.74,13.14,13.14,0,0,1,1.46-6.41,12.79,12.79,0,0,1,3.91-4.38,17.4,17.4,0,0,1,5.58-2.55,25,25,0,0,1,6.47-.84,22.72,22.72,0,0,1,9.91,2.29,16,16,0,0,1,7.2,6.47Z" transform="translate(82.48 -1360.55)"/><path class="cls-1" d="M-9.37,1365.55a4.62,4.62,0,0,1-1.56,3.6,5,5,0,0,1-3.44,1.41,5,5,0,0,1-3.44-1.41,4.62,4.62,0,0,1-1.56-3.6,4.63,4.63,0,0,1,1.56-3.6,5,5,0,0,1,3.44-1.41,5,5,0,0,1,3.44,1.41A4.63,4.63,0,0,1-9.37,1365.55Zm-1.46,67.57h-7.09v-48.8h7.09v48.8Z" transform="translate(82.48 -1360.55)"/><path class="cls-1" d="M32.24,1407.89l-18-23.57h9.07l13.35,18.56L50,1384.32h8.55l-17.73,23.26,19.4,25.55H51l-14.5-20.33L21.6,1433.13H13Z" transform="translate(82.48 -1360.55)"/><path class="cls-1" d="M92.61,1365.55a4.62,4.62,0,0,1-1.56,3.6,4.91,4.91,0,0,1-6.88,0,4.92,4.92,0,0,1,0-7.2,4.91,4.91,0,0,1,6.88,0A4.63,4.63,0,0,1,92.61,1365.55Zm-1.46,67.57H84.06v-48.8h7.09v48.8Z" transform="translate(82.48 -1360.55)"/><path class="cls-1" d="M129.11,1384.32q0.21,2,.31,4.38t0.1,4h0.21a16.07,16.07,0,0,1,6.78-6.94,19.8,19.8,0,0,1,9.91-2.66q9.28,0,13.92,5.53t4.64,14.6v29.93H157.9v-27a35.78,35.78,0,0,0-.63-7,14.65,14.65,0,0,0-2.14-5.37,10.23,10.23,0,0,0-4.07-3.49,14.54,14.54,0,0,0-6.41-1.25,13.71,13.71,0,0,0-5.47,1.15,13.46,13.46,0,0,0-4.74,3.49,17.43,17.43,0,0,0-3.34,5.94,25.91,25.91,0,0,0-1.25,8.5v25h-7.09v-38.06q0-2-.1-5.11t-0.31-5.63h6.78Z" transform="translate(82.48 -1360.55)"/><path class="cls-1" d="M222,1395.9a12.47,12.47,0,0,0-4.74-5A13.71,13.71,0,0,0,210,1389a17.32,17.32,0,0,0-3.75.42,10.22,10.22,0,0,0-3.34,1.36,7.34,7.34,0,0,0-2.35,2.4,6.51,6.51,0,0,0-.89,3.44,5.9,5.9,0,0,0,2.82,5.27q2.82,1.83,8.86,3.08,8.65,1.77,12.77,5.16a11.21,11.21,0,0,1,4.12,9.12,13.49,13.49,0,0,1-5.84,11.73,17,17,0,0,1-5.89,2.61,28.5,28.5,0,0,1-6.62.78,26.44,26.44,0,0,1-10.74-2.29,19.87,19.87,0,0,1-8.55-7.2l5.63-4.17a15.94,15.94,0,0,0,13.56,7.61,22.24,22.24,0,0,0,4.38-.42,10,10,0,0,0,3.65-1.46,7.48,7.48,0,0,0,3.44-6.68,6.2,6.2,0,0,0-3.7-5.79,48.48,48.48,0,0,0-10.69-3.6q-2.19-.52-4.64-1.3a15.92,15.92,0,0,1-4.54-2.29,12.41,12.41,0,0,1-3.44-3.81,11.11,11.11,0,0,1-1.36-5.74,13.14,13.14,0,0,1,1.46-6.41,12.79,12.79,0,0,1,3.91-4.38,17.4,17.4,0,0,1,5.58-2.55,25,25,0,0,1,6.47-.84,22.72,22.72,0,0,1,9.91,2.29,16,16,0,0,1,7.2,6.47Z" transform="translate(82.48 -1360.55)"/><path class="cls-1" d="M263.74,1365.55a4.62,4.62,0,0,1-1.56,3.6,4.91,4.91,0,0,1-6.88,0,4.92,4.92,0,0,1,0-7.2,4.91,4.91,0,0,1,6.88,0A4.63,4.63,0,0,1,263.74,1365.55Zm-1.46,67.57h-7.09v-48.8h7.09v48.8Z" transform="translate(82.48 -1360.55)"/><path class="cls-1" d="M305.35,1407.89l-18-23.57h9.07l13.35,18.56,13.35-18.56h8.55l-17.73,23.26,19.4,25.55h-9.18l-14.5-20.33-14.91,20.33h-8.55Z" transform="translate(82.48 -1360.55)"/><path class="cls-1" d="M366.88,1428.12a5.65,5.65,0,0,1-1.56,3.91,5.67,5.67,0,0,1-8.13,0,5.67,5.67,0,0,1,0-7.82,5.67,5.67,0,0,1,8.13,0A5.65,5.65,0,0,1,366.88,1428.12Z" transform="translate(82.48 -1360.55)"/></svg>