<?xml version="1.0" encoding="utf-8"?>
<!-- Generator: Adobe Illustrator 22.0.1, SVG Export Plug-In . SVG Version: 6.00 Build 0)  -->
<svg version="1.1" id="Layer_1" xmlns="http://www.w3.org/2000/svg" xmlns:xlink="http://www.w3.org/1999/xlink" x="0px" y="0px"
	 viewBox="0 0 512 512" style="enable-background:new 0 0 512 512;" xml:space="preserve">
<style type="text/css">
	.st0{display:none;fill:#F4F9FB;enable-background:new    ;}
	.st1{font-family:'ArialMT';}
	.st2{font-size:29.2349px;}
	.st3{fill:#CECECE;}
	.st4{fill:#DE632E;}
	.st5{fill:#FFFFFF;}
	.st6{fill:#5B6374;}
	.st7{fill:#ECCA64;}
	.st8{fill:#B3D137;}
	.st9{fill:#49BEDF;}
	.st10{fill:#F3CB61;}
	.st11{fill:#CCA652;}
	.st12{fill:#DBB557;}
	.st13{fill:#7DC682;}
	.st14{fill:#CF5428;}
</style>
<g>
	<text transform="matrix(1 0 0 1 89.9948 423.2822)" class="st0 st1 st2">ADVERTISING SERVICE</text>
	<g>
		<g>
			<g>
				<path class="st3" d="M309.7,340.3l-12.4-9.9c-4.2-3.3-6.8-8.2-7.3-13.5l-3-32.3h-24.8h-1h-24.8l-3,32.3
					c-0.5,5.3-3.1,10.2-7.3,13.5l-12.4,9.9c-1.9,1.5-0.8,4.6,1.6,4.6h46h1h46C310.5,345,311.6,341.9,309.7,340.3z"/>
			</g>
			<g>
				<g>
					<circle class="st4" cx="190.9" cy="111.2" r="14.6"/>
				</g>
				<g>
					<polygon class="st5" points="186.8,106 195.8,111.2 186.8,116.4 					"/>
				</g>
			</g>
			<g>
				<path class="st5" d="M309.7,337.6l-12.4-9.9c-4.2-3.3-6.8-8.2-7.3-13.5l-3-32.3h-24.8h-1h-24.8l-3,32.3
					c-0.5,5.3-3.1,10.2-7.3,13.5l-12.4,9.9c-1.9,1.5-0.8,4.6,1.6,4.6h46h1h46C310.5,342.2,311.6,339.2,309.7,337.6z"/>
			</g>
			<g>
				<polygon class="st3" points="289.2,305.5 288,293.7 235.1,293.7 234,305.5 				"/>
			</g>
			<g>
				<path class="st6" d="M371.5,298.3H150.6c-2.9,0-5.2-2.3-5.2-5.2V149c0-2.9,2.3-5.2,5.2-5.2h220.9c2.9,0,5.2,2.3,5.2,5.2v144.2
					C376.7,296,374.4,298.3,371.5,298.3z"/>
			</g>
			<g>
				<rect x="158.6" y="155.7" class="st5" width="204.8" height="130.8"/>
			</g>
			<g>
				<rect x="313.7" y="194" class="st7" width="40.9" height="37"/>
			</g>
			<g>
				<polygon class="st8" points="171.2,194 171.2,230.1 171.2,276.3 212,276.3 212,230.1 212,194 				"/>
			</g>
			<g>
				<rect x="314" y="238.5" class="st7" width="40.9" height="37.7"/>
			</g>
			<g>
				<rect x="171.2" y="167.7" class="st9" width="183.4" height="19"/>
			</g>
			<g>
				<rect x="219.8" y="194" class="st3" width="85.9" height="82.2"/>
			</g>
			<g>
				<g>
					<path class="st10" d="M326.4,150.7h-24.9c-1.7,0-3.1-1.4-3.1-3.1v-16.2h31v16.2C329.5,149.3,328.1,150.7,326.4,150.7z"/>
				</g>
				<g>
					<path class="st11" d="M307.5,144.5H305c-0.5,0-0.9-0.4-0.9-0.9v-7.9c0-0.5,0.4-0.9,0.9-0.9h2.5c0.5,0,0.9,0.4,0.9,0.9v7.9
						C308.4,144.1,308,144.5,307.5,144.5z"/>
				</g>
				<g>
					<path class="st11" d="M315.6,144.5h-2.5c-0.5,0-0.9-0.4-0.9-0.9v-7.9c0-0.5,0.4-0.9,0.9-0.9h2.5c0.5,0,0.9,0.4,0.9,0.9v7.9
						C316.5,144.1,316.1,144.5,315.6,144.5z"/>
				</g>
				<g>
					<path class="st11" d="M323.7,144.5h-2.5c-0.5,0-0.9-0.4-0.9-0.9v-7.9c0-0.5,0.4-0.9,0.9-0.9h2.5c0.5,0,0.9,0.4,0.9,0.9v7.9
						C324.6,144.1,324.2,144.5,323.7,144.5z"/>
				</g>
				<g>
					<path class="st10" d="M332,131.4h-36c-0.6,0-1-0.5-1-1v-2.9c0-0.6,0.5-1,1-1h36c0.6,0,1,0.5,1,1v2.9
						C333,130.9,332.6,131.4,332,131.4z"/>
				</g>
				<g>
					<rect x="298.5" y="131.4" class="st12" width="31" height="2.1"/>
				</g>
				<g>
					<g>
						<path class="st10" d="M304.4,128.6c0.2-5.2,4.4-9.3,9.6-9.3s9.4,4.1,9.6,9.3h4.9c-0.2-7.9-6.6-14.2-14.5-14.2
							s-14.3,6.3-14.5,14.2H304.4z"/>
					</g>
				</g>
			</g>
			<g>
				<path class="st5" d="M151.4,125.2L151.4,125.2c-1.8,0.9-3.3,2.4-4.2,4.2l0,0l0,0c-0.9-1.8-2.4-3.3-4.2-4.2l0,0l0,0
					c1.8-0.9,3.2-2.4,4.2-4.2l0,0l0,0C148.2,122.8,149.6,124.3,151.4,125.2L151.4,125.2z"/>
			</g>
			<g>
				<path class="st5" d="M394.5,190.9L394.5,190.9c-1.8,0.9-3.3,2.4-4.2,4.2l0,0l0,0c-0.9-1.8-2.4-3.3-4.2-4.2l0,0l0,0
					c1.8-0.9,3.2-2.4,4.2-4.2l0,0l0,0C391.2,188.4,392.7,189.9,394.5,190.9L394.5,190.9z"/>
			</g>
			<g>
				<path class="st5" d="M253.2,124.8L253.2,124.8c-2.7,1.4-4.9,3.6-6.3,6.3l0,0l0,0c-1.4-2.7-3.5-4.9-6.2-6.3h-0.1h0.1
					c2.7-1.4,4.9-3.6,6.2-6.3l0,0l0,0C248.3,121.2,250.5,123.4,253.2,124.8L253.2,124.8z"/>
			</g>
			<g>
				<path class="st5" d="M315.3,88.1L315.3,88.1c-1.5,0.8-2.6,1.9-3.4,3.4l0,0l0,0c-0.7-1.4-1.9-2.6-3.3-3.4l0,0l0,0
					c1.4-0.7,2.6-1.9,3.3-3.4l0,0l0,0C312.7,86.2,313.8,87.3,315.3,88.1L315.3,88.1z"/>
			</g>
			<g>
				<circle class="st5" cx="362.6" cy="124.8" r="2.9"/>
			</g>
			<g>
				<circle class="st5" cx="93.5" cy="198.6" r="2.1"/>
			</g>
			<g>
				<path class="st13" d="M277.2,84.9c-4.4,0-7.9,3.5-7.9,7.9c0,1.3,0.3,2.6,0.9,3.6l0,0c0.1,0.2,0.3,0.5,0.4,0.7l6.6,11.2l6.6-11.2
					c0.1-0.2,0.3-0.4,0.4-0.7l0,0c0.6-1.1,0.9-2.3,0.9-3.6C285.1,88.5,281.5,84.9,277.2,84.9z M277.2,96c-1.8,0-3.2-1.4-3.2-3.2
					c0-1.8,1.4-3.2,3.2-3.2c1.8,0,3.2,1.4,3.2,3.2C280.4,94.6,278.9,96,277.2,96z"/>
			</g>
			<g>
				<path class="st6" d="M197.5,342.2h-91.2c-2.2,0-3.9-1.7-3.9-3.9V212.6c0-2.2,1.7-3.9,3.9-3.9h91.2c2.2,0,3.9,1.7,3.9,3.9v125.7
					C201.4,340.5,199.6,342.2,197.5,342.2z"/>
			</g>
			<g>
				<rect x="111.3" y="226.1" class="st5" width="81.1" height="98.6"/>
			</g>
			<g>
				<rect x="119" y="232" class="st9" width="66" height="18"/>
			</g>
			<g>
				<polygon class="st8" points="118.7,255.1 118.7,275 118.7,300.5 134.1,300.5 134.1,275 134.1,255.1 				"/>
			</g>
			<g>
				<rect x="140.5" y="255.1" class="st3" width="44.5" height="45.3"/>
			</g>
			<g>
				<rect x="118.7" y="305.5" class="st7" width="66.3" height="12.1"/>
			</g>
			<g>
				<path class="st3" d="M158.3,336.6h-12.9c-1.6,0-2.9-1.3-2.9-2.9l0,0c0-1.6,1.3-2.9,2.9-2.9h12.9c1.6,0,2.9,1.3,2.9,2.9l0,0
					C161.2,335.3,159.9,336.6,158.3,336.6z"/>
			</g>
			<g>
				<g>
					<path class="st8" d="M108.1,175.4l14.1,14.1l7.5,2.2l6.8-6.8l-2.2-7.5l-14.1-14.1L108.1,175.4z M131.1,186.5
						c-0.9,0.9-2.5,0.9-3.4,0s-0.9-2.5,0-3.4c1-1,2.5-1,3.4,0C132.1,184,132.1,185.5,131.1,186.5z"/>
				</g>
			</g>
			<g>
				<path class="st6" d="M380.3,345h-39.8c-1.8,0-3.2-1.5-3.2-3.2v-79c0-1.8,1.5-3.2,3.2-3.2h39.8c1.8,0,3.2,1.5,3.2,3.2v79
					C383.5,343.5,382.1,345,380.3,345z"/>
			</g>
			<g>
				<rect x="340.7" y="269.7" class="st5" width="39.4" height="62.1"/>
			</g>
			<g>
				<path class="st3" d="M363.7,340.4h-6.4c-1.2,0-2.2-1-2.2-2.2l0,0c0-1.2,1-2.2,2.2-2.2h6.4c1.2,0,2.2,1,2.2,2.2l0,0
					C365.9,339.4,365,340.4,363.7,340.4z"/>
			</g>
			<g>
				<rect x="345.2" y="274.8" class="st9" width="30.6" height="10.9"/>
			</g>
			<g>
				<polygon class="st8" points="345,288.7 345,300.7 345,316.1 352.2,316.1 352.2,300.7 352.2,288.7 				"/>
			</g>
			<g>
				<rect x="355.2" y="288.7" class="st3" width="20.7" height="27.4"/>
			</g>
			<g>
				<rect x="345" y="319.2" class="st7" width="30.8" height="7.3"/>
			</g>
		</g>
		<g>
			<path class="st5" d="M422,263.7L422,263.7c-1.2,0.6-2.2,1.6-2.8,2.8l0,0l0,0c-0.6-1.2-1.6-2.2-2.7-2.8l0,0l0,0
				c1.2-0.6,2.1-1.6,2.7-2.8l0,0l0,0C419.8,262.1,420.8,263.1,422,263.7L422,263.7z"/>
		</g>
		<g>
			<rect x="391.5" y="225" class="st4" width="23.8" height="15.8"/>
		</g>
		<g>
			<g>
				<g>
					<path class="st5" d="M401.9,223l0.6-2.4c0-0.1,0.7-3,2.6-5.4c0.7-0.9,2.6-3,5-3c1.1,0,2.2,0.5,3,1.4c1.1,1.3,1.1,2.5,1,3.3
						c-0.4,2.2-2.8,3.7-4.2,4.4c-2.7,1.3-5.4,1.5-5.5,1.5L401.9,223z M410.1,215.9c-0.4,0-1.3,0.6-2.1,1.6c-0.2,0.3-0.5,0.6-0.7,1
						c0.3-0.1,0.7-0.3,1-0.4c1.6-0.8,2.2-1.6,2.2-1.8l0,0c0,0,0-0.1-0.1-0.2C410.2,215.9,410.1,215.9,410.1,215.9z"/>
				</g>
			</g>
			<g>
				<g>
					<path class="st5" d="M404.9,223l-2.5-0.2c-0.1,0-2.8-0.2-5.5-1.5c-1.4-0.7-3.7-2.1-4.2-4.4c-0.2-0.8-0.1-2.1,1-3.3
						c0.8-0.9,1.8-1.4,3-1.4c2.4,0,4.3,2.1,5,3c1.9,2.4,2.6,5.3,2.6,5.4L404.9,223z M396.7,215.9c0,0-0.1,0-0.2,0.2
						c-0.1,0.1-0.1,0.2-0.1,0.2c0,0.2,0.6,1,2.2,1.8c0.3,0.2,0.7,0.3,1,0.4c-0.2-0.3-0.4-0.7-0.7-1
						C398,216.5,397.1,215.9,396.7,215.9z"/>
				</g>
			</g>
		</g>
		<g>
			<rect x="390" y="221" class="st4" width="26.8" height="4"/>
		</g>
		<g>
			<rect x="400.8" y="221" class="st5" width="5.1" height="19.8"/>
		</g>
		<g>
			<rect x="400.8" y="225" class="st3" width="5.1" height="2"/>
		</g>
		<g>
			<rect x="391.5" y="225" class="st14" width="9.3" height="2"/>
		</g>
		<g>
			<rect x="406" y="225" class="st14" width="9.3" height="2"/>
		</g>
	</g>
</g>
</svg>
