<?xml version="1.0" encoding="utf-8"?>
<!-- Generator: Adobe Illustrator 22.0.1, SVG Export Plug-In . SVG Version: 6.00 Build 0)  -->
<svg version="1.1" id="Layer_1" xmlns="http://www.w3.org/2000/svg" xmlns:xlink="http://www.w3.org/1999/xlink" x="0px" y="0px"
	 viewBox="0 0 512 512" style="enable-background:new 0 0 512 512;" xml:space="preserve">
<style type="text/css">
	.st0{display:none;}
	.st1{display:inline;}
	.st2{fill:#F4F9FB;}
	.st3{font-family:'ArialMT';}
	.st4{font-size:29.2349px;}
	.st5{fill:#5B6374;}
	.st6{fill:#EEED8E;}
	.st7{fill:#E0DD85;}
	.st8{fill:#F36F3B;}
	.st9{fill:#FFFFFF;}
	.st10{fill:#E06131;}
	.st11{fill:#FBC254;}
	.st12{fill:#CFD6DA;}
	.st13{fill:#BEC4C6;}
	.st14{fill:#CFE6C2;}
	.st15{fill:#494F5B;}
	.st16{fill:#E89E23;}
</style>
<g class="st0">
	<g class="st1">
		<g>
			<text transform="matrix(1 0 0 1 83.7261 437.6494)" class="st2 st3 st4">COMMUNITIES &amp; NETWORKS</text>
		</g>
	</g>
</g>
<g>
	<g>
		<g>
			<g>
				<path class="st5" d="M264.1,360.1c-2,0-4,0-6-0.1l0.2-4.6c3.9,0.2,7.9,0.2,11.8,0l0.2,4.6C268.2,360.1,266.2,360.1,264.1,360.1z
					 M246,358.9c-4-0.6-8-1.3-12-2.3l1.1-4.5c3.8,0.9,7.7,1.7,11.5,2.2L246,358.9z M282.4,358.8l-0.7-4.6c3.9-0.6,7.7-1.3,11.5-2.2
					l1.1,4.5C290.4,357.5,286.4,358.3,282.4,358.8z M222.3,353.2c-3.8-1.3-7.6-2.8-11.3-4.5l1.9-4.2c3.5,1.6,7.2,3.1,10.9,4.4
					L222.3,353.2z M306.1,353.1l-1.5-4.4c3.7-1.3,7.4-2.8,10.9-4.4l1.9,4.2C313.7,350.2,309.9,351.8,306.1,353.1z M200.1,343.1
					c-3.5-2-6.9-4.2-10.3-6.6l2.7-3.8c3.2,2.3,6.5,4.4,9.9,6.3L200.1,343.1z M328.2,342.9l-2.3-4c3.4-1.9,6.7-4.1,9.9-6.4l2.7,3.7
					C335.2,338.7,331.7,340.9,328.2,342.9z M180.3,329c-3.1-2.6-6-5.5-8.8-8.4l3.3-3.2c2.7,2.8,5.6,5.5,8.5,8.1L180.3,329z
					 M348,328.8l-3-3.5c2.9-2.6,5.8-5.3,8.5-8.1l3.3,3.2C354.1,323.3,351.1,326.1,348,328.8z M163.5,311.4c-2.5-3.2-4.9-6.5-7.1-9.9
					l3.9-2.5c2.1,3.3,4.4,6.5,6.8,9.6L163.5,311.4z M364.8,311.2l-3.6-2.8c2.4-3.1,4.7-6.3,6.8-9.6l3.9,2.5
					C369.7,304.6,367.3,308,364.8,311.2z M150.2,290.9c-1.9-3.6-3.6-7.3-5.1-11.1l4.3-1.7c1.5,3.6,3.1,7.2,4.9,10.7L150.2,290.9z
					 M378,290.7l-4.1-2.1c1.8-3.5,3.4-7.1,4.9-10.7l4.3,1.7C381.6,283.3,379.9,287.1,378,290.7z M387.1,268.1l-4.4-1.3
					c1.1-3.7,2-7.6,2.8-11.4l4.5,0.9C389.2,260.2,388.2,264.2,387.1,268.1z M391.6,244.2l-4.6-0.4c0.4-3.9,0.5-7.8,0.5-11.7v-0.5
					h4.6v0.5C392.2,236.1,392,240.1,391.6,244.2z M145.4,197.4l-4.4-1.3c1.1-3.9,2.5-7.8,4-11.5l4.3,1.7
					C147.8,190,146.5,193.7,145.4,197.4z M154.1,175.6l-4.1-2.1c1.9-3.6,3.9-7.2,6.1-10.6l3.9,2.5
					C157.8,168.7,155.9,172.2,154.1,175.6z M373.7,175c-1.8-3.4-3.8-6.9-5.9-10.1l3.9-2.5c2.2,3.4,4.3,6.9,6.1,10.5L373.7,175z
					 M166.7,155.9l-3.6-2.8c2.5-3.2,5.2-6.3,8-9.2l3.3,3.2C171.7,149.8,169.2,152.8,166.7,155.9z M360.9,155.3c-2.4-3-5-6-7.7-8.8
					l3.3-3.2c2.8,2.9,5.5,6,8,9.2L360.9,155.3z M182.9,138.8l-3-3.5c3-2.7,6.3-5.2,9.6-7.6l2.7,3.7
					C189,133.8,185.9,136.3,182.9,138.8z M344.6,138.3c-3-2.5-6.1-5-9.3-7.2l2.7-3.8c3.3,2.3,6.5,4.9,9.6,7.5L344.6,138.3z
					 M202,125.1l-2.3-4c3.5-2,7.1-3.9,10.8-5.6l1.9,4.2C208.9,121.4,205.4,123.2,202,125.1z M325.5,124.8c-3.4-1.9-6.9-3.7-10.5-5.4
					l1.9-4.2c3.7,1.7,7.3,3.5,10.9,5.6L325.5,124.8z M223.3,115.3l-1.5-4.3c3.8-1.3,7.8-2.5,11.7-3.5l1.1,4.5
					C230.8,112.9,227,114,223.3,115.3z M304.1,115.1c-3.7-1.3-7.5-2.4-11.3-3.3l1.1-4.5c3.9,0.9,7.9,2.1,11.7,3.4L304.1,115.1z
					 M246.1,109.7l-0.7-4.6c4-0.6,8.1-1,12.1-1.2l0.2,4.6C253.9,108.8,250,109.2,246.1,109.7z M281.3,109.6
					c-3.9-0.5-7.8-0.9-11.7-1.1l0.2-4.6c4,0.2,8.1,0.6,12.1,1.1L281.3,109.6z"/>
			</g>
		</g>
		<g>
			<g>
				<g>
					<g>
						<path class="st5" d="M194.6,242.3c0.3-3.1,0.6-6.9,0.6-11.3H219v25.2h-12C199.6,256.1,193.8,249.7,194.6,242.3z"/>
					</g>
					<g>
						<path class="st5" d="M241.2,242.3c-0.3-3.1-0.5-6.8-0.5-11.4h-23.8v25.2h11.9C236.2,256.1,242,249.7,241.2,242.3z"/>
					</g>
					<g>
						<path class="st6" d="M220.8,251.7H215c-8.1,0-14.7-6.6-14.7-14.7v-12.2c0-8.1,6.6-14.7,14.7-14.7h5.8
							c8.1,0,14.7,6.6,14.7,14.7V237C235.4,245.2,228.9,251.7,220.8,251.7z"/>
					</g>
					<g>
						<circle class="st6" cx="200.3" cy="231" r="4.5"/>
					</g>
					<g>
						<rect x="235.4" y="226.9" class="st5" width="5.3" height="4.1"/>
					</g>
					<g>
						<circle class="st6" cx="235.4" cy="231" r="4.5"/>
					</g>
					<g>
						<path class="st5" d="M232.9,209.4c0,0-2.8,7.9-12.1,14.5c-6.8,4.8-15,7-23.3,7h-2.4c0,0-3.1-19.7,15.7-25.9
							C223.8,200.8,232.9,209.4,232.9,209.4z"/>
					</g>
					<g>
						<path class="st5" d="M226.2,216.6c0,0,0,0.2,0.1,0.5c1.2,5.7,6.5,9.7,12.3,9.7h2.1c0,0,1.2-15.3-7.8-17.4
							C232.9,209.4,227.4,209.4,226.2,216.6z"/>
					</g>
					<g>
						<rect x="208.5" y="249.9" class="st6" width="18.5" height="8.7"/>
					</g>
					<g>
						<path class="st7" d="M227.1,250v4.4c-2.2,1.1-4.6,1.7-7.1,1.7h-4.2c-2.6,0-5.1-0.7-7.3-1.8V250l0,0c2.2,1.2,4.6,1.8,7.2,1.8
							h4.2C222.5,251.7,224.9,251.1,227.1,250z"/>
					</g>
					<g>
						<path class="st8" d="M254.5,295.4h-36.6h-20.4c-8.9,0-16.2-7.3-16-16.3l0,0c2-13.2,15-23,29.2-23h14.4
							c14.2,0,27.2,9.7,29.2,23L254.5,295.4z"/>
					</g>
					<g>
						<path class="st9" d="M230.7,256.7l-12.9,36.5l-12.9-36.4c0,0,0,0,0.1,0s0.1,0,0.2-0.1c0.1,0,0.1,0,0.2-0.1
							c1.7-0.3,3.5-0.5,5.3-0.5h14.4C227,256.1,228.9,256.3,230.7,256.7z"/>
					</g>
				</g>
				<g>
					<path class="st10" d="M254.5,295.4h-16.4l0.4-25.2c0.5-3.4,1.5-6.5,2.8-9.5c6.8,4.1,11.7,10.7,12.9,18.4L254.5,295.4z"/>
				</g>
				<g>
					<g>
						<circle class="st6" cx="275" cy="197" r="6.9"/>
					</g>
					<g>
						<path class="st6" d="M304.9,228.6h-6.3c-13,0-23.5-10.5-23.5-23.5V189c0-13,10.5-23.5,23.5-23.5h6.3c13,0,23.5,10.5,23.5,23.5
							v16.1C328.4,218.1,317.8,228.6,304.9,228.6z"/>
					</g>
					<g>
						<circle class="st6" cx="328.4" cy="197" r="6.9"/>
					</g>
					<g>
						<path class="st11" d="M308.6,175.2c0,0,0,0.3,0.1,0.7c1.9,8.7,9.8,14.8,18.7,14.8h3.2c0,0,4.4-24.1-11.8-26.5
							C318.8,164.3,310.5,164.3,308.6,175.2z"/>
					</g>
					<g>
						<path class="st5" d="M357.2,279.1c0.2,8.9-7,16.3-16,16.3h-39.5h-55.9l0.5-25.2c3.1-20.2,22.9-35,44.5-35h21.9
							c21.6,0,41.4,14.8,44.4,35L357.2,279.1z"/>
					</g>
					<g>
						<path class="st5" d="M321.3,236l-19.7,55.6l-19.7-55.5c0,0,0,0,0.1,0s0.2,0,0.3-0.1c0.1,0,0.2,0,0.3-0.1
							c2.6-0.4,5.3-0.7,8.1-0.7h21.9C315.6,235.2,318.5,235.5,321.3,236z"/>
					</g>
					<g>
						<rect x="287.5" y="225.8" class="st6" width="28.1" height="13.2"/>
					</g>
					<g>
						<path class="st7" d="M315.7,225.9v6.7c-3.3,1.7-6.9,2.7-10.8,2.7h-6.3c-4,0-7.7-1-11.1-2.8v-6.6c0.1,0,0.1,0,0.1,0
							c3.3,1.7,7,2.7,11,2.7h6.3C308.8,228.6,312.4,227.6,315.7,225.9z"/>
					</g>
					<g>
						<path class="st11" d="M318.8,164.6c0,0-0.3,11.8-14.5,21.8c-10.3,7.3-19.3,6.5-31.9,6.5c-1.9,0-2.1-10.8-1.9-12.1
							c1.4-14,14.8-23.9,28.4-24.3c5.2-0.2,10.3,1.2,14.8,3.8C314.3,160.8,318,163.5,318.8,164.6z"/>
					</g>
					<g>
						<path class="st9" d="M321.3,236l-19.7,55.6l-19.7-55.5c0,0,0,0,0.1,0s0.2,0,0.3-0.1c0.1,0,0.2,0,0.3-0.1
							c2.6-0.4,5.3-0.7,8.1-0.7h21.9C315.6,235.2,318.5,235.5,321.3,236z"/>
					</g>
					<g>
						<polygon class="st5" points="301.7,235.2 301.6,235.2 294.6,235.2 298.1,242.6 301.6,242.6 301.7,242.6 305.2,242.6 
							308.7,235.2 						"/>
					</g>
					<g>
						<polygon class="st5" points="305.1,242.6 301.6,242.6 301.6,242.7 301.6,242.6 298.1,242.6 293.8,275.5 301.6,291.6 
							301.6,291.3 301.6,291.6 309.5,275.5 						"/>
					</g>
				</g>
			</g>
			<g>
				<path class="st12" d="M262.9,127.4c0-23.6-19.1-42.7-42.7-42.7s-42.7,19.1-42.7,42.7c0,21,15.1,38.4,35,42l-6.8,15.8l33-19.3
					l0,0C252.9,159.1,262.9,144.4,262.9,127.4z"/>
			</g>
			<g>
				<path class="st6" d="M262.9,127.4c0,4.5-0.7,8.9-2,13c-15.2-6.3-26-21.3-26-38.8c0-4.7,0.8-9.2,2.2-13.5
					C252.3,94.8,262.9,109.9,262.9,127.4z"/>
			</g>
			<g>
				<path class="st13" d="M262.9,127.4c0,4.5-0.7,8.9-2,13c-15.2-6.3-26-21.3-26-38.8c0-4.7,0.8-9.2,2.2-13.5
					C252.3,94.8,262.9,109.9,262.9,127.4z"/>
			</g>
			<g>
				<rect x="197.7" y="126.4" class="st9" width="46.4" height="3.9"/>
			</g>
			<g>
				<rect x="197.7" y="111.1" class="st9" width="46.4" height="3.9"/>
			</g>
			<g>
				<rect x="197.7" y="141.7" class="st9" width="46.4" height="3.9"/>
			</g>
			<g>
				<path class="st8" d="M309.6,103.2c0-18.1-14.7-32.8-32.8-32.8c-18.1,0-32.8,14.7-32.8,32.8c0,13.7,8.4,25.4,20.3,30.3l22.5,13.1
					l-4.8-11.1C297.7,133,309.6,119.5,309.6,103.2z"/>
			</g>
			<g>
				<rect x="260.6" y="101.6" class="st9" width="33.5" height="3.9"/>
			</g>
			<g>
				<rect x="260.6" y="90.1" class="st9" width="33.5" height="3.9"/>
			</g>
			<g>
				<rect x="260.6" y="113" class="st9" width="33.5" height="3.9"/>
			</g>
		</g>
		<g>
			<g>
				<circle class="st14" cx="147.7" cy="236.9" r="20.3"/>
			</g>
			<g>
				<g>
					<path class="st5" d="M97.7,286.9c0.1,0.1,0.1,0.1,0.1,0.1c3.7,3.6,9.7,3.3,13-0.7l26.7-31.3l-3.8-3.8l-4.2-4.2l-31.3,26.7
						C94.3,277.1,94,283.2,97.7,286.9z"/>
				</g>
				<g>
					<path class="st15" d="M97.9,287c3.7,3.6,9.7,3.3,13-0.7l26.7-31.3l-3.8-3.8L97.9,287z"/>
				</g>
				<g>
					<g>
						<path class="st16" d="M146.4,264.7c-15.3,0-27.8-12.5-27.8-27.8s12.5-27.8,27.8-27.8s27.8,12.5,27.8,27.8
							S161.7,264.7,146.4,264.7z M146.4,218.4c-10.2,0-18.5,8.3-18.5,18.5s8.3,18.5,18.5,18.5s18.5-8.3,18.5-18.5
							S156.6,218.4,146.4,218.4z"/>
					</g>
				</g>
			</g>
		</g>
		<g>
			<g>
				<path class="st2" d="M377.4,194.4l1.2-1.4c4.5-5.4,7.3-12.1,7.3-19.2c0-0.1,0-0.1,0-0.2l0,0c0-2.6,2.1-4.7,4.7-4.7l0,0
					c2.1,0,4,1.4,4.5,3.5l0.3,0.9c1.2,4.7,1.1,12.3-0.2,16.9l0,0h13.4c5.5,0,9.5,5.1,8.2,10.4l-3,12.5c-0.9,3.8-4.3,6.5-8.2,6.5h-28
					v-25.2H377.4z"/>
			</g>
			<g>
				<path class="st5" d="M358,193.2v28.2h16v-28.2H358z M368.8,201.2c-1.5,0-2.8-1.2-2.8-2.7s1.2-2.7,2.8-2.7c1.5,0,2.7,1.2,2.7,2.7
					S370.3,201.2,368.8,201.2z"/>
			</g>
		</g>
		<g>
			<g>
				<circle class="st2" cx="287.4" cy="353" r="33"/>
			</g>
			<g>
				<g>
					<rect x="282.8" y="334" class="st5" width="9.2" height="38"/>
				</g>
			</g>
			<g>
				<g>
					<rect x="268.4" y="348.4" class="st5" width="38" height="9.2"/>
				</g>
			</g>
		</g>
	</g>
</g>
</svg>
