<?xml version="1.0" encoding="utf-8"?>
<!-- Generator: Adobe Illustrator 22.0.1, SVG Export Plug-In . SVG Version: 6.00 Build 0)  -->
<svg version="1.1" id="Layer_1" xmlns="http://www.w3.org/2000/svg" xmlns:xlink="http://www.w3.org/1999/xlink" x="0px" y="0px"
	 viewBox="0 0 512 512" style="enable-background:new 0 0 512 512;" xml:space="preserve">
<style type="text/css">
	.st0{display:none;fill:#F4F9FB;enable-background:new    ;}
	.st1{font-family:'ArialMT';}
	.st2{font-size:29.2349px;}
	.st3{fill:#5B6374;}
	.st4{fill:#FFFFFF;}
	.st5{fill:#CECECE;}
	.st6{fill:#FBC254;}
	.st7{fill:#709998;}
	.st8{fill:#FFFEFC;}
	.st9{fill:#DE632E;}
	.st10{fill:#49BEDF;}
</style>
<g>
	<text transform="matrix(1 0 0 1 79.1628 420.9895)" class="st0 st1 st2">APP STORE OPTIMIZATION</text>
	<g>
		<g>
			<path class="st3" d="M311.1,348h-86.3c-12.4,0-22.4-10-22.4-22.4V128.3c0-12.4,10-22.4,22.4-22.4h86.3c12.4,0,22.4,10,22.4,22.4
				v197.3C333.5,338,323.5,348,311.1,348z"/>
		</g>
		<g>
			<rect x="212.2" y="134.7" class="st4" width="111.6" height="176"/>
		</g>
		<g>
			<path class="st5" d="M277.5,335.2h-18.2c-3.4,0-6.2-2.8-6.2-6.2l0,0c0-3.4,2.8-6.2,6.2-6.2h18.2c3.4,0,6.2,2.8,6.2,6.2l0,0
				C283.7,332.4,280.9,335.2,277.5,335.2z"/>
		</g>
		<g>
			<path class="st6" d="M246.6,185.5h-25.4c-2,0-3.5-1.6-3.5-3.5v-25.4c0-2,1.6-3.5,3.5-3.5h25.4c2,0,3.5,1.6,3.5,3.5V182
				C250.1,183.9,248.5,185.5,246.6,185.5z"/>
		</g>
		<g>
			<path class="st7" d="M150,237.3h-30.6c-5.1,0-9.2-4.1-9.2-9.2v-30.6c0-5.1,4.1-9.2,9.2-9.2H150c5.1,0,9.2,4.1,9.2,9.2v30.6
				C159.2,233.2,155.1,237.3,150,237.3z"/>
		</g>
		<g>
			<path class="st6" d="M284.9,185.5H260c-1,0-1.9-0.8-1.9-1.9v-5.5c0-1,0.8-1.9,1.9-1.9h24.9c1,0,1.9,0.8,1.9,1.9v5.5
				C286.7,184.6,285.9,185.5,284.9,185.5z"/>
		</g>
		<g>
			<path class="st8" d="M363.6,180.2h-16.7c-2.8,0-5-2.2-5-5v-16.7c0-2.8,2.2-5,5-5h16.7c2.8,0,5,2.2,5,5v16.7
				C368.6,177.9,366.3,180.2,363.6,180.2z"/>
		</g>
		<g>
			<rect x="217.7" y="215.2" class="st5" width="58.9" height="83.8"/>
		</g>
		<g>
			<rect x="283.7" y="215.2" class="st5" width="40.1" height="83.8"/>
		</g>
		<g>
			<rect x="220.5" y="195.4" class="st9" width="24.7" height="8.1"/>
		</g>
		<g>
			<rect x="245.2" y="195.4" class="st7" width="37.2" height="8.1"/>
		</g>
		<g>
			<rect x="281" y="195.4" class="st5" width="34.7" height="8.1"/>
		</g>
		<g>
			<rect x="224.2" y="222.7" class="st6" width="45.5" height="68.8"/>
		</g>
		<g>
			<rect x="290.8" y="222.7" class="st6" width="33" height="68.8"/>
		</g>
		<g>
			<rect x="257.9" y="153.1" class="st5" width="57.8" height="16"/>
		</g>
		<g>
			<g>
				<path class="st4" d="M153.1,219.7l-1-12.5c-0.3-3.4-2.8-6.2-6.2-6.7c-1.7-0.2-3.3,0.1-4.6,0.9c-1.9,1.1-4,1.8-6.3,1.8h-0.8
					c-2.2,0-4.4-0.7-6.3-1.8c-1.3-0.8-2.9-1.1-4.6-0.9c-3.4,0.5-5.9,3.4-6.2,6.7l-1,12.5c-0.2,3,2.1,5.6,5.2,5.6l0,0
					c1.8,0,3.5-0.9,4.4-2.5l1.2-1.9c1.6-2.6,4.5-4.2,7.6-4.2h0.1c3.1,0,6,1.6,7.6,4.2l1.2,1.9c0.9,1.5,2.6,2.5,4.4,2.5l0,0
					C151,225.3,153.4,222.7,153.1,219.7z"/>
			</g>
			<g>
				<g>
					<circle class="st6" cx="144.9" cy="205.8" r="1.5"/>
				</g>
				<g>
					<circle class="st6" cx="144.9" cy="212" r="1.5"/>
				</g>
			</g>
			<g>
				<g>
					<circle class="st6" cx="148" cy="208.9" r="1.5"/>
				</g>
				<g>
					<circle class="st6" cx="141.8" cy="208.9" r="1.5"/>
				</g>
			</g>
			<g>
				<g>
					<g>
						<g>
							<polygon class="st6" points="120.6,209.1 120.6,210.2 122.5,210.2 124.4,209.4 124.4,209.1 124.4,208.8 122.5,208.1 
								120.6,208.1 							"/>
						</g>
					</g>
					<g>
						<g>
							<polygon class="st6" points="129.6,209.1 129.6,210.2 127.8,210.2 125.9,209.4 125.9,209.1 125.9,208.8 127.8,208.1 
								129.6,208.1 							"/>
						</g>
					</g>
				</g>
				<g>
					<g>
						<g>
							<polygon class="st6" points="125.1,204.4 126.2,204.4 126.2,206.2 125.4,208.1 125.1,208.1 124.8,208.1 124.1,206.2 
								124.1,204.4 							"/>
						</g>
					</g>
					<g>
						<g>
							<polygon class="st6" points="125.1,213.9 124.1,213.9 124.1,212 124.8,210.1 125.1,210.1 125.4,210.1 126.2,212 126.2,213.9 
															"/>
						</g>
					</g>
				</g>
			</g>
		</g>
		<g>
			<g>
				<path class="st6" d="M352.8,163.1L352.8,163.1c0.6-0.6,0.6-1.7,0-2.3l-1.6-1.6c-0.7-0.7-1.7-0.6-2.4,0l-1,1.1l0,0
					c0,0-4.3,5,1.9,11.3c6,6,10.8,2.3,11.3,2l0,0l0,0l0,0l0,0l1.1-1c0.7-0.6,0.7-1.7,0-2.4l-1.6-1.6c-0.6-0.6-1.7-0.6-2.3,0l0,0
					c-0.5,0.5-0.7,1.1-0.7,1.8v0.5c0,0-2.4,2.5-6-1.1s-1.1-6-1.1-6l0,0l0,0h0.5C351.7,163.9,352.3,163.6,352.8,163.1z"/>
			</g>
			<g>
				<path class="st10" d="M355.4,166c0,0,1-2.7,5.2-2.7v2l3.4-3.5l-3.4-3.3v1.9C360.5,160.5,355.4,160.8,355.4,166z"/>
			</g>
		</g>
		<g>
			<g>
				<path class="st6" d="M334.8,123.8h-21.9c-3.6,0-6.6-2.9-6.6-6.6V95.3c0-3.6,2.9-6.6,6.6-6.6h21.9c3.6,0,6.6,2.9,6.6,6.6v21.9
					C341.4,120.9,338.4,123.8,334.8,123.8z"/>
			</g>
			<g>
				<g>
					<g>
						<path class="st4" d="M334.3,104.6c-1.2,0.4-2.6-0.3-3.1-1.5s0-2.6,1.1-3.2c-0.6-0.8-1.4-1.6-2.3-2.2c-0.6,1.1-2,1.6-3.2,1.1
							s-1.9-1.8-1.5-3.1c-1.1-0.1-2.1-0.1-3.2,0c0.4,1.2-0.3,2.6-1.5,3.1s-2.6,0-3.2-1.1c-0.8,0.6-1.6,1.4-2.2,2.3
							c1.1,0.6,1.6,2,1.1,3.2s-1.8,1.9-3.1,1.5c-0.1,1.1-0.1,2.1,0,3.2c1.2-0.4,2.6,0.2,3.1,1.5c0.5,1.2,0,2.6-1.1,3.2
							c0.6,0.8,1.4,1.6,2.3,2.2c0.6-1.1,2-1.6,3.2-1.1s1.9,1.8,1.5,3.1c1.1,0.2,2.1,0.1,3.2,0c-0.4-1.2,0.2-2.6,1.5-3.1
							c1.2-0.5,2.6,0,3.2,1.1c0.8-0.6,1.6-1.4,2.2-2.3c-1.1-0.6-1.6-2-1.1-3.2s1.8-1.9,3.1-1.5C334.5,106.8,334.5,105.7,334.3,104.6
							z M323.8,109.6c-1.8,0-3.3-1.5-3.3-3.3s1.5-3.3,3.3-3.3s3.3,1.5,3.3,3.3C327.1,108.1,325.6,109.6,323.8,109.6z"/>
					</g>
				</g>
				<g>
					<g>
						<path class="st5" d="M323.8,109.6c-1.8,0-3.3-1.5-3.3-3.3s1.5-3.3,3.3-3.3l0,0v-1.9l0,0c-2.9,0-5.2,2.3-5.2,5.2
							c0,2.9,2.3,5.2,5.2,5.2l0,0V109.6L323.8,109.6z"/>
					</g>
					<g>
						<path class="st4" d="M329,106.3c0-2.9-2.3-5.2-5.2-5.2v1.9c1.8,0,3.3,1.5,3.3,3.3s-1.5,3.3-3.3,3.3v1.9
							C326.7,111.5,329,109.2,329,106.3z"/>
					</g>
				</g>
			</g>
		</g>
		<g>
			<g>
				<path class="st10" d="M158.3,115.2h-17.6c-2.9,0-5.3-2.4-5.3-5.3V92.3c0-2.9,2.4-5.3,5.3-5.3h17.6c2.9,0,5.3,2.4,5.3,5.3v17.6
					C163.6,112.8,161.2,115.2,158.3,115.2z"/>
			</g>
			<g>
				<polygon class="st3" points="149.5,93.5 152,98.4 157.4,99.3 153.6,103.2 154.4,108.6 149.5,106.2 144.6,108.6 145.4,103.2 
					141.6,99.3 147,98.4 				"/>
			</g>
		</g>
		<g>
			<g>
				<path class="st6" d="M400.9,243.8h-24.8c-4.1,0-7.4-3.3-7.4-7.4v-24.8c0-4.1,3.3-7.4,7.4-7.4h24.8c4.1,0,7.4,3.3,7.4,7.4v24.8
					C408.3,240.5,405,243.8,400.9,243.8z"/>
			</g>
			<g>
				<path class="st9" d="M400.8,221.7L400.8,221.7c0.8-1.6,1.1-3.4,0.3-5.5c-0.8-2-2.5-3.5-4.6-4c-4.2-0.9-8,2.3-8,6.4
					c0-4.1-3.7-7.3-8-6.4c-2.1,0.5-3.8,2-4.6,4c-0.8,2-0.5,3.9,0.4,5.5l0,0l8.8,12.5c0.8,1.1,2.1,1.8,3.4,1.8l0,0
					c1.4,0,2.6-0.7,3.4-1.8L400.8,221.7z"/>
			</g>
			<g>
				<circle class="st8" cx="396.6" cy="231.4" r="6.3"/>
			</g>
			<g>
				<polygon class="st6" points="400.5,230.4 397.6,230.4 397.6,227.5 395.6,227.5 395.6,230.4 392.8,230.4 392.8,232.4 
					395.6,232.4 395.6,235.2 397.6,235.2 397.6,232.4 400.5,232.4 				"/>
			</g>
		</g>
		<g>
			<g>
				<path class="st5" d="M214.5,149.5h-24c-4,0-7.2-3.2-7.2-7.2v-24c0-4,3.2-7.2,7.2-7.2h24c4,0,7.2,3.2,7.2,7.2v24
					C221.7,146.3,218.4,149.5,214.5,149.5z"/>
			</g>
			<g>
				<g>
					<circle class="st8" cx="202.4" cy="137.5" r="2.9"/>
				</g>
				<g>
					<path class="st8" d="M198.1,131.9l-1.9-3.1c3.8-2.3,8.7-2.3,12.4,0l-1.9,3.1C204.2,130.3,200.8,130.3,198.1,131.9z"/>
				</g>
				<g>
					<path class="st8" d="M194.1,125.7l-2-3c6.1-4.2,14.6-4.2,20.8-0.1l-2,3C205.8,122.3,199,122.3,194.1,125.7z"/>
				</g>
			</g>
		</g>
		<g>
			<path class="st4" d="M191,256L191,256c-2.7,1.4-4.8,3.5-6.1,6.1l0,0l0,0c-1.3-2.6-3.4-4.7-6-6.1h-0.1h0.1c2.6-1.3,4.7-3.5,6-6.1
				l0,0l0,0C186.2,252.5,188.4,254.6,191,256L191,256z"/>
		</g>
		<g>
			<path class="st4" d="M360.8,289.6l-0.1,0.1c-6.1,3.2-11.1,8.2-14.2,14.3l0,0l0,0c-3.1-6.1-8.1-11.1-14.2-14.3l-0.1-0.1l0.1-0.1
				c6.1-3.2,11.1-8.2,14.2-14.3l0,0l0,0c3.1,6.1,8.1,11.1,14.2,14.3L360.8,289.6z"/>
		</g>
		<g>
			<circle class="st4" cx="378.9" cy="125" r="2.9"/>
		</g>
		<g>
			<circle class="st4" cx="155.1" cy="160.5" r="3.8"/>
		</g>
	</g>
</g>
</svg>
