<?xml version="1.0" encoding="utf-8"?>
<!-- Generator: Adobe Illustrator 22.0.1, SVG Export Plug-In . SVG Version: 6.00 Build 0)  -->
<svg version="1.1" id="Layer_1" xmlns="http://www.w3.org/2000/svg" xmlns:xlink="http://www.w3.org/1999/xlink" x="0px" y="0px"
	 viewBox="0 0 2500 1200" style="enable-background:new 0 0 2500 1200;" xml:space="preserve">
<style type="text/css">
	.st0{display:none;fill:#F4F9FB;enable-background:new    ;}
	.st1{font-family:'ArialMT';}
	.st2{font-size:68.5193px;}
	.st3{fill:#F4F9FB;}
	.st4{fill:#CECECE;}
	.st5{fill:#F7F8F8;}
	.st6{fill:#F36F3B;}
	.st7{fill:#E06131;}
	.st8{fill:#ABABAB;}
	.st9{fill:#D1EAF8;}
	.st10{fill:#5B6374;}
	.st11{fill:#ECCA64;}
	.st12{fill:#CFD6DA;}
	.st13{fill:#BEC4C6;}
	.st14{fill:#F4DC80;}
	.st15{fill:#C6A961;}
	.st16{fill:#E0C46B;}
	.st17{fill:#494F5B;}
	.st18{fill:#F3BF90;}
	.st19{fill:#768193;}
</style>
<g>
	<text transform="matrix(1 0 0 1 936.9597 1004.3623)" class="st0 st1 st2">BLOGGING SERVICE</text>
	<g>
		<g>
			<rect x="1074.9" y="369.1" class="st3" width="333.5" height="440.2"/>
		</g>
		<g>
			<path class="st3" d="M1408.4,560.9v221.3c-33.8-25.1-55.8-65.4-55.8-110.6C1352.7,626,1374.5,585.9,1408.4,560.9z"/>
		</g>
		<g>
			<rect x="1183.7" y="434.3" class="st4" width="176.7" height="12"/>
		</g>
		<g>
			<rect x="1120.4" y="487.5" class="st4" width="240" height="12"/>
		</g>
		<g>
			<rect x="1120.4" y="538.4" class="st4" width="240" height="12"/>
		</g>
		<g>
			<rect x="1120.4" y="589.2" class="st4" width="240" height="12"/>
		</g>
		<g>
			<rect x="1120.4" y="640.1" class="st4" width="240" height="12"/>
		</g>
		<g>
			<path class="st5" d="M1334.6,688.4l-28.4,11.7l11.7-28.4c3.5,1.4,7,3.8,9.8,6.6C1330.9,681.3,1333.2,684.6,1334.6,688.4z"/>
		</g>
		<g>
			<g>
				<path class="st6" d="M1177.3,379.7c-8.4,2.3-17.3-1.9-20.9-10.1s-0.2-17.6,7.3-22c-4.2-5.6-9.4-10.8-15.2-15.2
					c-4.2,7.7-13.6,11-21.8,7.7c-8.2-3.3-12.7-12.4-10.3-20.9c-7.3-0.9-14.5-0.9-21.6,0.2c2.3,8.4-1.6,17.3-10.1,20.9
					c-8.2,3.5-17.6,0.2-22-7.3c-5.6,4.2-10.8,9.4-15,15.2c7.7,4.2,11,13.6,7.7,21.8c-3.3,8.2-12.4,12.7-20.9,10.3
					c-0.9,7.3-0.9,14.5,0.2,21.6c8.4-2.3,17.3,1.6,20.9,10.1c3.5,8.2,0.2,17.6-7.3,22c4.2,5.6,9.4,10.8,15.2,15
					c4.2-7.7,13.6-11,21.8-7.7c8.2,3.3,12.7,12.4,10.3,20.9c7.3,0.9,14.5,0.9,21.6-0.2c-2.3-8.4,1.6-17.3,10.1-20.9
					c8.2-3.5,17.6-0.2,22,7.5c5.6-4.2,10.8-9.4,15-15.2c-7.7-4.2-11-13.6-7.7-21.8s12.4-12.7,20.9-10.3
					C1178.8,394,1178.5,386.7,1177.3,379.7z M1106.1,413.2c-12.2,0-22-9.8-22-22.3c0-12.2,9.8-22,22-22s22.3,9.8,22.3,22
					C1128.4,403.4,1118.5,413.2,1106.1,413.2z"/>
			</g>
			<g>
				<g>
					<path class="st7" d="M1106.1,413.2c-12.2,0-22-9.8-22-22.3c0-12.2,9.8-22,22-22l0,0v-13.1l0,0c-19.5,0-35.4,15.9-35.4,35.4
						s15.9,35.4,35.4,35.4l0,0V413.2C1106.3,413.2,1106.1,413.2,1106.1,413.2z"/>
				</g>
				<g>
					<path class="st6" d="M1141.5,390.9c0-19.5-15.9-35.4-35.4-35.4v13.1c12.2,0,22.3,9.8,22.3,22s-9.8,22.3-22.3,22.3V426
						C1125.8,426.3,1141.5,410.6,1141.5,390.9z"/>
				</g>
			</g>
		</g>
		<g>
			<g>
				<path class="st4" d="M1040.7,462.7c-5.9-0.7-10.5-5.6-10.5-11.5c0-6.1,4.5-11,10.3-12c-1.2-4.7-3-9.1-5.9-13.4
					c-4.7,3.8-11.3,3.5-15.7-0.7c-4.5-4.2-4.7-11-1.2-15.7c-4.2-2.6-8.9-4.2-13.6-5.4c-0.7,5.9-5.6,10.5-11.7,10.5
					c-6.1,0.2-11.3-4.5-12-10.3c-4.7,1.2-9.1,3-13.4,5.9c3.8,4.7,3.5,11.3-0.7,15.7c-4.2,4.5-11,4.7-15.7,1.2
					c-2.6,4.2-4.2,8.9-5.4,13.6c5.9,0.7,10.5,5.6,10.5,11.7s-4.5,11.3-10.3,12c1.2,4.7,3,9.1,5.9,13.4c4.7-3.8,11.3-3.5,15.7,0.7
					c4.5,4.2,4.7,11,1.2,15.7c4.2,2.6,8.9,4.2,13.6,5.4c0.7-5.9,5.6-10.5,11.7-10.5s11,4.5,12,10.3c4.7-1.2,9.1-3,13.4-5.9
					c-3.8-4.7-3.5-11.3,0.7-15.7c4.2-4.5,11-4.7,15.7-1.2C1037.9,472,1039.8,467.3,1040.7,462.7z M987.5,465.7
					c-7.7-3-11.5-12-8.2-19.7c3-7.7,12-11.5,19.7-8.2c7.7,3,11.5,12,8.2,19.7C1003.9,465,995.2,468.8,987.5,465.7z"/>
			</g>
			<g>
				<g>
					<path class="st8" d="M993.1,466.6c-8.2,0-15-6.8-15-15s6.8-15,15-15l0,0v-8.9l0,0c-13.1,0-23.9,10.8-23.9,23.9
						c0,13.4,10.8,23.9,23.9,23.9l0,0V466.6L993.1,466.6z"/>
				</g>
				<g>
					<path class="st4" d="M1017,451.6c0-13.1-10.8-23.9-23.9-23.9v8.9c8.2,0,15,6.8,15,15s-6.8,15-15,15v8.9
						C1006.5,475.5,1017,465,1017,451.6z"/>
				</g>
			</g>
		</g>
		<g>
			<g>
				<path class="st4" d="M1341.6,690.9h-186.8c11,1.2,21.3,5.4,29.8,12h157V690.9z"/>
			</g>
			<g>
				<path class="st4" d="M1207.8,751.4h87.4v-12h-88.4c0.7,3.3,0.9,6.8,0.9,10.3C1208,750.5,1208,750.9,1207.8,751.4z"/>
			</g>
			<g>
				<path class="st4" d="M1071.9,690.9v12h112.7c-8.4-6.3-18.5-10.8-29.8-12H1071.9z"/>
			</g>
			<g>
				<path class="st4" d="M1071.9,751.4h135.9c0-0.5,0-0.9,0-1.6c0-3.5-0.5-7-0.9-10.3h-135V751.4z"/>
			</g>
		</g>
		<g>
			<g>
				<g>
					<path class="st9" d="M1169.6,802H878.8c-9.6,0-17.3-7.7-17.3-17.3v-69.6c0-9.6,7.7-17.3,17.3-17.3h290.9
						c9.6,0,17.3,7.7,17.3,17.3v69.6C1187,794.3,1179.2,802,1169.6,802z"/>
				</g>
			</g>
			<g>
				<g>
					<g>
						<path class="st10" d="M903.4,772.3c-1.2,0-2.3-0.9-2.3-2.1v-42c0-1.2,0.9-2.1,2.3-2.1h14.1c6.1,0,16.2,2.8,16.2,13.8
							c0,3.8-1.4,7-4.2,9.1c3.8,2.6,4.9,6.8,4.7,9.1c0,10.3-8.7,14.1-16.6,14.1h-14.2V772.3z M917.4,761.3c2.3,0,5.4-0.5,5.4-3.3
							s-3.5-3-4.9-3h-5.2v6.3H917.4L917.4,761.3z M917.4,743.7c0.2,0,4.7,0,4.7-3c0-3.3-4.2-3.5-4.7-3.5h-4.9v6.6L917.4,743.7
							L917.4,743.7z"/>
					</g>
					<g>
						<path class="st10" d="M925.9,749.3c6.8,2.3,6.6,8.9,6.6,8.9c0,12-12.2,12.4-15,12.4h-14.1c-0.5,0-0.7-0.2-0.7-0.5v-42
							c0-0.2,0.2-0.5,0.7-0.5h14.1c0,0,14.5-0.2,14.5,12.2C932,745.1,929.1,747.9,925.9,749.3z M911.1,745.3h6.3c0,0,6.3,0,6.3-4.7
							c0-5.2-6.3-5.2-6.3-5.2h-6.3V745.3z M924.2,758c0-5.2-7-4.7-7-4.7h-6.3v9.6h6.3C920,762.9,924.2,762.2,924.2,758z"/>
					</g>
				</g>
			</g>
			<g>
				<g>
					<path class="st4" d="M913.4,795c-24.8,0-45.2-20.2-45.2-45.2s20.2-45.2,45.2-45.2h103.8v-14.1H913.4
						c-32.6,0-59.3,26.5-59.3,59.3s26.5,59.3,59.3,59.3h103.8V795H913.4z"/>
				</g>
				<g>
					<path class="st9" d="M1134.7,795c24.8,0,45.2-20.2,45.2-45.2s-20.2-45.2-45.2-45.2h-117.4V795H1134.7L1134.7,795z"/>
				</g>
				<g>
					<path class="st4" d="M1194,750c0-32.6-26.5-59.3-59.3-59.3h-117.4v14.1h117.4c24.8,0,45.2,20.2,45.2,45.2s-20.2,45.2-45.2,45.2
						h-117.4v14.1h117.4C1167.5,809.1,1194,782.6,1194,750z"/>
				</g>
			</g>
			<g>
				<g>
					<rect x="961.3" y="697.7" class="st4" width="14.1" height="104.5"/>
				</g>
			</g>
			<g>
				<g>
					<rect x="1067.2" y="697.7" class="st4" width="14.1" height="104.5"/>
				</g>
			</g>
			<g>
				<g>
					<g>
						<path class="st10" d="M1116.6,749.5v-20.9c0-0.2,0.2-0.5,0.5-0.5h4.7c0.5,0,0.7,0.2,0.7,0.5v21.1c0.5,4.5,4.2,6.8,8.2,6.8
							c4.2,0,8.2-2.1,8.2-6.8v-21.1c0-0.2,0.2-0.5,0.7-0.5h4.7c0.2,0,0.5,0.2,0.5,0.5v20.9c0,8-6.1,12.4-14.1,12.4
							C1123,762,1116.6,757.3,1116.6,749.5z"/>
					</g>
				</g>
			</g>
			<g>
				<g>
					<g>
						<path class="st10" d="M1027.3,735.2l-6.1,28.1h4.2c0.5,0,0.5,0.2,0.5,0.5l-1.4,6.3c0,0.2-0.2,0.5-0.7,0.5H1007
							c-0.5,0-0.5-0.2-0.5-0.5l1.4-6.3c0-0.2,0.5-0.5,0.7-0.5h4.5l6.1-28.1h-4c-0.5,0-0.5-0.2-0.5-0.5l1.4-6.3
							c0-0.2,0.5-0.5,0.7-0.5h16.4c0.5,0,0.5,0.2,0.5,0.5l-1.4,6.3c0,0.2-0.5,0.5-0.7,0.5H1027.3z"/>
					</g>
				</g>
			</g>
			<g>
				<g>
					<rect x="1107" y="766.4" class="st10" width="47.1" height="4.5"/>
				</g>
			</g>
		</g>
		<g>
			<g>
				<path class="st11" d="M1491.2,229.5c-17.6-26-47.6-43.4-81.3-43.4c-54.4,0-98.4,44.1-98.4,98.4c0,29.5,13.1,56,33.5,74.1
					c11,9.6,24.1,16.9,38.4,20.9c0.7,0.2,1.4,0.2,1.9,0.5l-11,35.4c0,0,57.7-34.9,58.4-35.2c43.4-10.3,75.5-49.2,75.5-95.9
					C1508,264.1,1502,245.4,1491.2,229.5z"/>
			</g>
			<g>
				<g>
					<g>
						<path class="st3" d="M1437.5,296.3c0-0.5,0.5-0.9,1.2-0.9h11.5c0.7,0,1.2,0.5,1.2,0.9v26.5c0,0.5-0.5,0.9-1.2,0.9h-11.5
							c-0.7,0-1.2-0.5-1.2-0.9V296.3z M1456.7,296.3c0-0.5,0.5-0.9,1.2-0.9h11.3c0.7,0,1.2,0.5,1.2,0.9v26.5c0,0.5-0.5,0.9-1.2,0.9
							h-11.3c-0.7,0-1.2-0.5-1.2-0.9V296.3z"/>
					</g>
				</g>
				<g>
					<path class="st3" d="M1462.3,323c0,0,1.6,8-4.9,9.4v4.2h0.5c6.8,0,12.4-5.6,12.4-12.4V323H1462.3z"/>
				</g>
				<g>
					<path class="st3" d="M1443.4,323c0,0,1.6,8-4.9,9.4v4.2h0.5c6.8,0,12.4-5.6,12.4-12.4V323H1443.4z"/>
				</g>
			</g>
			<g>
				<g>
					<g>
						<path class="st3" d="M1343.3,249.4c0-0.5,0.5-0.9,1.2-0.9h11.5c0.7,0,1.2,0.5,1.2,0.9v26.5c0,0.5-0.5,0.9-1.2,0.9h-11.5
							c-0.7,0-1.2-0.5-1.2-0.9V249.4z M1362.5,249.4c0-0.5,0.5-0.9,1.2-0.9h11.3c0.7,0,1.2,0.5,1.2,0.9v26.5c0,0.5-0.5,0.9-1.2,0.9
							h-11.3c-0.7,0-1.2-0.5-1.2-0.9V249.4z"/>
					</g>
				</g>
				<g>
					<path class="st3" d="M1351.5,249.4c0,0-1.6-8,4.9-9.4v-4.2h-0.5c-6.8,0-12.4,5.6-12.4,12.4v1.2H1351.5z"/>
				</g>
				<g>
					<path class="st3" d="M1370.5,249.4c0,0-1.6-8,4.9-9.4v-4.2h-0.5c-6.8,0-12.4,5.6-12.4,12.4v1.2H1370.5z"/>
				</g>
			</g>
		</g>
		<g>
			<path class="st12" d="M1645.6,671.5L1645.6,671.5c0,75.9-61.6,137.6-137.6,137.6V533.9C1584,533.9,1645.6,595.5,1645.6,671.5z"/>
		</g>
		<g>
			<path class="st13" d="M1370.5,671.5L1370.5,671.5c0-75.9,61.6-137.6,137.6-137.6l0,0v275.4l0,0
				C1432.1,809.1,1370.5,747.4,1370.5,671.5z"/>
		</g>
		<g>
			<path class="st14" d="M1425.3,561.3L1425.3,561.3L1425.3,561.3L1425.3,561.3z"/>
		</g>
		<g>
			<path class="st14" d="M1433.3,787c-0.5-0.2-0.9-0.7-1.4-0.9C1432.3,786.3,1432.8,786.8,1433.3,787z"/>
		</g>
		<g>
			<path class="st14" d="M1370.9,660.5L1370.9,660.5L1370.9,660.5L1370.9,660.5z"/>
		</g>
		<g>
			<path class="st14" d="M1372.8,646.6c0-0.2,0-0.7,0.2-0.9C1372.8,645.9,1372.8,646.4,1372.8,646.6z"/>
		</g>
		<g>
			<path class="st14" d="M1424.4,780.7c0.2,0.2,0.5,0.2,0.7,0.5C1424.6,780.9,1424.6,780.9,1424.4,780.7L1424.4,780.7z"/>
		</g>
		<g>
			<path class="st14" d="M1440.8,791.5L1440.8,791.5L1440.8,791.5L1440.8,791.5z"/>
		</g>
		<g>
			<path class="st14" d="M1371.4,659.1c0-0.5,0-0.7-0.2-1.2c0,0.7-0.2,1.6-0.2,2.3v0.2l0,0C1371.2,660,1371.4,659.5,1371.4,659.1z"
				/>
		</g>
		<g>
			<path class="st14" d="M1470.1,539.3c0.9-0.2,1.6-0.5,2.6-0.7C1471.7,538.8,1470.8,539.1,1470.1,539.3z"/>
		</g>
		<g>
			<path class="st14" d="M1466.1,540.5L1466.1,540.5L1466.1,540.5L1466.1,540.5z"/>
		</g>
		<g>
			<path class="st14" d="M1487.9,535.3c0.7,0,1.4-0.2,1.9-0.2C1489.3,535.1,1488.6,535.3,1487.9,535.3z"/>
		</g>
		<g>
			<path class="st14" d="M1481.3,536.5C1481.1,536.5,1481.1,536.5,1481.3,536.5s0.7,0,0.9-0.2C1482,536.3,1481.6,536.5,1481.3,536.5
				z"/>
		</g>
		<g>
			<path class="st14" d="M1464.9,540.7c-0.7,0.2-1.4,0.5-2.1,0.7c0.7-0.2,1.6-0.5,2.3-0.7C1465.2,540.7,1465.2,540.7,1464.9,540.7z"
				/>
		</g>
		<g>
			<path class="st14" d="M1508,542.8c0.5-0.5,1.2-0.9,1.4-0.9c1.6-0.7,2.8-2.1,2.8-3.8c0-0.7-0.2-1.4-0.9-1.6c0,0,0,0-0.2,0
				c-0.7-0.2-1.9-0.7-3-0.7l0,0L1508,542.8L1508,542.8z"/>
		</g>
		<g>
			<g>
				<path class="st15" d="M1436.8,667.3h-0.2l0,0c-0.9,0.2-1.4,1.4-1.4,2.1c0,0.5,0,0.9,0.2,1.4s0.7,0.7,1.2,0.7l0,0
					c0.2,0,0.5,0,0.5,0c0.9-0.2,1.2-1.2,1.2-1.9C1438.4,668.4,1438,667.3,1436.8,667.3z"/>
			</g>
			<g>
				<path class="st15" d="M1415.5,581c-0.2,0-0.5,0-0.7,0.2c-0.5,0.2-1.2,0.7-1.2,1.4c0,1.2,0.9,1.4,1.6,1.6c0.2,0,0.5,0,0.7-0.2
					c0.5-0.2,0.9-0.9,0.9-1.4s-0.2-0.7-0.5-0.9C1416.2,581.3,1415.7,581,1415.5,581z"/>
			</g>
			<g>
				<path class="st15" d="M1430.7,665.2c-0.5-0.2-0.7-0.2-1.2-0.2c-0.9,0-1.6,0.2-2.1,0.2c-0.7,0.2-1.4,0.9-2.1,1.6
					c-0.7,0.7-1.2,1.4-1.2,1.4c-0.2,0.2-0.2,0.5-0.2,0.7s0.2,0.5,0.5,0.5c0,0,1.4,0.2,2.6,0.2c0.5,0,0.9,0.5,1.9,1.2
					c0.2,0.2,0.5,0.2,0.9,0.2c0.7,0,1.2-0.2,1.6-0.5c0.2,0,0.5-0.2,0.5-0.2l0,0l0.2,0.2c0.2,0.2,0.2,0.5,0.9,0.5
					c0.5,0,0.7-0.5,0.9-0.7c0-0.2,0.2-0.5,0.2-0.9v-0.2C1434,666.6,1431.9,665.4,1430.7,665.2z"/>
			</g>
			<g>
				<path class="st15" d="M1441.5,789.6c0-0.2,0-0.5-0.2-0.7s-0.5-0.2-0.7-0.2c-0.5,0-0.7,0.2-0.9,0.2c0,0,0,0,0-0.2
					c-0.2-0.2-0.2-0.7-0.5-1.2c0.2,0,0.5,0.2,0.7,0.2c0.5,0.2,1.2,0.5,1.9,0.5c0.2,0,0.5,0,0.5,0c0.2,0,0.7,0,0.9-0.5
					c0.2-0.2,0.2-0.7,0.2-0.9c0-0.7-0.2-1.2-0.2-1.6V785c0-0.2,0-0.7,0.2-0.9l0,0c0.5,0.2,0.9,0.2,1.4,0.2c1.6,0,4-0.5,4.5-0.5
					c0.5-0.2,0.7-0.5,0.9-0.9c0.7-0.9,1.6-3,1.9-3.5s0.5-1.2,0.5-1.6c0-0.5-0.2-1.2-0.7-1.6c0,0,0,0-0.2-0.2
					c0.7,0.2,1.2,0.5,1.9,0.5c1.2,0,2.1-0.5,3-1.9c1.6-2.1,3-3.3,3.3-5.2c0-1.2,0.5-2.3,0.7-2.6c0,0,0.2,0.2,0.7,0.2
					c0.2,0,0.7-0.2,0.9-0.5s0.2-0.7,0.5-1.2c0.5-0.9,0.7-1.4,1.2-1.9c0.2-0.5,0.9-0.9,1.2-2.1c0.2-0.5,0.2-0.9,0.2-1.4
					c0-1.4-0.5-2.3-0.5-3.3c0-0.5,0-0.5,0.2-0.7c1.6-1.4,4.2-3,4.2-3s0.2,0,0.5-0.2c0.5-0.2,0.9-0.5,1.6-0.7s1.4-0.2,2.1-0.5
					c0.7,0,1.6-0.2,2.1-1.2c0.5-1.2,1.2-3.3,1.9-4.2c0.7-1.2,1.4-2.6,1.6-4c0-0.2,0-0.5-0.2-0.7l0,0c0-0.5,0.2-1.4,0.5-2.3
					c0.2-0.9,0.5-1.9,0.5-2.6c0,0,0,0,0-0.2c0-0.7-0.5-1.6-0.5-2.6c0-0.7,0.2-1.4,0.9-2.1c0.9-1.2,2.1-2.3,2.8-3.5
					c0-0.2,0.2-0.2,0.2-0.5c0.7-0.9,1.2-1.6,1.2-2.3c0-0.2,0.5-1.4,0.9-2.3c0.2-1.2,0.7-2.3,0.7-3.5v-0.2c-0.2-2.1-1.6-4-2.8-4.7
					l0,0c-1.2-0.5-3-0.7-3.5-1.9c-0.5-0.7-1.2-1.4-1.9-1.9s-1.4-0.9-2.3-0.9c-0.2,0-0.2,0-0.5,0c-0.5,0-0.9,0.2-1.4,0.2
					s-0.7,0-1.2-0.5c-1.2-0.9-2.8-1.9-3.3-2.3c-0.9-0.9-2.6-1.4-3.5-1.4c-0.2,0-0.2,0-0.7,0c-0.2,0-0.5,0-0.7,0.2
					c0-0.5-0.2-0.9-0.5-1.2c-0.5-0.5-0.9-0.5-1.4-0.5l0,0c0.2-0.2,0.5-0.5,0.7-1.2c0-0.5,0-1.2-0.2-1.9s-0.7-1.4-1.6-1.4l0,0l0,0
					c-0.2-0.2-0.5-1.9-1.9-3.5c-1.4-2.1-3.3-3.5-5.2-3.5c-0.2,0-0.5,0-0.7,0c-0.7,0.2-1.4,0.2-1.6,0.2c-0.5,0-0.7,0-0.9-0.9
					c-0.9-2.1-1.9-2.6-2.3-3.3c-0.2-0.7-0.9-0.9-1.4-0.9s-0.7,0-0.9,0c-0.2-0.2-0.2-0.2-0.2-0.2c-0.2-0.2-0.5-0.2-0.7-0.2
					c0.7-1.4,1.2-3,1.2-4.2c0-0.2,0-0.2,0-0.5c0,0,0-0.2-0.2-0.2c0-0.2-0.2-0.2-0.5-0.2h-0.2c-0.5,0.2-0.5,0.5-0.5,0.7
					c-0.2,0.5-0.5,0.9-0.7,1.2c0,0,0,0,0,0.2c-0.2-0.2-0.5-0.7-1.2-1.2c-0.5-0.5-1.2-0.5-1.9-0.5c-0.7,0-1.2,0-1.6,0.5
					c-0.5,0.2-0.9,0.7-0.9,1.4v-0.2c-0.5-0.9-1.4-1.4-2.1-1.4s-1.4,0.2-1.9,0.7c0-0.2-0.2-0.7-0.5-0.9c0-0.2-0.2-0.5-0.5-0.9
					c-0.2-0.2-0.2-0.7-0.9-0.7c-1.2,0-2.3,0.9-3.3,2.8c0,0.2,0,0.2-0.2,0.5c0-0.2,0-0.5,0-0.5c0-0.2,0.2-0.7,0.5-1.2
					c0.2-0.5,0.5-0.9,0.5-1.6c0-0.5-0.5-1.2-0.9-1.2c-0.2,0-0.2,0-0.5,0c-0.9,0-1.6,0.5-2.1,0.9c-0.2,0.2-0.5,0.5-0.7,0.7l-0.2,0.2
					l0,0c-0.9,0.2-2.3,1.6-3.3,3c-0.7,1.4-1.2,2.1-1.6,2.3c0,0-0.2,0-0.5,0h-0.2c0-0.5-0.2-0.7-0.5-0.9c-0.7-0.7-1.6-1.4-2.6-1.4
					c-0.2,0-0.7,0-0.9,0.5c0,0.2-1.4,0.9-2.6,1.6h-0.2c-0.2,0-1.2-0.9-1.2-1.2c-0.5-0.9-0.7-0.7-0.9-2.8v-0.7c0-1.9,0.2-3.8,0.7-4.9
					c0-0.2,0-0.2,0-0.5c0-1.2-0.5-2.1-1.2-2.8s-1.4-1.4-2.3-1.6h-0.2c-0.5,0.2-1.2,0.5-1.4,0.7c-0.5,0.2-0.7,0.5-0.9,0.5l0,0
					c-0.2,0-0.2,0-0.5-0.2c-0.2-0.2-0.5-0.2-1.2-0.2c0.2-0.2,0.2-0.7,0.2-0.9s0-0.7,0-0.9c0-0.5,0-1.2,0-1.6c0-0.9,0-1.4,0.7-2.1
					c0.9-0.7,1.2-2.1,1.2-3c0-0.7,0-1.2-0.2-1.9c-0.2-0.5-0.5-0.9-1.2-1.2c-0.2,0-0.2,0-0.5,0c-0.9,0-2.1,0.5-3,0.5h-0.2h-0.2
					c-1.4,0-2.3,1.4-2.3,2.8c0,0.2,0,0.7,0,0.9s0,0.2,0,0.5c0,0.2,0,0.5-0.2,0.7l0,0c-0.2-0.2-0.5-0.5-1.2-0.5
					c-0.5,0-1.2,0.2-1.9,0.9c-0.5,0.5-0.9,0.7-0.9,0.7c-0.2,0-0.7-0.2-1.6-1.2c-1.4-1.6-2.8-2.8-3-4.9c0-1.2-0.2-2.3-0.2-3.3
					s0-1.9,0.2-2.3c0.2-0.7,0.5-1.6,0.5-2.3c0-0.5,0-0.9-0.2-1.4c0-0.2-0.2-0.7-0.5-0.9l0,0c0.2-0.5,1.2-0.9,1.4-1.2
					c1.2-0.5,2.6-1.9,3-2.8c0,0,0.5,0,0.9,0h1.4c1.4,0,1.4,0,2.8,0.9c0.5,0.2,0.7,0.5,1.2,0.5c0.7,0,1.2-0.5,1.4-0.9
					c0.2-0.5,0.2-0.9,0.2-1.2c0,0,0-0.7,1.2-0.7h0.2c0.2,0,0.2,0,0.5,0c1.2,0,2.6-0.2,3.3-0.2l0,0c0,0.2,0.2,0.7,0.5,0.9
					c0.2,0.5,0.7,1.2,1.4,1.2c0.2,0,0.5,0,0.7-0.2l0.2-0.2c0.2,0.9,0.5,2.3,0.7,3.3c0.5,1.2,0.7,2.3,1.9,2.6c0.2,0,0.2,0.2,0.5,0.9
					c0,0.2,0.2,0.7,0.2,0.9c0.2,0.2,0.7,0.7,1.2,0.7h0.2c0.5,0,0.9-0.2,1.2-0.5c0.7-0.9,0.9-2.3,0.9-3.5c0-0.5,0-0.9-0.2-1.2
					c-0.2-0.5-0.5-1.9-0.7-2.8c-0.2-1.2-0.7-2.3-1.2-2.8c0,0-0.2-0.5-0.2-0.9c0-0.7,0.2-1.4,0.7-1.6c0.9-0.5,1.9-1.4,3-2.6
					s2.1-2.1,2.6-2.6c0.2-0.2,0.9-0.7,1.6-1.2c0.5-0.5,1.4-0.9,1.4-2.1c0-0.2,0-0.7-0.2-0.9c-0.5-0.9-0.9-1.6-0.9-2.3
					c0.2,0.2,0.5,0.2,0.7,0.2c0.7,0,0.9-0.5,1.4-0.9c0.2-0.5,0.7-0.9,0.7-1.6c0-0.2,0-0.5-0.2-0.7c0-0.2,0-0.5,0-0.7V627l0,0h0.2
					c0.5,0,0.9-0.2,1.2-0.5c0.2-0.2,0.2-0.7,0.2-1.2c0-0.2,0-0.7-0.2-0.9c0.2-0.2,0.5-0.2,0.7-0.2h0.2c0.2,0,0.7,0,0.9,0
					c0.7,0,1.4,0,1.9-0.2s1.2-0.5,1.6-0.9c0-0.2,0.2-0.5,0.2-0.7c0-0.7-0.2-0.9-0.5-1.4c-0.2-0.2-0.2-0.7-0.2-0.9s0.2-0.9,0.7-1.2
					c0.5-0.5,0.9-0.7,1.2-0.7c0.5,0,0.9,0,1.4-0.2c0.2,0,0.5,0,0.7,0s0.5-0.2,0.7-0.7l0.2-0.2c0,0.5,0,1.2,0,1.6
					c0,0.5,0.2,0.7,0.5,1.2c0.2,0.2,0.7,0.7,1.2,0.7c0.9,0,1.4-0.5,2.1-0.9c0.2-0.2,0.5-0.5,0.7-0.5l0.2-0.2l0,0
					c0.5-0.2,2.8-0.9,3.3-0.9c0,0,0.9-0.2,1.9-0.5c0.5,0,0.9-0.2,1.2-0.5s0.7-0.7,0.7-1.2c0-0.2,0-0.2,0-0.5c-0.5-1.2-0.7-2.3-1.4-3
					c0-0.2-0.5-0.5-0.7-0.5c-0.5,0-0.7,0.2-0.9,0.7c-0.2,0.2-0.5,0.5-0.7,0.9c-0.2,0.2-0.2,0.2-0.5,0.2s0,0,0,0s0-0.5,0-1.2
					c0-0.2,0-0.5,0-0.7s-0.2-0.7-0.9-0.7c-0.2,0-0.5,0-0.7,0.2c-0.5,0.2-0.7,0.7-0.9,0.9l0,0c0,0-0.2-0.2-0.2-0.5l0,0
					c0.2-0.2,0.5-0.7,0.5-1.4c0-0.5,0-0.9-0.5-1.4l0,0c0,0.2,0.5,0.9,1.2,0.9c0.5,0,1.2-0.2,1.6-0.7c0.2-0.2,0.5-0.2,0.7-0.5
					c0.2-0.2,0.5-0.5,0.5-0.7l0,0c0.5,0,1.2-0.2,1.6-0.7c0.7-0.7,1.6-0.7,2.3-1.2c0.5-0.5,0.7-0.9,0.9-1.2c0.2-0.5,0.5-0.5,0.5-0.5
					s0,0,0.2,0.2c0,0.2,0,0.5-0.5,0.9c-0.9,0.7-1.2,1.6-1.6,2.6c-0.2,0.9-0.5,1.6-0.7,1.6c-0.2,0.2-0.5,0.7-0.5,1.2s0.2,0.7,0.5,0.9
					c0.2,0.2,0.7,0.5,1.2,0.5h0.2c0.2,0,0.5,0,0.7,0s0.7,0,1.2,0s0.7,0,1.2-0.2h0.2c0.2,0,0.5,0.2,0.7,0.5c0,0.2,0.5,0.5,0.7,0.5
					c0.5,0,0.7-0.2,0.9-0.5l0.2-0.2l0,0c0.2,0,0.5,0,0.7,0s0.5,0,0.5,0c0.2,0.2,0.5,0.5,0.9,0.7c0.5,0,0.7-0.5,0.9-0.7
					c0-0.2,0-0.5,0-0.9c0-0.5,0-0.7-0.2-1.2c-0.5-0.9-0.9-1.6-1.2-2.6s-0.9-1.6-1.9-1.6c-0.2,0-0.5,0-0.9,0.2c-0.2,0-0.2,0-0.2,0
					c-0.2,0-0.2,0-0.2-0.2c-0.2,0-0.5-0.5-0.7-0.7h-0.2c0.2-0.7,0.7-1.2,0.9-2.1c0-0.2,0.2-0.7,0.7-1.2c0.2-0.5,0.5-0.9,0.5-1.6
					s-0.5-1.4-1.2-1.6c-0.9-0.2-1.4-0.5-1.6-0.7s-0.2-0.2-0.5-0.7c-0.2-0.7-0.9-1.6-1.4-2.1c-0.2-0.2-0.7-0.7-0.9-0.9
					s-0.5-0.2-0.9-0.5c-0.2,0-0.9,0-1.4,0c-0.2,0-0.5,0-0.5-0.2c-0.2-1.2-1.6-2.8-2.3-3.8c-0.2-0.5-1.2-1.6-1.9-2.6
					c-0.5-0.5-0.7-1.2-1.2-1.4c-0.2-0.5-0.5-0.7-0.7-0.9c0-0.2-0.5-0.2-0.7-0.2c-0.9,0-1.4,0.7-2.3,2.3c-0.9,1.4-1.4,1.6-1.9,1.6
					c0,0-0.2,0-0.5,0c-0.5-0.2-0.7-0.5-0.9-0.5c0,0-0.2-0.2-0.7-0.9c0-0.2,0-0.2,0-0.2s0,0,0.2-0.2s0.5-0.5,0.5-1.2
					c0-0.2,0-0.5-0.2-0.5c-0.5-0.7-1.2-0.9-2.1-1.4c-0.7-0.2-1.6-0.2-2.3-0.5c-0.2,0-0.9-0.5-1.4-0.9c-0.7-0.5-1.6-1.2-2.8-1.2
					c-0.2,0-0.5,0-0.9,0c-1.9,0-3.8,0.5-4.2,0.5c-0.2,0-0.7,0.2-0.9,0.5c-0.5,0.9-0.5,1.9-0.7,3c0,0.2,0,0.5,0,0.7
					c0,0.5,0,0.9,0.2,1.2c0,0,0,0,0,0.2c-0.2,0-0.7,0.2-0.9,0.2c-0.2,0-0.2,0.2-0.5,0.2c0,0-0.2,0.2-0.2,0.7s0.2,0.7,0.5,0.7
					c0.2,0.2,0.5,0.2,0.7,0.5c0.5,0.2,1.2,0.9,1.6,1.6c0.2,0.5,0.7,0.9,0.7,1.2c0,0,0,0.2,0,0.5c0,0.5-0.2,0.9-0.7,1.2
					c-0.5,0.5-1.2,0.9-1.2,0.9l0,0c-0.2-0.7-0.9-1.2-1.6-1.2c-0.2,0-0.7,0-0.9,0.2s-0.5,0.5-0.5,0.9c0,0.2,0,0.5,0,0.7
					c0.2,0.7,0.5,0.9,0.7,1.4c0.2,0.2,0.2,0.5,0.2,0.7c0,0.7,0.2,1.2,0.2,1.9c0.2,0.7,0.2,1.2,0.2,1.6c0,0.2,0,0.2,0,0.2
					c-0.2,0.2-0.2,0.2-0.5,0.2s-0.7,0-1.2,0h-0.2c0,0-0.2-0.2-0.2-0.5c0.5-0.5,0.5-0.9,0.5-1.2c0-0.9-0.2-2.3-0.2-2.3
					c0-0.2-0.2-0.5-0.5-0.5c-0.2,0-0.5,0-0.7,0.5c0,0,0,0.2-0.2,0.5c0-0.2-0.2-0.5-0.2-0.7c-0.2-0.2-0.2-0.5-0.2-0.9
					c0-0.7,0-1.2-0.5-1.6s-0.9-0.5-1.4-0.5c-0.2,0-0.5,0-0.9,0c0,0-0.2,0-0.5,0c-0.9,0-2.3-0.7-4.2-1.2c-2.3-0.5-3-0.7-4.7-1.9
					c-0.7-0.5-1.4-0.7-2.1-0.7s-1.2,0.2-1.6,0.5v-0.2c-9.6,13.1-16.9,28.1-21.3,44.1c-0.9,3.8-1.9,7.3-2.6,11c0,0.2,0,0.7-0.2,0.9
					c-0.7,3.8-1.2,7.5-1.6,11.2l0.7-0.2c0,0,0,0,0,0.2c0.2,0.2,0.2,0.5,0.7,0.5c0,0,0.7,0.7,1.2,1.2s0.7,0.9,0.9,1.2
					c0,0,0.2,0.5,0.2,0.7c0.2,0.5,0.2,0.9,0.2,1.2l0,0c-0.2,0.2-0.2,0.5-0.2,0.9c0,1.4,0.7,3,1.9,4c0.9,0.7,4.7,2.8,5.2,3.3
					c0,0,0.5,0.7,1.2,1.4c0.5,0.7,1.2,1.4,2.3,1.4c1.4,0,2.3,0.2,2.3,0.5s0.5,0.7,0.7,1.2c0.5,0.5,0.7,0.9,1.6,0.9
					c0.5,0,0.9-0.2,1.2-0.7c0.5-0.7,0.7-0.9,0.7-1.2c0.2-0.2,0.2-0.2,0.7-0.2s0.5,0.2,0.9,0.5c0.2,0.2,0.5,0.9,0.9,1.4
					c0.2,0.5,0.9,1.2,1.6,1.9s1.4,1.2,2.3,1.4h0.2l0,0c0,0,0.5,0,0.9,0.5c0.5,0.2,0.7,0.5,1.4,0.5c0.2,0,0.5,0,0.7-0.2l0,0
					c0.2,0,0.9,0.5,1.4,0.7s1.9,1.4,1.9,2.6v0.5c0,2.3,1.6,3,2.1,3.3c0.7,0.5,1.6,1.6,2.3,2.3c0.5,0.7,1.2,0.9,1.6,1.2
					c0.2,0,0.5,0.2,0.7,0.2h0.2l0,0c0,0,0.2,0.2,0.5,0.7c0.2,0.2,0.5,0.7,1.2,0.7c0.5,0,0.7-0.2,1.2-0.5c0.9-0.7,1.2-1.6,1.2-2.3
					l0,0c0.2,0,0.7,0,0.7,0.2c0.2,0,0.5,0.7,0.7,1.4c0,0.2,0.2,0.7,0.2,0.9c0.2,0.2,0.2,0.5,0.5,0.9c0,0,0.2,0.5,0.2,0.9
					c0,0.5,0.2,1.2,0.2,1.9c0,0.5,0,0.9,0,1.2c-0.2,0.9-0.5,2.1-0.5,2.6c0,0.2,0,0.5,0,0.5c-0.2,0.2-0.5,0.5-0.7,0.5
					c-0.2,0.5-0.5,0.9-0.7,1.4s-0.5,0.7-0.7,0.7c-0.5,0.2-1.2,0.9-1.9,1.9c-0.5,0.9-1.2,1.6-1.2,2.3v0.2c0,0.5,0.5,1.2,0.7,2.1
					c0.2,0.7,0.5,1.6,0.5,2.1v0.2c0,0.2-0.5,0.7-0.7,1.4c-0.5,0.7-0.9,1.4-0.9,2.6c0,0.2,0,0.5,0,0.7c0.2,1.4,1.4,2.1,2.1,2.6
					s1.2,0.9,1.2,1.4c0,1.2,0.7,2.3,1.2,3.8c0.5,1.4,1.2,2.8,1.2,3.3c0.2,1.2,0.9,2.1,1.4,3s0.9,1.9,0.9,2.8c0,1.6,0.9,2.6,1.9,3.5
					c0.9,0.7,1.9,1.2,2.3,1.4c0,0,0.5,0.2,0.9,0.7c0.5,0.5,0.9,0.9,1.6,1.4s1.4,1.2,2.1,2.6c0.2,0.7,0.5,2.1,0.5,2.8
					c0,0.2,0,0.5,0,0.7c0,0.5-0.2,5.6-0.7,8.7c0,0.7,0,1.2,0,1.9c0,1.4,0.2,2.6,0.2,3.3c0,0.5,0,0.7-0.2,0.7
					c-0.5,0.7-1.4,1.2-1.4,2.6c0,0.5,0.2,0.9,0.5,1.2l0,0c0,0-0.2,0.2-0.5,0.5c-0.2,0-0.2,0.2-0.5,0.5c0,0-0.2,0.2-0.2,0.7
					s0.2,0.9,0.5,1.6c0.2,0.7,0.2,1.4,0.2,1.9c0,0.2,0,0.5,0,0.5c-0.5,1.2-0.9,3-1.4,4c-0.2,0.7-1.2,1.9-1.2,3.3c0,0.2,0,0.5,0,0.7
					v0.2c0,0.2,0,0-0.2,0.5c-0.2,0.2-0.9,0.9-0.7,1.9l0,0c0.2,0.2,0.5,0.2,0.7,0.5c2.3,1.6,4.5,3.3,6.8,4.9c0.5,0.2,0.9,0.7,1.4,0.9
					c2.3,1.6,4.9,3,7.5,4.5l0,0c0.2-0.2,0.5-0.7,0.5-1.2C1441.5,790.1,1441.5,789.8,1441.5,789.6z"/>
			</g>
			<g>
				<path class="st15" d="M1405.4,580.1c0.2,0.2,0.2,0.2,0.5,0.2s0.7,0,0.9,0c0.7,0,1.4-0.2,2.1-0.7c0.5-0.2,0.9-0.5,0.9-0.7
					c0,0,0.2-0.2,0.5-0.2c0.2-0.2,0.7-0.2,0.9-0.2h0.2l0,0c0.2,0.5,0.2,0.9,0.5,1.4c-0.2-0.2-0.7-0.2-1.2-0.5
					c-0.5,0-1.2,0.2-1.4,0.9c0,0.2-0.2,0.5-0.2,0.5c0,0.7,0.5,0.9,0.9,1.2c0.5,0.2,0.7,0.2,1.2,0.2c0.2,0,0.9,0,1.2-0.7
					c0-0.2,0-0.5,0-0.5c0-0.2,0-0.5,0-0.5c0.2,0.2,0.5,0.5,0.9,0.2c0.5,0,1.2-0.2,1.6-0.5s0.9-0.9,0.9-1.6s-0.5-1.2-0.9-1.6
					c-0.2-0.2-0.5-0.2-0.5-0.5c1.6,0,3-0.2,3-0.2c0,0.5,0,1.2,0.2,1.6c0,0.2,0.2,0.5,0.2,0.7c0.2,0.2,0.5,0.5,0.9,0.5
					c0,0,0.2,0,0.5,0c0.5-0.2,1.2-0.2,2.1-0.7c0,0,0.2,0,0.5,0c0.9,0,2.6,0.2,3.5,0.2h0.5c0,0,0,0,0.2,0c0.2,0.2,0.5,0.5,0.9,0.7
					c0.2,0.2,0.5,0.5,1.2,0.5h0.2c0.2,0.2,0.7,0.7,1.4,1.2c0.2,0.2,0.5,0.2,0.7,0.2s0.7-0.2,0.7-0.2l0.2-0.2c0,0,0.2,0,0.2,0.2
					c0.7,0.7,0.7,0.9,0.7,0.9s0.2,0.5,0.5,0.5s0.2,0,0.5,0l0,0c0.7,0,2.3,0.2,2.3,0.2c0.2,0,0.2,0,0.5-0.2c0-0.2,0.2-0.2,0.2-0.5
					l0,0c0-0.2,0-0.2,0.2-0.5c0,0,0-0.2,0.2-0.2c0,0,0,0,0.2,0s0.7,0.2,1.2,0.7c0.2,0,0.2,0.2,0.5,0.5c0.2,0,0.2,0.2,0.7,0.2
					c0.2,0,0.7-0.2,0.7-0.5s0-0.5,0-0.7v-0.2c0-0.7,0-1.2,0-1.9s-0.5-1.4-0.9-2.1c-0.7-0.5-1.4-0.9-1.9-1.4
					c-0.2-0.2-0.5-0.2-0.7-0.5h-0.2l0,0c0-0.2-0.2-0.5-0.2-0.5c0.5,0,1.6,0.5,2.3,0.9s1.4,1.4,2.6,1.4c0.5,0,0.7,0,1.2-0.5
					c0.7-0.5,1.6-0.9,2.3-1.6c0.5-0.7,1.4-2.1,1.4-2.1c0.2-0.2,0.2-0.5,0-0.7c0-0.2-0.2-0.5-0.5-0.5c0,0-0.9-0.2-2.1-0.5
					c-0.5,0-0.9-0.2-1.4-0.5c-0.2,0-0.2,0-0.5-0.2l0,0c-0.5-0.7-0.9-1.2-1.6-1.6s-1.2-0.7-1.9-0.7c-0.5,0-0.5,0-0.9,0.2
					c-0.2,0-0.5,0.2-0.7,0.2s0,0-0.2-0.5c-0.2-0.7-0.2-1.6-0.5-2.3c0-0.5,0-0.7-0.2-0.9c0-0.2-0.2-0.7-0.7-0.9
					c-0.5,0-1.9-0.5-3.5-0.7c-0.7-0.2-1.4-0.2-2.1-0.5c-0.7,0-1.2-0.2-1.2-0.2c-0.5-0.2-1.4-0.7-2.3-1.2l0,0
					C1418,567,1411.3,573,1405.4,580.1z"/>
			</g>
			<g>
				<path class="st15" d="M1420.6,662.1h-0.2l0,0c-0.2,0-0.9-0.2-1.4-0.7c-0.7-0.5-1.4-0.9-1.6-1.4c-1.4-1.4-3.5-1.4-4.2-1.4
					s-1.6,0.2-2.6,0.7c-0.9,0.2-1.6,0.7-1.6,0.7c-0.2,0-0.5,0.2-0.5,0.7v0.2c0,0.5,0.2,1.2,0.7,1.4s0.9,0.2,1.2,0.2
					c0.5,0,0.9,0,1.6,0s1.6,0,2.6,0c0.5,0,0.9,0,1.4,0c0.2,0,0.2,0,0.5,0l0,0c0.5,0.7,1.2,1.2,1.9,1.6c0.7,0.5,1.4,1.2,1.6,1.4
					c0.7,0.7,1.6,0.7,2.3,0.7c0.2,0,0.7,0,0.9-0.2c0.2,0,0.7-0.2,0.7-0.9l-0.7-0.2l0.7,0.2v-0.2c0-0.7-0.5-1.4-0.9-1.9
					C1422.3,662.8,1421.6,662.3,1420.6,662.1z"/>
			</g>
			<g>
				<path class="st15" d="M1505.9,573.8c-0.9-0.9-2.3-1.2-3.5-1.4c-0.2,0-0.5,0-0.7,0s-0.5,0.2-0.7,0.5c0,0.2-0.2,0.2-0.2,0.5
					c-0.2,0.2-0.5,0.7-0.5,1.2s0.2,0.9,0.5,1.4c0.2,0.7,0.7,1.4,0.9,1.9c0.2,0.5,0.7,0.9,1.4,0.9h0.2c0.2,0,0.5,0,0.9,0
					s0.7,0,0.9,0.2c0.2,0,0.2,0,0.2,0.2l0,0c0.2,0.9,0.9,1.9,2.1,1.9l0,0c0.2,0,0.5,0,0.5-0.2v-7.3c-0.9,0.2-1.6,0.2-1.9,0.2
					C1505.9,574,1505.9,574,1505.9,573.8z"/>
			</g>
			<g>
				<path class="st15" d="M1436.1,554.3L1436.1,554.3c-0.2,0-0.2,0.2-0.5,0.2c0,0,0.2,0,0.2,0.2c0.5,0.2,0.7,0.2,1.2,0.2
					c1.2,0,2.6-0.5,3-0.5l0,0c0.2,0,1.4,0.2,2.6,0.5s2.3,0.7,2.6,0.9c0.7,0.5,1.6,0.7,2.3,0.9c0.7,0.2,1.4,0.9,1.6,1.2
					c0.2,0.5,0.5,2.1,0.7,3.8c0,0.7,0,1.4,0.2,2.1c0,0.7,0,0.9,0.2,1.4c0.2,0.2,0.5,0.5,0.7,0.5h0.2c0,0.5-0.2,0.9-0.2,1.4
					c0,0.7,0,1.2,0.2,1.6c0.2,0.5,0.5,0.9,1.2,0.9h0.9c0,0.2-0.2,0.5-0.5,0.7c-0.2,0.5-0.5,0.9-0.7,1.6c0,0,0,0,0,0.2
					c0.2,1.2,1.2,3.5,1.6,4.5c0.5,0.7,0.9,0.7,1.6,1.2c0,0,0,0,0.2,0c0,0.2,0,0.2,0,0.5s0,0.5,0.2,0.7s0.5,0.9,0.7,1.6
					c0.2,0.7,0.7,1.4,1.4,1.9c0.2,0.2,1.2,0.7,1.9,1.4c0.7,0.5,1.4,1.4,1.4,1.6c0.2,0.5,0.7,0.7,1.2,0.7c0.7,0,1.2-0.2,1.6-0.5
					l0.2-0.2c0,0.2,0,0.5,0.2,0.7c0.2,0.5,0.7,1.4,1.4,1.4h0.5l0,0c0.9,0,1.6-0.5,2.6-1.4c1.2-1.4,0.9-3,0.9-3.8c0-0.2,0-0.7,0-0.9
					l0,0c0.2,0,0.5,0.2,0.7,0.2c0.5,0,0.9-0.2,1.2-0.7c0.2-0.5,0.5-0.9,0.5-1.4v-0.9c0-0.7-0.2-1.4-0.2-1.9l0,0c0,0,0,0,0.5-0.2
					c0.9-0.2,1.9-0.7,2.3-1.2s0.9-0.7,1.2-0.7c0.7,0,2.1,0.2,3.3,0.2c0.2,0,0.5,0,0.7,0s0.5-0.2,0.7-0.5s0.5-0.9,0.9-1.6
					c0.2-0.2,0.5-0.7,0.7-0.9l0.2-0.2l0,0c0,0,0,0,0.2,0c0.9,0,3-0.2,5.2-0.7c1.2-0.2,2.3-0.7,3-1.2s1.6-0.7,1.6-0.7
					c0.2,0,0.5,0,0.9,0c0.2,0,0.7,0,0.9,0c0.2,0,0.2,0,0.5-0.2c0.2,0,0.5-0.5,0.5-0.7s0-0.5-0.2-0.5c0,0,0.2,0,0.5,0s0.5,0,0.7,0
					c1.4-0.2,1.9-1.6,1.9-2.3c0-0.5,0-0.9-0.2-1.4c-0.2-0.2-0.5-1.4-0.7-2.3c0-0.2,0-0.2,0-0.5V561c0,0,0.5-0.2,0.9-0.2
					c0,0,0.2,0,0.5,0c0.7,0,1.4,0.2,2.3,0.2c0.5,0,0.7,0,1.2-0.2s0.7-0.9,0.7-1.4l0,0h-0.7h0.7c0-0.2,0-0.7,0-1.2
					c0-1.4,0.2-2.6,0.5-3.3c0.2-0.2,0.5-0.7,0.7-0.9s0.5-0.5,0.5-1.2c0-0.5-0.2-0.7-0.5-0.9c-0.2-0.2-0.5-0.2-0.7-0.2h-0.2
					c-0.2,0-0.2,0-0.2,0s-0.2-0.2-0.2-0.7c0-0.2,0-0.5,0-0.7c0-0.9,0.5-1.6,1.2-2.1c0.2-0.5,1.4-1.6,2.3-2.8l1.6-1.6v-7l0,0
					c-0.2,0-0.5,0-0.7,0l0,0c-0.7,0.2-1.4,0.5-2.1,1.2s-1.4,1.6-1.9,2.1s-0.9,0.7-1.4,0.7c-0.2,0-0.2,0-0.5,0
					c-0.7-0.2-1.2-0.7-1.6-1.9c-0.5-0.9-0.7-2.1-1.4-3c0,0-0.2-0.2-0.2-0.5c-0.7,0-1.4-0.2-2.1-0.2c-2.1,0.2-4,0.5-5.9,0.7
					c-0.7,0-1.4,0.2-1.9,0.2c-1.9,0.2-3.8,0.7-5.6,0.9c-0.5,0-0.9,0.2-1.2,0.2c-1.2,0.2-2.1,0.5-3.3,0.7c-1.9,0.5-3.5,0.9-5.4,1.4
					c-0.9,0.2-1.6,0.5-2.6,0.7c-1.2,0.5-2.6,0.7-3.8,1.2c0,0,0,0-0.2,0l0,0c-0.2,0-0.5,0.2-0.7,0.2c-0.7,0.2-1.6,0.5-2.3,0.7
					c-0.5,0.2-0.9,0.2-1.6,0.5C1452.5,545.2,1444.1,549.4,1436.1,554.3z"/>
			</g>
			<g>
				<path class="st15" d="M1419.5,669.1h-0.2c-0.9,0.2-1.2,1.4-1.2,2.1c0,0.5,0,0.9,0.2,1.4s0.7,0.7,1.2,0.7l0,0c0.2,0,0.5,0,0.5,0
					c0.9-0.2,1.2-1.2,1.2-1.9C1421.1,670.3,1420.6,669.1,1419.5,669.1z"/>
			</g>
			<g>
				<path class="st15" d="M1418.8,658.4L1418.8,658.4c0.2,0,0.2,0,0.5,0l-0.2-0.7l0.2,0.7c0.7-0.2,1.4-0.7,1.4-1.4
					c0-0.9-0.9-1.6-1.9-1.6h-0.2c-0.7,0-1.4,0.9-1.4,1.6c0,0.5,0.2,0.9,0.5,1.2C1417.8,658.1,1418.3,658.4,1418.8,658.4z"/>
			</g>
		</g>
		<g>
			<path class="st14" d="M1635.8,620.2c0.2,0.5,0.5,0.9,0.5,1.4C1636.3,621.1,1636,620.6,1635.8,620.2z"/>
		</g>
		<g>
			<path class="st14" d="M1627.6,603.3c0.2,0.5,0.5,0.7,0.7,1.2C1628,604.2,1627.8,603.8,1627.6,603.3z"/>
		</g>
		<g>
			<path class="st14" d="M1623.1,595.8c0.2,0.5,0.5,0.9,0.7,1.2C1623.6,596.7,1623.4,596.3,1623.1,595.8z"/>
		</g>
		<g>
			<path class="st14" d="M1599.5,568.6L1599.5,568.6c0.2,0.2,0.2,0.2,0.5,0.5C1599.7,568.8,1599.5,568.6,1599.5,568.6z"/>
		</g>
		<g>
			<path class="st14" d="M1642.1,640.3c0,0.2,0,0.5,0.2,0.7C1642.1,640.5,1642.1,640.3,1642.1,640.3z"/>
		</g>
		<g>
			<path class="st14" d="M1639.3,629.8C1639.3,629.8,1639.3,629.5,1639.3,629.8v0.2V629.8z"/>
		</g>
		<g>
			<path class="st14" d="M1605.8,574.7c0.2,0.2,0.5,0.7,0.9,0.9C1606.5,575.2,1606.3,574.9,1605.8,574.7z"/>
		</g>
		<g>
			<path class="st14" d="M1611.6,580.8c0.5,0.5,0.9,0.9,1.4,1.6C1612.3,581.7,1612.1,581.3,1611.6,580.8z"/>
		</g>
		<g>
			<path class="st14" d="M1618,588.5C1618,588.5,1618,588.8,1618,588.5C1618,588.8,1618,588.5,1618,588.5z"/>
		</g>
		<g>
			<g>
				<path class="st16" d="M1543.9,624.6c-0.7,0-1.2,0.5-1.4,1.4c0,0.2-0.2,0.2-0.2,0.5c0,0.5,0.2,0.7,0.5,0.9
					c0.2,0.2,0.5,0.2,0.7,0.2c0.5,0,1.2-0.2,1.4-0.9c0-0.2,0-0.5,0-0.7s0-0.7-0.2-0.9C1544.6,624.8,1544.4,624.6,1543.9,624.6z"/>
			</g>
			<g>
				<path class="st16" d="M1553,622.7c-0.7,0-1.4,0.5-1.6,1.2c-0.2,0.5-0.5,1.2-0.5,1.9c0,0.5,0.2,1.2,0.5,1.6
					c0.5,0.5,0.9,0.7,1.4,0.7c0.7,0,1.4-0.7,1.9-1.4l-0.7-0.5l0.7,0.5c0.2-0.5,0.2-0.7,0.2-1.2c0-0.7-0.2-1.4-0.7-1.9
					C1554,623.2,1553.8,623,1553,622.7z"/>
			</g>
			<g>
				<path class="st16" d="M1561.5,628.4c0,0-0.9-0.2-1.9-0.2c-0.5,0-0.9,0-1.4,0.5c-0.2,0.2-0.5,0.5-0.5,0.7c0,0.7,0.5,0.9,0.7,1.4
					c0.5,0.5,0.7,0.7,1.2,0.9c0.2,0,0.5,0.2,0.7,0.7c0.2,0.2,0.5,0.7,1.2,0.9c0.2,0,0.5,0,0.7,0c0.5,0,0.9,0,1.2-0.2
					c0.5-0.2,0.9-0.9,0.9-1.6c0-0.2,0-0.5-0.2-0.7C1563.6,628.6,1562,628.4,1561.5,628.4z"/>
			</g>
			<g>
				<g>
					<path class="st16" d="M1617.7,731.5c-0.2-0.9-0.7-1.9-1.4-2.1c-0.2,0-0.5-0.2-0.7-0.2c-0.5,0-0.9,0.2-1.4,0.7
						c-0.9,1.2-1.2,2.6-1.9,3.8c-0.7,0.9-1.2,1.6-1.9,2.1c-0.2,0.2-0.5,0.5-0.7,0.7c0,0-0.2,0-0.2,0.2h-0.2c-0.7,0-1.2,0.2-1.9,0.9
						c-0.7,0.5-1.4,1.4-1.4,2.6c0,0.5,0,0.7,0.2,1.2c0.5,1.2,0.5,2.1,0.5,3c0,1.2-0.2,1.9-0.7,2.3c-0.2,0.5-0.5,0.9-0.5,1.4
						c0,1.6,0.9,3.8,0.9,4.9v0.2c0,0.2,0,0.5,0,0.9c0,0.9,0.2,1.6,0.7,2.1s1.4,0.9,2.1,0.9l0,0c0.9,0,1.9-0.2,2.3-0.9
						c0.7-0.7,0.9-1.4,1.4-2.6c0.9-2.3,0.9-4.5,1.6-6.3c0.5-0.9,0.7-2.6,1.2-3.8c0.2-1.4,0.5-2.6,0.7-3c0.5-1.2,1.2-3.8,1.2-5.9
						c0-0.2,0-0.2,0-0.5C1618.2,733.6,1618,732.7,1617.7,731.5z"/>
				</g>
				<g>
					<path class="st16" d="M1508.8,580.8c0.7-0.2,1.4-0.5,2.1-0.7c0.5-0.2,1.2-0.5,1.4-1.2c0,0,0.7-0.2,1.2-0.2s0.9,0,0.9,0
						c0.2,0,0.2,0,0.5-0.2c0,0,0.5-0.5,0.7-0.9c0.5-0.5,0.7-1.2,0.9-1.9c0-0.2,0-0.7-0.2-0.9c-0.9-0.9-2.6-1.6-3.5-1.6h-0.2
						c-1.2,0-1.6,0.9-3.3,0.7c-0.2,0-0.7,0-0.9,0v7.3C1508.3,580.8,1508.5,580.8,1508.8,580.8z"/>
				</g>
				<g>
					<path class="st16" d="M1588,564.6c-0.9-0.2-6.1-1.4-9.8-1.4c-0.7,0-1.6,0-2.3,0.2c-1.2,0.2-3,0.7-5.2,1.4
						c-0.7,0.2-1.6,0.5-2.3,0.7c-1.4,0.5-2.6,0.9-3.8,1.4c-0.5,0.2-0.9,0.2-1.2,0.5c-0.2,0-0.5,0.2-0.7,0.5
						c-0.5,0.5-0.7,0.9-1.2,1.9c-0.5,0.7-0.9,1.6-1.9,2.3c-1.6,1.9-4.9,5.6-7,6.1c-1.4,0.2-2.8,1.2-4,2.1c-0.5,0.5-0.9,0.9-1.4,1.2
						c-0.2,0.5-0.7,0.7-0.7,1.4c0,0.5,0.2,1.2,0.5,1.9c0.2,0.7,0.2,1.4,0.2,1.6c0,0.2,0,0.5,0,0.5c0,0.7,0.2,1.4,0.7,2.1
						c0.5,0.7,0.9,1.6,1.9,1.9c0.7,0.2,1.6,0.5,2.3,0.5c0.2,0,0.7,0,0.9,0c-0.7,0.2-1.2,0.7-1.6,1.4c-0.2,0.7-0.5,1.9-0.5,2.8
						c0,0.5,0,1.2,0.2,1.6c0.2,0.2,0.2,0.5,0.5,0.7c-0.5,0-0.9-0.2-1.4-0.2c-0.9,0-1.9,0.2-2.6,0.9c-0.9,0.9-2.3,2.6-2.8,3
						c-0.2,0-0.9,0-1.4,0.2c-0.2,0-0.5,0-0.7,0.2c0,0,0,0,0-0.2c-0.2-1.6-1.6-3.5-3-4.2c-0.2-0.2-0.9-1.2-1.6-2.1
						c-0.5-0.9-0.9-1.9-1.6-2.3l0,0c0-0.2,0.2-1.2,0.5-2.1c0-0.5,0-0.9-0.5-1.4c-0.5-0.7-1.2-0.9-1.4-1.2c-0.5-0.2-0.7-0.5-1.2-0.7
						s-0.7-0.5-1.2-0.5c-1.2,0-1.9,0.9-2.3,1.9l0,0c0,0-0.5-0.2-1.2-0.2c-0.2,0-0.5,0-0.5,0c-0.7,0.2-1.2,1.2-1.2,1.9
						s0.2,1.6,0.7,2.3c0,0.2,0.2,0.5,0.5,0.9c-0.2,0-0.5,0-0.7,0s-0.5,0-0.7,0c-0.9,0.2-1.4,0.9-1.6,1.4c-0.2,0.2-0.2,0.5-0.2,0.5
						l0,0c-0.5,0-0.9,0-1.4,0.2s-0.9,0.9-0.9,1.6c0,0.2,0,0.5,0,0.5c0.2,0.7,0.5,1.4,0.5,1.6l0,0l0,0c-0.5,0.2-0.7,0.9-0.7,1.4
						c0,0.7,0.2,1.2,0.5,1.6c0.2,0.5,0.7,0.9,1.4,1.2h0.2c1.4,0,2.3-0.9,3.3-1.4c0.9-0.5,2.6-1.6,2.6-3.8c0-0.9,0-1.6-0.2-2.3
						c0,0,0.2,0,0.2,0.2c0.7,0.2,1.4,0.7,2.1,0.9c0,0,0.2,0,0.5,0.2c-0.5,0.5-0.9,0.9-1.6,1.4c-0.7,0.7-1.2,1.4-1.4,2.3v0.2
						c0,1.2,0.9,1.6,1.4,1.9c0.2,0,0.5,0.2,0.5,0.2c0,0.2,0,0.5,0,0.7c0,0.5,0.2,0.9,0.7,1.2c0,0,0.2,0,0.5,0c0.7,0,0.9-0.5,1.4-0.7
						c0.2-0.2,0.5-0.5,0.7-0.5c0.7,0,2.6,0.7,4,0.7c-0.9,0.2-1.9,0.5-3,0.7c-0.9,0.2-1.4,0.7-1.9,0.9s-0.7,0.5-1.4,0.5
						c-0.5,0-0.9,0.2-1.4,0.2c-0.2,0.2-0.7,0.5-0.7,1.2c0,0.5,0.2,0.7,0.5,0.9c0.2,0.2,0.7,0.2,1.2,0.5c0.7,0.2,1.9,0.5,2.6,1.2
						c0.9,0.5,1.4,1.2,1.4,1.4s0,0.5,0,0.7c0,1.2-0.2,2.6-0.7,3.8c0,0-0.5,0.2-0.9,0.2c-0.9,0-2.1-0.2-3.3-0.2
						c-0.9,0-2.6-0.2-4.2-0.2c-0.7,0-1.4,0-2.1,0.5c-1.2,0.7-1.4,2.3-1.4,3.5s0.2,2.1,0.2,2.8c0,0.2,0,0.5,0,0.7
						c0,0.7-0.2,0.9-0.5,1.4c-0.5,0.5-0.7,1.2-0.7,1.9s0.2,1.4,0.7,1.9c0.2,0.2,0.5,0.7,0.7,1.2s0.5,0.9,1.2,1.4c0.2,0,0.2,0,0.5,0
						c0.5,0,0.9,0,1.4,0s0.5,0,0.7,0.2s0.5,0.9,0.7,1.4c0,0.2,0.2,0.5,0.5,0.7l0,0l0,0c-0.9,0.5-1.6,1.4-2.3,1.9
						c-0.2,0.2-0.5,0.5-0.7,0.7h-0.2c-0.2,0-0.5,0.2-0.7,0.5c-0.7,0.5-1.6,1.9-2.1,3.8c-0.5,1.4-0.5,2.6-0.5,3.5s-0.2,1.4-0.5,1.6
						c-1.6,0.9-4.2,2.6-5.4,4.2c-0.7,0.9-1.2,2.3-1.9,4c-0.7,1.6-1.2,3.3-1.9,4.5c-0.5,0.9-0.7,1.6-0.7,2.3c0,1.6,0.7,3,0.9,3.8
						c0.2,0.9,0.5,1.9,0.5,3c0,0.9-0.2,1.6-0.7,2.6c-0.7,1.2-1.2,2.3-1.4,2.8c0,0.2-0.2,0.5-0.2,0.5s-0.2,0-0.2,0.2
						c-0.2,0-0.2,0.5-0.2,0.7c0,0.5,0.2,0.5,0.2,0.7c0.2,0.5,0.7,0.9,0.9,1.9v0.2c0,0.5-0.2,1.2-0.2,2.1c0,0.9,0.5,2.3,1.9,3
						c2.3,1.6,3.5,2.6,4,4.5c0.9,2.3,4.2,5.6,4.2,5.6s2.3,2.6,3.5,4c0.5,0.5,0.9,0.7,1.4,0.9c0.5,0,0.9-0.5,1.2-0.7
						c0.2-0.2,0.2-0.7,0.5-1.2c0-0.2,0.2-0.5,0.7-0.5c0.5-0.2,1.4-0.2,2.3-0.2c1.4,0,2.3,0.2,3.8,0.2c0.5,0,0.9,0,1.4,0
						c2.1-0.5,4-2.1,4.5-2.3c0.7-0.2,1.9-1.2,2.8-1.2c0.2,0,0.7,0,0.9,0.2c0.7,0.5,0.9,1.2,1.2,1.9c0.2,0.7,0.5,1.6,0.9,2.3
						c0.5,0.7,1.2,0.9,1.6,0.9c1.2,0,2.1-0.7,2.8-1.4c0.2-0.2,0.2-0.2,0.5-0.2c0.2,0.2,0.5,0.5,0.9,0.7c0.9,0.5,1.2,1.2,1.2,1.4
						s0,0.5-0.5,0.9c-0.9,0.9-0.9,2.1-0.9,3.3s0,2.1-0.5,3.3c-0.2,0.9-0.5,1.6-0.5,2.3c0,0.5,0.2,0.9,0.5,1.4s0.7,0.7,1.2,0.9
						s1.6,2.1,2.3,4c0.9,1.9,1.9,3.8,2.3,4.5c0,0,0.2,0.5,0.2,1.2s0,1.4,0,2.3s0,2.1,0.5,2.8c0.7,1.4,1.2,2.6,1.2,3
						c0,0.2,0,0.2-0.2,0.5c-1.2,0.9-3,3-3.3,6.8v0.9c0,3,0.5,5.2,1.2,6.3c0.5,1.2,1.9,4.5,2.6,5.6c0.5,0.9,1.4,4,1.4,5.6v2.8
						c0,0.9,0,1.9,0.5,2.6c0.5,0.9,0.9,2.6,2.3,4c0.5,0.5,0.9,1.4,1.2,2.3c0.2,0.7,0.2,1.4,0.2,1.4l0,0c0,0,0,0.2,0.2,0.7
						c0,0.5,0.2,1.2,0.2,2.1c0,0.9,0,1.9,0.2,2.6c0.2,0.7,0.7,1.4,1.6,1.9c0.7,0.5,1.4,0.7,2.1,0.7l0,0c0.5,0,1.2-0.2,1.6-0.7
						c0,0,0,0,0.2-0.2c0.5-0.2,1.4-0.2,2.3-0.2c0.5,0,0.7,0,1.2,0s0.9,0,1.4,0h0.5c1.9,0,3.8-1.2,5.4-2.8c1.9-1.6,4.5-5.6,5.2-6.8
						c0.5-0.5,1.2-1.4,1.6-2.1c0.7-0.9,1.2-1.9,1.2-2.8c0,0,0-0.2,0-0.5c-0.2-0.7-0.2-1.4-0.2-1.9l0,0c0-0.2,0-0.5,0.2-0.5
						c0,0,0.2,0,0.2-0.2c0.5-0.2,1.2-0.7,1.9-1.2c0.7-0.7,1.6-1.2,1.9-2.1v0.2c0-0.2,0-0.7,0-1.2c-0.2-1.9-0.9-4.5-1.2-4.9l0,0
						c0-0.5,0.7-1.9,1.6-3.3c0.5-0.7,1.4-1.4,2.3-1.9c0.5-0.2,0.9-0.5,1.4-0.7s0.7-0.5,0.9-0.7c0.7-0.9,2.1-3.8,2.3-6.1
						c0-0.2,0-0.7,0-1.2c0-1.4-0.2-2.8-0.2-4c0-0.5,0-0.7,0-0.9c0.2-0.5,0.2-0.9,0.2-1.4c0-1.2-0.7-2.1-1.4-3
						c-0.5-0.5-0.7-1.6-0.7-2.8c0-0.7,0-1.2-0.2-1.9c0-0.5,0-0.9-0.2-1.4c0,0,0-0.5,0-0.9c0-0.5,0-1.4,0.2-1.9c0-0.2,0-0.5,0.2-0.7
						l0,0c0.5-0.2,0.7-0.5,0.9-0.9c0.9-1.2,2.1-3.5,2.8-4.5c0.5-0.7,1.6-2.3,2.6-3.8s2.1-2.6,2.6-2.6c0.9-0.2,1.9-1.2,2.8-2.1
						s1.4-2.1,1.6-3c0-0.2,0.9-2.3,1.9-4c0.5-0.9,0.9-1.9,1.4-2.6c0.5-0.7,0.7-1.2,0.7-1.9c0-0.2,0.2-1.4,0.5-2.6
						c0.2-1.2,0.7-2.3,0.7-3.3c0-0.5,0-0.7-0.2-1.2c-0.5-0.5-0.9-0.5-1.2-0.5c-1.9,0-5.4,1.9-6.1,2.1c-0.7,0.5-2.3,1.4-4,1.4h-0.2
						c-0.5,0-0.5-0.2-0.7-0.2c0,0,0-0.2,0-0.7s0-0.9,0-1.6V682c0-0.5-0.2-0.7-0.5-1.2l0.2,0.2c0.2,0,0.7,0.2,0.9,0.2
						c0.9,0,1.9-0.2,2.8-0.7c0.9-0.2,1.6-0.7,2.1-0.9c0.5-0.5,4.9-3.3,6.3-3.3c0.9,0,1.6-0.7,2.1-1.2l0,0c0.5-0.2,0.9-0.7,1.6-0.9
						c2.3-0.7,3.8-2.6,4.9-4c1.4-1.6,3-4.9,3.5-6.1c0.2-0.7,1.4-1.4,1.4-3c0-0.2,0-0.7-0.2-1.2c-0.5-0.9-1.4-1.6-2.3-2.3
						s-1.9-1.4-2.6-1.4l0,0c0-0.2-0.2-0.7-0.5-1.2c0-0.2,0-0.5-0.2-0.7c0-0.2-0.5-0.5-0.9-0.5c-0.5,0-0.7,0.2-0.9,0.5
						c-0.5,0.7-0.5,1.2-1.4,1.6c-0.7,0.5-1.2,0.9-1.9,1.4c-0.5,0.5-0.9,0.7-1.2,0.7c0,0,0,0,0-0.2c0-0.5,0-0.9-0.5-1.6
						c0-0.2-0.2-0.5-0.5-0.7c-0.7-0.7-1.2-1.2-1.4-1.6c-0.2-0.2-0.2-0.5-0.2-0.9c0-0.7-0.2-0.9-0.5-1.4c-0.9-1.2-2.6-3-2.6-3.8v-0.2
						c0-0.5,0.2-0.9,0.5-1.4c0.2-0.5,0.7-0.7,0.7-0.7l0,0c0.7,1.4,1.2,4,3.3,5.2c0,0,0.2,0,0.2,0.2c0.7,0.5,1.4,0.9,2.1,1.4
						s1.2,1.2,1.9,1.4c0,0,0.2,0,0.5,0c0.7,0,1.4-0.5,1.9-0.9c0.2-0.2,0.5-0.5,0.7-0.5h0.2c0.2,0.2,0.7,0.9,1.2,1.6
						c0.5,0.9,1.2,1.6,1.9,2.1c0.7,0.2,2.1,0.5,3.3,0.5s2.3,0.2,2.8,0.2h0.9c0.5,0,1.2,0,1.9,0c0.7-0.2,1.4-0.2,1.9-1.2
						c0.2-0.5,0.2-0.5,0.5-0.7h0.5c0.2,0.2,0.5,0.9,0.9,1.4c0.5,0.7,0.9,1.4,1.6,1.9c0.2,0,0.5,0.2,0.9,0.2c0-0.9,0-1.6-0.2-2.3
						c-0.2-1.6-0.5-3.5-0.7-5.2c-0.5-3.5-1.2-7-1.9-10.3c0-0.2,0-0.5-0.2-0.7c-0.7-3.3-1.6-6.8-2.6-10.1v-0.2c0-0.2,0-0.2-0.2-0.5
						c-0.9-2.8-1.9-5.4-2.8-8c-0.2-0.5-0.2-0.9-0.5-1.4c-2.1-5.4-4.7-10.5-7.5-15.7c-0.2-0.5-0.5-0.7-0.7-1.2
						c-1.2-2.1-2.6-4.2-3.8-6.3c-0.2-0.5-0.5-0.9-0.7-1.2c-1.6-2.3-3.3-4.7-4.9-7l-0.2-0.2c-1.6-2.1-3.3-4.2-4.9-6.3
						c-0.5-0.5-0.9-0.9-1.4-1.6c-1.6-1.9-3.3-3.5-4.9-5.2c-0.2-0.2-0.5-0.7-0.9-0.9c-1.9-1.9-4-3.8-5.9-5.6
						c-0.2-0.2-0.2-0.2-0.5-0.5c-1.9-0.2-4-0.5-6.6-1.6C1589.8,565.5,1589.1,565.1,1588,564.6z M1613,613.4L1613,613.4
						c0.5,0,1.6,0.5,2.6,0.5c0.5,0,0.9,0,1.2-0.5c0.9-0.7,2.1-1.6,2.3-2.1c0.2,0,0.9,0.2,1.4,0.5s0.9,0.7,0.9,0.7
						c0.2,0.7,0.7,1.2,0.9,1.6c0.2,0.2,0.2,0.5,0.5,0.7l0,0c-0.2,0-0.9,0.2-1.4,0.2s-0.9-0.2-0.9-0.2c-0.2-0.5-0.9-0.7-1.4-0.7
						c-1.4,0-2.6,1.4-2.6,3v0.5c0,0.2,0,0.5,0.2,0.9c0,0.2,0.5,0.5,0.7,0.5s0.5,0,0.5,0l0,0c0.5,0.5,0.7,1.4,1.4,2.3
						c0.5,0.7,0.9,0.9,1.4,1.2c0.2,0,0.5,0.2,0.7,0.2c0,0-0.2,0.2-0.5,0.5s-0.5,0.7-0.7,1.4c0,0.5,0.2,0.9,0.5,1.2
						c0.2,0.2,0.7,1.4,0.9,2.6s0.5,2.3,0.5,2.8c0,0-0.5,0.2-0.9,0.5c-0.5,0-1.2,0.2-1.6,0.2h-0.2c-0.7-0.2-3.5-1.4-4.5-1.6
						c0,0,0-0.2-0.2-0.2c0,0,0-0.2-0.2-0.5c0-0.5-0.2-0.9-0.2-1.4c0-0.2,0-0.5,0-0.7h0.2c0.5,0,1.2-0.2,1.4-0.7
						c0.5-0.2,0.7-0.9,1.4-1.4c0.2-0.2,0.5-0.7,0.5-1.2s-0.2-0.9-0.7-1.2c-0.9-0.7-2.6-1.2-3-1.4c-0.2-0.2-0.9-1.2-1.6-2.1
						c-0.5-0.9-1.2-2.1-1.4-2.8c0-0.2-0.2-0.5-0.2-0.7C1611.4,615.2,1611.9,614.1,1613,613.4z M1557,594.4c0,0.2,0,0.5,0.2,0.7
						s0.7,0.7,1.2,0.7h0.2c0.9-0.2,5.9-1.6,5.9-1.6l0,0c0,0,1.6-0.7,1.6-2.6v-0.5l0,0c0-0.2,0.2-0.9,0.7-1.6
						c0.5-0.5,0.9-1.2,1.2-1.4c0.2-0.5,0.9-1.4,1.2-2.6c0-0.7-0.5-1.6-1.2-1.9c-0.5-0.2-1.2-0.5-1.4-0.5h-0.2c0,0,0,0,0-0.2
						s0.2-0.5,0.7-0.7c0.7-0.9,1.2-0.7,2.1-0.9c0.7,0,1.6-0.5,2.6-1.4c-0.5,0.5-0.5,1.2-0.5,1.9s0.2,1.6,0.7,2.1
						c0.2,0.2,0.5,1.2,0.7,1.9c0,0.2,0.2,0.7,0.5,0.9s0.7,0.5,1.2,0.5h0.2c1.4-0.5,2.6-1.4,3.5-1.4h0.2c0.2,0,0.7,0,0.9,0
						c1.2,0,2.8-0.2,3.3-0.2c0,0,0.5,0.5,0.5,0.7c0.2,0.2,0.2,0.5,0.2,0.7c-0.9,0.2-2.1,0-4.2,0.2c-1.2,0-2.3,0.2-3.3,0.2
						c-0.5,0-0.9,0-1.2,0.2c-0.2,0-0.2,0-0.5,0.2c-0.2,0-0.5,0.5-0.5,0.7c0,0.5,0.2,0.5,0.2,0.7c0.2,0.5,0.9,0.7,1.4,0.9
						c0.2,0,0.2,0.2,0.5,0.2h-0.2c-0.5,0-1.2-0.5-2.3-0.7h-0.2c-0.9,0-1.6,0.9-2.1,1.6s-0.7,1.6-0.9,2.3c0,0.5,0,0.7,0,1.2
						s0,0.9,0,1.2v0.2h-0.2c-1.2-0.5-2.3-0.7-3.3-0.7c-0.5,0-0.9,0-1.4,0.2s-2.1,0.9-3.3,1.4c-0.2,0-0.2,0-0.2,0s-0.7-0.9-1.9-0.9
						h-0.2c-1.6,0-1.6,0-1.6,0l0,0l-0.7,0.2c-0.2-0.2-0.5-0.5-0.5-0.9L1557,594.4z M1541.3,605.2L1541.3,605.2
						c0,0.2-0.2,0.5-0.5,0.5h-0.2C1540.9,605.4,1541.1,605.4,1541.3,605.2z M1591.3,642.9C1591,643.1,1591,643.1,1591.3,642.9
						c0,0.2-0.2,0.2-0.5,0.2c-0.5,0-0.9,0-1.4,0c-0.5-0.7-0.9-1.2-1.9-1.2c-0.2,0-0.2,0-0.5,0c-0.7,0.2-1.9,0.2-2.8,0.7
						c0,0,0,0,0-0.2s0-0.5-0.2-0.5c-0.5-0.5-0.9-0.7-1.4-0.7s-1.2,0-1.9,0c-0.9,0-2.1,0-2.8,0c-1.4,0-2.8-1.2-4.5-1.6
						c0,0-0.2,0-0.5,0c-0.9,0-1.6,0.7-2.6,1.4c-0.7,0.7-1.4,1.6-2.1,2.3c-0.5,0.5-0.7,0.7-0.9,0.7c-0.5,0-0.9-0.5-1.9-0.5
						c-0.2,0-1.2-0.5-1.9-0.9c-0.7-0.5-1.2-0.9-1.2-0.9h-0.2c0,0-0.5-0.2-1.2-0.7c-0.7-0.2-1.4-0.7-2.1-0.7c0,0-0.2,0-0.5-0.2
						c-0.5-0.2-0.9-0.7-1.4-1.2c-0.2-0.2-0.5-0.5-0.7-0.5c-0.2-0.2-0.2-0.2-0.7-0.2c0,0-0.2-0.2-0.5-0.5s-0.2-0.2-0.2-0.5
						c0.2,0,0.5,0,0.7-0.2c0.2,0,0.5,0,0.7-0.5c0.2-0.2,0.2-0.7,0.2-0.9c0-0.5-0.2-1.2-0.5-2.3c-0.7-2.3-2.1-3.3-3.3-3.3
						c-0.9,0-1.6,0.2-1.9,0.5l0,0c-0.7,0.2-3,0.2-4.7,0.2h-2.8c-0.5,0-0.7,0-1.2,0.2c-1.4,0.5-3.8,1.6-4.7,2.1
						c-1.2,0.7-3,1.4-3.8,1.9l0,0c-0.5,0-1.6-0.2-2.6-0.2c0-0.2,0.2-0.7,0.5-0.9c0-0.2,0-0.2,0.2-0.5c0.2,0,0.5,0.2,0.7,0.2
						c0.9,0,2.1-0.5,2.8-0.5c0.9,0,1.4-0.7,1.9-1.4c0.5-0.5,0.9-1.2,1.4-1.4c0.2-0.2,0.5-0.2,0.7-0.5s0.2-0.5,0.2-0.7
						c0-0.5-0.2-0.7-0.2-0.9s-0.2-0.2-0.2-0.5l0,0c0,0,0.2-0.5,0.5-0.9c0.5-0.5,0.9-0.9,1.4-1.6c0.2-0.2,0.7-0.5,1.2-0.5
						c0.2,0,0.7,0,0.9-0.2s0.7-0.7,0.9-1.2c0.2-0.7,0.2-1.6,0.5-2.3c0-0.2,0.2-0.7,0.2-0.7l0,0c0.9,0.2,2.3,0.9,3.5,0.9
						c0.9,0,1.6-0.5,2.3-1.2c0.7-0.5,1.4-1.2,1.6-1.2h0.2c0.2,0,0.7,0,0.9,0.2c0.2,0.2,0.5,0.2,0.5,0.7c0.2,0.9,0.9,1.9,1.6,2.6
						s1.4,1.4,1.9,1.6s1.4,0.7,2.3,1.2c0.5,0.2,0.9,0.5,1.4,0.7s0.7,0.5,0.7,0.5c0.2,0.2,1.2,1.9,1.4,3c0.2,0.7,0.5,1.6,1.4,1.6
						c0.7,0,1.2-0.7,1.2-1.4v-0.5c0-0.7-0.2-1.6-0.2-2.1l0,0c0.9,0,1.9-0.5,1.9-0.5c0.2,0,0.2-0.2,0.5-0.5c0.5,1.2,1.4,2.3,1.6,2.8
						c0,0.2,0.5,1.4,0.9,2.3c0.5,1.2,0.7,2.3,0.9,2.8c0.2,0.5,0.7,0.7,1.2,0.7c0.9,0,1.9-0.9,2.3-1.4c0.2-0.2,0.7-0.5,1.2-0.9
						c0.5-0.2,0.9-0.9,0.9-1.9V630c0-0.9-0.5-1.6-1.2-2.1c-0.2-0.2-0.5-0.5-0.7-0.7c0,0,0.2,0,0.2-0.2c0.5-0.2,0.7-0.5,1.2-0.7
						c0.5-0.5,1.2-0.9,1.4-0.9l0,0c0,0,0.2,1.4,0.2,2.6v1.6c0,0.5,0,0.9,0.2,1.4s0.5,0.7,0.9,0.9s1.2,0.7,1.6,0.9
						c0.5,0.2,0.9,0.7,0.9,0.7c0.7,0.9,1.9,1.2,2.8,1.2c0.5,0,0.9,0,1.2-0.5l0,0c0.5,0,1.9,0.5,2.3,0.7c0.2,0,0.2,0,0.5,0
						c0.9,0,2.1-0.5,3-0.7c0.5-0.2,0.9-0.2,1.2-0.5v0.5c0,2.1-0.5,5.4-1.6,6.8C1591.5,641.7,1591.3,642.7,1591.3,642.9z M1605.1,678
						c0,0.2,0,0.2,0.2,0.5c-0.2-0.5-0.5-0.9-0.7-1.2c-0.2-0.5-0.5-0.7-0.9-0.9c0,0-0.7-0.5-1.2-1.4c-0.5-0.7-0.9-1.6-1.2-2.3
						c-0.7-2.1-1.6-4.7-2.8-6.3c-0.9-1.2-1.6-4.9-2.6-7.3s-1.9-5.4-2.8-7.5c0-0.2-0.2-0.5-0.2-0.7c0.5-0.2,1.2-0.2,1.4-0.2l0,0
						c0.5,1.4,1.6,3.8,1.9,5.4c0,1.2,0.9,1.9,1.4,2.1c0.5,0.2,0.5,0.2,0.5,0.7c0,0.9,0.5,2.3,0.9,3.8c0.2,0.7,0.5,1.4,0.7,1.9
						s0.2,0.9,0.7,1.2c0.2,0.2,0.9,0.9,1.6,1.9c0.7,0.9,1.4,1.9,1.4,2.1c0.5,0.9,0.9,2.3,1.2,4.7
						C1604.6,675.2,1604.8,676.6,1605.1,678z M1593.6,616.6c0.5-0.2,1.2-0.9,1.4-1.6c0.2,0,0.2,0,0.5,0c0,0.5,0.5,0.7,0.7,0.9
						s0.7,0.5,1.4,0.7c1.4,0.5,2.8,2.3,4.5,3.8c0.9,0.5,1.2,1.6,1.2,2.1s0,0.5,0,0.5c-0.7,0.2-3,0.5-4.5,0.5c-0.2,0-0.5,0-0.7,0
						c-0.7,0-2.3-1.6-4.2-2.1c-0.5,0-1.2-0.2-1.6-0.2c-1.4,0-2.8,0.2-3.5,1.6c0,0.2-0.7,0.5-1.4,0.5c-0.7,0-1.4,0-2.1,0
						s-1.2,0.5-1.6,0.7c0-0.5,0-0.9,0-1.2c0-0.5,0-1.2-0.7-1.6c0-0.5,0.7-1.6,1.2-1.9c0.9-0.9,1.9-2.6,2.6-4.5
						c0.5-1.2,1.2-1.4,1.4-1.4h0.2c0.2,0.2,0.7,0.9,1.2,1.6c0.5,0.7,0.9,1.6,0.9,2.1s0.7,0.9,1.2,0.7c0.5,0,0.9-0.2,1.4-0.5
						C1593.1,616.9,1593.4,616.6,1593.6,616.6z"/>
				</g>
			</g>
		</g>
		<g>
			<g>
				<path class="st17" d="M1496.3,455.2l58.1,51.3l17.3-19.7c4.7-5.4,4.2-13.4-1.2-18l-38.9-34.5c-5.4-4.7-13.4-4.2-18,1.2
					L1496.3,455.2z"/>
			</g>
			<g>
				<polygon class="st18" points="1337,635.9 1323.8,650.9 1323.8,650.9 1290.5,747 1382,702.2 1382,702.2 1395.3,687.2 				"/>
			</g>
			<g>
				<path class="st10" d="M1514.6,454c-5.4-4.7-13.6-4.2-18.3,1.2l-172.7,195.7c4.7-5.4,12.9-5.9,18.3-1.2s5.9,12.9,1.2,18.3
					l172.7-195.7C1520.5,467.1,1520,458.9,1514.6,454z"/>
			</g>
			<g>
				<path class="st19" d="M1534.1,471.3c-5.4-4.7-13.6-4.2-18.3,1.2L1343.3,668c4.7-5.4,12.9-5.9,18.3-1.2s5.9,12.9,1.2,18.3
					l172.7-195.7C1539.9,484.2,1539.5,476,1534.1,471.3z"/>
			</g>
			<g>
				<path class="st10" d="M1553.5,488.4c-5.4-4.7-13.6-4.2-18.3,1.2l-172.7,195.5c4.7-5.4,12.9-5.9,18.3-1.2s5.9,12.9,1.2,18.3
					l172.7-195.7C1559.4,501.3,1558.9,493.1,1553.5,488.4z"/>
			</g>
			<g>
				<path class="st17" d="M1325,730.1l-34.5,16.9l12.4-36.1c4.7,1.6,8.9,4,12.9,7.5S1322.9,725.9,1325,730.1z"/>
			</g>
		</g>
	</g>
</g>
</svg>
