<?xml version="1.0" encoding="utf-8"?>
<!-- Generator: Adobe Illustrator 22.0.1, SVG Export Plug-In . SVG Version: 6.00 Build 0)  -->
<svg version="1.1" id="Layer_1" xmlns="http://www.w3.org/2000/svg" xmlns:xlink="http://www.w3.org/1999/xlink" x="0px" y="0px"
	 viewBox="0 0 2500 1200" style="enable-background:new 0 0 2500 1200;" xml:space="preserve">
<style type="text/css">
	.st0{display:none;fill:#F4F9FB;enable-background:new    ;}
	.st1{font-family:'ArialMT';}
	.st2{font-size:68.5193px;}
	.st3{fill:#F4F9FB;}
	.st4{fill:#D1EAF8;}
	.st5{fill:#CECECE;}
	.st6{fill:#80B2B2;}
	.st7{fill:#237F84;}
	.st8{fill:#5B6374;}
	.st9{fill:#2593A0;}
	.st10{fill:#ECCA64;}
	.st11{fill:#D8B04C;}
	.st12{fill:#F1C967;}
	.st13{fill:#FFFFFF;}
	.st14{fill:#DE632E;}
</style>
<g>
	<text transform="matrix(1 0 0 1 906.4268 989.4883)" class="st0 st1 st2">BRAND PROTECTION</text>
	<g>
		<g>
			<g>
				<path class="st3" d="M1497.5,277.3c0,0-160.1,28.4-230.9-50.2l0,0l0,0l0,0l0,0c-71,78.5-230.9,50.2-230.9,50.2v148.1
					c0,130.3,61.6,251,162.7,318l68.2,45.2l0,0l0,0l0,0l0,0l68.2-45.2c100.8-67,162.7-187.7,162.7-318L1497.5,277.3L1497.5,277.3z"
					/>
			</g>
			<g>
				<path class="st4" d="M1266.4,227.1v561.6l0,0l-68.2-45.2c-100.8-67-162.7-187.7-162.7-318V277.3
					C1035.5,277.3,1195.6,305.6,1266.4,227.1L1266.4,227.1L1266.4,227.1z"/>
			</g>
			<g>
				<path class="st5" d="M1266.4,227.1v561.6l0,0l-68.2-45.2c-100.8-67-162.7-187.7-162.7-318V277.3
					C1035.5,277.3,1195.6,305.6,1266.4,227.1L1266.4,227.1L1266.4,227.1z"/>
			</g>
			<g>
				<path class="st6" d="M1266.4,734.3l-8.7-5.4l-30-19.9c-90.7-60.2-147.2-171.6-147.2-290.4v-90.9h11.3
					c53.7-0.5,100.8-8.9,140.6-25.1l33.8-14.1l34,14.1c39.6,16.2,87,24.8,140.6,25.1h11.3v90.9c0,118.8-56.5,230.2-147.2,290.4
					L1266.4,734.3z M1103.5,350.2v68.4c0,111.3,52.5,215.2,136.9,271.4l26,17.3l26-17.3c84.4-56,136.9-160.1,136.9-271.4v-68.4
					c-51.8-1.4-98.2-10.3-137.8-26.7l-25.1-10.5l-25.1,10.5C1201.7,339.8,1155.5,348.8,1103.5,350.2z"/>
			</g>
		</g>
		<g>
			<g>
				<g>
					<path class="st3" d="M1094.6,644.3H923.8v-94.5c0-47.1,38.2-85.3,85.3-85.3s85.3,38.2,85.3,85.3v94.5H1094.6z M965.5,602.3
						h87.2v-52.5c0-24.1-19.7-43.6-43.6-43.6c-24.1,0-43.6,19.7-43.6,43.6V602.3L965.5,602.3z"/>
				</g>
			</g>
			<g>
				<g>
					<rect x="902" y="590.6" class="st7" width="216.3" height="198"/>
				</g>
				<g>
					<path class="st8" d="M1033.4,670.1c0-12.9-10.3-23.2-23.2-23.2S987,657.2,987,670.1c0,8.2,4.2,15.5,10.8,19.5L987,732.7h23.2
						h23.2l-10.8-43.1C1029.2,685.3,1033.4,678.3,1033.4,670.1z"/>
				</g>
				<g>
					<rect x="902" y="590.6" class="st9" width="50.6" height="198"/>
				</g>
				<g>
					<rect x="1067.9" y="590.6" class="st8" width="50.6" height="198"/>
				</g>
			</g>
		</g>
		<g>
			<g>
				<path class="st10" d="M1315.4,439c0-13.8-7.3-24.6-20.4-30c-9.1-3.8-18-4-19.7-4h-8.9v16.2h8.7c2.6,0,24.1,0.5,24.1,17.8
					c0,15.7-23.2,15.9-24.1,15.9h-8.7v16.2h8.7C1289.1,471.1,1315.4,464.5,1315.4,439z"/>
			</g>
			<g>
				<path class="st10" d="M1336,482.8c13.8-10.5,21.3-26.7,21.3-46.4c0-55.8-51.3-70.5-82-70.5l0,0h-8.9V382h9.1
					c6.8,0,65.4,1.6,65.4,54.4c0,19.2-8.4,32.3-25.3,39.4l-19.7,8.2l20.2,7c28.4,9.6,27.9,36.6,27.9,38c0,50.2-48.3,55.5-69.1,55.5
					h-8.4v16.2h8.7c41.3,0,85.3-18.8,85.3-71.5C1360.9,518,1355.7,496.2,1336,482.8z"/>
			</g>
			<g>
				<path class="st10" d="M1318.7,528c0-23.7-22.5-32.1-41.7-32.1c-0.9,0-1.6,0-1.6,0h-8.9v16.2h9.1c0,0,0.5,0,1.2,0
					c7.7,0,25.8,1.6,25.8,15.9c0,13.8-14.8,16.6-27.2,16.6h-8.9v16.2h8.7C1302.3,560.9,1318.7,548.7,1318.7,528z"/>
			</g>
			<g>
				<polygon class="st11" points="1250.5,454.9 1250.5,421.2 1266.4,421.2 1266.4,405 1234.3,405 1234.3,471.1 1266.4,471.1 
					1266.4,454.9 				"/>
			</g>
			<g>
				<polygon class="st11" points="1250.5,544.7 1250.5,512.1 1266.4,512.1 1266.4,495.9 1234.3,495.9 1234.3,560.9 1266.4,560.9 
					1266.4,544.7 				"/>
			</g>
			<g>
				<path class="st11" d="M1209,584.8V382h57.7v-16.2h-62.6c-6.1,0-11.3,4.7-11.3,10.5v213.8c0,5.9,4.9,10.5,11.3,10.5h62.3v-16.2
					H1209V584.8z"/>
			</g>
		</g>
		<g>
			<g>
				<circle class="st12" cx="1483.2" cy="300.7" r="99.6"/>
			</g>
			<g>
				<polygon class="st13" points="1456,313.6 1438.4,292 1421.8,305.6 1445.5,334.5 1452.5,343.1 1460,336.1 1544.8,258.3 				"/>
			</g>
		</g>
		<g>
			<g>
				<circle class="st8" cx="1543.4" cy="636.8" r="54.6"/>
			</g>
			<g>
				<g>
					<path class="st3" d="M1578.6,637c0,19.2-15.5,34.7-35.2,34.7c-19.5,0-35.2-15.5-35.2-34.7s15.5-35.2,35.2-35.2
						C1562.9,601.9,1578.6,617.8,1578.6,637z M1567.3,637c0-13.6-10.8-24.4-24.1-24.4c-13.1,0-24.1,11-24.1,24.4s11,24.1,24.1,24.1
						C1556.8,661.2,1567.3,650.4,1567.3,637z M1550.9,643.8c0.5-0.2,0.9-0.2,1.4,0l4,3.5c0.2,0.2,0.2,0.9,0,1.4
						c-3,3-7.5,4.9-12.4,4.9c-9.1,0-17.1-7.7-17.1-16.9c0-9.4,8-17.1,17.1-17.1c4.9,0,9.1,1.9,12.4,4.9c0.2,0.2,0.2,0.9,0,1.4
						l-4,3.8c-0.5,0.2-0.9,0.2-1.4,0c-1.9-1.6-4.2-2.8-6.8-2.8c-5.2,0-9.4,4.2-9.4,9.8c0,5.4,4.2,9.6,9.4,9.6
						C1546.7,646.6,1549.1,645.5,1550.9,643.8z"/>
				</g>
			</g>
		</g>
		<g>
			<g>
				<circle class="st14" cx="1040.7" cy="330" r="57"/>
			</g>
			<g>
				<polygon class="st3" points="1040.7,292.7 1052.4,315 1077.3,319 1059.5,337 1063.2,361.9 1040.7,350.6 1018.2,361.9 
					1022.2,337 1004.4,319 1029.2,315 				"/>
			</g>
		</g>
	</g>
</g>
</svg>
