<?xml version="1.0" encoding="utf-8"?>
<!-- Generator: Adobe Illustrator 22.0.1, SVG Export Plug-In . SVG Version: 6.00 Build 0)  -->
<svg version="1.1" id="Layer_1" xmlns="http://www.w3.org/2000/svg" xmlns:xlink="http://www.w3.org/1999/xlink" x="0px" y="0px"
	 viewBox="0 0 512 512" style="enable-background:new 0 0 512 512;" xml:space="preserve">
<style type="text/css">
	.st0{display:none;fill:#F4F9FB;enable-background:new    ;}
	.st1{font-family:'ArialMT';}
	.st2{font-size:29.2349px;}
	.st3{fill:#EEED8E;}
	.st4{fill:#B3D137;}
	.st5{fill:#FFFFFF;}
	.st6{fill:#2593A0;}
	.st7{fill:#8FCBCC;}
	.st8{fill:#ECCA64;}
	.st9{fill:#49BEDF;}
	.st10{fill:#237F84;}
	.st11{fill:#494F5B;}
	.st12{fill:#5B6374;}
	.st13{fill:#D1EAF8;}
	.st14{fill:#ABABAB;}
</style>
<g>
	<text transform="matrix(1 0 0 1 105.1073 426.8013)" class="st0 st1 st2">BRAND DEVELOPMENT</text>
	<g>
		<g>
			<g>
				<g>
					<g>
						<g>
							<path class="st3" d="M249.8,105.2c11.8,0.6,21.5,10.4,21.7,22.3c0.1,5.8-1.9,11.2-5.4,15.3c-3,3.6-4.5,8.3-4.5,13v0.3h-12.7
								v-50.9C249.2,105.2,249.5,105.2,249.8,105.2z"/>
						</g>
					</g>
					<g>
						<g>
							<path class="st4" d="M235.8,155.8c0-5-1.9-9.7-5-13.5c-3.1-3.9-5-8.8-5-14.2c0-12.7,10.3-22.9,23.1-22.8v50.9h-13.1V155.8z"
								/>
						</g>
					</g>
				</g>
				<g>
					<g>
						<path class="st5" d="M255.7,156.1h-2.6v-10.3c0-3.1,0.7-6.2,1.9-9l0.7-1.6c0.5-1,0.4-2.1-0.2-3c-0.6-0.9-1.6-1.5-2.7-1.5h-1
							c0,0.1,0,0.3,0,0.4v7c0,1.7-1.4,3.1-3.1,3.1s-3.1-1.4-3.1-3.1v-7c0-0.2,0-0.3,0-0.4H245c-1.1,0-2.1,0.6-2.7,1.5
							c-0.6,1-0.6,2.1-0.1,3.1l0.5,0.9c1.6,3.1,2.5,6.6,2.5,10.1v9.8h-2.6v-9.8c0-3.1-0.8-6.1-2.2-8.9l-0.5-0.9
							c-0.9-1.8-0.9-3.9,0.2-5.7c1.1-1.7,2.9-2.8,4.9-2.8h7.9c2,0,3.8,1,4.9,2.7s1.2,3.7,0.4,5.5l-0.7,1.6c-1.1,2.5-1.7,5.2-1.7,7.9
							L255.7,156.1L255.7,156.1z M248.8,130.7c-0.2,0-0.4,0.2-0.4,0.4v7c0,0.2,0.2,0.4,0.4,0.4s0.4-0.2,0.4-0.4v-7
							C249.3,130.9,249.1,130.7,248.8,130.7z"/>
					</g>
				</g>
				<g>
					<g>
						<g>
							<path class="st6" d="M248.9,161.9h12.4c1.6,0,2.9,1.3,2.9,2.9c0,1.6-1.3,2.9-2.9,2.9h-12.4V161.9z"/>
						</g>
					</g>
					<g>
						<g>
							<path class="st6" d="M248.9,156.1h12.4c1.6,0,2.9,1.3,2.9,2.9s-1.3,2.9-2.9,2.9h-12.4V156.1z"/>
						</g>
					</g>
					<g>
						<g>
							<path class="st6" d="M261.3,167.6c1.6,0,2.9,1.3,2.9,2.9c0,1.5-1.1,2.7-2.5,2.9l-7.8,2.8c-0.7,0.2-1.1,0.8-1.1,1.5
								c0,0.8-0.7,1.5-1.5,1.5h-2.4v-5.8v-3.3v-2.5L261.3,167.6L261.3,167.6z"/>
						</g>
					</g>
					<g>
						<g>
							<path class="st7" d="M248.9,167.6H236c-1.6,0-2.9-1.3-2.9-2.9c0-1.6,1.3-2.9,2.9-2.9h12.9V167.6z"/>
						</g>
					</g>
					<g>
						<g>
							<path class="st7" d="M236.1,161.9c-1.6,0-2.9-1.3-2.9-2.9s1.3-2.9,2.9-2.9H249v5.8L236.1,161.9L236.1,161.9z"/>
						</g>
					</g>
					<g>
						<g>
							<path class="st7" d="M236.1,167.6H249v2.5v3.3v5.8h-0.2h-2.6c-0.8,0-1.5-0.7-1.5-1.5c0-0.7-0.4-1.3-1.1-1.5l-7.8-2.8
								c-1.4-0.2-2.5-1.4-2.5-2.9C233.2,168.9,234.5,167.6,236.1,167.6z"/>
						</g>
					</g>
				</g>
			</g>
			<g>
				<rect x="246.5" y="81.2" class="st3" width="4.9" height="13"/>
			</g>
			<g>
				
					<rect x="216.3" y="92.1" transform="matrix(0.7072 -0.7071 0.7071 0.7072 -5.6464 183.576)" class="st3" width="4.9" height="13"/>
			</g>
			<g>
				
					<rect x="272.6" y="96.2" transform="matrix(0.7071 -0.7071 0.7071 0.7071 12.0061 226.2426)" class="st3" width="13" height="4.9"/>
			</g>
		</g>
		<g>
			<g>
				<g>
					<g>
						<rect x="190" y="196.8" class="st8" width="103.1" height="3"/>
					</g>
				</g>
				<g>
					<g>
						<rect x="190" y="218.2" class="st8" width="86.3" height="3"/>
					</g>
				</g>
				<g>
					<g>
						<rect x="190" y="246.1" class="st8" width="117.8" height="3"/>
					</g>
				</g>
				<g>
					<g>
						<rect x="190" y="270.1" class="st8" width="117.8" height="3"/>
					</g>
				</g>
				<g>
					<g>
						<rect x="190" y="296.2" class="st8" width="86.3" height="3"/>
					</g>
				</g>
				<g>
					<g>
						<rect x="190" y="321.1" class="st8" width="103.1" height="3"/>
					</g>
				</g>
			</g>
			<g>
				<g>
					<rect x="209.1" y="174" class="st8" width="3" height="148.6"/>
				</g>
			</g>
			<g>
				<g>
					<rect x="232.6" y="198.3" class="st8" width="3" height="148.6"/>
				</g>
			</g>
			<g>
				<g>
					<g>
						<path class="st8" d="M252.5,325.6h-40.2c-3.5,0-6.3-2.7-6.3-6V199.1c0-3.3,2.8-6,6.3-6h40.2l0,0c17.4,0,46.3,8.4,46.3,39.8
							c0,11.1-4.2,20.1-12,26.1c11.2,7.5,14,19.8,13.8,26.2C300.6,315,275.8,325.6,252.5,325.6z M215.2,316.5h37.4
							c11.7,0,39-3.1,39-31.4c0-0.8,0.2-15.9-15.8-21.4l-11.4-3.9l11.1-4.6c9.5-3.9,14.3-11.4,14.3-22.2c0-29.8-33.2-30.7-36.9-30.7
							h-37.6v114.2H215.2z M252.5,303h-23.1v-36.6h23c0.1,0,0.4,0,0.9,0c10.9,0,23.6,4.8,23.6,18.1C277,296.1,267.9,303,252.5,303z
							 M238.6,293.9h13.9c7,0,15.4-1.6,15.4-9.4c0-8.1-10.1-9-14.5-9c-0.4,0-0.6,0-0.6,0h-14.2L238.6,293.9L238.6,293.9z
							 M252.5,252.5h-23.1v-37.3h23.1c1,0,6,0.1,11.1,2.2c7.5,3.1,11.6,9.1,11.6,16.9C275.2,248.7,260.4,252.5,252.5,252.5z
							 M238.6,243.4h13.9c0.5,0,13.6-0.2,13.6-9c0-9.8-12.2-10.1-13.6-10.1h-14v19.1H238.6z"/>
					</g>
				</g>
			</g>
		</g>
		<g>
			<g>
				<path class="st5" d="M211.7,292.5l-37.6-65.1v-47.2h2.8c3,0,5.5-2.5,5.5-5.5l0,0c0-3-2.5-5.5-5.5-5.5h-42.2
					c-3,0-5.5,2.5-5.5,5.5l0,0c0,3,2.5,5.5,5.5,5.5h2.8v47.2l-37.6,65.1c-8.5,14.7,2.1,33.1,19.1,33.1h73.5
					C209.6,325.6,220.2,307.2,211.7,292.5z"/>
			</g>
			<g>
				<path class="st9" d="M169.8,242.5h-28.1l-32.1,55.6c-2.8,4.9-0.9,9.2,0,10.9c0.9,1.6,3.7,5.4,9.4,5.4h73.5
					c5.7,0,8.5-3.8,9.4-5.4s2.8-6,0-10.9L169.8,242.5z"/>
			</g>
			<g>
				<circle class="st5" cx="137.9" cy="289.4" r="2.8"/>
			</g>
			<g>
				<circle class="st9" cx="160.8" cy="214.4" r="2.8"/>
			</g>
			<g>
				<circle class="st9" cx="151.6" cy="196.3" r="4.1"/>
			</g>
			<g>
				<circle class="st5" cx="171.6" cy="294.2" r="2.9"/>
			</g>
			<g>
				<circle class="st5" cx="153.6" cy="262" r="4.4"/>
			</g>
		</g>
		<g>
			<g>
				
					<rect x="326.6" y="132.5" transform="matrix(0.6386 -0.7696 0.7696 0.6386 20.8498 339.285)" class="st6" width="90.1" height="29.9"/>
			</g>
			<g>
				
					<rect x="398.1" y="99.6" transform="matrix(0.6386 -0.7696 0.7696 0.6386 63.3951 350.31)" class="st10" width="13.1" height="16.2"/>
			</g>
			<g>
				<path class="st11" d="M410.9,135.8l-6.1-5.1l-3.3,4l4.1,3.4c1.1,0.9,1.3,2.6,0.3,3.7L373,181.5l-2.2,2.6c-1,1.2-0.8,3,0.4,4
					c1.2,1,3,0.8,4-0.4l2.2-2.6l34.6-41.6l0,0c1.8-2.2,1.5-5.5-0.7-7.3L410.9,135.8z"/>
			</g>
			<g>
				
					<rect x="320.7" y="135.3" transform="matrix(0.6386 -0.7696 0.7696 0.6386 22.3598 333.1136)" class="st12" width="90.3" height="14.9"/>
			</g>
			<g>
				<path class="st12" d="M321.2,226.4c0,0-11.9,13-23.3,14.9l-4.8-4c-0.3-11.6,10.3-25.7,10.3-25.7L321.2,226.4z"/>
			</g>
			<g>
				<polygon class="st5" points="291.6,243.9 293,237.3 297.8,241.2 				"/>
			</g>
			<g>
				<path class="st6" d="M321.2,226.4c0,0-11.9,13-23.3,14.9l-2.4-2l16.8-20.3L321.2,226.4z"/>
			</g>
			<g>
				<path class="st7" d="M355,192.2c-1.1,1.3-2.6,1.9-4.1,1.9c0.3,1.5-0.1,3.1-1.1,4.4l-0.4,0.5c-1.1,1.3-2.6,1.9-4.1,1.9
					c0.3,1.5-0.1,3.1-1.1,4.4l-0.4,0.5c-1.1,1.3-2.6,1.9-4.1,1.9c0.3,1.5-0.1,3.1-1.1,4.4l-0.4,0.5c-1.1,1.3-2.6,1.9-4.1,1.9
					c0.3,1.5-0.1,3.1-1.1,4.4l-0.4,0.5c-1.1,1.3-2.6,1.9-4.1,1.9c0.3,1.5,0,3.1-1.1,4.4l-0.4,0.5c-1.9,2.2-5.2,2.6-7.4,0.7
					l-16.3-13.5c-2.2-1.9-2.6-5.2-0.7-7.4l0.4-0.5c1.1-1.3,2.6-1.9,4.1-1.9c-0.3-1.5,0.1-3.1,1.1-4.4l0.4-0.5
					c1.1-1.3,2.6-1.9,4.1-1.9c-0.3-1.5,0.1-3.1,1.1-4.4l0.4-0.5c1.1-1.3,2.6-1.9,4.1-1.9c-0.3-1.5,0.1-3.1,1.1-4.4l0.4-0.5
					c1.1-1.3,2.6-1.9,4.1-1.9c-0.3-1.5,0-3.1,1.1-4.4l0.4-0.5c1.1-1.3,2.6-1.9,4.1-1.9c-0.3-1.5,0.1-3.1,1.1-4.4l0.4-0.5
					c1.9-2.3,5.2-2.6,7.5-0.7l16.3,13.5c2.2,1.9,2.6,5.2,0.7,7.5L355,192.2z"/>
			</g>
			<g>
				<path class="st13" d="M355,192.2c-1.1,1.3-2.6,1.9-4.1,1.9c0.3,1.5-0.1,3.1-1.1,4.4l-0.4,0.5c-1.1,1.3-2.6,1.9-4.1,1.9
					c0.3,1.5-0.1,3.1-1.1,4.4l-0.4,0.5c-1.1,1.3-2.6,1.9-4.1,1.9c0.3,1.5-0.1,3.1-1.1,4.4l-0.4,0.5c-1.1,1.3-2.6,1.9-4.1,1.9
					c0.3,1.5-0.1,3.1-1.1,4.4l-0.4,0.5c-1.1,1.3-2.6,1.9-4.1,1.9c0.3,1.5,0,3.1-1.1,4.4l-0.4,0.5c-1.9,2.2-5.2,2.6-7.4,0.7l-4.8-4
					c-2.2-1.9-2.6-5.2-0.7-7.5l0.4-0.5c1.1-1.3,2.6-1.9,4.1-1.9c-0.3-1.5,0-3.1,1.1-4.4l0.4-0.5c1.1-1.3,2.6-1.9,4.1-1.9
					c-0.3-1.5,0-3.1,1.1-4.4l0.4-0.5c1.1-1.3,2.6-1.9,4.1-1.9c-0.3-1.5,0-3.1,1.1-4.4l0.4-0.5c1.1-1.3,2.6-1.9,4.1-1.9
					c-0.3-1.5,0-3.1,1.1-4.4l0.4-0.5c1.1-1.3,2.6-1.9,4.1-1.9c-0.3-1.5,0-3.1,1.1-4.4l0.4-0.5c1.9-2.3,5.2-2.6,7.5-0.7l4.8,4
					c2.2,1.9,2.6,5.2,0.7,7.5L355,192.2z"/>
			</g>
		</g>
		<g>
			<g>
				<path class="st13" d="M385.3,252.9c0-9.4-5.2-17.7-12.8-22v18L360,259.7l-12.4-10.8v-18c-7.7,4.3-12.8,12.6-12.8,22
					c0,10,5.8,18.7,14.3,22.8l-3.4,54.3c-0.5,8.3,6.1,15.3,14.4,15.3l0,0c8.3,0,14.9-7,14.4-15.3l-3.4-54.3
					C379.4,271.5,385.3,262.9,385.3,252.9z M360,338.7c-3.7,0-6.7-3-6.7-6.7s3-6.7,6.7-6.7s6.7,3,6.7,6.7
					C366.8,335.7,363.8,338.7,360,338.7z"/>
			</g>
			<g>
				<polygon class="st14" points="359.9,279.1 360.1,276.6 367.4,276.6 370.2,324.8 367.5,318 365.1,279.1 				"/>
			</g>
		</g>
	</g>
</g>
</svg>
