<?xml version="1.0" encoding="utf-8"?>
<!-- Generator: Adobe Illustrator 22.0.1, SVG Export Plug-In . SVG Version: 6.00 Build 0)  -->
<svg version="1.1" id="Layer_1" xmlns="http://www.w3.org/2000/svg" xmlns:xlink="http://www.w3.org/1999/xlink" x="0px" y="0px"
	 viewBox="0 0 512 512" style="enable-background:new 0 0 512 512;" xml:space="preserve">
<style type="text/css">
	.st0{display:none;fill:#F4F9FB;enable-background:new    ;}
	.st1{font-family:'ArialMT';}
	.st2{font-size:29.2349px;}
	.st3{fill:#DE632E;}
	.st4{fill:#FFFFFF;}
	.st5{fill:#FFFEFB;}
	.st6{fill:#FBC254;}
	.st7{fill:#EEED8E;}
	.st8{fill:#49BEDF;}
	.st9{fill:#E0DD85;}
	.st10{fill:#D1EAF8;}
	.st11{fill:#5B6374;}
	.st12{fill:#F1C967;}
	.st13{fill:#CECECE;}
</style>
<g>
	<text transform="matrix(1 0 0 1 129.8778 426.1177)" class="st0 st1 st2">TARGET AUDIENCE</text>
	<g>
		<g>
			<circle class="st3" cx="280.5" cy="238" r="90.8"/>
		</g>
		<g>
			<path class="st4" d="M280.5,278.8c-22.5,0-40.8-18.3-40.8-40.8s18.3-40.8,40.8-40.8s40.8,18.3,40.8,40.8S303,278.8,280.5,278.8z
				 M280.5,214.2c-13.1,0-23.8,10.7-23.8,23.8s10.7,23.8,23.8,23.8s23.8-10.7,23.8-23.8S293.6,214.2,280.5,214.2z"/>
		</g>
		<g>
			<path class="st4" d="M280.5,313.5c-41.7,0-75.6-33.9-75.6-75.6s33.9-75.6,75.6-75.6s75.6,33.9,75.6,75.6S322.1,313.5,280.5,313.5
				z M280.5,179.5c-32.3,0-58.5,26.2-58.5,58.5s26.2,58.5,58.5,58.5S339,270.3,339,238S312.7,179.5,280.5,179.5z"/>
		</g>
		<g>
			<g>
				<circle class="st5" cx="330.1" cy="333.6" r="24.8"/>
			</g>
			<g>
				<path class="st6" d="M319.4,333.8c0.2-1.4,0.3-3.1,0.3-5.2h10.9v11.5h-5.5C321.7,340.1,319,337.2,319.4,333.8z"/>
			</g>
			<g>
				<path class="st6" d="M340.8,333.8c-0.1-1.4-0.2-3.1-0.2-5.2h-10.9v11.5h5.4C338.5,340.1,341.2,337.2,340.8,333.8z"/>
			</g>
			<g>
				<path class="st7" d="M330.9,338.1h-1.5c-4,0-7.3-3.3-7.3-7.3v-4.5c0-4,3.3-7.3,7.3-7.3h1.5c4,0,7.3,3.3,7.3,7.3v4.5
					C338.2,334.9,334.9,338.1,330.9,338.1z"/>
			</g>
			<g>
				<circle class="st7" cx="322.1" cy="328.6" r="2.1"/>
			</g>
			<g>
				<rect x="338.2" y="326.7" class="st6" width="2.4" height="1.9"/>
			</g>
			<g>
				<circle class="st7" cx="338.2" cy="328.6" r="2.1"/>
			</g>
			<g>
				<path class="st6" d="M337,318.7c0,0-1.3,3.6-5.6,6.7c-3.1,2.2-6.9,3.2-10.7,3.2h-1.1c0,0-1.4-9,7.2-11.9
					C332.9,314.7,337,318.7,337,318.7z"/>
			</g>
			<g>
				<path class="st6" d="M333.9,322c0,0,0,0.1,0,0.2c0.6,2.6,3,4.5,5.7,4.5h1c0,0,0.6-7-3.6-8C337,318.7,334.5,318.7,333.9,322z"/>
			</g>
			<g>
				<path class="st8" d="M347,351.7c-4.4,4.1-10.4,6.7-16.9,6.7s-12.5-2.5-16.9-6.7l0.1-0.9c0.9-6.1,6.9-10.6,13.4-10.6h6.6
					c6.5,0,12.5,4.5,13.4,10.6L347,351.7z"/>
			</g>
			<g>
				<rect x="325.8" y="337.3" class="st7" width="8.5" height="4"/>
			</g>
			<g>
				<path class="st7" d="M336,340.4c-0.1,3.2-2.7,5.7-5.9,5.7c-3.2,0-5.8-2.5-5.9-5.7c0.9-0.2,1.8-0.3,2.7-0.3h6.6
					C334.3,340.1,335.2,340.2,336,340.4z"/>
			</g>
			<g>
				<path class="st9" d="M334.3,337.3v2c-1,0.5-2.1,0.8-3.3,0.8h-1.9c-1.2,0-2.3-0.3-3.3-0.8v-2l0,0c1,0.5,2.1,0.8,3.3,0.8h1.9
					C332.3,338.1,333.4,337.8,334.3,337.3z"/>
			</g>
			<g>
				<path class="st10" d="M330.1,360.8c-15,0-27.2-12.2-27.2-27.2s12.2-27.2,27.2-27.2s27.2,12.2,27.2,27.2S345.1,360.8,330.1,360.8
					z M330.1,311.2c-12.3,0-22.3,10-22.3,22.3s10,22.3,22.3,22.3s22.3-10,22.3-22.3S342.4,311.2,330.1,311.2z"/>
			</g>
			<g>
				<circle class="st11" cx="381.8" cy="287.8" r="15.5"/>
			</g>
			<g>
				<path class="st6" d="M375.1,288c0.1-0.9,0.2-2,0.2-3.3h6.9v7.2h-3.4C376.5,292,374.9,290.1,375.1,288z"/>
			</g>
			<g>
				<path class="st6" d="M388.5,288c-0.1-0.9-0.1-2-0.1-3.3h-6.9v7.2h3.4C387.1,292,388.7,290.1,388.5,288z"/>
			</g>
			<g>
				<path class="st7" d="M381.8,290.7L381.8,290.7c-2.8,0-5.1-2.3-5.1-5.1v-1.9c0-2.8,2.3-5.1,5.1-5.1l0,0c2.8,0,5.1,2.3,5.1,5.1
					v1.9C386.8,288.4,384.6,290.7,381.8,290.7z"/>
			</g>
			<g>
				<circle class="st7" cx="376.7" cy="284.7" r="1.3"/>
			</g>
			<g>
				<rect x="386.8" y="283.5" class="st6" width="1.5" height="1.2"/>
			</g>
			<g>
				<circle class="st7" cx="386.8" cy="284.7" r="1.3"/>
			</g>
			<g>
				<path class="st6" d="M386.1,278.5c0,0-0.8,2.3-3.5,4.2c-1.9,1.4-4.3,2-6.7,2h-0.7c0,0-0.9-5.7,4.5-7.5
					C383.5,276,386.1,278.5,386.1,278.5z"/>
			</g>
			<g>
				<path class="st6" d="M384.2,280.6c0,0,0,0,0,0.1c0.4,1.7,1.9,2.8,3.5,2.8h0.6c0,0,0.3-4.4-2.2-5
					C386.1,278.5,384.5,278.5,384.2,280.6z"/>
			</g>
			<g>
				<path class="st8" d="M392.4,299.2c-2.8,2.6-6.5,4.2-10.6,4.2s-7.8-1.6-10.6-4.2l0.1-0.6c0.6-3.8,4.3-6.6,8.4-6.6h4.1
					c4.1,0,7.8,2.8,8.4,6.6L392.4,299.2z"/>
			</g>
			<g>
				<rect x="379.1" y="290.2" class="st7" width="5.3" height="2.5"/>
			</g>
			<g>
				<path class="st7" d="M385.5,292.1c-0.1,2-1.7,3.6-3.7,3.6s-3.6-1.6-3.7-3.6c0.5-0.1,1.1-0.2,1.7-0.2h4.1
					C384.4,292,385,292,385.5,292.1z"/>
			</g>
			<g>
				<path class="st9" d="M384.4,290.2v1.3c-0.6,0.3-1.3,0.5-2.1,0.5h-1.2c-0.8,0-1.5-0.2-2.1-0.5v-1.3l0,0c0.6,0.3,1.3,0.5,2.1,0.5
					h1.2C383.1,290.7,383.8,290.5,384.4,290.2z"/>
			</g>
			<g>
				<path class="st10" d="M381.8,305.8c-9.9,0-18-8.1-18-18s8.1-18,18-18s18,8.1,18,18C399.8,297.7,391.7,305.8,381.8,305.8z
					 M381.8,274.7c-7.2,0-13.1,5.9-13.1,13.1s5.9,13.1,13.1,13.1s13.1-5.9,13.1-13.1S389,274.7,381.8,274.7z"/>
			</g>
			<g>
				
					<rect x="297.8" y="241.4" transform="matrix(0.8804 -0.4743 0.4743 0.8804 -96.4061 175.7563)" class="st10" width="4.9" height="75.1"/>
			</g>
			<g>
				<path class="st10" d="M296,365.9c-0.7,0-1.4-0.3-1.9-0.9c-0.9-1-0.7-2.6,0.3-3.4l16.1-13.1c1-0.9,2.6-0.7,3.4,0.3
					c0.9,1,0.7,2.6-0.3,3.4l-16.1,13.1C297.1,365.7,296.6,365.9,296,365.9z"/>
			</g>
			<g>
				<circle class="st10" cx="296" cy="363.5" r="6"/>
			</g>
			<g>
				
					<rect x="345.9" y="306.1" transform="matrix(0.763 -0.6464 0.6464 0.763 -114.0468 305.9924)" class="st10" width="28.8" height="4.9"/>
			</g>
		</g>
		<g>
			<g>
				<circle class="st12" cx="377" cy="165.2" r="35.4"/>
			</g>
			<g>
				<path class="st11" d="M359.3,174.6c0,0,2.8-3.5,2.8-16.5h15.6v16.5H359.3z"/>
			</g>
			<g>
				<path class="st11" d="M394.8,174.6c0,0-2.8-2.9-2.8-16.5h-15.6v16.5H394.8z"/>
			</g>
			<g>
				<path class="st7" d="M378.4,171.7h-2.7c-5.6,0-10.1-4.5-10.1-10.1v-7c0-5.6,4.5-10.1,10.1-10.1h2.7c5.6,0,10.1,4.5,10.1,10.1v7
					C388.5,167.2,384,171.7,378.4,171.7z"/>
			</g>
			<g>
				<circle class="st7" cx="365.5" cy="158.1" r="3"/>
			</g>
			<g>
				<rect x="388.5" y="155.4" class="st11" width="3.4" height="2.7"/>
			</g>
			<g>
				<circle class="st7" cx="388.5" cy="158.1" r="3"/>
			</g>
			<g>
				<path class="st11" d="M386.9,143.9c0,0-1.8,5.2-8,9.5c-4.4,3.1-9.9,4.6-15.3,4.6H362c0,0-2.1-12.9,10.3-17
					C380.9,138.3,386.9,143.9,386.9,143.9z"/>
			</g>
			<g>
				<path class="st11" d="M382.5,148.7c0,0,0,0.1,0.1,0.3c0.8,3.8,4.2,6.4,8.1,6.4h1.4c0,0,0.8-10.1-5.1-11.4
					C386.9,143.9,383.3,143.9,382.5,148.7z"/>
			</g>
			<g>
				<path class="st3" d="M401.1,191.1c-6.3,5.9-14.8,9.5-24.1,9.5c-9.3,0-17.8-3.6-24.1-9.5l0.2-1.3c1.3-8.7,9.9-15.1,19.2-15.1h9.5
					c9.3,0,17.9,6.4,19.2,15.1L401.1,191.1z"/>
			</g>
			<g>
				<rect x="370.9" y="170.5" class="st7" width="12.2" height="5.7"/>
			</g>
			<g>
				<path class="st7" d="M385.5,175c-0.2,4.6-3.9,8.2-8.5,8.2s-8.3-3.6-8.5-8.1c1.2-0.3,2.5-0.4,3.8-0.4h9.5
					C383,174.6,384.2,174.7,385.5,175z"/>
			</g>
			<g>
				<path class="st9" d="M383.1,170.6v2.9c-1.4,0.7-3,1.1-4.7,1.1h-2.7c-1.7,0-3.3-0.4-4.8-1.2v-2.9l0,0c1.4,0.8,3,1.2,4.8,1.2h2.7
					C380.1,171.7,381.6,171.3,383.1,170.6z"/>
			</g>
			<g>
				<path class="st10" d="M377,203c-20.9,0-37.8-17-37.8-37.8c0-20.9,17-37.8,37.8-37.8s37.8,17,37.8,37.8S397.9,203,377,203z
					 M377,132.2c-18.2,0-33,14.8-33,33s14.8,33,33,33s33-14.8,33-33S395.2,132.2,377,132.2z"/>
			</g>
			<g>
				
					<rect x="280.1" y="207.1" transform="matrix(0.7914 -0.6113 0.6113 0.7914 -61.7681 238.1199)" class="st10" width="75.9" height="4.9"/>
			</g>
			<g>
				<path class="st10" d="M405.9,146.4c-0.8,0-1.5-0.4-2-1.1c-0.8-1.1-0.5-2.6,0.6-3.4l16.7-11.3c1.1-0.8,2.6-0.5,3.4,0.6
					s0.5,2.6-0.6,3.4L407.2,146C406.8,146.2,406.3,146.4,405.9,146.4z"/>
			</g>
			<g>
				<circle class="st10" cx="422.5" cy="132.6" r="6.6"/>
			</g>
		</g>
		<g>
			<circle class="st8" cx="147.5" cy="172.7" r="49.4"/>
		</g>
		<g>
			<path class="st7" d="M149.4,181.8h-3.8c-7.8,0-14.2-6.3-14.2-14.2v-9.7c0-7.8,6.3-14.2,14.2-14.2h3.8c7.8,0,14.2,6.3,14.2,14.2
				v9.7C163.5,175.5,157.2,181.8,149.4,181.8z"/>
		</g>
		<g>
			<circle class="st7" cx="163.5" cy="162.8" r="4.1"/>
		</g>
		<g>
			<path class="st11" d="M151.6,149.7c0,0,0,0.2,0.1,0.4c1.1,5.3,5.9,8.9,11.3,8.9h1.9c0,0,2.6-14.5-7.1-16
				C157.8,143.1,152.8,143.1,151.6,149.7z"/>
		</g>
		<g>
			<path class="st11" d="M181.1,208.8c-8.8,8.3-20.7,13.3-33.7,13.3s-24.9-5-33.7-13.3l0.3-1.9c1.9-12.2,13.8-21.1,26.8-21.1H154
				c13,0,25,8.9,26.8,21.1L181.1,208.8z"/>
		</g>
		<g>
			<path class="st11" d="M159.3,186.3l-11.9,33.5l-11.9-33.5c0,0,0,0,0.1,0c0,0,0.1,0,0.2,0c0.1,0,0.1,0,0.2,0
				c1.6-0.3,3.2-0.4,4.9-0.4h13.2C155.8,185.9,157.6,186,159.3,186.3z"/>
		</g>
		<g>
			<rect x="138.9" y="180.2" class="st7" width="17" height="7.9"/>
		</g>
		<g>
			<path class="st9" d="M155.9,180.2v4c-2,1-4.2,1.6-6.5,1.6h-3.8c-2.4,0-4.7-0.6-6.7-1.7v-4l0,0c2,1.1,4.3,1.6,6.6,1.6h3.8
				C151.7,181.8,153.9,181.3,155.9,180.2z"/>
		</g>
		<g>
			<path class="st10" d="M147.5,224.6c-28.6,0-51.8-23.3-51.8-51.8S119,121,147.5,121s51.8,23.3,51.8,51.8S176.1,224.6,147.5,224.6z
				 M147.5,125.7c-25.9,0-47,21.1-47,47s21.1,47,47,47s47-21.1,47-47C194.4,146.8,173.4,125.7,147.5,125.7z"/>
		</g>
		<g>
			<circle class="st7" cx="131.4" cy="162.8" r="4.1"/>
		</g>
		<g>
			<path class="st11" d="M157.8,143.2c0,0-0.2,7.1-8.7,13.1c-6.2,4.4-11.7,3.9-19.3,3.9c-1.2,0-1.2-6.5-1.2-7.3
				c0.8-8.5,9-14.4,17.1-14.6c3.1-0.1,6.2,0.7,8.9,2.3C155.1,141,157.3,142.6,157.8,143.2z"/>
		</g>
		<g>
			<path class="st4" d="M159.3,186.3l-11.9,33.5l-11.9-33.5c0,0,0,0,0.1,0c0,0,0.1,0,0.2,0c0.1,0,0.1,0,0.2,0
				c1.6-0.3,3.2-0.4,4.9-0.4h13.2C155.8,185.9,157.6,186,159.3,186.3z"/>
		</g>
		<g>
			<circle class="st8" cx="147.5" cy="172.7" r="49.4"/>
		</g>
		<g>
			<path class="st7" d="M149.4,181.8h-3.8c-7.8,0-14.2-6.3-14.2-14.2v-9.7c0-7.8,6.3-14.2,14.2-14.2h3.8c7.8,0,14.2,6.3,14.2,14.2
				v9.7C163.5,175.5,157.2,181.8,149.4,181.8z"/>
		</g>
		<g>
			<circle class="st7" cx="163.5" cy="162.8" r="4.1"/>
		</g>
		<g>
			<path class="st11" d="M151.6,149.7c0,0,0,0.2,0.1,0.4c1.1,5.3,5.9,8.9,11.3,8.9h1.9c0,0,2.6-14.5-7.1-16
				C157.8,143.1,152.8,143.1,151.6,149.7z"/>
		</g>
		<g>
			<path class="st11" d="M181.1,208.8c-8.8,8.3-20.7,13.3-33.7,13.3s-24.9-5-33.7-13.3l0.3-1.9c1.9-12.2,13.8-21.1,26.8-21.1H154
				c13,0,25,8.9,26.8,21.1L181.1,208.8z"/>
		</g>
		<g>
			<path class="st11" d="M159.3,186.3l-11.9,33.5l-11.9-33.5c0,0,0,0,0.1,0c0,0,0.1,0,0.2,0c0.1,0,0.1,0,0.2,0
				c1.6-0.3,3.2-0.4,4.9-0.4h13.2C155.8,185.9,157.6,186,159.3,186.3z"/>
		</g>
		<g>
			<rect x="138.9" y="180.2" class="st7" width="17" height="7.9"/>
		</g>
		<g>
			<path class="st9" d="M155.9,180.2v4c-2,1-4.2,1.6-6.5,1.6h-3.8c-2.4,0-4.7-0.6-6.7-1.7v-4l0,0c2,1.1,4.3,1.6,6.6,1.6h3.8
				C151.7,181.8,153.9,181.3,155.9,180.2z"/>
		</g>
		<g>
			<path class="st10" d="M147.5,224.6c-28.6,0-51.8-23.3-51.8-51.8S119,121,147.5,121s51.8,23.3,51.8,51.8S176.1,224.6,147.5,224.6z
				 M147.5,125.7c-25.9,0-47,21.1-47,47s21.1,47,47,47s47-21.1,47-47C194.4,146.8,173.4,125.7,147.5,125.7z"/>
		</g>
		<g>
			
				<rect x="230.5" y="167.5" transform="matrix(0.4556 -0.8902 0.8902 0.4556 -62.1628 322.8866)" class="st10" width="4.9" height="89.6"/>
		</g>
		<g>
			<path class="st10" d="M109.4,142.7c-0.5,0-1-0.2-1.5-0.5l-19.8-15.1c-1.1-0.8-1.3-2.3-0.5-3.4s2.3-1.3,3.4-0.5l19.8,15.1
				c1.1,0.8,1.3,2.3,0.5,3.4C110.9,142.4,110.1,142.7,109.4,142.7z"/>
		</g>
		<g>
			<circle class="st10" cx="89.7" cy="125.2" r="6.8"/>
		</g>
		<g>
			<path class="st10" d="M185.9,143.4c-0.6,0-1.2-0.2-1.7-0.7c-1-0.9-1-2.5,0-3.4l20.9-21c0.9-1,2.5-1,3.4,0c1,0.9,1,2.5,0,3.4
				l-20.9,21C187.1,143.1,186.5,143.4,185.9,143.4z"/>
		</g>
		<g>
			<circle class="st5" cx="219.8" cy="105.5" r="21.2"/>
		</g>
		<g>
			<circle class="st7" cx="131.4" cy="162.8" r="4.1"/>
		</g>
		<g>
			<path class="st11" d="M157.8,143.2c0,0-0.2,7.1-8.7,13.1c-6.2,4.4-11.7,3.9-19.3,3.9c-1.2,0-1.2-6.5-1.2-7.3
				c0.8-8.5,9-14.4,17.1-14.6c3.1-0.1,6.2,0.7,8.9,2.3C155.1,141,157.3,142.6,157.8,143.2z"/>
		</g>
		<g>
			<path class="st4" d="M159.3,186.3l-11.9,33.5l-11.9-33.5c0,0,0,0,0.1,0c0,0,0.1,0,0.2,0c0.1,0,0.1,0,0.2,0
				c1.6-0.3,3.2-0.4,4.9-0.4h13.2C155.8,185.9,157.6,186,159.3,186.3z"/>
		</g>
		<g>
			<polygon class="st4" points="231.1,268.7 231.1,352.2 150.6,352.2 150.6,250.1 212.3,250.1 			"/>
		</g>
		<g>
			<rect x="184" y="263.6" class="st13" width="35" height="3.2"/>
		</g>
		<g>
			<rect x="184" y="272.2" class="st13" width="35" height="3.2"/>
		</g>
		<g>
			<rect x="184" y="296.3" class="st13" width="35" height="3.2"/>
		</g>
		<g>
			<rect x="184" y="304.9" class="st13" width="35" height="3.2"/>
		</g>
		<g>
			<rect x="184" y="327.7" class="st13" width="35" height="3.2"/>
		</g>
		<g>
			<rect x="184" y="336.3" class="st13" width="35" height="3.2"/>
		</g>
		<g>
			<g>
				<polygon class="st13" points="174.8,308.3 161.6,308.3 161.6,294.5 171.6,294.5 171.6,296.9 164,296.9 164,305.9 172.4,305.9 
					172.4,302.9 174.8,302.9 				"/>
			</g>
		</g>
		<g>
			<polygon class="st3" points="167.2,298.1 169.9,301.4 168.2,301.2 179.4,294.3 169.7,303.2 168.8,304 168,303 165.3,299.7 			"/>
		</g>
		<g>
			<g>
				<polygon class="st13" points="174.8,276.7 161.6,276.7 161.6,262.9 171.6,262.9 171.6,265.4 164,265.4 164,274.3 172.4,274.3 
					172.4,271.3 174.8,271.3 				"/>
			</g>
		</g>
		<g>
			<polygon class="st3" points="167.2,266.6 169.9,269.9 168.2,269.7 179.4,262.7 169.7,271.6 168.8,272.4 168,271.4 165.3,268.1 
							"/>
		</g>
		<g>
			<g>
				<polygon class="st13" points="174.8,340.8 161.6,340.8 161.6,327 171.6,327 171.6,329.4 164,329.4 164,338.3 172.4,338.3 
					172.4,335.4 174.8,335.4 				"/>
			</g>
		</g>
		<g>
			<polygon class="st3" points="167.2,330.6 169.9,333.9 168.2,333.7 179.4,326.8 169.7,335.7 168.8,336.5 168,335.5 165.3,332.2 
							"/>
		</g>
		<g>
			<polygon class="st10" points="231.1,268.5 212.4,268.5 212.4,250.1 			"/>
		</g>
		<g>
			<g>
				<path class="st7" d="M220.5,109.5H219c-3,0-5.5-2.4-5.5-5.5v-3.8c0-3,2.4-5.5,5.5-5.5h1.5c3,0,5.5,2.4,5.5,5.5v3.8
					C226,107,223.6,109.5,220.5,109.5z"/>
			</g>
			<g>
				<circle class="st7" cx="226" cy="102.1" r="1.6"/>
			</g>
			<g>
				<path class="st11" d="M221.4,97.1c0,0,0,0.1,0,0.2c0.4,2,2.3,3.4,4.3,3.4h0.7c0,0,1-5.6-2.7-6.2
					C223.8,94.5,221.8,94.5,221.4,97.1z"/>
			</g>
			<g>
				<path class="st11" d="M232.8,119.9c-3.4,3.2-8,5.1-13,5.1s-9.6-1.9-13-5.1l0.1-0.7c0.7-4.7,5.3-8.1,10.3-8.1h5.1
					c5,0,9.6,3.4,10.3,8.1L232.8,119.9z"/>
			</g>
			<g>
				<path class="st11" d="M224.4,111.2l-4.6,12.9l-4.6-12.9l0,0c0,0,0,0,0.1,0c0,0,0,0,0.1,0c0.6-0.1,1.2-0.2,1.9-0.2h5.1
					C223,111,223.7,111.1,224.4,111.2z"/>
			</g>
			<g>
				<rect x="216.5" y="108.8" class="st7" width="6.5" height="3.1"/>
			</g>
			<g>
				<path class="st9" d="M223.1,108.9v1.5c-0.8,0.4-1.6,0.6-2.5,0.6h-1.5c-0.9,0-1.8-0.2-2.6-0.6v-1.5l0,0c0.8,0.4,1.6,0.6,2.6,0.6
					h1.5C221.4,109.5,222.3,109.2,223.1,108.9z"/>
			</g>
			<g>
				<circle class="st7" cx="213.6" cy="102.1" r="1.6"/>
			</g>
			<g>
				<path class="st11" d="M223.8,94.6c0,0-0.1,2.7-3.4,5.1c-2.4,1.7-4.5,1.5-7.4,1.5c-0.5,0-0.5-2.5-0.5-2.8
					c0.3-3.3,3.5-5.5,6.6-5.6c1.2,0,2.4,0.3,3.4,0.9C222.7,93.7,223.6,94.4,223.8,94.6z"/>
			</g>
			<g>
				<path class="st4" d="M224.4,111.2l-4.6,12.9l-4.6-12.9l0,0c0,0,0,0,0.1,0c0,0,0,0,0.1,0c0.6-0.1,1.2-0.2,1.9-0.2h5.1
					C223,111,223.7,111.1,224.4,111.2z"/>
			</g>
		</g>
		<g>
			<path class="st10" d="M219.8,129.2c-11.3,0-21-8-23.2-19.1c-2.5-12.8,5.9-25.2,18.7-27.7c1.5-0.3,3-0.4,4.5-0.4
				c11.3,0,21,8,23.2,19.1c1.2,6.2-0.1,12.5-3.6,17.7s-8.9,8.8-15.1,10C222.8,129,221.3,129.2,219.8,129.2z M219.8,86.8
				c-1.2,0-2.4,0.1-3.6,0.3c-10.2,2-16.8,11.9-14.8,22c1.7,8.8,9.4,15.2,18.4,15.2c1.2,0,2.4-0.1,3.6-0.3c4.9-1,9.2-3.8,12-7.9
				c2.8-4.2,3.8-9.2,2.9-14.1C236.5,93.1,228.8,86.8,219.8,86.8z"/>
		</g>
	</g>
</g>
</svg>
