<?xml version="1.0" encoding="utf-8"?>
<!-- Generator: Adobe Illustrator 22.0.1, SVG Export Plug-In . SVG Version: 6.00 Build 0)  -->
<svg version="1.1" id="Layer_1" xmlns="http://www.w3.org/2000/svg" xmlns:xlink="http://www.w3.org/1999/xlink" x="0px" y="0px"
	 viewBox="0 0 2500 1200" style="enable-background:new 0 0 2500 1200;" xml:space="preserve">
<style type="text/css">
	.st0{display:none;fill:#F4F9FB;enable-background:new    ;}
	.st1{font-family:'ArialMT';}
	.st2{font-size:68.5193px;}
	.st3{fill:#FFFFFF;}
	.st4{fill:#EEED8E;}
	.st5{fill:#B3D137;}
	.st6{fill:#2593A0;}
	.st7{fill:#8FCBCC;}
	.st8{fill:#CECECE;}
	.st9{fill:#F36F3B;}
	.st10{fill:#D1EAF8;}
	.st11{fill:#709998;}
	.st12{fill:#5B6374;}
	.st13{fill:#768193;}
	.st14{fill:#CAD3E2;}
</style>
<g>
	<text transform="matrix(1 0 0 1 924.7598 984.8687)" class="st0 st1 st2">CREATIVE SERVICES</text>
	<g>
		<g>
			<rect x="1088.5" y="205.8" class="st3" width="356.5" height="473.9"/>
		</g>
		<g>
			<path class="st3" d="M1185.5,747.7h-153.3c-2.1,0-4-1.9-4-4v-95.2c0-2.1,1.9-4,4-4h153.3c2.1,0,4,1.9,4,4v95.2
				C1189.5,745.8,1187.9,747.7,1185.5,747.7z"/>
		</g>
		<g>
			<g>
				<g>
					<g>
						<g>
							<path class="st4" d="M1068.6,417.7h53.7c-1.4,19-8.7,36.3-20.4,50.2c-11.7,13.8-17.3,31.6-17.3,49.7v1.2H1036V460
								c18.5,0,33.5-15,33.5-33.8C1069.8,423,1069.3,420.2,1068.6,417.7z"/>
						</g>
						<g>
							<path class="st4" d="M1036,449.8V324.4c1.2,0,2.3,0,3.3,0c44.5,2.1,80.9,38.9,82.7,83.2h-68.9l4,7.3c1.9,3.5,2.8,7.3,2.8,11
								C1059.7,439.2,1049.1,449.8,1036,449.8z"/>
						</g>
					</g>
					<g>
						<g>
							<path class="st5" d="M1036,324.4v125.4l0,0c-13.1,0-23.7-10.5-23.7-23.7c0-4,0.9-7.7,2.8-11l4-7.3h-70.8
								C950.2,360.9,988.9,323.9,1036,324.4z"/>
						</g>
						<g>
							<path class="st5" d="M1036,459.6L1036,459.6v58.8h-50.2v-1.2c0-19-7-36.8-19-51.6c-10.5-13.4-17.3-30-18.8-48h55.1
								c-0.7,2.8-1.2,5.6-1.2,8.4C1002.3,444.6,1017.5,459.6,1036,459.6z"/>
						</g>
					</g>
				</g>
				<g>
					<g>
						<g>
							<path class="st6" d="M1036,540.7h47.3c6.1,0,11,4.9,11,11s-4.9,11-11,11H1036V540.7z"/>
						</g>
					</g>
					<g>
						<g>
							<path class="st6" d="M1036,518.4h47.3c6.1,0,11,4.9,11,11s-4.9,11-11,11H1036V518.4z"/>
						</g>
					</g>
					<g>
						<g>
							<path class="st6" d="M1083.4,562.7c6.1,0,11,4.9,11,11c0,5.6-4.2,10.1-9.4,10.8l-29.8,10.5c-2.6,0.9-4.2,3.3-4.2,5.9
								c0,3.3-2.6,5.9-5.9,5.9h-9.1v-22.3v-12.4v-9.6h47.3L1083.4,562.7L1083.4,562.7z"/>
						</g>
					</g>
					<g>
						<g>
							<path class="st7" d="M1036,562.7h-49.2c-6.1,0-11-4.9-11-11s4.9-11,11-11h49.2V562.7z"/>
						</g>
					</g>
					<g>
						<g>
							<path class="st7" d="M987,540.7c-6.1,0-11-4.9-11-11s4.9-11,11-11h49.2v22H987z"/>
						</g>
					</g>
					<g>
						<g>
							<path class="st7" d="M987,562.7h49.2v9.6v12.4V607h-0.9h-10.1c-3.3,0-5.9-2.6-5.9-5.9c0-2.6-1.6-4.9-4.2-5.9l-29.8-10.5
								c-5.4-0.7-9.4-5.4-9.4-10.8C976,567.7,980.9,562.7,987,562.7z"/>
						</g>
					</g>
				</g>
			</g>
		</g>
		<g>
			<polygon class="st3" points="917.2,687.2 903.6,670.5 890.9,680.9 909,703.1 914.4,709.9 920.5,704.5 985.9,644.5 			"/>
		</g>
		<g>
			<rect x="1141.5" y="357.9" class="st8" width="259.2" height="9.4"/>
		</g>
		<g>
			<rect x="1141.5" y="400.5" class="st8" width="259.2" height="9.4"/>
		</g>
		<g>
			<rect x="1141.5" y="443" class="st8" width="259.2" height="9.4"/>
		</g>
		<g>
			<rect x="1141.5" y="485.6" class="st8" width="259.2" height="9.4"/>
		</g>
		<g>
			<rect x="1141.5" y="528.3" class="st8" width="259.2" height="9.4"/>
		</g>
		<g>
			<rect x="1088.5" y="205.8" class="st9" width="356.5" height="87.4"/>
		</g>
		<g>
			<g>
				<rect x="1248.8" y="708.5" class="st10" width="319.9" height="89.3"/>
			</g>
			<g>
				<rect x="1532.9" y="708.5" class="st11" width="11.5" height="36.1"/>
			</g>
			<g>
				<rect x="1499.4" y="708.5" class="st11" width="11.5" height="19.9"/>
			</g>
			<g>
				<rect x="1466.6" y="708.5" class="st11" width="11.5" height="36.1"/>
			</g>
			<g>
				<rect x="1433" y="708.5" class="st11" width="11.5" height="19.9"/>
			</g>
			<g>
				<rect x="1400.5" y="708.5" class="st11" width="11.5" height="36.1"/>
			</g>
			<g>
				<rect x="1366.7" y="708.5" class="st11" width="11.5" height="19.9"/>
			</g>
			<g>
				<rect x="1334.1" y="708.5" class="st11" width="11.5" height="36.1"/>
			</g>
			<g>
				<rect x="1272.7" y="708.5" class="st11" width="11.5" height="36.1"/>
			</g>
			<g>
				<rect x="1300.6" y="708.5" class="st11" width="11.5" height="19.9"/>
			</g>
		</g>
		<g>
			<circle class="st5" cx="1153.4" cy="293.2" r="31.2"/>
		</g>
		<g>
			<path class="st9" d="M1189.5,654.6V693h-161.3v-38.4c0-5.6,4.5-10.1,10.1-10.1h141.1C1185.1,644.5,1189.5,649,1189.5,654.6z"/>
		</g>
		<g>
			<circle class="st5" cx="1076.3" cy="693" r="25.1"/>
		</g>
		<g>
			<g>
				<g>
					<path class="st12" d="M1599,352.3l-201.6,201.6l0,0l10.5,10.5c0,0,111.1-88.4,190.3-162.9
						C1612.6,388.4,1612.8,366.1,1599,352.3L1599,352.3z"/>
				</g>
				<g>
					<path class="st13" d="M1550,353c-74.5,79-162.9,190.3-162.9,190.3l10.5,10.5l201.6-201.6C1585.4,338.7,1563.1,338.9,1550,353z"
						/>
				</g>
			</g>
			<g>
				<path class="st14" d="M1408.2,564.4c0,0,6.6,34.2-26.7,50.9c-15.2,7.7-46.4-2.8-55.5,34c0,0-11.5-72.9,25.8-97.5
					c17.3-11.3,34.5-9.4,34.5-9.4L1408.2,564.4z"/>
			</g>
			<g>
				<path class="st12" d="M1380.5,610.5c-0.9,2.1-1.6,4-2.1,6.1c-16.2,5.4-44.1-1.9-52.5,32.6c0,0-11.5-72.9,25.8-97.5
					c1.6-0.9,3-1.9,4.7-2.6c8.9,3.5,14.8,10.8,6.3,25.3c-6.6,11.5-8,23.4,5.9,18.8C1375.6,590.9,1384.3,601.9,1380.5,610.5z"/>
			</g>
		</g>
	</g>
</g>
</svg>
