<?xml version="1.0" encoding="utf-8"?>
<!-- Generator: Adobe Illustrator 22.0.1, SVG Export Plug-In . SVG Version: 6.00 Build 0)  -->
<svg version="1.1" id="Layer_1" xmlns="http://www.w3.org/2000/svg" xmlns:xlink="http://www.w3.org/1999/xlink" x="0px" y="0px"
	 viewBox="0 0 512 512" style="enable-background:new 0 0 512 512;" xml:space="preserve">
<style type="text/css">
	.st0{display:none;fill:#F4F9FB;enable-background:new    ;}
	.st1{font-family:'ArialMT';}
	.st2{font-size:29.2349px;}
	.st3{fill:#F4F9FB;}
	.st4{fill:#5B6374;}
	.st5{fill:#494F5B;}
	.st6{fill:#CECECE;}
	.st7{fill:#F36F3B;}
	.st8{fill:#B3D137;}
	.st9{fill:#DE632E;}
	.st10{fill:#E89E23;}
	.st11{fill:#FFFFFF;}
</style>
<g>
	<text transform="matrix(1 0 0 1 66.6221 424.4299)" class="st0 st1 st2">E-COMMERCE OPTIMIZATION</text>
	<g>
		<g>
			<path class="st3" d="M365,118.5c-2.5,0-4.9,0.6-7,1.6c1.2-3,1.9-6.3,1.9-9.8c0-14.8-12-26.7-26.7-26.7
				c-13.5,0-24.7,10.1-26.4,23.2c-2.9-1.3-6.1-2-9.5-2c-12.9,0-23.4,10.5-23.4,23.4s10.5,23.4,23.4,23.4H365
				c9.1,0,16.5-7.4,16.5-16.5C381.6,125.9,374.2,118.5,365,118.5z"/>
		</g>
		<g>
			<g>
				<rect x="145.3" y="139.4" class="st4" width="198" height="153"/>
			</g>
			<g>
				<rect x="161.7" y="151.6" class="st3" width="165.1" height="128.7"/>
			</g>
			<g>
				<g>
					<polygon class="st4" points="209.4,351.8 179.6,351.8 200,292.4 229.8,292.4 					"/>
				</g>
				<g>
					<polygon class="st4" points="279.1,352 308.9,352 288.6,292.6 258.8,292.6 					"/>
				</g>
			</g>
			<g>
				<g>
					<polygon class="st4" points="226.7,301.2 222,315 192.2,315 196.9,301.2 					"/>
				</g>
				<g>
					<polygon class="st4" points="296.3,315 266.5,315 261.8,301.2 291.6,301.2 					"/>
				</g>
			</g>
			<g>
				<rect x="182.4" y="290.3" class="st4" width="123.8" height="11"/>
			</g>
			<g>
				<g>
					<polygon class="st5" points="226.7,301.2 222,315 192.2,315 196.9,301.2 					"/>
				</g>
				<g>
					<polygon class="st5" points="296.3,315 266.5,315 261.8,301.2 291.6,301.2 					"/>
				</g>
			</g>
			<g>
				<path class="st4" d="M258.9,139.4h-29.3l0,0c0-8.1,6.6-14.7,14.7-14.7l0,0C252.4,124.8,258.9,131.3,258.9,139.4L258.9,139.4
					L258.9,139.4z"/>
			</g>
		</g>
		<g>
			<polygon class="st6" points="176.8,248.6 173.8,244.7 211.3,215.7 229.2,229.9 272.1,196.7 288.7,210.7 312.5,189.6 315.8,193.3 
				288.8,217.1 272,203 229.2,236.1 211.3,221.9 			"/>
		</g>
		<g>
			<circle class="st7" cx="211.3" cy="218.8" r="6.7"/>
		</g>
		<g>
			<circle class="st7" cx="229.7" cy="232.2" r="6.7"/>
		</g>
		<g>
			<circle class="st7" cx="272.3" cy="200.5" r="6.7"/>
		</g>
		<g>
			<circle class="st7" cx="288.8" cy="213.9" r="6.7"/>
		</g>
		<g>
			<polygon class="st6" points="316.6,204.7 311.7,204.7 311.7,193.9 300.7,193.9 300.7,189 316.6,189 			"/>
		</g>
		<g>
			<g>
				<circle class="st8" cx="90.2" cy="267.9" r="4.8"/>
			</g>
			<g>
				<circle class="st8" cx="115.6" cy="267.9" r="4.8"/>
			</g>
			<g>
				<polygon class="st8" points="85.4,225.7 80.3,225.7 88.6,251.7 121.3,251.7 128.1,225.7 87.3,225.7 				"/>
			</g>
			<g>
				<path class="st4" d="M123.2,254.1H86.8L76,220.2H64.6c-2,0-3.8-1.3-4.3-3.2c-0.4-1.4-0.2-2.8,0.7-4s2.2-1.8,3.6-1.8h13.6
					l12.1,38h29.1l5.5-21.1H87.3v-4.9h44L123.2,254.1z"/>
			</g>
			<g>
				
					<rect x="103" y="235.7" transform="matrix(0.1109 -0.9938 0.9938 0.1109 -133.912 326.7084)" class="st4" width="25.2" height="4.9"/>
			</g>
			<g>
				
					<rect x="91.4" y="225.6" transform="matrix(0.9939 -0.1107 0.1107 0.9939 -25.7899 11.8544)" class="st4" width="4.9" height="25.2"/>
			</g>
			<g>
				<rect x="102.5" y="225.7" class="st4" width="4.9" height="25.1"/>
			</g>
			<g>
				<rect x="83" y="236.3" class="st4" width="42.8" height="4.9"/>
			</g>
			<g>
				<path class="st4" d="M115.6,265.5H83.5c-4.5,0-8.1-3.6-8.1-8.1c0.3-5,3.6-8.3,8.2-8.1h5v4.9h-5.1c-2-0.1-3.1,1.2-3.3,3.4
					c0,1.7,1.5,3.1,3.3,3.1h32.2L115.6,265.5L115.6,265.5z"/>
			</g>
			<g>
				<path class="st4" d="M90.2,275.1c-4,0-7.2-3.2-7.2-7.2s3.2-7.2,7.2-7.2s7.2,3.2,7.2,7.2C97.4,271.9,94.2,275.1,90.2,275.1z
					 M90.2,265.5c-1.3,0-2.4,1.1-2.4,2.4s1.1,2.4,2.4,2.4s2.4-1.1,2.4-2.4S91.5,265.5,90.2,265.5z"/>
			</g>
			<g>
				<path class="st4" d="M115.6,275.1c-4,0-7.2-3.2-7.2-7.2s3.2-7.2,7.2-7.2s7.2,3.2,7.2,7.2C122.9,271.9,119.6,275.1,115.6,275.1z
					 M115.6,265.5c-1.3,0-2.4,1.1-2.4,2.4s1.1,2.4,2.4,2.4s2.4-1.1,2.4-2.4S116.9,265.5,115.6,265.5z"/>
			</g>
		</g>
		<g>
			<g>
				<path class="st9" d="M186.7,158.7h-62c-1.2,0-2.2-1-2.2-2.2v-39c0-1.2,1-2.2,2.2-2.2h62c1.2,0,2.2,1,2.2,2.2v39
					C188.9,157.7,187.9,158.7,186.7,158.7z"/>
			</g>
			<g>
				<rect x="122.5" y="124.7" class="st4" width="66.4" height="8.8"/>
			</g>
			<g>
				<rect x="128.3" y="137.9" class="st6" width="24.4" height="2.4"/>
			</g>
			<g>
				<rect x="128.3" y="143.2" class="st6" width="24.4" height="2.4"/>
			</g>
			<g>
				<circle class="st8" cx="178.2" cy="148.1" r="4.9"/>
			</g>
		</g>
		<g>
			<circle class="st8" cx="356.1" cy="307.9" r="43.9"/>
		</g>
		<g>
			<path class="st4" d="M393.9,193.8c-6.8,0-12.3,5.5-12.3,12.3c0,2.1,0.5,4,1.4,5.7l0,0c0.2,0.4,0.4,0.7,0.6,1.1l10.3,17.4
				l10.3-17.4c0.2-0.4,0.4-0.7,0.6-1.1l0,0c0.9-1.7,1.4-3.6,1.4-5.7C406.2,199.3,400.7,193.8,393.9,193.8z M393.9,211.1
				c-2.8,0-5-2.2-5-5s2.2-5,5-5s5,2.2,5,5C398.9,208.9,396.7,211.1,393.9,211.1z"/>
		</g>
		<g>
			<path class="st8" d="M400.1,307.9c0,24.2-19.7,43.9-43.9,43.9c-1.9,0-3.7-0.1-5.4-0.3c-3.1-0.4-6.1-1.1-8.9-2.1
				c-17.2-6-29.6-22.3-29.6-41.5c0-24.3,19.7-43.9,43.9-43.9c20.7,0,38.1,14.3,42.7,33.7c0.7,2.8,1.1,5.7,1.2,8.7
				C400.1,306.8,400.1,307.3,400.1,307.9z"/>
		</g>
		<g>
			<g>
				<path class="st10" d="M356.1,343.1c-19.4,0-35.2-15.8-35.2-35.2s15.8-35.2,35.2-35.2c19.4,0,35.2,15.8,35.2,35.2
					S375.6,343.1,356.1,343.1z M356.1,280c-15.4,0-27.9,12.5-27.9,27.9s12.5,27.9,27.9,27.9s27.9-12.5,27.9-27.9
					S371.5,280,356.1,280z"/>
			</g>
		</g>
		<g>
			<g>
				<path class="st10" d="M359,291.3c4.4,1.1,7.5,4.6,7.6,9.3c0,0.2-0.2,0.4-0.5,0.4h-5.3c-0.2,0-0.5-0.2-0.5-0.4
					c-0.1-2.4-1.9-3.5-4.1-3.5c-2.3,0-4.2,1.3-4.2,4.2c0,2.4,2,3.7,4.2,3.7c0.2,0,2.6,0,4.9,1.1c3.6,1.7,5.6,5.1,5.6,9.1
					c0,5.3-3.4,8.6-7.7,9.6v3.4c0,0.1-0.2,0.3-0.5,0.3H354c-0.3,0-0.5-0.2-0.5-0.3v-3.4c-4.6-0.9-7.9-4.1-7.9-9.5
					c0-0.2,0.2-0.3,0.5-0.3h5.4c0.2,0,0.5,0.1,0.5,0.3c0.1,2.5,2,3.7,4.2,3.7s4.2-1.4,4.2-3.8c0-2.5-2.3-4.1-4.2-4.2
					c-0.3,0-2.6,0-5-1.1c-3.5-1.7-5.5-4.7-5.5-8.6c0-5.4,3.6-9,7.9-10v-3.7c0-0.2,0.2-0.4,0.5-0.4h4.5c0.3,0,0.5,0.2,0.5,0.4v3.7
					H359z"/>
			</g>
		</g>
		<g>
			<path class="st11" d="M387.2,264.9L387.2,264.9c-4.5,2.3-8,5.9-10.3,10.3l0,0l0,0c-2.2-4.4-5.8-8-10.2-10.2l-0.1-0.1l0.1-0.1
				c4.4-2.3,7.9-5.8,10.2-10.2l0,0l0,0C379.2,259,382.8,262.6,387.2,264.9L387.2,264.9z"/>
		</g>
		<g>
			<path class="st11" d="M331.1,340.9L331.1,340.9c-1.9,1-3.4,2.5-4.3,4.3l0,0l0,0c-0.9-1.8-2.4-3.4-4.3-4.3l0,0l0,0
				c1.8-1,3.3-2.5,4.3-4.3l0,0l0,0C327.7,338.5,329.2,340,331.1,340.9L331.1,340.9z"/>
		</g>
		<g>
			<path class="st11" d="M418.5,320.4L418.5,320.4c-3,1.6-5.4,4-6.9,6.9l0,0l0,0c-1.5-3-3.9-5.4-6.9-6.9h-0.1h0.1
				c3-1.5,5.3-3.9,6.9-6.9l0,0l0,0C413.1,316.4,415.5,318.8,418.5,320.4L418.5,320.4z"/>
		</g>
	</g>
</g>
</svg>
