<?xml version="1.0" encoding="utf-8"?>
<!-- Generator: Adobe Illustrator 22.0.1, SVG Export Plug-In . SVG Version: 6.00 Build 0)  -->
<svg version="1.1" id="Layer_1" xmlns="http://www.w3.org/2000/svg" xmlns:xlink="http://www.w3.org/1999/xlink" x="0px" y="0px"
	 viewBox="0 0 512 512" style="enable-background:new 0 0 512 512;" xml:space="preserve">
<style type="text/css">
	.st0{display:none;fill:#F4F9FB;enable-background:new    ;}
	.st1{font-family:'ArialMT';}
	.st2{font-size:29.2349px;}
	.st3{fill:#CECECE;}
	.st4{fill:#FFFFFF;}
	.st5{fill:#5B6374;}
	.st6{fill:#ECCA64;}
	.st7{fill:#49BEDF;}
	.st8{fill:#8FCBCC;}
	.st9{fill:#80B2B2;}
	.st10{fill:#709998;}
	.st11{fill:#B3D137;}
	.st12{fill:#E89E23;}
	.st13{fill:#F4F9FB;}
	.st14{fill:#A1BC3A;}
	.st15{fill:#D1EAF8;}
	.st16{fill:#F36F3B;}
	.st17{fill:#E06131;}
</style>
<g>
	<text transform="matrix(1 0 0 1 108.6112 429.2422)" class="st0 st1 st2">E-MAIL MARKETING</text>
	<g>
		<g>
			<g>
				<g>
					<path class="st3" d="M370.2,159.1l-5.1-4.1c-1.7-1.4-2.8-3.4-3-5.5l-1.2-13.2h-10.1h-0.4h-10.1l-1.2,13.2
						c-0.2,2.2-1.3,4.2-3,5.5l-5.1,4.1c-0.8,0.6-0.3,1.9,0.7,1.9h18.8h0.4h18.8C370.6,160.9,371,159.7,370.2,159.1z"/>
				</g>
				<g>
					<path class="st4" d="M370.2,157.9l-5.1-4.1c-1.7-1.4-2.8-3.4-3-5.5l-1.2-13.2h-10.1h-0.4h-10.1l-1.2,13.2
						c-0.2,2.2-1.3,4.2-3,5.5l-5.1,4.1c-0.8,0.6-0.3,1.9,0.7,1.9h18.8h0.4h18.8C370.6,159.8,371,158.6,370.2,157.9z"/>
				</g>
				<g>
					<polygon class="st3" points="361.8,144.8 361.4,140 339.8,140 339.3,144.8 					"/>
				</g>
				<g>
					<path class="st5" d="M392.4,141.9h-84.1c-2.9,0-5.2-2.3-5.2-5.2V83.9c0-2.9,2.3-5.2,5.2-5.2h84.1c2.9,0,5.2,2.3,5.2,5.2v52.8
						C397.6,139.6,395.3,141.9,392.4,141.9z"/>
				</g>
				<g>
					<rect x="308.5" y="83.6" class="st4" width="83.6" height="53.4"/>
				</g>
				<g>
					<rect x="371.9" y="99.3" class="st6" width="16.7" height="15.1"/>
				</g>
				<g>
					<rect x="313.7" y="99.3" class="st6" width="16.7" height="15.1"/>
				</g>
				<g>
					<rect x="372" y="118.2" class="st3" width="16.7" height="2.3"/>
				</g>
				<g>
					<rect x="371.9" y="124.4" class="st3" width="16.7" height="2.3"/>
				</g>
				<g>
					<rect x="371.9" y="130.5" class="st3" width="16.7" height="2.3"/>
				</g>
				<g>
					<rect x="313.7" y="118.2" class="st3" width="16.7" height="2.3"/>
				</g>
				<g>
					<rect x="313.6" y="124.4" class="st3" width="16.7" height="2.3"/>
				</g>
				<g>
					<rect x="313.6" y="130.5" class="st3" width="16.7" height="2.3"/>
				</g>
				<g>
					<rect x="313.7" y="88.5" class="st7" width="74.9" height="7.7"/>
				</g>
				<g>
					<rect x="333.5" y="99.3" class="st3" width="35.1" height="33.6"/>
				</g>
			</g>
			<g>
				<rect x="143.3" y="179.8" class="st8" width="199.9" height="139.3"/>
			</g>
			<g>
				<polygon class="st8" points="243.2,93.8 143.3,179.8 343.2,179.8 				"/>
			</g>
			<g>
				<rect x="167.1" y="118" class="st4" width="151.4" height="179.7"/>
			</g>
			<g>
				<polygon class="st9" points="143.3,319.2 227.2,246.2 259.3,246.2 343.2,319.2 				"/>
			</g>
			<g>
				<polygon class="st8" points="167.1,179.8 249.1,246.2 227.2,246.2 167.1,198.7 				"/>
			</g>
			<g>
				<polygon class="st8" points="259.3,246.2 230.6,246.2 230.6,235.2 273.2,235.2 				"/>
			</g>
			<g>
				<rect x="223.2" y="144.8" class="st8" width="70.9" height="6.2"/>
			</g>
			<g>
				<rect x="193.1" y="168" class="st8" width="100.9" height="6.2"/>
			</g>
			<g>
				<rect x="193.1" y="191.1" class="st8" width="100.9" height="6.2"/>
			</g>
			<g>
				<rect x="193.1" y="214.3" class="st8" width="100.9" height="6.2"/>
			</g>
			<g>
				<polygon class="st10" points="343.2,179.8 259.3,246.2 343.2,319.2 				"/>
			</g>
			<g>
				<polygon class="st10" points="329.4,168 329.4,191.1 318.5,199.3 318.5,158.6 				"/>
			</g>
			<g>
				<path class="st11" d="M342.5,330.9h-77.1c-7.5,0-13.6-6.1-13.6-13.6v-8.9c0-7.5,6.1-13.6,13.6-13.6h77.1
					c7.5,0,13.6,6.1,13.6,13.6v8.9C356.1,324.9,350,330.9,342.5,330.9z"/>
			</g>
			<g>
				<polygon class="st11" points="330.1,330.9 322.3,330.9 318.1,312.9 325.9,312.9 				"/>
			</g>
			<g>
				<g>
					<circle class="st12" cx="388.5" cy="240.4" r="35.7"/>
				</g>
				<g>
					<g>
						<path class="st13" d="M391.6,222.4c4.7,1.2,8.1,5,8.2,10.1c0,0.3-0.2,0.5-0.5,0.5h-5.8c-0.3,0-0.5-0.2-0.5-0.5
							c-0.1-2.6-2.1-3.8-4.5-3.8c-2.5,0-4.6,1.4-4.6,4.5c0,2.6,2.2,4,4.6,4c0.3,0,2.8,0,5.4,1.2c3.9,1.9,6,5.6,6,9.9
							c0,5.8-3.7,9.3-8.3,10.4v3.7c0,0.2-0.2,0.4-0.5,0.4h-4.9c-0.3,0-0.5-0.2-0.5-0.4v-3.7c-5-1-8.6-4.5-8.6-10.3
							c0-0.2,0.2-0.4,0.5-0.4h5.8c0.3,0,0.5,0.2,0.5,0.4c0.1,2.7,2.2,4,4.6,4s4.6-1.5,4.6-4.1c0-2.7-2.5-4.4-4.6-4.5
							c-0.3,0-2.8,0-5.5-1.2c-3.8-1.8-6-5.1-6-9.3c0-5.8,3.9-9.8,8.6-10.8v-4c0-0.2,0.2-0.4,0.5-0.4h4.9c0.3,0,0.5,0.2,0.5,0.4
							L391.6,222.4L391.6,222.4z"/>
					</g>
				</g>
			</g>
			<g>
				<polygon class="st14" points="330.1,330.9 322.3,330.9 318.1,312.9 325.9,312.9 				"/>
			</g>
			<g>
				<path class="st4" d="M275.7,316.7c0-0.1,0.1-0.2,0.2-0.2h2.7c0.1,0,0.2,0.1,0.2,0.2c0,1.2,1,1.8,2.1,1.8s2.1-0.7,2.1-1.9
					c0-1.2-1.2-2-2.1-2.1c-0.1,0-1.3,0-2.5-0.5c-1.7-0.8-2.7-2.4-2.7-4.4c0-3.2,2.5-5.1,5.2-5.1c2.9,0,5.1,1.9,5.2,4.8
					c0,0.1-0.1,0.2-0.2,0.2h-2.6c-0.1,0-0.2-0.1-0.2-0.2c0-1.2-1-1.7-2.1-1.7c-1.2,0-2.1,0.7-2.1,2.1c0,1.2,1,2,2.1,2
					c0.1,0,1.3,0,2.5,0.5c1.8,0.8,2.8,2.5,2.8,4.5c0,3.2-2.5,4.9-5.2,4.9C278,321.5,275.7,319.8,275.7,316.7z"/>
				<path class="st4" d="M292.2,307.8v3.8h6.4c0.1,0,0.2,0.1,0.2,0.2v2.6c0,0.1-0.1,0.2-0.2,0.2h-6.4v3.8h7.8c0.1,0,0.2,0.1,0.2,0.2
					v2.6c0,0.1-0.1,0.2-0.2,0.2h-10.7c-0.1,0-0.2-0.1-0.2-0.2V305c0-0.1,0.1-0.2,0.2-0.2H300c0.1,0,0.2,0.1,0.2,0.2v2.6
					c0,0.1-0.1,0.2-0.2,0.2L292.2,307.8L292.2,307.8z"/>
				<path class="st4" d="M316.8,321.1c0,0.1-0.1,0.2-0.2,0.2h-2.7c0,0-0.2,0-0.2-0.1l-7.6-11v10.9c0,0.1-0.1,0.2-0.2,0.2h-2.7
					c-0.1,0-0.2-0.1-0.2-0.2v-16.2c0-0.1,0.1-0.2,0.2-0.2h2.7c0,0,0.1,0,0.2,0.1l7.6,11.1v-11c0-0.1,0.1-0.2,0.2-0.2h2.6
					c0.1,0,0.2,0.1,0.2,0.2v16.2H316.8z"/>
				<path class="st4" d="M323.4,304.8c4,0,9.6,0.9,9.6,8.2c0,7-5.5,8.3-9.6,8.3h-2.7c-0.1,0-0.2-0.1-0.2-0.2V305
					c0-0.1,0.1-0.2,0.2-0.2H323.4z M323.6,318.3c2,0.1,6.2-0.3,6.2-5.4c0-4.4-2.6-5.5-6.2-5.3V318.3z"/>
			</g>
			<g>
				<polygon class="st13" points="325.9,312.9 340.1,373.3 351.1,352.7 370.7,372.3 378,365 385.3,357.7 365.7,338.1 386.3,327.1 
									"/>
			</g>
			<g>
				<polygon class="st15" points="365.7,338.1 385.3,357.7 370.7,372.3 351.1,352.7 340.1,373.3 325.9,312.9 386.3,327.1 				"/>
			</g>
			<g>
				<g>
					<circle class="st7" cx="122.4" cy="151" r="26.8"/>
				</g>
				<g>
					<g>
						<path class="st4" d="M113,138.9c2.6-2.4,5.9-3.7,9.8-3.7c4,0,7.3,1.2,9.8,3.5c2.6,2.4,4,5.6,4,9.4c0,4.1-1.1,7.1-3.2,9.1
							c-1.4,1.3-2.9,1.9-4.5,1.9c-1.3,0-2.2-0.3-2.8-0.9c-0.6-0.6-1.1-1.2-1.3-1.9c-1.5,1.9-3.2,2.8-5.1,2.8c-1.5,0-2.8-0.5-3.8-1.4
							c-1.4-1.3-2.1-2.9-2.1-4.9c0-3.7,1.3-6.8,4-9.3c1.6-1.5,3.5-2.3,5.5-2.3c1.5,0,2.7,0.6,3.6,1.9l0.6-1.9h3.6l-2.6,12.8
							c-0.1,1.2,0,1.9,0.4,2.3c0.3,0.2,0.5,0.3,0.8,0.3c1.1,0,2-0.3,2.6-0.9c1.8-1.6,2.6-4.2,2.6-7.7c0-3.6-1.1-6.4-3.2-8.4
							c-2.3-2.1-5.1-3.1-8.5-3.1s-6.3,1.1-8.7,3.3c-2.9,2.7-4.4,6.5-4.4,11.4c0,4.1,1.4,7.4,4.2,10c2.3,2.1,5,3.1,8.3,3.1
							c3.5,0,6.5-0.9,8.9-2.8l1.1,1c-2.5,2.1-5.9,3.1-10,3.1c-3.9,0-7.1-1.2-9.6-3.5c-3.2-2.9-4.7-6.6-4.7-11.2
							C108.1,146,109.8,141.9,113,138.9z M121,144.9c-1.9,1.7-2.8,4.4-2.8,8c0,1.4,0.3,2.4,0.9,3c0.5,0.5,1.1,0.7,1.7,0.7
							c1,0,1.8-0.3,2.5-0.9c0.6-0.6,1-1,1.1-1.4l2.1-9.3c-0.8-1-1.7-1.6-2.8-1.6C122.9,143.5,122,143.9,121,144.9z"/>
					</g>
				</g>
			</g>
			<g>
				<polygon class="st4" points="143.3,179.8 227.2,246.2 143.3,319.2 				"/>
			</g>
			<g>
				<g>
					<polygon class="st16" points="87.8,270.5 174.1,242.7 108.2,281.2 					"/>
				</g>
				<g>
					<polygon class="st17" points="108.2,305.7 108.2,281.2 174.1,242.7 					"/>
				</g>
				<g>
					<polygon class="st16" points="115.9,287.2 142.5,299.8 174.1,242.7 					"/>
				</g>
			</g>
		</g>
		<g>
			<polygon class="st13" points="365.7,338.1 385.3,357.7 378,365 325.9,312.9 386.3,327.1 			"/>
		</g>
	</g>
</g>
</svg>
