<?xml version="1.0" encoding="utf-8"?>
<!-- Generator: Adobe Illustrator 22.0.1, SVG Export Plug-In . SVG Version: 6.00 Build 0)  -->
<svg version="1.1" id="Layer_1" xmlns="http://www.w3.org/2000/svg" xmlns:xlink="http://www.w3.org/1999/xlink" x="0px" y="0px"
	 viewBox="0 0 512 512" style="enable-background:new 0 0 512 512;" xml:space="preserve">
<style type="text/css">
	.st0{display:none;fill:#F4F9FB;enable-background:new    ;}
	.st1{font-family:'ArialMT';}
	.st2{font-size:29.2349px;}
	.st3{fill:#5B6374;}
	.st4{fill:#EEED8E;}
	.st5{fill:#FBC254;}
	.st6{fill:#FFFFFF;}
	.st7{fill:#CECECE;}
	.st8{fill:#ABABAB;}
	.st9{fill:#F36F3B;}
	.st10{fill:#F4F9FB;}
	.st11{fill:#B3D137;}
</style>
<g>
	<text transform="matrix(1 0 0 1 103.7729 415.99)" class="st0 st1 st2">KEYWORD GENERATOR</text>
	<g>
		<g>
			<g>
				<g>
					<path class="st3" d="M323.1,341.9h-66.8c-15.2,0-27.3-12.8-26.3-28l1.1-18.9c0-32.4,26.2-58.6,58.6-58.6l47.7,26l11.5,47.6
						C352.4,326.4,339.9,341.9,323.1,341.9z"/>
				</g>
				<g>
					<path class="st4" d="M292.2,219h-2.7c-25.6,0-46.4-20.8-46.4-46.4v-23.3c0-25.6,20.8-46.4,46.4-46.4h2.7
						c25.6,0,46.4,20.8,46.4,46.4v23.3C338.6,198.3,317.8,219,292.2,219z"/>
				</g>
				<g>
					<path class="st5" d="M340.7,117.2c3.5,5.1,2.2,12-2.8,15.7c-6.9,5.2-17.6,11.5-29.1,11.5c-19.6,0-19.6,18.7-19.6,18.7v12.3
						h-7.3c0,0,3.2-19.1-13.2-21.4s-17.3,23.2-5,27.8l-1,17.9c-0.2,3.5-3.1,6.3-6.6,6.3l0,0c-8.9,0-13.8-11.3-17.1-19.5
						c-6.9-17.1-12.9-39.2-1.5-64.4C253.6,86.4,315,79.7,340.7,117.2z"/>
				</g>
				<g>
					<polygon class="st4" points="334.1,154 348.5,180 334.1,180 					"/>
				</g>
				<g>
					<rect x="267.4" y="192.7" class="st4" width="51.8" height="46"/>
				</g>
				<g>
					<polygon class="st6" points="256.2,233 256.2,219 326.6,219 346.1,297.3 298.8,233 					"/>
				</g>
				<g>
					<polygon class="st3" points="256.2,233 254,248.5 319.2,248.5 316.3,233 					"/>
				</g>
			</g>
			<g>
				<g>
					<path class="st6" d="M302.4,119.7c-2.7,0.8-5.6-0.6-6.7-3.2s-0.1-5.7,2.4-7c-1.4-1.8-3-3.5-4.9-4.9c-1.4,2.5-4.3,3.6-7,2.5
						s-4.1-4-3.3-6.7c-2.3-0.3-4.7-0.3-6.9,0.1c0.8,2.7-0.6,5.6-3.2,6.7s-5.7,0.1-7.1-2.4c-1.8,1.4-3.5,3-4.9,4.9
						c2.5,1.4,3.6,4.3,2.5,7s-4,4-6.7,3.3c-0.3,2.3-0.3,4.7,0.1,6.9c2.7-0.8,5.6,0.5,6.7,3.2c1.1,2.6,0.1,5.7-2.4,7.1
						c1.4,1.8,3,3.5,4.9,4.9c1.4-2.5,4.3-3.6,7-2.5s4,4,3.3,6.7c2.3,0.3,4.7,0.3,6.9-0.1c-0.8-2.7,0.5-5.6,3.2-6.7
						c2.6-1.1,5.7,0,7.1,2.4c1.8-1.4,3.5-3,4.9-4.9c-2.5-1.4-3.6-4.3-2.5-7s4-4,6.7-3.3C302.9,124.3,302.8,122,302.4,119.7z
						 M281.5,130.2c-5.1,1.4-9.7-2.9-9-8c0.5-3,2.9-5.5,5.9-5.9c5.1-0.8,9.3,3.8,8,9C285.8,127.7,283.9,129.6,281.5,130.2z"/>
				</g>
				<g>
					<g>
						<path class="st7" d="M279.6,130.5c-3.9,0-7.1-3.2-7.1-7.1s3.2-7.1,7.1-7.1l0,0V112l0,0c-6.3,0-11.3,5.1-11.3,11.3
							c0,6.3,5.1,11.3,11.3,11.3l0,0V130.5L279.6,130.5z"/>
					</g>
					<g>
						<path class="st6" d="M290.9,123.4c0-6.3-5.1-11.3-11.3-11.3v4.2c3.9,0,7.1,3.2,7.1,7.1s-3.2,7.1-7.1,7.1v4.2
							C285.9,134.7,290.9,129.6,290.9,123.4z"/>
					</g>
				</g>
			</g>
			<g>
				<rect x="153.7" y="214.4" class="st6" width="89.6" height="115.9"/>
			</g>
			<g>
				<rect x="168.8" y="247.3" class="st7" width="59.3" height="3.8"/>
			</g>
			<g>
				<rect x="168.8" y="261.5" class="st7" width="59.3" height="3.8"/>
			</g>
			<g>
				<rect x="168.8" y="275.6" class="st7" width="59.3" height="3.8"/>
			</g>
			<g>
				<rect x="168.8" y="289.7" class="st7" width="59.3" height="3.8"/>
			</g>
			<g>
				<rect x="168.8" y="303.9" class="st7" width="59.3" height="3.8"/>
			</g>
			<g>
				<path class="st7" d="M134.5,214.4c0,3,0,7.3,0,7.3h19.1c0,0,0-4.6,0-7.3c0-5.3-4.3-9.6-9.6-9.6S134.5,209.1,134.5,214.4z"/>
			</g>
			<g>
				<path class="st7" d="M172.7,330.3c-0.6,4.8-4.6,8.4-9.5,8.4s-8.9-3.7-9.5-8.4H172.7z"/>
			</g>
			<g>
				<path class="st6" d="M262.5,315.8h-89.7v13.3v0.1l0,0c0,5.3-4.3,9.6-9.6,9.6h89.6c5.3,0,9.6-4.3,9.6-9.6h-0.2l0.2-0.1v-13.3
					H262.5z"/>
			</g>
			<g>
				<rect x="153.7" y="315.8" class="st7" width="19.1" height="14.5"/>
			</g>
			<g>
				<path class="st6" d="M233.7,204.8h-89.6c5.3,0,9.6,4.3,9.6,9.6v12.5h89.6v-12.5C243.3,209.1,239,204.8,233.7,204.8z"/>
			</g>
			<g>
				<g>
					<path class="st7" d="M199.2,222.5h-21.9l-4.9,3.7v2l4.8,3.1h4.2l2.1-2.6l1.4,1.7h3.5l0.6,0.9h1.6l2.1-2.6h2.3l2.3,2.6h1.9
						c1.8,5.5,7,9.4,13,9.4c7.6,0,13.8-6.2,13.8-13.8s-6.2-13.8-13.8-13.8C206.2,213.1,201.1,217.1,199.2,222.5z M215.9,231
						c-2.3,0-4.1-1.8-4.1-4.1s1.8-4.1,4.1-4.1s4.1,1.8,4.1,4.1C220,229.1,218.1,231,215.9,231z"/>
				</g>
				<g>
					<path class="st8" d="M199.2,225.8h-26.3l-0.5,0.4v1.1h22.9C195.3,227.3,198.2,227.6,199.2,225.8z"/>
				</g>
			</g>
		</g>
		<g>
			<polygon class="st6" points="144.2,279.7 136.8,279.7 136.8,272.3 132.2,272.3 132.2,279.7 124.8,279.7 124.8,284.3 132.2,284.3 
				132.2,291.7 136.8,291.7 136.8,284.3 144.2,284.3 			"/>
		</g>
		<g>
			<polygon class="st6" points="402.9,189.5 392.5,189.5 392.5,179.2 386.1,179.2 386.1,189.5 375.8,189.5 375.8,195.9 386.1,195.9 
				386.1,206.3 392.5,206.3 392.5,195.9 402.9,195.9 			"/>
		</g>
		<g>
			<g>
				<circle class="st9" cx="356.9" cy="311.8" r="32.4"/>
			</g>
			<g>
				<g>
					<g>
						<rect x="336" y="308.9" class="st6" width="36.8" height="5.9"/>
					</g>
				</g>
				<g>
					<g>
						<polygon class="st6" points="377.8,311.9 359.5,330.1 355.3,325.9 369.4,311.9 355.3,297.8 359.5,293.6 						"/>
					</g>
				</g>
			</g>
		</g>
		<g>
			<g>
				<path class="st10" d="M123.6,157.4c2,0,3.9,0.5,5.6,1.3c-1-2.4-1.5-5.1-1.5-7.9c0-11.9,9.6-21.5,21.5-21.5
					c10.9,0,19.9,8.1,21.3,18.6c2.3-1,4.9-1.6,7.7-1.6c10.4,0,18.8,8.4,18.8,18.8c0,10.4-8.4,18.8-18.8,18.8h-54.5
					c-7.3,0-13.3-6-13.3-13.3C110.3,163.3,116.3,157.4,123.6,157.4z"/>
			</g>
			<g>
				<polygon class="st11" points="153.2,148.9 139.7,164 146.7,164 146.7,183.9 159.8,183.9 159.8,164 166.8,164 				"/>
			</g>
		</g>
	</g>
</g>
</svg>
