<?xml version="1.0" encoding="utf-8"?>
<!-- Generator: Adobe Illustrator 22.0.1, SVG Export Plug-In . SVG Version: 6.00 Build 0)  -->
<svg version="1.1" id="Layer_1" xmlns="http://www.w3.org/2000/svg" xmlns:xlink="http://www.w3.org/1999/xlink" x="0px" y="0px"
	 viewBox="0 0 512 512" style="enable-background:new 0 0 512 512;" xml:space="preserve">
<style type="text/css">
	.st0{display:none;fill:#F4F9FB;enable-background:new    ;}
	.st1{font-family:'ArialMT';}
	.st2{font-size:29.2349px;}
	.st3{fill:#FFFFFF;}
	.st4{fill:#FBC254;}
	.st5{fill:#E89E23;}
	.st6{fill:#CECECE;}
	.st7{fill:#E2AD4B;}
	.st8{fill:#BCBCBC;}
	.st9{fill:#E1AD48;}
	.st10{fill:#979696;}
	.st11{fill:#CC8C60;}
	.st12{fill:#F4D47F;}
	.st13{fill:#EDB94C;}
	.st14{fill:#D0D0D0;}
	.st15{fill:#B5B5B6;}
	.st16{fill:#ECBC74;}
	.st17{fill:#EBA862;}
	.st18{fill:#F36F3B;}
	.st19{fill:#E06131;}
</style>
<g>
	<text transform="matrix(1 0 0 1 174.8322 421.0486)" class="st0 st1 st2">GOOGLE RANK</text>
	<g>
		<g>
			<g>
				<g>
					<g>
						<path class="st3" d="M414.8,345.5h-96.3c-3.8,0-6.9-3.1-6.9-6.9v-96.3c0-3.8,3.1-6.9,6.9-6.9h96.3c3.8,0,6.9,3.1,6.9,6.9v96.3
							C421.7,342.4,418.6,345.5,414.8,345.5z"/>
					</g>
					<g>
						<path class="st4" d="M421.7,242.3v5.3H311.6v-5.3c0-3.8,3.1-6.9,6.9-6.9h96.3C418.6,235.4,421.7,238.5,421.7,242.3z"/>
					</g>
					<g>
						<path class="st4" d="M421.7,242.3v8.6H311.6v-8.6c0-3.8,3.1-6.9,6.9-6.9h96.3C418.6,235.4,421.7,238.5,421.7,242.3z"/>
					</g>
					<g>
						<circle class="st5" cx="320" cy="243.2" r="2.6"/>
					</g>
					<g>
						<circle class="st5" cx="327.7" cy="243.2" r="2.6"/>
					</g>
					<g>
						<circle class="st5" cx="335.5" cy="243.2" r="2.6"/>
					</g>
					<g>
						<rect x="321.8" y="270.5" class="st6" width="89.5" height="40.7"/>
					</g>
					<g>
						<rect x="321.8" y="315.5" class="st6" width="23.7" height="5.5"/>
					</g>
					<g>
						<rect x="321.8" y="325.2" class="st6" width="23.7" height="1.5"/>
					</g>
					<g>
						<rect x="321.8" y="330.4" class="st6" width="23.7" height="1.5"/>
					</g>
					<g>
						<rect x="321.8" y="335.5" class="st6" width="23.7" height="1.5"/>
					</g>
					<g>
						<rect x="354.7" y="325.2" class="st6" width="23.7" height="1.5"/>
					</g>
					<g>
						<rect x="354.7" y="330.4" class="st6" width="23.7" height="1.5"/>
					</g>
					<g>
						<rect x="354.7" y="335.5" class="st6" width="23.7" height="1.5"/>
					</g>
					<g>
						<rect x="387.5" y="325.2" class="st6" width="23.7" height="1.5"/>
					</g>
					<g>
						<rect x="387.5" y="330.4" class="st6" width="23.7" height="1.5"/>
					</g>
					<g>
						<rect x="387.5" y="335.5" class="st6" width="23.7" height="1.5"/>
					</g>
					<g>
						<rect x="354.7" y="315.5" class="st6" width="23.7" height="5.5"/>
					</g>
					<g>
						<rect x="387.5" y="315.5" class="st6" width="23.7" height="5.5"/>
					</g>
					<g>
						<rect x="321.8" y="258.7" class="st6" width="37.9" height="7.3"/>
					</g>
					<g>
						<path class="st6" d="M411.7,266.3h-33.5v-8.1h33.5V266.3z M380.7,263.8h28.6v-3.2h-28.6V263.8z"/>
					</g>
					<g>
						<rect x="373.2" y="259.4" class="st6" width="6.2" height="5.6"/>
						<path class="st6" d="M380.7,266.3H372v-8.1h8.7V266.3z M374.4,263.8h3.8v-3.2h-3.8V263.8z"/>
					</g>
				</g>
				<g>
					<rect x="357.7" y="326.7" class="st6" width="10.5" height="3.6"/>
				</g>
				<g>
					<rect x="357.7" y="321" class="st6" width="10.5" height="4.2"/>
				</g>
				<g>
					<rect x="357.7" y="311.2" class="st6" width="10.5" height="4.3"/>
				</g>
				<g>
					<polygon class="st6" points="368.2,250.9 368.2,270.5 357.7,270.5 357.7,265.9 359.7,265.9 359.7,258.7 357.7,258.7 
						357.7,250.9 					"/>
				</g>
				<g>
					<rect x="357.7" y="331.9" class="st6" width="10.5" height="3.7"/>
				</g>
				<g>
					<polygon class="st6" points="368.2,337 368.2,345.5 342.4,345.5 357.7,337 					"/>
				</g>
				<g>
					<polygon class="st7" points="357.7,235.4 357.7,247.7 357.7,250.9 368.2,250.9 368.2,247.7 368.2,235.4 					"/>
				</g>
				<g>
					<rect x="357.7" y="270.5" class="st8" width="10.5" height="40.8"/>
				</g>
				<g>
					<rect x="357.7" y="325.2" class="st8" width="10.5" height="1.5"/>
				</g>
				<g>
					<rect x="357.7" y="330.4" class="st8" width="10.5" height="1.5"/>
				</g>
				<g>
					<path class="st8" d="M368.2,335.5v1.5h-10.5v-0.4l0,0v-1h10.5V335.5z"/>
				</g>
				<g>
					<rect x="357.7" y="315.5" class="st8" width="10.5" height="5.5"/>
				</g>
				<g>
					<g>
						<path class="st3" d="M348.8,345.5H223.9c-4.9,0-8.9-4-8.9-8.9V211.7c0-4.9,4-8.9,8.9-8.9h124.9c4.9,0,8.9,4,8.9,8.9v124.9
							C357.7,341.5,353.7,345.5,348.8,345.5z"/>
					</g>
					<g>
						<path class="st4" d="M357.7,211.7v6.9H214.9v-6.9c0-4.9,4-9,9-9h124.9C353.7,202.8,357.7,206.8,357.7,211.7z"/>
					</g>
					<g>
						<path class="st4" d="M357.7,211.7v11.2H214.9v-11.2c0-4.9,4-9,9-9h124.9C353.7,202.8,357.7,206.8,357.7,211.7z"/>
					</g>
					<g>
						<circle class="st5" cx="225.8" cy="212.8" r="3.4"/>
					</g>
					<g>
						<circle class="st5" cx="235.8" cy="212.8" r="3.4"/>
					</g>
					<g>
						<circle class="st5" cx="245.9" cy="212.8" r="3.4"/>
					</g>
					<g>
						<rect x="228.1" y="248.2" class="st6" width="74.8" height="52.8"/>
					</g>
					<g>
						<rect x="228.1" y="306.6" class="st6" width="30.7" height="7.1"/>
					</g>
					<g>
						<rect x="228.1" y="319.2" class="st6" width="30.7" height="2"/>
					</g>
					<g>
						<rect x="228.1" y="325.9" class="st6" width="30.7" height="2"/>
					</g>
					<g>
						<rect x="228.1" y="332.5" class="st6" width="30.7" height="2"/>
					</g>
					<g>
						<rect x="270.8" y="306.6" class="st6" width="30.7" height="28"/>
					</g>
					<g>
						<rect x="311.6" y="306.6" class="st6" width="31.5" height="28"/>
					</g>
					<g>
						<rect x="228.1" y="232.9" class="st6" width="49.2" height="9.4"/>
					</g>
					<g>
						<path class="st6" d="M344.3,242.4h-42.7v-9.7h42.7V242.4z M304.1,239.9h37.8V235h-37.8V239.9z"/>
					</g>
					<g>
						<rect x="294.8" y="233.9" class="st6" width="8.1" height="7.3"/>
						<path class="st6" d="M304.1,242.4h-10.5v-9.7h10.5V242.4z M296,239.9h5.6V235H296V239.9z"/>
					</g>
				</g>
				<g>
					<rect x="311.6" y="248.2" class="st6" width="31.5" height="8.1"/>
				</g>
				<g>
					<rect x="311.6" y="260.7" class="st6" width="31.5" height="1.9"/>
				</g>
				<g>
					<rect x="311.6" y="268.4" class="st6" width="31.5" height="1.9"/>
				</g>
				<g>
					<rect x="311.6" y="276.1" class="st6" width="31.5" height="1.9"/>
				</g>
				<g>
					<rect x="311.6" y="283.8" class="st6" width="31.5" height="1.9"/>
				</g>
				<g>
					<rect x="311.6" y="291.4" class="st6" width="31.5" height="1.9"/>
				</g>
				<g>
					<rect x="311.6" y="299.1" class="st6" width="31.5" height="1.9"/>
				</g>
				<g>
					<path class="st6" d="M357.7,336.6v0.4l0,0C357.7,336.9,357.7,336.8,357.7,336.6z"/>
				</g>
				<g>
					<rect x="357.7" y="258.7" class="st8" width="5.3" height="7.3"/>
				</g>
				<g>
					<rect x="357.7" y="250.9" class="st6" width="0" height="7.7"/>
				</g>
				<g>
					<rect x="357.7" y="265.9" class="st6" width="0" height="4.5"/>
				</g>
				<g>
					<rect x="357.7" y="321" class="st6" width="0" height="4.2"/>
				</g>
				<g>
					<rect x="357.7" y="326.7" class="st6" width="0" height="3.6"/>
				</g>
				<g>
					<rect x="357.7" y="331.9" class="st6" width="0" height="3.7"/>
				</g>
				<g>
					<rect x="357.7" y="311.2" class="st6" width="0" height="4.3"/>
				</g>
				<g>
					<rect x="357.7" y="247.7" class="st6" width="0" height="3.3"/>
				</g>
				<g>
					<rect x="357.7" y="235.4" class="st6" width="0" height="12.2"/>
				</g>
				<g>
					<rect x="357.7" y="270.5" class="st6" width="0" height="40.8"/>
				</g>
				<g>
					<rect x="357.7" y="325.2" class="st6" width="0" height="1.5"/>
				</g>
				<g>
					<rect x="357.7" y="330.4" class="st6" width="0" height="1.5"/>
				</g>
				<g>
					<path class="st6" d="M357.7,335.5v1l0,0V335.5L357.7,335.5z"/>
				</g>
				<g>
					<rect x="357.7" y="315.5" class="st6" width="0" height="5.5"/>
				</g>
				<g>
					<rect x="357.7" y="258.7" class="st6" width="0" height="7.2"/>
				</g>
				<g>
					<polygon class="st6" points="281.3,222.9 281.3,248.2 270.8,248.2 270.8,242.3 277.3,242.3 277.3,232.9 270.8,232.9 
						270.8,222.9 					"/>
				</g>
				<g>
					<rect x="270.8" y="301" class="st6" width="10.5" height="5.6"/>
				</g>
				<g>
					<polygon class="st6" points="281.3,334.5 281.3,345.5 250.8,345.5 270.8,334.5 					"/>
				</g>
				<g>
					<rect x="276" y="197.5" class="st6" width="0" height="10.5"/>
				</g>
				<g>
					<polygon class="st7" points="270.8,202.8 270.8,218.6 270.8,222.9 281.3,222.9 281.3,218.6 281.3,202.8 					"/>
				</g>
				<g>
					<rect x="270.8" y="248.2" class="st8" width="10.5" height="52.8"/>
				</g>
				<g>
					<rect x="270.8" y="306.6" class="st8" width="10.5" height="27.9"/>
				</g>
				<g>
					<rect x="270.8" y="232.9" class="st8" width="6.6" height="9.4"/>
				</g>
				<g>
					<g>
						<path class="st3" d="M266.1,345.3H94.9c-2.6,0-4.6-2.1-4.6-4.6V169.4c0-2.6,2.1-4.6,4.6-4.6h171.2c2.6,0,4.6,2.1,4.6,4.6
							v171.2C270.8,343.2,268.7,345.3,266.1,345.3z"/>
					</g>
					<g>
						<path class="st4" d="M270.8,176.1v8.7H90.3v-8.7c0-6.3,5.1-11.3,11.3-11.3h157.9C265.7,164.8,270.8,169.9,270.8,176.1z"/>
					</g>
					<g>
						<path class="st4" d="M270.8,176.1v14.1H90.3v-14.1c0-6.3,5.1-11.3,11.3-11.3h157.9C265.7,164.8,270.8,169.9,270.8,176.1z"/>
					</g>
					<g>
						<circle class="st5" cx="104" cy="177.5" r="4.2"/>
					</g>
					<g>
						<circle class="st5" cx="116.7" cy="177.5" r="4.2"/>
					</g>
					<g>
						<circle class="st5" cx="129.4" cy="177.5" r="4.2"/>
					</g>
					<g>
						<rect x="107" y="222.3" class="st6" width="146.7" height="66.8"/>
					</g>
					<g>
						<rect x="107" y="296.1" class="st6" width="38.9" height="9"/>
					</g>
					<g>
						<rect x="107" y="312" class="st6" width="38.9" height="2.5"/>
					</g>
					<g>
						<rect x="107" y="320.4" class="st6" width="38.9" height="2.5"/>
					</g>
					<g>
						<rect x="107" y="328.9" class="st6" width="38.9" height="2.5"/>
					</g>
					<g>
						<rect x="160.9" y="312" class="st6" width="38.9" height="2.5"/>
					</g>
					<g>
						<rect x="160.9" y="320.4" class="st6" width="38.9" height="2.5"/>
					</g>
					<g>
						<rect x="160.9" y="328.9" class="st6" width="38.9" height="2.5"/>
					</g>
					<g>
						<rect x="214.8" y="312" class="st6" width="38.9" height="2.5"/>
					</g>
					<g>
						<rect x="214.8" y="320.4" class="st6" width="38.9" height="2.5"/>
					</g>
					<g>
						<rect x="214.8" y="328.9" class="st6" width="38.9" height="2.5"/>
					</g>
					<g>
						<rect x="160.9" y="296.1" class="st6" width="38.9" height="9"/>
					</g>
					<g>
						<rect x="214.8" y="296.1" class="st6" width="38.9" height="9"/>
					</g>
					<g>
						<rect x="107" y="202.9" class="st6" width="62.2" height="11.9"/>
					</g>
					<g>
						<path class="st6" d="M253.5,214.6h-53.3v-11.7h53.3V214.6z M202.7,212.1h48.4v-6.8h-48.4L202.7,212.1L202.7,212.1z"/>
					</g>
					<g>
						<rect x="191.3" y="204.1" class="st6" width="10.2" height="9.2"/>
						<path class="st6" d="M202.7,214.6h-12.6v-11.7h12.6V214.6z M192.5,212.1h7.7v-6.8h-7.7V212.1z"/>
					</g>
				</g>
			</g>
			<g>
				<circle class="st9" cx="244.5" cy="341.4" r="24"/>
			</g>
			<g>
				<circle class="st10" cx="337.8" cy="341.4" r="17.5"/>
			</g>
			<g>
				<circle class="st11" cx="409.6" cy="341.4" r="10.5"/>
			</g>
			<g>
				<g>
					<path class="st12" d="M263.2,341.4c0,10.3-8.4,18.7-18.7,18.7s-18.7-8.4-18.7-18.7c0-10.3,8.4-18.7,18.7-18.7
						C254.9,322.8,263.2,331.1,263.2,341.4z"/>
				</g>
				<g>
					<path class="st13" d="M263.2,341.4c0,10.3-8.4,18.7-18.7,18.7v-37.3C254.9,322.8,263.2,331.1,263.2,341.4z"/>
				</g>
				<g>
					<path class="st3" d="M246.3,350.2c0,0.1-0.1,0.2-0.3,0.2h-3.2c-0.2,0-0.3-0.1-0.3-0.2v-15.3c-0.9,0.3-1.7,0.6-2.5,0.9
						c-0.1,0-0.3,0-0.3-0.1l-1.1-2.3c-0.1-0.1,0-0.2,0.1-0.3l4.5-2.4h2.8c0.2,0,0.3,0.1,0.3,0.2V350.2z"/>
				</g>
			</g>
			<g>
				<g>
					<path class="st14" d="M351.3,341.4c0,7.4-6,13.4-13.4,13.4s-13.4-6-13.4-13.4s6-13.4,13.4-13.4
						C345.2,328,351.3,334,351.3,341.4z"/>
				</g>
				<g>
					<path class="st15" d="M351.3,341.4c0,7.4-6,13.4-13.4,13.4V328C345.2,328,351.3,334,351.3,341.4z"/>
				</g>
				<g>
					<path class="st3" d="M342.1,347.7c0,0.1-0.1,0.2-0.2,0.2h-8.1c-0.1,0-0.2-0.1-0.2-0.2v-2.1l5-6.9c0.3-0.5,0.5-0.9,0.5-1.3
						c0-0.7-0.5-1.3-1.3-1.3c-0.7,0-1.5,0.4-1.5,1.5c0,0.1-0.1,0.1-0.2,0.1H334c-0.1,0-0.2-0.1-0.2-0.1c0-2.3,1.3-4.2,4.1-4.2
						c2.1,0,4.1,1.6,4.1,3.8c0,0.9-0.3,1.8-1,2.8l-4,5.2h5c0.1,0,0.2,0.1,0.2,0.2v2.3H342.1z"/>
				</g>
			</g>
			<g>
				<g>
					<path class="st16" d="M417.6,341.4c0,4.4-3.6,8-8,8s-8-3.6-8-8s3.6-8,8-8C414,333.5,417.6,337,417.6,341.4z"/>
				</g>
				<g>
					<path class="st17" d="M417.6,341.4c0,4.4-3.6,8-8,8v-16C414,333.5,417.6,337,417.6,341.4z"/>
				</g>
				<g>
					<path class="st3" d="M409.9,338.6h-2.6c-0.1,0-0.1,0-0.1-0.1v-1.3c0,0,0-0.1,0.1-0.1h4.8c0.1,0,0.2,0.1,0.1,0.1l-1.8,3.1
						c1.1,0.3,1.7,1.3,1.7,2.7c0,1.9-1.3,2.6-2.7,2.6s-2.6-1-2.6-2.5c0,0,0-0.1,0.1-0.1h1.4c0.1,0,0.1,0,0.1,0.1
						c0,0.6,0.5,0.9,1,0.9c0.7,0,1.1-0.6,1.1-1.2c0-0.7-0.4-1.3-1.1-1.3h-1.1c-0.1,0-0.2-0.1-0.1-0.1L409.9,338.6z"/>
				</g>
			</g>
		</g>
		<g>
			<g>
				<path class="st5" d="M262.8,165.3c0.7,0.2,1.4,0.5,2,0.9C264.2,165.8,263.5,165.5,262.8,165.3z"/>
			</g>
		</g>
		<g>
			<path class="st18" d="M418.6,196.9c-118.6,0-185.7-68.6-193-76.5l28.8-12.1L168.5,87l-22.2,67.6l28.7-13
				C279.6,214.9,418.6,196.9,418.6,196.9z"/>
		</g>
		<g>
			<path class="st19" d="M418.6,196.9c0,0-139,18-243.6-55.3l-28.7,13L168.5,87c-1,3.1,7.3,16,9.5,18.9c17,22.4,32.9,35.3,44.1,42.5
				c20,12.9,41.4,23.8,63.9,31.7C328.5,194.9,373.8,199.2,418.6,196.9z"/>
		</g>
	</g>
</g>
</svg>
