<?xml version="1.0" encoding="utf-8"?>
<!-- Generator: Adobe Illustrator 22.0.1, SVG Export Plug-In . SVG Version: 6.00 Build 0)  -->
<svg version="1.1" id="Layer_1" xmlns="http://www.w3.org/2000/svg" xmlns:xlink="http://www.w3.org/1999/xlink" x="0px" y="0px"
	 viewBox="0 0 512 512" style="enable-background:new 0 0 512 512;" xml:space="preserve">
<style type="text/css">
	.st0{display:none;fill:#F4F9FB;enable-background:new    ;}
	.st1{font-family:'ArialMT';}
	.st2{font-size:29.2349px;}
	.st3{fill:#D1EAF8;}
	.st4{fill:#8FCBCC;}
	.st5{fill:#5B6374;}
	.st6{fill:#CECECE;}
	.st7{fill:#B3D137;}
	.st8{fill:#E89E23;}
	.st9{fill:#EEED8E;}
	.st10{fill:#E0DD85;}
	.st11{fill:#F36F3B;}
	.st12{fill:#FFFFFF;}
	.st13{fill:#FBC254;}
	.st14{fill:#49BEDF;}
	.st15{fill:#D9D582;}
	.st16{fill:#9FBA3B;}
</style>
<g>
	<text transform="matrix(1 0 0 1 125.3953 421.8474)" class="st0 st1 st2">PAID ADVERTISING</text>
	<g>
		<g>
			<g>
				<path class="st3" d="M404.3,341.7H137.7c-4.3,0-7.7-3.5-7.7-7.7v-11.9h282V334C412,338.3,408.6,341.7,404.3,341.7z"/>
			</g>
			<g>
				<path class="st4" d="M295.6,331.9h-49.3c-5.4,0-9.8-4.4-9.8-9.8l0,0h69l0,0C305.5,327.5,301.1,331.9,295.6,331.9z"/>
			</g>
			<g>
				<path class="st5" d="M389.9,322.1H152c-3.2,0-5.7-2.6-5.7-5.7V163c0-3.2,2.6-5.7,5.7-5.7h237.9c3.2,0,5.7,2.6,5.7,5.7v153.4
					C395.7,319.5,393.1,322.1,389.9,322.1z"/>
			</g>
			<g>
				<rect x="161.3" y="172.5" class="st6" width="219.4" height="137.1"/>
			</g>
		</g>
		<g>
			<g>
				<g>
					<path class="st7" d="M314.1,230.2c0,24.2-19.7,43.9-43.9,43.9c-1.9,0-3.7-0.1-5.4-0.3c-3.1-0.4-6.1-1.1-8.9-2.1
						c-17.2-6-29.6-22.3-29.6-41.5c0-24.3,19.7-43.9,43.9-43.9c20.7,0,38.1,14.3,42.7,33.7c0.7,2.8,1.1,5.7,1.2,8.7
						C314.1,229.2,314.1,229.7,314.1,230.2z"/>
				</g>
				<g>
					<g>
						<path class="st8" d="M274.1,207.3c6,1.5,10.3,6.4,10.5,12.9c0,0.3-0.3,0.6-0.7,0.6h-7.4c-0.3,0-0.7-0.3-0.7-0.6
							c-0.1-3.3-2.7-4.9-5.7-4.9c-3.2,0-5.9,1.8-5.9,5.8c0,3.4,2.8,5.1,5.9,5.1c0.3,0,3.6,0,6.8,1.5c5,2.4,7.7,7.1,7.7,12.6
							c0,7.4-4.7,11.9-10.6,13.3v4.7c0,0.2-0.3,0.5-0.7,0.5h-6.2c-0.4,0-0.7-0.3-0.7-0.5v-4.7c-6.3-1.2-10.9-5.7-11-13.1
							c0-0.3,0.3-0.5,0.7-0.5h7.4c0.3,0,0.7,0.2,0.7,0.5c0.1,3.4,2.8,5.1,5.9,5.1s5.9-2,5.9-5.2c0-3.5-3.2-5.7-5.9-5.8
							c-0.4,0-3.6,0-7-1.5c-4.9-2.3-7.6-6.4-7.6-11.9c0-7.4,4.9-12.4,11-13.8v-5.1c0-0.3,0.3-0.5,0.7-0.5h6.2c0.4,0,0.7,0.3,0.7,0.5
							L274.1,207.3L274.1,207.3z"/>
					</g>
				</g>
			</g>
			<g>
				<g>
					<path class="st9" d="M275.8,268.1h-11.3V226c0-3.1,2.5-5.7,5.7-5.7l0,0c3.1,0,5.7,2.5,5.7,5.7v42.1H275.8z"/>
				</g>
				<g>
					<path class="st9" d="M286.5,261.9h-10.7V242c0-3,2.4-5.4,5.4-5.4l0,0c3,0,5.4,2.4,5.4,5.4L286.5,261.9L286.5,261.9z"/>
				</g>
				<g>
					<path class="st9" d="M297.2,261.9h-10.7v-12.8c0-3,2.4-5.4,5.4-5.4l0,0c3,0,5.4,2.4,5.4,5.4L297.2,261.9L297.2,261.9z"/>
				</g>
				<g>
					<path class="st9" d="M307.9,261.9h-10.7v-7.5c0-3,2.4-5.4,5.4-5.4l0,0c3,0,5.4,2.4,5.4,5.4L307.9,261.9L307.9,261.9z"/>
				</g>
				<g>
					<path class="st9" d="M266.3,256.1v8.5l-5.7-9.5c-1.6-2.7-5.1-3.6-7.8-2s-3.6,5.1-2,7.8l1.6,2.7l0,0l13.6,26.2
						c1.1,2.1,1.6,4.4,1.6,6.7v4.3H302v-5.1c0-2.1,0.5-4.2,1.3-6.1c3-6.5,4.5-13.5,4.5-20.6v-13h-41.5V256.1z"/>
				</g>
				<g>
					<path class="st10" d="M288.6,244.9v17h-2.1v-12.8C286.5,247.4,287.3,245.9,288.6,244.9z"/>
				</g>
				<g>
					<path class="st10" d="M299.3,250.2v11.7h-2v-7.5C297.2,252.7,298,251.2,299.3,250.2z"/>
				</g>
				<g>
					<path class="st10" d="M277.9,237.8v24.1h-2.1V242c0-0.1,0-0.2,0-0.3C275.9,240.2,276.7,238.8,277.9,237.8z"/>
				</g>
			</g>
			<g>
				<g>
					<path class="st11" d="M321.1,255.6l-4.4-2.1c3.5-7.3,5.3-15.1,5.3-23.2c0-8.1-1.8-15.8-5.2-23.1l4.4-2.1
						c3.8,7.9,5.7,16.3,5.7,25.2C326.9,239.1,325,247.6,321.1,255.6z"/>
				</g>
				<g>
					<path class="st11" d="M331.8,261.3l-4.4-2.2c4.4-9,6.7-18.7,6.7-28.9c0-10.1-2.2-19.8-6.6-28.7l4.4-2.1
						c4.7,9.6,7.1,20,7.1,30.9C339,241.2,336.6,251.6,331.8,261.3z"/>
				</g>
			</g>
			<g>
				<g>
					<path class="st11" d="M219.7,255.6c-3.8-8-5.8-16.5-5.8-25.3s1.9-17.3,5.7-25.2l4.4,2.1c-3.5,7.2-5.2,15-5.2,23.1
						s1.8,15.9,5.3,23.2L219.7,255.6z"/>
				</g>
				<g>
					<path class="st11" d="M209,261.3c-4.8-9.7-7.2-20.1-7.2-31c0-10.8,2.4-21.2,7.1-30.9l4.4,2.1c-4.4,9-6.6,18.6-6.6,28.7
						c0,10.2,2.3,19.9,6.7,28.9L209,261.3z"/>
				</g>
			</g>
		</g>
		<g>
			<g>
				<path class="st7" d="M420.4,317.9c0,21.9-17.8,39.7-39.7,39.7c-1.7,0-3.3-0.1-4.9-0.3c-2.8-0.3-5.5-1-8.1-1.9
					c-15.6-5.4-26.7-20.2-26.7-37.5c0-21.9,17.8-39.7,39.7-39.7c18.7,0,34.4,13,38.6,30.4c0.6,2.5,1,5.2,1.1,7.9
					C420.4,316.9,420.4,317.4,420.4,317.9z"/>
			</g>
			<g>
				<g>
					<path class="st8" d="M380.7,349.7c-17.5,0-31.8-14.3-31.8-31.8s14.3-31.8,31.8-31.8s31.8,14.3,31.8,31.8
						S398.2,349.7,380.7,349.7z M380.7,292.6c-13.9,0-25.2,11.3-25.2,25.2s11.3,25.2,25.2,25.2c13.9,0,25.2-11.3,25.2-25.2
						S394.6,292.6,380.7,292.6z"/>
				</g>
			</g>
			<g>
				<g>
					<path class="st8" d="M383.3,302.9c4,1,6.7,4.2,6.8,8.4c0,0.2-0.2,0.4-0.4,0.4h-4.8c-0.2,0-0.4-0.2-0.4-0.4
						c-0.1-2.2-1.8-3.2-3.7-3.2c-2.1,0-3.8,1.2-3.8,3.8c0,2.2,1.8,3.4,3.8,3.4c0.2,0,2.3,0,4.5,1c3.3,1.5,5,4.6,5,8.2
						c0,4.8-3.1,7.8-6.9,8.7v3.1c0,0.1-0.2,0.3-0.4,0.3h-4.1c-0.3,0-0.4-0.2-0.4-0.3v-3.1c-4.1-0.8-7.1-3.7-7.2-8.6
						c0-0.2,0.2-0.3,0.4-0.3h4.9c0.2,0,0.4,0.1,0.4,0.3c0.1,2.2,1.8,3.3,3.8,3.3s3.8-1.3,3.8-3.4c0-2.3-2.1-3.7-3.8-3.8
						c-0.3,0-2.4,0-4.6-1c-3.2-1.5-5-4.2-5-7.8c0-4.9,3.2-8.1,7.2-9v-3.3c0-0.2,0.2-0.3,0.4-0.3h4.1c0.3,0,0.4,0.2,0.4,0.3
						L383.3,302.9L383.3,302.9z"/>
				</g>
			</g>
		</g>
		<g>
			<g>
				<g>
					<rect x="91.6" y="259.7" class="st12" width="26.7" height="35.8"/>
				</g>
			</g>
			<g>
				<g>
					<rect x="123.4" y="194.2" class="st12" width="37.9" height="50.9"/>
				</g>
			</g>
			<g>
				<g>
					<rect x="128.5" y="199.5" class="st13" width="27.6" height="16.9"/>
				</g>
			</g>
			<g>
				<g>
					<rect x="128.5" y="220.5" class="st6" width="27.6" height="2.1"/>
				</g>
			</g>
			<g>
				<g>
					<rect x="128.5" y="226.2" class="st6" width="27.6" height="2.1"/>
				</g>
			</g>
			<g>
				<g>
					<rect x="128.5" y="232" class="st6" width="27.6" height="2.1"/>
				</g>
			</g>
			<g>
				<g>
					<rect x="128.5" y="237.8" class="st6" width="27.6" height="2.1"/>
				</g>
			</g>
			<g>
				<g>
					<rect x="129" y="266.3" class="st12" width="26.7" height="35.8"/>
				</g>
			</g>
			<g>
				<g>
					<rect x="168.6" y="259.7" class="st12" width="26.7" height="35.8"/>
				</g>
			</g>
			<g>
				<g>
					<circle class="st12" cx="104.5" cy="253.7" r="2.2"/>
				</g>
			</g>
			<g>
				<g>
					
						<rect x="99.9" y="243.2" transform="matrix(0.5304 -0.8478 0.8478 0.5304 -154.9565 208.4222)" class="st12" width="21.5" height="1.7"/>
				</g>
			</g>
			<g>
				<g>
					<polygon class="st12" points="117.6,232.8 112.2,235.6 115,237.3 117.7,238.9 					"/>
				</g>
			</g>
			<g>
				<g>
					<circle class="st12" cx="181.5" cy="253.7" r="2.2"/>
				</g>
			</g>
			<g>
				<g>
					
						<rect x="174.6" y="233.3" transform="matrix(0.8477 -0.5305 0.5305 0.8477 -102.7501 130.2585)" class="st12" width="1.7" height="21.5"/>
				</g>
			</g>
			<g>
				<g>
					<polygon class="st12" points="168.5,232.8 173.9,235.6 171.1,237.3 168.4,238.9 					"/>
				</g>
			</g>
			<g>
				<g>
					<circle class="st12" cx="141.7" cy="259.9" r="2.2"/>
				</g>
			</g>
			<g>
				<g>
					<rect x="140.8" y="251.5" class="st12" width="1.7" height="8.3"/>
				</g>
			</g>
			<g>
				<g>
					<polygon class="st12" points="141.6,248.4 144.9,253.6 141.7,253.6 138.5,253.6 					"/>
				</g>
			</g>
			<g>
				<g>
					<rect x="95.7" y="275.4" class="st6" width="18.6" height="1.1"/>
				</g>
			</g>
			<g>
				<g>
					<rect x="95.7" y="279.1" class="st6" width="18.6" height="1.1"/>
				</g>
			</g>
			<g>
				<g>
					<rect x="95.7" y="282.8" class="st6" width="18.6" height="1.1"/>
				</g>
			</g>
			<g>
				<g>
					<rect x="95.7" y="286.5" class="st6" width="18.6" height="1.1"/>
				</g>
			</g>
			<g>
				<g>
					<rect x="95.7" y="290.2" class="st6" width="18.6" height="1.1"/>
				</g>
			</g>
			<g>
				<g>
					<rect x="133" y="282.3" class="st6" width="18.6" height="1.1"/>
				</g>
			</g>
			<g>
				<g>
					<rect x="142.9" y="278.4" class="st6" width="8.7" height="1.1"/>
				</g>
			</g>
			<g>
				<g>
					<rect x="142.9" y="274.6" class="st6" width="8.7" height="1.1"/>
				</g>
			</g>
			<g>
				<g>
					<rect x="142.9" y="270.8" class="st6" width="8.7" height="1.1"/>
				</g>
			</g>
			<g>
				<g>
					<rect x="133" y="286.1" class="st6" width="18.6" height="1.1"/>
				</g>
			</g>
			<g>
				<g>
					<rect x="133" y="290" class="st6" width="18.6" height="1.1"/>
				</g>
			</g>
			<g>
				<g>
					<rect x="133" y="293.8" class="st6" width="18.6" height="1.1"/>
				</g>
			</g>
			<g>
				<g>
					<rect x="172.7" y="282.8" class="st6" width="18.6" height="1.1"/>
				</g>
			</g>
			<g>
				<g>
					<rect x="172.7" y="286.6" class="st6" width="18.6" height="1.1"/>
				</g>
			</g>
			<g>
				<g>
					<rect x="172.7" y="290.5" class="st6" width="18.6" height="1.1"/>
				</g>
			</g>
			<g>
				<g>
					<rect x="133" y="297.7" class="st6" width="18.6" height="1.1"/>
				</g>
			</g>
			<g>
				<g>
					<rect x="95.7" y="263.3" class="st7" width="7.8" height="9.2"/>
				</g>
			</g>
			<g>
				<g>
					<rect x="132.7" y="270.8" class="st14" width="7.8" height="8.4"/>
				</g>
			</g>
			<g>
				<g>
					<g>
						<rect x="172.8" y="263.7" class="st14" width="18.2" height="6.5"/>
					</g>
				</g>
				<g>
					<g>
						<rect x="172.8" y="272.9" class="st14" width="7.8" height="7.3"/>
					</g>
				</g>
				<g>
					<g>
						<rect x="183.3" y="272.9" class="st14" width="7.8" height="7.3"/>
					</g>
				</g>
			</g>
			<g>
				<g>
					<rect x="106.5" y="263.3" class="st7" width="7.8" height="9.2"/>
				</g>
			</g>
		</g>
		<g>
			<g>
				<g>
					<g>
						<rect x="295.5" y="86.2" class="st9" width="55" height="26.9"/>
					</g>
					<g>
						<g>
							<g>
								<g>
									<path class="st7" d="M323,106.7c-3.9,0-7.1-3.2-7.1-7.1s3.2-7.1,7.1-7.1s7.1,3.2,7.1,7.1C330,103.5,326.9,106.7,323,106.7z
										 M323,94c-3.1,0-5.6,2.5-5.6,5.6s2.5,5.6,5.6,5.6s5.6-2.5,5.6-5.6S326.1,94,323,94z"/>
								</g>
							</g>
							<g>
								<g>
									<path class="st7" d="M323.5,96.3c0.9,0.2,1.5,0.9,1.5,1.9c0,0,0,0.1-0.1,0.1h-1.1c0,0-0.1,0-0.1-0.1c0-0.5-0.4-0.7-0.8-0.7
										c-0.5,0-0.8,0.3-0.8,0.8s0.4,0.7,0.8,0.7c0,0,0.5,0,1,0.2c0.7,0.3,1.1,1,1.1,1.8c0,1.1-0.7,1.7-1.5,1.9v0.7
										c0,0,0,0.1-0.1,0.1h-0.9c-0.1,0-0.1,0-0.1-0.1V103c-0.9-0.2-1.6-0.8-1.6-1.9c0,0,0-0.1,0.1-0.1h1.1c0,0,0.1,0,0.1,0.1
										c0,0.5,0.4,0.7,0.8,0.7s0.8-0.3,0.8-0.8s-0.5-0.8-0.8-0.8c-0.1,0-0.5,0-1-0.2c-0.7-0.3-1.1-0.9-1.1-1.7
										c0-1.1,0.7-1.8,1.6-2v-0.7c0,0,0-0.1,0.1-0.1h0.9c0.1,0,0.1,0,0.1,0.1V96.3z"/>
								</g>
							</g>
						</g>
						<g>
							<path class="st7" d="M346.1,90.2v19.2h-46.5V90.2H346.1 M347.5,88.7h-49.4v22.1h49.4V88.7L347.5,88.7z"/>
						</g>
						<g>
							<path class="st7" d="M346.1,90.1v2.5c-1.1-0.4-2-1.3-2.5-2.5H346.1 M347.5,88.7h-5.6c0,3.1,2.5,5.6,5.6,5.6V88.7L347.5,88.7z
								"/>
						</g>
						<g>
							<path class="st7" d="M346.1,90.1v2.5c-1.1-0.4-2-1.3-2.5-2.5H346.1 M347.5,88.7h-5.6c0,3.1,2.5,5.6,5.6,5.6V88.7L347.5,88.7z
								"/>
						</g>
						<g>
							<path class="st7" d="M302,90.1c-0.4,1.1-1.3,2-2.5,2.5v-2.5H302 M303.7,88.7h-5.6v5.6C301.2,94.3,303.7,91.8,303.7,88.7
								L303.7,88.7z"/>
						</g>
						<g>
							<path class="st7" d="M299.5,106.9c1.1,0.4,2,1.3,2.5,2.5h-2.5V106.9 M298.1,105.2v5.6h5.6
								C303.7,107.7,301.2,105.2,298.1,105.2L298.1,105.2z"/>
						</g>
						<g>
							<path class="st7" d="M346.1,106.9v2.5h-2.5C344,108.2,345,107.3,346.1,106.9 M347.5,105.2c-3.1,0-5.6,2.5-5.6,5.6h5.6V105.2
								L347.5,105.2z"/>
						</g>
					</g>
				</g>
				<g>
					<g>
						<path class="st7" d="M299.5,106.9v2.4h2.4C301.6,108.2,300.7,107.3,299.5,106.9z"/>
					</g>
					<g>
						<path class="st15" d="M323,105.2c3.1,0,5.6-2.5,5.6-5.6h-4.1c0.4,0.4,0.6,0.9,0.6,1.5c0,1.1-0.7,1.7-1.5,1.9v0.7
							c0,0,0,0.1-0.1,0.1h-0.9c-0.1,0-0.1,0-0.1-0.1V103c-0.9-0.2-1.6-0.8-1.6-1.9c0,0,0-0.1,0.1-0.1h1.1c0,0,0.1,0,0.1,0.1
							c0,0.5,0.4,0.7,0.8,0.7s0.8-0.3,0.8-0.7c0-0.5-0.5-0.8-0.8-0.8c-0.1,0-0.5,0-1-0.2c-0.2-0.1-0.4-0.2-0.6-0.4h-4
							C317.4,102.7,319.9,105.2,323,105.2z"/>
					</g>
					<g>
						<polygon class="st15" points="330.9,110.8 298.1,110.8 298.1,99.6 295.5,99.6 295.5,113.1 330.9,113.1 						"/>
					</g>
					<g>
						<path class="st15" d="M330.9,99.6H330c0,3.9-3.2,7.1-7.1,7.1s-7.1-3.2-7.1-7.1h-16.4v5.8c1.9,0.5,3.4,2,4,4h27.4v-9.8H330.9z"
							/>
					</g>
					<g>
						<path class="st16" d="M323,106.7c3.9,0,7.1-3.2,7.1-7.1h-1.5c0,3.1-2.5,5.6-5.6,5.6s-5.6-2.5-5.6-5.6h-1.5
							C315.9,103.5,319.1,106.7,323,106.7z"/>
					</g>
					<g>
						<path class="st16" d="M323,100.2c0.4,0,0.8,0.3,0.8,0.8s-0.4,0.7-0.8,0.7c-0.5,0-0.8-0.2-0.8-0.7l-0.1-0.1H321
							c-0.1,0-0.1,0-0.1,0.1c0,1.1,0.7,1.7,1.6,1.9v0.7c0,0,0,0.1,0.1,0.1h0.9c0,0,0.1,0,0.1-0.1V103c0.8-0.2,1.5-0.8,1.5-1.9
							c0-0.6-0.2-1.1-0.6-1.5h-3.1c0.1,0.2,0.4,0.3,0.6,0.4C322.4,100.2,322.9,100.2,323,100.2z"/>
					</g>
					<g>
						<path class="st16" d="M330.9,109.4h-27.4c0.1,0.5,0.2,1,0.2,1.4h27.2L330.9,109.4L330.9,109.4z"/>
					</g>
					<g>
						<path class="st16" d="M299.5,105.4v-5.8h-1.4v5.6C298.6,105.2,299.1,105.3,299.5,105.4z"/>
					</g>
					<g>
						<polygon class="st7" points="299.5,109.4 301.9,109.4 301.9,109.4 						"/>
					</g>
					<g>
						<path class="st7" d="M302,109.4h1.5c-0.5-1.9-2-3.4-4-4v1.5C300.7,107.3,301.6,108.2,302,109.4z"/>
					</g>
					<g>
						<path class="st7" d="M298.1,110.8h5.6c0-0.5-0.1-1-0.2-1.4H302l0,0h-2.4l0,0V107v-1.5c-0.5-0.1-1-0.2-1.4-0.2v5.5H298.1z"/>
					</g>
				</g>
				<g>
					<g>
						<rect x="249.6" y="101.7" class="st9" width="78.8" height="38.6"/>
					</g>
					<g>
						<g>
							<g>
								<g>
									<path class="st7" d="M289,131.2c-5.6,0-10.1-4.5-10.1-10.1S283.4,111,289,111s10.1,4.5,10.1,10.1
										C299.1,126.6,294.6,131.2,289,131.2z M289,113c-4.4,0-8,3.6-8,8s3.6,8,8,8s8-3.6,8-8S293.4,113,289,113z"/>
								</g>
							</g>
							<g>
								<g>
									<path class="st7" d="M289.8,116.3c1.3,0.3,2.1,1.3,2.2,2.7c0,0.1-0.1,0.1-0.1,0.1h-1.5c-0.1,0-0.1-0.1-0.1-0.1
										c0-0.7-0.6-1-1.2-1c-0.7,0-1.2,0.4-1.2,1.2c0,0.7,0.6,1.1,1.2,1.1c0.1,0,0.7,0,1.4,0.3c1,0.5,1.6,1.5,1.6,2.6
										c0,1.5-1,2.5-2.2,2.8v1l-0.1,0.1h-1.3c-0.1,0-0.1-0.1-0.1-0.1v-1c-1.3-0.3-2.3-1.2-2.3-2.7c0-0.1,0.1-0.1,0.1-0.1h1.5
										c0.1,0,0.1,0,0.1,0.1c0,0.7,0.6,1.1,1.2,1.1s1.2-0.4,1.2-1.1s-0.7-1.2-1.2-1.2c-0.1,0-0.8,0-1.5-0.3
										c-1-0.5-1.6-1.3-1.6-2.5c0-1.5,1-2.6,2.3-2.9v-1.1c0-0.1,0.1-0.1,0.1-0.1h1.3c0.1,0,0.1,0.1,0.1,0.1v1H289.8z"/>
								</g>
							</g>
						</g>
						<g>
							<path class="st7" d="M322.1,107.5V135h-66.7v-27.6L322.1,107.5 M324.2,105.4h-70.9v31.7h70.9V105.4L324.2,105.4z"/>
						</g>
						<g>
							<path class="st7" d="M322.1,107.5v3.5c-1.6-0.6-2.9-1.9-3.5-3.5H322.1 M324.2,105.4h-8c0,4.4,3.6,8,8,8V105.4L324.2,105.4z"
								/>
						</g>
						<g>
							<path class="st7" d="M322.1,107.5v3.5c-1.6-0.6-2.9-1.9-3.5-3.5H322.1 M324.2,105.4h-8c0,4.4,3.6,8,8,8V105.4L324.2,105.4z"
								/>
						</g>
						<g>
							<path class="st7" d="M258.9,107.5c-0.6,1.6-1.9,2.9-3.5,3.5v-3.5H258.9 M261.4,105.4h-8v8
								C257.8,113.4,261.4,109.8,261.4,105.4L261.4,105.4z"/>
						</g>
						<g>
							<path class="st7" d="M255.4,131.5c1.6,0.6,2.9,1.9,3.5,3.5h-3.5V131.5 M253.3,129.1v8h8C261.4,132.7,257.8,129.1,253.3,129.1
								L253.3,129.1z"/>
						</g>
						<g>
							<path class="st7" d="M322.1,131.5v3.5h-3.5C319.2,133.4,320.5,132.1,322.1,131.5 M324.2,129.1c-4.4,0-8,3.6-8,8h8V129.1
								L324.2,129.1z"/>
						</g>
					</g>
				</g>
			</g>
			<g>
				<rect x="233.5" y="87.1" class="st12" width="48.3" height="4.9"/>
			</g>
			<g>
				<rect x="207.5" y="104.9" class="st12" width="30.4" height="4.9"/>
			</g>
			<g>
				<rect x="163.9" y="135.8" class="st12" width="75.2" height="4.9"/>
			</g>
			<g>
				<rect x="210.2" y="120.5" class="st12" width="27.1" height="4.9"/>
			</g>
			<g>
				<rect x="182" y="120.5" class="st12" width="14.8" height="4.9"/>
			</g>
		</g>
	</g>
</g>
</svg>
