<?xml version="1.0" encoding="utf-8"?>
<!-- Generator: Adobe Illustrator 22.0.1, SVG Export Plug-In . SVG Version: 6.00 Build 0)  -->
<svg version="1.1" id="Layer_1" xmlns="http://www.w3.org/2000/svg" xmlns:xlink="http://www.w3.org/1999/xlink" x="0px" y="0px"
	 viewBox="0 0 512 512" style="enable-background:new 0 0 512 512;" xml:space="preserve">
<style type="text/css">
	.st0{display:none;fill:#F4F9FB;enable-background:new    ;}
	.st1{font-family:'ArialMT';}
	.st2{font-size:29.2349px;}
	.st3{fill:#CFD6DA;}
	.st4{fill:#BEC4C6;}
	.st5{fill:#C6A961;}
	.st6{fill:#E0C46B;}
	.st7{fill:#F4F9FB;}
	.st8{fill:#00AAD1;}
	.st9{fill:#5B6374;}
	.st10{fill:#0096AF;}
	.st11{fill:#FFFFFF;}
	.st12{fill:#49BEDF;}
	.st13{fill:#B3D137;}
	.st14{fill:#CECECE;}
	.st15{fill:#37B2CD;}
	.st16{fill:#A1BC3A;}
</style>
<g>
	<text transform="matrix(1 0 0 1 48.2722 415.7559)" class="st0 st1 st2">SEARCH ENGINE OPTIMIZATION</text>
	<g>
		<g>
			<g>
				<path class="st3" d="M385.5,259.7L385.5,259.7c0,25.8-20.9,46.7-46.7,46.7V213C364.6,213,385.5,233.9,385.5,259.7z"/>
			</g>
			<g>
				<path class="st4" d="M292,259.7L292,259.7c0-25.8,20.9-46.7,46.7-46.7l0,0v93.5l0,0C312.9,306.4,292,285.5,292,259.7z"/>
			</g>
			<g>
				<g>
					<path class="st5" d="M314.5,258.3h-0.1l0,0c-0.3,0.1-0.4,0.4-0.4,0.7c0,0.2,0,0.3,0.1,0.5c0.1,0.1,0.2,0.3,0.4,0.3l0,0
						c0.1,0,0.1,0,0.2,0c0.3-0.1,0.4-0.4,0.4-0.7C315.1,258.7,314.9,258.3,314.5,258.3z"/>
				</g>
				<g>
					<path class="st5" d="M307.3,229c-0.1,0-0.2,0-0.2,0c-0.2,0.1-0.4,0.2-0.4,0.5c0,0.4,0.3,0.5,0.6,0.5c0.1,0,0.2,0,0.2-0.1
						c0.2-0.1,0.3-0.3,0.3-0.5c0-0.1,0-0.3-0.1-0.4C307.5,229,307.4,229,307.3,229z"/>
				</g>
				<g>
					<path class="st5" d="M312.5,257.5c-0.1,0-0.3-0.1-0.4-0.1c-0.3,0-0.6,0.1-0.7,0.1c-0.3,0.1-0.5,0.3-0.7,0.5s-0.4,0.4-0.4,0.4
						c-0.1,0.1-0.1,0.2-0.1,0.2c0,0.1,0.1,0.2,0.2,0.2c0,0,0.5,0.1,0.9,0.1c0.2,0,0.3,0.2,0.6,0.4c0.1,0.1,0.2,0.1,0.3,0.1
						c0.2,0,0.4-0.1,0.5-0.2c0.1,0,0.1-0.1,0.2-0.1l0,0l0.1,0.1c0.1,0.1,0.1,0.2,0.3,0.2c0.2,0,0.3-0.2,0.3-0.2c0-0.1,0-0.2,0.1-0.3
						v-0.1C313.6,258,312.9,257.7,312.5,257.5z"/>
				</g>
				<g>
					<path class="st5" d="M316.1,299.8c0-0.1,0-0.2-0.1-0.3c-0.1-0.1-0.2-0.1-0.2-0.1c-0.2,0-0.3,0.1-0.3,0.1s0,0,0-0.1
						c-0.1-0.1-0.1-0.3-0.1-0.4c0.1,0,0.2,0.1,0.3,0.1c0.2,0.1,0.4,0.2,0.6,0.2c0.1,0,0.1,0,0.2,0s0.2,0,0.3-0.1
						c0.1-0.1,0.1-0.2,0.1-0.3c0-0.2-0.1-0.4-0.1-0.5v-0.1c0-0.1,0-0.3,0.1-0.3l0,0c0.2,0.1,0.3,0.1,0.5,0.1c0.6,0,1.3-0.1,1.5-0.2
						s0.2-0.2,0.3-0.3c0.2-0.3,0.5-1,0.7-1.2c0.1-0.2,0.2-0.4,0.2-0.6s-0.1-0.4-0.3-0.5c0,0,0,0-0.1-0.1c0.2,0.1,0.4,0.1,0.6,0.2
						c0.4,0,0.7-0.2,1-0.6c0.6-0.7,1-1.1,1.1-1.7c0-0.4,0.2-0.8,0.3-0.9c0,0,0.1,0.1,0.3,0.1c0.1,0,0.2-0.1,0.3-0.2
						c0.1-0.1,0.1-0.2,0.2-0.4c0.1-0.3,0.2-0.5,0.4-0.6c0.1-0.2,0.3-0.3,0.4-0.7c0.1-0.2,0.1-0.3,0.1-0.4c0-0.4-0.2-0.8-0.2-1.1
						c0-0.1,0-0.2,0.1-0.3c0.5-0.4,1.5-1,1.5-1s0.1,0,0.2-0.1s0.3-0.2,0.6-0.2c0.2-0.1,0.5-0.1,0.7-0.1c0.3,0,0.5-0.1,0.7-0.4
						c0.2-0.4,0.4-1.1,0.6-1.5s0.5-0.9,0.5-1.3c0-0.1,0-0.2-0.1-0.3l0,0c0-0.1,0.1-0.5,0.2-0.8s0.2-0.7,0.2-0.9c0,0,0,0,0-0.1
						c0-0.3-0.2-0.5-0.2-0.9c0-0.3,0.1-0.5,0.3-0.7c0.3-0.4,0.7-0.8,1-1.2c0-0.1,0.1-0.1,0.1-0.2c0.2-0.3,0.4-0.6,0.4-0.8
						c0-0.1,0.2-0.4,0.3-0.8c0.1-0.4,0.3-0.8,0.3-1.2V276c-0.1-0.7-0.5-1.4-0.9-1.6l0,0c-0.4-0.2-1-0.3-1.2-0.6
						c-0.2-0.3-0.4-0.5-0.6-0.6c-0.3-0.2-0.5-0.3-0.8-0.3c-0.1,0-0.1,0-0.2,0s-0.3,0.1-0.5,0.1c-0.1,0-0.3,0-0.4-0.1
						c-0.4-0.3-0.9-0.6-1.1-0.8c-0.3-0.3-0.9-0.5-1.2-0.5c-0.1,0-0.1,0-0.2,0s-0.2,0-0.3,0.1c0-0.2-0.1-0.3-0.2-0.4
						s-0.3-0.2-0.5-0.2l0,0c0.1-0.1,0.2-0.2,0.2-0.4c0-0.1,0-0.4-0.1-0.6s-0.2-0.5-0.6-0.5l0,0l0,0c-0.1-0.1-0.2-0.6-0.6-1.2
						c-0.5-0.7-1.1-1.2-1.8-1.2c-0.1,0-0.1,0-0.2,0c-0.2,0.1-0.4,0.1-0.6,0.1s-0.2,0-0.3-0.3c-0.3-0.7-0.7-0.9-0.8-1.1
						c-0.1-0.2-0.3-0.3-0.5-0.3s-0.3,0-0.3,0c-0.1-0.1-0.1-0.1-0.1-0.1c-0.1-0.1-0.2-0.1-0.2-0.1c0.3-0.4,0.4-1,0.4-1.4
						c0-0.1,0-0.1,0-0.2c0,0,0-0.1-0.1-0.1c0-0.1-0.1-0.1-0.2-0.1h-0.1c-0.1,0.1-0.2,0.2-0.2,0.2c-0.1,0.1-0.2,0.3-0.2,0.4
						c0,0,0,0,0,0.1c-0.1-0.1-0.2-0.3-0.4-0.4c-0.2-0.2-0.4-0.2-0.6-0.2s-0.4,0-0.6,0.1s-0.3,0.2-0.3,0.5v-0.1
						c-0.2-0.3-0.5-0.4-0.7-0.4s-0.5,0.1-0.7,0.2c0-0.1-0.1-0.2-0.2-0.3c0-0.1-0.1-0.2-0.1-0.3c-0.1-0.1-0.1-0.2-0.3-0.2
						c-0.4,0-0.8,0.3-1.1,1c0,0.1,0,0.1-0.1,0.2c0-0.1,0-0.1,0-0.2s0.1-0.2,0.1-0.4c0.1-0.2,0.2-0.3,0.2-0.5s-0.1-0.4-0.3-0.4
						c-0.1,0-0.1,0-0.2,0c-0.3,0-0.5,0.2-0.7,0.3c-0.1,0.1-0.2,0.2-0.3,0.2l-0.1,0.1l0,0c-0.3,0.1-0.8,0.5-1.1,1
						c-0.3,0.5-0.4,0.7-0.6,0.8H309h-0.1c0-0.2-0.1-0.3-0.2-0.3c-0.2-0.2-0.5-0.5-0.9-0.5c-0.1,0-0.2,0-0.3,0.2
						c0,0.1-0.4,0.3-0.9,0.5h-0.1c-0.1,0-0.4-0.3-0.4-0.4c-0.1-0.3-0.2-0.2-0.3-0.9v-0.3c0-0.6,0.1-1.3,0.2-1.6c0-0.1,0-0.1,0-0.2
						c0-0.4-0.2-0.7-0.4-0.9s-0.5-0.5-0.8-0.5h-0.1c-0.2,0.1-0.4,0.2-0.5,0.3c-0.1,0.1-0.3,0.2-0.3,0.1l0,0c-0.1,0-0.1,0-0.2-0.1
						s-0.2-0.1-0.4-0.1c0.1-0.1,0.1-0.2,0.1-0.3c0-0.1,0-0.2,0-0.3c0-0.2,0-0.4,0-0.5c0-0.3,0-0.5,0.2-0.7c0.3-0.3,0.4-0.7,0.4-1
						c0-0.2,0-0.4-0.1-0.6s-0.2-0.3-0.4-0.4c-0.1,0-0.1,0-0.2,0c-0.3,0-0.7,0.1-1,0.1h-0.1h-0.1c-0.5,0-0.8,0.4-0.8,0.9
						c0,0.1,0,0.2,0,0.3c0,0.1,0,0.1,0,0.2s0,0.2-0.1,0.3l0,0c-0.1-0.1-0.2-0.1-0.4-0.1c-0.2,0-0.4,0.1-0.6,0.3
						c-0.2,0.2-0.3,0.2-0.3,0.2c-0.1,0-0.2-0.1-0.5-0.4c-0.5-0.5-1-1-1-1.7c0-0.4-0.1-0.8-0.1-1.1c0-0.3,0-0.6,0.1-0.8
						c0.1-0.3,0.1-0.5,0.1-0.8c0-0.2,0-0.3-0.1-0.5c0-0.1-0.1-0.2-0.2-0.3l0,0c0.1-0.1,0.4-0.3,0.5-0.4c0.4-0.2,0.9-0.6,1-1
						c0,0,0.2,0,0.3,0h0.5c0.5,0,0.4,0,0.9,0.3c0.1,0.1,0.3,0.2,0.4,0.2c0.2,0,0.4-0.2,0.4-0.3c0.1-0.2,0.1-0.3,0.1-0.4
						c0,0,0-0.2,0.4-0.2h0.1c0.1,0,0.1,0,0.2,0c0.4,0,0.9-0.1,1.1-0.1l0,0c0,0.1,0.1,0.2,0.2,0.3c0.1,0.2,0.2,0.4,0.5,0.4
						c0.1,0,0.2,0,0.3-0.1l0.1-0.1c0.1,0.3,0.1,0.8,0.3,1.1c0.1,0.4,0.3,0.8,0.6,0.9c0.1,0,0.1,0.1,0.1,0.3c0,0.1,0.1,0.2,0.1,0.3
						c0.1,0.1,0.2,0.2,0.4,0.3h0.1c0.2,0,0.3-0.1,0.4-0.2c0.2-0.3,0.3-0.8,0.3-1.2c0-0.2,0-0.3-0.1-0.4c-0.1-0.2-0.2-0.6-0.3-1
						c-0.1-0.4-0.2-0.8-0.4-1c0,0-0.1-0.2-0.1-0.3c0-0.3,0.1-0.4,0.2-0.5c0.3-0.2,0.7-0.5,1-0.9c0.4-0.4,0.7-0.7,0.9-0.9
						c0.1-0.1,0.3-0.3,0.5-0.4c0.2-0.2,0.4-0.3,0.5-0.7c0-0.1,0-0.2-0.1-0.3c-0.2-0.3-0.3-0.5-0.3-0.8c0.1,0.1,0.2,0.1,0.2,0.1
						c0.2,0,0.3-0.2,0.5-0.3c0.1-0.2,0.2-0.3,0.2-0.5c0-0.1,0-0.2-0.1-0.2c0-0.1,0-0.2,0-0.2v-0.1l0,0h0.1c0.2,0,0.3-0.1,0.4-0.2
						c0.1-0.1,0.1-0.3,0.1-0.4s0-0.2-0.1-0.3c0.1-0.1,0.2-0.1,0.3-0.1h0.1c0.1,0,0.2,0,0.3,0c0.2,0,0.4,0,0.7-0.1
						c0.2-0.1,0.4-0.1,0.5-0.3c0-0.1,0.1-0.2,0.1-0.2c0-0.2-0.1-0.3-0.2-0.5c-0.1-0.1-0.1-0.2-0.1-0.3s0.1-0.3,0.2-0.4
						c0.1-0.1,0.3-0.2,0.4-0.2s0.3,0,0.5-0.1c0.1,0,0.2,0,0.3,0c0.1,0,0.2-0.1,0.2-0.3l0.1-0.1c0,0.2,0,0.4,0,0.6
						c0,0.1,0.1,0.3,0.1,0.4c0.1,0.1,0.2,0.2,0.4,0.2c0.3,0,0.5-0.2,0.7-0.3c0.1-0.1,0.2-0.1,0.2-0.2l0.1-0.1l0,0
						c0.1-0.1,1-0.3,1.1-0.3c0,0,0.3-0.1,0.6-0.1c0.1,0,0.3-0.1,0.4-0.2c0.1-0.1,0.3-0.2,0.3-0.4c0-0.1,0-0.1,0-0.2
						c-0.1-0.4-0.3-0.8-0.4-1c0-0.1-0.1-0.2-0.3-0.2c-0.2,0-0.3,0.1-0.3,0.2c-0.1,0.1-0.1,0.2-0.2,0.3s-0.1,0.1-0.1,0.1l0,0
						c0,0,0-0.2,0-0.4c0-0.1,0-0.2,0-0.3s-0.1-0.3-0.3-0.3c-0.1,0-0.2,0-0.2,0.1c-0.2,0.1-0.3,0.2-0.3,0.3l0,0c0,0-0.1-0.1-0.1-0.2
						l0,0c0.1-0.1,0.2-0.3,0.2-0.5s0-0.3-0.1-0.5l0,0c0,0.1,0.2,0.3,0.4,0.3c0.2,0,0.4-0.1,0.6-0.2c0.1-0.1,0.2-0.1,0.3-0.2
						c0.1-0.1,0.1-0.1,0.2-0.3l0,0c0.2,0,0.4-0.1,0.6-0.3c0.3-0.2,0.5-0.2,0.8-0.4c0.2-0.1,0.3-0.3,0.3-0.4c0.1-0.1,0.2-0.2,0.2-0.2
						s0,0,0.1,0.1c0,0.1,0,0.2-0.2,0.3c-0.3,0.2-0.4,0.6-0.5,0.9c-0.1,0.3-0.2,0.6-0.2,0.6c-0.1,0.1-0.2,0.3-0.2,0.4
						c0,0.1,0.1,0.3,0.2,0.3c0.1,0.1,0.2,0.1,0.4,0.1h0.1c0.1,0,0.1,0,0.2,0s0.3,0,0.4,0s0.3,0,0.4-0.1h0.1c0.1,0,0.2,0.1,0.2,0.2
						c0,0.1,0.2,0.2,0.3,0.2c0.2,0,0.3-0.1,0.3-0.2l0.1-0.1l0,0c0.1,0,0.1,0,0.2,0s0.2,0,0.2,0c0.1,0.1,0.2,0.2,0.3,0.2
						c0.2,0,0.3-0.2,0.3-0.2c0-0.1,0-0.2,0-0.3s0-0.3-0.1-0.4c-0.1-0.3-0.3-0.6-0.4-0.9c-0.1-0.3-0.3-0.6-0.7-0.5
						c-0.1,0-0.2,0-0.3,0.1c-0.1,0-0.1,0-0.1,0c-0.1,0-0.1,0-0.1-0.1c-0.1,0-0.1-0.1-0.2-0.2h-0.1c0.1-0.3,0.2-0.4,0.3-0.7
						c0-0.1,0.1-0.2,0.2-0.4s0.2-0.3,0.2-0.6s-0.2-0.5-0.4-0.5c-0.3-0.1-0.5-0.2-0.5-0.2c-0.1-0.1-0.1-0.1-0.1-0.2
						c-0.1-0.3-0.3-0.5-0.5-0.7c-0.1-0.1-0.2-0.2-0.3-0.3c-0.1-0.1-0.2-0.1-0.3-0.1c-0.1,0-0.3,0-0.4,0s-0.1,0-0.2-0.1
						c-0.1-0.4-0.5-1-0.8-1.3c-0.1-0.1-0.4-0.5-0.6-0.9c-0.1-0.2-0.3-0.4-0.4-0.5c-0.1-0.2-0.2-0.2-0.3-0.3c0-0.1-0.1-0.1-0.3-0.1
						c-0.3,0-0.5,0.3-0.8,0.8s-0.5,0.6-0.6,0.6H314c-0.2-0.1-0.3-0.1-0.3-0.2c0,0-0.1-0.1-0.3-0.3c0-0.1,0-0.1,0-0.1s0,0,0.1-0.1
						s0.2-0.2,0.2-0.4c0-0.1,0-0.1-0.1-0.2c-0.1-0.3-0.4-0.3-0.7-0.4c-0.3-0.1-0.6-0.1-0.8-0.1c-0.1,0-0.3-0.2-0.5-0.3
						c-0.2-0.2-0.5-0.4-0.9-0.4c-0.1,0-0.2,0-0.3,0c-0.6,0-1.3,0.1-1.4,0.1s-0.3,0.1-0.3,0.2c-0.2,0.3-0.1,0.6-0.2,1.1
						c0,0.1,0,0.2,0,0.2c0,0.2,0,0.3,0.1,0.4c0,0,0,0,0,0.1c-0.1,0-0.2,0.1-0.3,0.1c-0.1,0-0.1,0.1-0.2,0.1c0,0-0.1,0.1-0.1,0.3
						s0.1,0.2,0.1,0.3c0.1,0.1,0.1,0.1,0.2,0.2c0.1,0.1,0.4,0.3,0.5,0.6c0.1,0.2,0.2,0.3,0.3,0.4c0,0,0,0.1,0,0.2
						c0,0.2-0.1,0.3-0.2,0.4c-0.2,0.2-0.4,0.3-0.4,0.3l0,0c-0.1-0.3-0.3-0.4-0.5-0.4c-0.1,0-0.2,0-0.3,0.1c-0.1,0.1-0.2,0.2-0.2,0.3
						s0,0.1,0,0.2c0.1,0.2,0.2,0.3,0.3,0.5c0.1,0.1,0.1,0.2,0.1,0.3c0,0.2,0.1,0.4,0.1,0.6c0.1,0.2,0.1,0.4,0.1,0.6
						c0,0.1,0,0.1,0,0.1c-0.1,0.1-0.1,0.1-0.2,0.1s-0.2,0-0.4,0h-0.1c0,0-0.1-0.1-0.1-0.2c0.2-0.1,0.1-0.3,0.1-0.4
						c0-0.3-0.1-0.8-0.1-0.8c0-0.1-0.1-0.2-0.2-0.2s-0.2,0-0.2,0.1c0,0,0,0.1-0.1,0.2c0-0.1-0.1-0.2-0.1-0.3
						c-0.1-0.1-0.1-0.2-0.1-0.3c0-0.2,0-0.4-0.2-0.6c-0.1-0.1-0.3-0.2-0.5-0.2c-0.1,0-0.2,0-0.3,0h-0.1c-0.3,0-0.8-0.2-1.4-0.4
						c-0.8-0.2-1-0.3-1.6-0.7c-0.3-0.2-0.5-0.2-0.7-0.2c-0.3,0-0.4,0.1-0.5,0.1v-0.1c-3.3,4.5-5.7,9.5-7.3,15
						c-0.3,1.2-0.6,2.5-0.9,3.8c0,0.1,0,0.2-0.1,0.3c-0.2,1.3-0.4,2.5-0.5,3.8l0.2-0.1c0,0,0,0,0,0.1c0.1,0.1,0.1,0.1,0.3,0.2
						c0,0,0.3,0.2,0.4,0.4c0.1,0.2,0.3,0.3,0.3,0.4c0,0,0.1,0.1,0.1,0.3c0.1,0.2,0.1,0.3,0.1,0.4l0,0c-0.1,0.1-0.1,0.2-0.1,0.3
						c0,0.4,0.3,1.1,0.6,1.4c0.3,0.3,1.6,1,1.7,1.1c0,0,0.2,0.3,0.4,0.5c0.2,0.2,0.4,0.5,0.8,0.5c0.5,0,0.8,0.1,0.8,0.1
						c0,0.1,0.1,0.2,0.3,0.4c0.1,0.1,0.3,0.3,0.5,0.3c0.1,0,0.3-0.1,0.4-0.2c0.1-0.2,0.2-0.3,0.3-0.4c0.1-0.1,0.1-0.1,0.3-0.1
						c0.1,0,0.2,0.1,0.3,0.2c0.1,0.1,0.2,0.3,0.3,0.4c0.1,0.1,0.3,0.4,0.5,0.6c0.3,0.2,0.5,0.4,0.8,0.4h0.1l0,0c0,0,0.2,0,0.3,0.1
						c0.1,0.1,0.3,0.2,0.5,0.2c0.1,0,0.2,0,0.3-0.1l0,0c0.1,0,0.3,0.2,0.5,0.3c0.2,0.1,0.7,0.4,0.6,0.9v0.2c0,0.8,0.5,1,0.7,1.1
						c0.2,0.2,0.6,0.5,0.8,0.8c0.2,0.2,0.4,0.3,0.5,0.4c0.1,0,0.2,0.1,0.2,0.1h0.1l0,0c0,0,0.1,0.1,0.2,0.2s0.2,0.2,0.4,0.2
						c0.1,0,0.3-0.1,0.4-0.2c0.3-0.2,0.4-0.6,0.4-0.8l0,0c0.1,0,0.2,0,0.3,0.1c0.1,0,0.2,0.3,0.2,0.5c0,0.1,0.1,0.2,0.1,0.3
						c0.1,0.1,0.1,0.2,0.2,0.3c0,0,0.1,0.2,0.1,0.3c0,0.2,0.1,0.4,0.1,0.6s0,0.3,0,0.4c-0.1,0.3-0.1,0.7-0.2,0.9c0,0.1,0,0.2,0,0.2
						c-0.1,0.1-0.2,0.1-0.2,0.2c-0.1,0.1-0.2,0.3-0.3,0.5c-0.1,0.2-0.2,0.3-0.2,0.3c-0.2,0.1-0.4,0.3-0.6,0.6
						c-0.2,0.3-0.4,0.5-0.4,0.8v0.1c0,0.2,0.1,0.4,0.2,0.7c0.1,0.3,0.2,0.5,0.2,0.7v0.1c0,0.1-0.1,0.3-0.3,0.5
						c-0.1,0.2-0.3,0.5-0.3,0.9c0,0.1,0,0.2,0,0.2c0.1,0.4,0.4,0.7,0.7,0.9c0.3,0.2,0.4,0.3,0.4,0.5c0,0.4,0.2,0.8,0.4,1.3
						c0.2,0.5,0.4,0.9,0.4,1.1c0.1,0.4,0.3,0.7,0.5,1s0.3,0.6,0.3,1c0,0.5,0.3,0.9,0.7,1.2c0.3,0.3,0.6,0.4,0.8,0.5
						c0,0,0.2,0.1,0.3,0.3c0.2,0.2,0.3,0.3,0.5,0.4c0.3,0.1,0.5,0.4,0.7,0.9c0.1,0.3,0.2,0.7,0.2,0.9c0,0.1,0,0.2,0,0.3
						c0,0.1-0.1,1.9-0.3,2.9c0,0.2,0,0.4,0,0.6c0,0.5,0.1,0.9,0.1,1.1s0,0.3-0.1,0.3c-0.2,0.2-0.5,0.4-0.5,0.9
						c0,0.1,0.1,0.3,0.1,0.4l0,0c0,0-0.1,0.1-0.1,0.2c-0.1,0-0.1,0.1-0.1,0.1s-0.1,0.1-0.1,0.3c0,0.2,0.1,0.3,0.1,0.6
						c0.1,0.2,0.1,0.5,0.1,0.6s0,0.2,0,0.2c-0.2,0.4-0.3,1-0.4,1.3s-0.4,0.6-0.4,1.1c0,0.1,0,0.2,0,0.2v0.1c0,0.1,0,0-0.1,0.1
						s-0.3,0.3-0.3,0.6l0,0c0.1,0.1,0.1,0.1,0.2,0.2c0.8,0.6,1.5,1.1,2.3,1.7c0.2,0.1,0.3,0.2,0.5,0.3c0.8,0.5,1.7,1.1,2.5,1.5l0,0
						c0.1-0.1,0.2-0.3,0.2-0.4C316.1,300,316.1,299.9,316.1,299.8z"/>
				</g>
				<g>
					<path class="st5" d="M303.8,228.6c0.1,0.1,0.1,0.1,0.2,0.1s0.2,0,0.3,0c0.3,0,0.5-0.1,0.7-0.2c0.2-0.1,0.3-0.2,0.3-0.2
						s0.1-0.1,0.2-0.1c0.1-0.1,0.3-0.1,0.3-0.1h0.1l0,0c0.1,0.1,0.1,0.3,0.2,0.5c-0.1-0.1-0.2-0.1-0.4-0.1c-0.2,0-0.4,0.1-0.5,0.3
						c0,0.1-0.1,0.1-0.1,0.2c0,0.3,0.2,0.3,0.3,0.4c0.1,0.1,0.3,0.1,0.4,0.1s0.3,0,0.4-0.2c0-0.1,0-0.1,0-0.2c0-0.1,0-0.1,0-0.2
						c0.1,0.1,0.2,0.1,0.3,0.1c0.2,0,0.4-0.1,0.5-0.2c0.2-0.1,0.3-0.3,0.3-0.6c0-0.2-0.1-0.4-0.3-0.5c-0.1-0.1-0.1-0.1-0.2-0.1
						c0.6,0,1-0.1,1-0.1c0,0.2,0,0.4,0.1,0.5c0,0.1,0.1,0.2,0.1,0.2c0.1,0.1,0.1,0.2,0.3,0.2h0.1c0.2-0.1,0.4-0.1,0.7-0.2
						c0,0,0.1,0,0.2,0c0.3,0,0.9,0.1,1.2,0.1h0.2c0,0,0,0,0.1,0c0.1,0.1,0.2,0.2,0.3,0.3c0.1,0.1,0.2,0.2,0.4,0.2h0.1
						c0.1,0.1,0.3,0.3,0.4,0.4c0.1,0.1,0.1,0.1,0.2,0.1s0.2-0.1,0.3-0.1l0.1-0.1c0,0,0.1,0,0.1,0.1c0.2,0.2,0.3,0.3,0.3,0.3
						s0.1,0.1,0.2,0.2c0.1,0,0.1,0,0.2,0l0,0c0.3,0,0.8,0.1,0.8,0.1c0.1,0,0.1,0,0.2-0.1c0-0.1,0.1-0.1,0.1-0.2l0,0
						c0-0.1,0-0.1,0.1-0.2c0,0,0-0.1,0.1-0.1c0,0,0,0,0.1,0s0.2,0.1,0.4,0.2c0.1,0,0.1,0.1,0.2,0.1s0.1,0.1,0.3,0.1
						c0.1,0,0.2-0.1,0.3-0.1c0-0.1,0-0.2,0-0.2v-0.1c0-0.2,0-0.4,0-0.6c0-0.2-0.1-0.5-0.3-0.7c-0.2-0.2-0.5-0.3-0.7-0.5
						c-0.1-0.1-0.2-0.1-0.3-0.2h-0.1l0,0c0-0.1-0.1-0.1-0.1-0.2c0.2,0,0.6,0.1,0.8,0.3c0.3,0.2,0.5,0.4,0.9,0.5c0.1,0,0.3,0,0.4-0.1
						c0.2-0.2,0.5-0.3,0.8-0.5c0.1-0.2,0.4-0.7,0.4-0.7c0.1-0.1,0.1-0.2,0-0.2c0-0.1-0.1-0.1-0.2-0.2c0,0-0.3-0.1-0.7-0.2
						c-0.2,0-0.3-0.1-0.5-0.2c-0.1,0-0.1,0-0.2-0.1l0,0c-0.1-0.2-0.3-0.4-0.6-0.5c-0.2-0.2-0.4-0.3-0.6-0.3c-0.1,0-0.2,0-0.3,0.1
						c-0.1,0-0.2,0.1-0.2,0.1c-0.1,0,0,0-0.1-0.1c-0.1-0.3-0.1-0.6-0.2-0.8c0-0.1,0-0.3-0.1-0.3c0-0.1-0.1-0.2-0.3-0.3
						c-0.1,0-0.6-0.1-1.2-0.3c-0.3-0.1-0.5-0.1-0.7-0.2c-0.2,0-0.4-0.1-0.4-0.1c-0.2-0.1-0.5-0.2-0.8-0.4l0,0
						C308.2,224.2,305.9,226.3,303.8,228.6z"/>
				</g>
				<g>
					<path class="st5" d="M309.1,256.5C309.1,256.5,309,256.6,309.1,256.5C309,256.6,309,256.6,309.1,256.5c-0.2,0-0.4-0.1-0.6-0.2
						s-0.4-0.3-0.6-0.5c-0.5-0.5-1.2-0.5-1.5-0.5c-0.2,0-0.5,0.1-0.8,0.2c-0.3,0.1-0.6,0.2-0.6,0.2c-0.1,0-0.1,0.1-0.2,0.2v0.1
						c0,0.2,0.1,0.4,0.2,0.5s0.3,0.1,0.4,0.1c0.2,0,0.4,0,0.5,0c0.2,0,0.6,0,0.8,0c0.2,0,0.3,0,0.5,0c0.1,0,0.1,0,0.1,0l0,0
						c0.1,0.2,0.4,0.4,0.6,0.6c0.3,0.2,0.5,0.4,0.6,0.4c0.2,0.2,0.5,0.3,0.8,0.3c0.1,0,0.2,0,0.3,0c0.1,0,0.2-0.1,0.3-0.3l-0.2-0.1
						l0.2,0.1v-0.1c0-0.3-0.2-0.5-0.3-0.7C309.6,256.7,309.4,256.6,309.1,256.5z"/>
				</g>
				<g>
					<path class="st5" d="M338,226.5c-0.3-0.3-0.8-0.4-1.2-0.4c-0.1,0-0.2,0-0.2,0c-0.1,0-0.2,0.1-0.2,0.2c0,0-0.1,0.1-0.1,0.2
						c-0.1,0.1-0.1,0.2-0.1,0.4c0,0.1,0,0.3,0.1,0.5c0.1,0.3,0.2,0.5,0.3,0.6c0.1,0.2,0.2,0.3,0.5,0.3c0,0,0,0,0.1,0s0.2,0,0.3,0
						c0.1,0,0.3,0,0.4,0h0.1l0,0c0.1,0.3,0.3,0.6,0.7,0.6l0,0c0.1,0,0.1,0,0.2,0v-2.4c-0.3,0-0.5,0.1-0.6,0.1
						C338,226.6,338,226.6,338,226.5z"/>
				</g>
				<g>
					<path class="st5" d="M314.3,219.9L314.3,219.9c-0.1,0-0.1,0.1-0.1,0.1s0.1,0,0.1,0.1c0.1,0.1,0.3,0.1,0.4,0.1
						c0.4,0,0.9-0.1,1-0.1l0,0c0.1,0,0.5,0.1,0.9,0.2c0.4,0.1,0.8,0.2,0.9,0.3c0.2,0.1,0.5,0.2,0.8,0.3s0.5,0.3,0.6,0.4
						c0.1,0.2,0.2,0.7,0.2,1.2c0,0.3,0,0.5,0.1,0.7c0,0.2,0,0.3,0.1,0.5c0.1,0.1,0.2,0.1,0.3,0.1h0.1c0,0.2-0.1,0.3-0.1,0.4
						c0,0.2,0,0.4,0.1,0.5s0.2,0.3,0.4,0.3h0.3c0,0.1-0.1,0.2-0.1,0.2c-0.1,0.1-0.2,0.3-0.2,0.5c0,0,0,0,0,0.1
						c0.1,0.4,0.4,1.2,0.5,1.5c0.1,0.2,0.3,0.3,0.5,0.4c0,0,0,0,0.1,0c0,0.1,0,0.1,0,0.2c0,0.1,0,0.2,0.1,0.2
						c0.1,0.1,0.2,0.3,0.3,0.6c0.1,0.2,0.2,0.5,0.5,0.6c0.1,0.1,0.4,0.3,0.6,0.5c0.3,0.2,0.5,0.5,0.5,0.5c0.1,0.2,0.3,0.3,0.4,0.3
						c0.2,0,0.4-0.1,0.5-0.2l0.1-0.1c0,0.1,0,0.2,0.1,0.3c0.1,0.2,0.2,0.4,0.5,0.5h0.2l0,0c0.3,0,0.6-0.2,0.9-0.5
						c0.4-0.4,0.3-1,0.3-1.3c0-0.1,0-0.2,0-0.3l0,0c0.1,0,0.2,0.1,0.3,0.1c0.2,0,0.3-0.1,0.4-0.2c0.1-0.1,0.1-0.3,0.1-0.5v-0.1
						c0-0.3-0.1-0.5-0.1-0.6l0,0c0,0,0,0,0.1-0.1c0.3-0.1,0.6-0.3,0.8-0.4c0.2-0.2,0.3-0.2,0.4-0.2c0.2,0,0.7,0.1,1.1,0.1
						c0.1,0,0.2,0,0.3,0c0.1,0,0.2-0.1,0.3-0.2c0.1-0.1,0.2-0.3,0.3-0.6c0.1-0.1,0.2-0.2,0.2-0.3l0.1-0.1l0,0c0,0,0,0,0.1,0
						c0.3,0,1.1-0.1,1.7-0.3c0.4-0.1,0.8-0.3,1.1-0.4c0.3-0.2,0.5-0.3,0.6-0.3s0.2,0,0.3,0c0.1,0,0.2,0,0.3,0c0.1,0,0.1,0,0.2-0.1
						c0.1,0,0.1-0.1,0.1-0.3c0-0.1,0-0.1-0.1-0.2h0.1c0.1,0,0.2,0,0.3,0c0.4-0.1,0.6-0.5,0.6-0.8c0-0.2,0-0.3-0.1-0.5
						c-0.1-0.1-0.2-0.5-0.3-0.8c0-0.1,0-0.1,0-0.1V222c0,0,0.1-0.1,0.3-0.1h0.1c0.2,0,0.5,0.1,0.8,0.1c0.1,0,0.3,0,0.4-0.1
						s0.2-0.3,0.2-0.5l0,0H337h0.2c0-0.1,0-0.3,0-0.4c0-0.5,0.1-0.9,0.2-1.1c0.1-0.1,0.1-0.2,0.2-0.3s0.2-0.2,0.2-0.4
						c0-0.1-0.1-0.3-0.2-0.3c-0.1-0.1-0.2-0.1-0.3-0.1h-0.1c-0.1,0-0.1,0-0.1,0s-0.1-0.1-0.1-0.2c0-0.1,0-0.2,0-0.2
						c0-0.3,0.2-0.5,0.4-0.7c0.1-0.1,0.4-0.6,0.8-1l0.6-0.6v-2.4l0,0c-0.1,0-0.2,0-0.3,0l0,0c-0.3,0.1-0.5,0.2-0.7,0.4
						c-0.3,0.3-0.5,0.5-0.6,0.7c-0.2,0.2-0.3,0.3-0.5,0.3c-0.1,0-0.1,0-0.2,0c-0.2-0.1-0.4-0.3-0.5-0.6c-0.2-0.3-0.3-0.7-0.5-1
						l-0.1-0.1c-0.2,0-0.5-0.1-0.7-0.1c-0.7,0.1-1.4,0.1-2,0.2c-0.2,0-0.5,0.1-0.7,0.1c-0.6,0.1-1.3,0.2-1.9,0.3
						c-0.1,0-0.3,0-0.4,0.1c-0.4,0.1-0.7,0.1-1.1,0.2c-0.6,0.1-1.2,0.3-1.8,0.4c-0.3,0.1-0.6,0.2-0.8,0.2c-0.4,0.1-0.9,0.2-1.3,0.4
						c0,0,0,0-0.1,0l0,0c-0.1,0-0.2,0-0.2,0.1c-0.3,0.1-0.5,0.2-0.8,0.3c-0.2,0.1-0.4,0.1-0.5,0.2
						C319.8,216.8,317,218.2,314.3,219.9z"/>
				</g>
				<g>
					<path class="st5" d="M308.6,258.9h-0.1c-0.3,0.1-0.4,0.4-0.4,0.7c0,0.2,0,0.3,0.1,0.5c0.1,0.1,0.2,0.3,0.4,0.3l0,0
						c0.1,0,0.1,0,0.2,0c0.3-0.1,0.4-0.4,0.4-0.7C309.2,259.3,309,258.9,308.6,258.9z"/>
				</g>
				<g>
					<path class="st5" d="M308.4,255.2L308.4,255.2c0.1,0,0.1,0,0.2,0V255v0.2c0.2,0,0.5-0.2,0.5-0.5c0-0.4-0.3-0.6-0.6-0.6h-0.1
						c-0.3,0-0.5,0.3-0.5,0.5c0,0.1,0,0.3,0.2,0.4C308.1,255.2,308.2,255.2,308.4,255.2z"/>
				</g>
			</g>
			<g>
				<g>
					<path class="st6" d="M350.9,243.8c-0.2,0-0.4,0.2-0.5,0.5c0,0,0,0.1,0,0.2c0,0.2,0.1,0.3,0.2,0.3c0.1,0.1,0.2,0.1,0.3,0.1
						c0.2,0,0.4-0.1,0.5-0.3c0-0.1,0-0.1,0-0.2c0-0.1,0-0.2-0.1-0.3C351.2,243.9,351.1,243.8,350.9,243.8z"/>
				</g>
				<g>
					<path class="st6" d="M354,243.2c-0.3,0-0.4,0.2-0.5,0.4s-0.2,0.4-0.2,0.6c0,0.2,0,0.4,0.2,0.6c0.1,0.1,0.3,0.3,0.5,0.3
						c0.3,0,0.5-0.2,0.6-0.5l-0.2-0.1l0.2,0.1c0.1-0.1,0.1-0.3,0.1-0.4c0-0.3-0.1-0.5-0.2-0.6C354.4,243.3,354.2,243.2,354,243.2z"
						/>
				</g>
				<g>
					<path class="st6" d="M356.9,245.1c0,0-0.3-0.1-0.6-0.1c-0.1,0-0.3,0-0.5,0.1c-0.1,0.1-0.1,0.2-0.1,0.3c0,0.3,0.2,0.4,0.3,0.5
						c0.1,0.1,0.3,0.2,0.4,0.3c0.1,0,0.1,0.1,0.2,0.2c0.1,0.1,0.2,0.2,0.4,0.3c0.1,0,0.1,0,0.2,0s0.3,0,0.4-0.1s0.3-0.3,0.3-0.5
						c0-0.1,0-0.2,0-0.3C357.6,245.1,357,245,356.9,245.1z"/>
				</g>
				<g>
					<g>
						<path class="st6" d="M376,280.1c-0.1-0.3-0.2-0.6-0.5-0.7c-0.1,0-0.1,0-0.2,0c-0.2,0-0.3,0.1-0.4,0.2
							c-0.3,0.4-0.4,0.9-0.7,1.3c-0.2,0.3-0.4,0.6-0.6,0.7c-0.1,0.1-0.2,0.2-0.2,0.2h-0.1c0,0,0,0-0.1,0c-0.2,0-0.4,0.1-0.7,0.3
							c-0.2,0.2-0.4,0.5-0.4,0.9c0,0.1,0,0.3,0.1,0.4c0.1,0.4,0.2,0.7,0.2,1.1s-0.1,0.7-0.2,0.8c-0.1,0.2-0.1,0.3-0.1,0.5
							c0,0.6,0.3,1.3,0.3,1.7v0.1c0,0.1,0,0.2,0,0.3c0,0.3,0.1,0.6,0.3,0.7c0.2,0.2,0.4,0.3,0.8,0.3l0,0c0.3,0,0.6-0.1,0.8-0.3
							c0.2-0.2,0.3-0.5,0.5-0.9c0.3-0.8,0.3-1.5,0.6-2.1c0.1-0.3,0.3-0.8,0.4-1.3c0.1-0.4,0.2-0.9,0.2-1c0.1-0.4,0.4-1.3,0.4-2
							c0-0.1,0-0.1,0-0.2C376.1,280.8,376.1,280.4,376,280.1z"/>
					</g>
					<g>
						<path class="st6" d="M338.9,228.9c0.2-0.1,0.5-0.2,0.7-0.3s0.4-0.2,0.5-0.4c0,0,0.2-0.1,0.4-0.1c0.2,0,0.4,0,0.4,0
							c0.1,0,0.1,0,0.1-0.1c0,0,0.1-0.1,0.3-0.3c0.1-0.2,0.3-0.4,0.3-0.7c0-0.1,0-0.2-0.1-0.3c-0.3-0.4-0.9-0.5-1.2-0.6h-0.1
							c-0.4,0-0.6,0.3-1.1,0.3c-0.1,0-0.2,0-0.3,0v2.4C338.8,228.9,338.9,228.9,338.9,228.9z"/>
					</g>
					<g>
						<path class="st6" d="M365.8,223.4c-0.3-0.1-2.1-0.5-3.3-0.5c-0.3,0-0.5,0-0.8,0.1c-0.4,0.1-1.1,0.3-1.7,0.5
							c-0.3,0.1-0.5,0.2-0.8,0.3c-0.5,0.2-0.9,0.3-1.2,0.4c-0.2,0.1-0.3,0.1-0.4,0.2c-0.1,0-0.2,0.1-0.3,0.1
							c-0.2,0.2-0.2,0.3-0.4,0.6c-0.2,0.3-0.3,0.6-0.6,0.8c-0.6,0.6-1.7,1.9-2.4,2.1c-0.5,0.1-0.9,0.4-1.3,0.7
							c-0.2,0.1-0.3,0.3-0.4,0.4c-0.1,0.2-0.2,0.2-0.2,0.5c0,0.2,0.1,0.4,0.2,0.6c0.1,0.2,0.1,0.4,0.1,0.5s0,0.1,0,0.2
							c0,0.2,0.1,0.5,0.2,0.7c0.1,0.3,0.3,0.5,0.6,0.7c0.3,0.1,0.5,0.2,0.8,0.2c0.1,0,0.2,0,0.3,0c-0.2,0.1-0.4,0.2-0.5,0.5
							s-0.2,0.6-0.2,1c0,0.2,0,0.4,0.1,0.5s0.1,0.1,0.2,0.2c-0.2,0-0.3-0.1-0.5-0.1c-0.3,0-0.6,0.1-0.9,0.3c-0.3,0.3-0.8,0.9-0.9,1
							c-0.1,0-0.3,0-0.5,0.1c-0.1,0-0.2,0-0.2,0.1c0,0,0,0,0-0.1c-0.1-0.5-0.5-1.2-1-1.5c-0.1-0.1-0.3-0.4-0.5-0.7s-0.3-0.6-0.5-0.8
							l0,0c0-0.1,0.1-0.4,0.1-0.7c0-0.2,0-0.3-0.2-0.5s-0.4-0.3-0.5-0.4c-0.2-0.1-0.3-0.1-0.4-0.3c-0.1-0.1-0.3-0.2-0.4-0.2
							c-0.4,0-0.6,0.3-0.8,0.6l0,0c0,0-0.2-0.1-0.4-0.1c-0.1,0-0.1,0-0.2,0c-0.3,0.1-0.4,0.4-0.4,0.7s0.1,0.5,0.2,0.8
							c0,0.1,0.1,0.2,0.2,0.3c-0.1,0-0.2,0-0.2,0c-0.1,0-0.2,0-0.2,0c-0.3,0.1-0.5,0.3-0.6,0.4c-0.1,0.1-0.1,0.2-0.1,0.2l0,0
							c-0.2,0-0.3,0-0.4,0.1c-0.2,0.1-0.3,0.3-0.3,0.5c0,0.1,0,0.1,0,0.2c0.1,0.3,0.1,0.5,0.1,0.5l0,0l0,0c-0.2,0.1-0.2,0.3-0.2,0.4
							c0,0.2,0.1,0.4,0.2,0.6c0.1,0.2,0.3,0.3,0.5,0.4h0.1c0.5,0,0.8-0.3,1.1-0.5c0.3-0.2,0.9-0.6,0.9-1.3c0-0.3,0-0.6-0.1-0.8
							c0,0,0.1,0,0.1,0.1c0.2,0.1,0.5,0.2,0.7,0.3c0,0,0.1,0,0.1,0.1c-0.2,0.1-0.3,0.3-0.5,0.5c-0.2,0.3-0.4,0.5-0.5,0.8v0.1
							c0,0.4,0.3,0.5,0.5,0.7c0.1,0,0.1,0.1,0.2,0.1c0,0.1,0,0.2,0,0.2c0,0.1,0.1,0.3,0.2,0.4c0,0,0.1,0,0.2,0
							c0.3,0,0.3-0.2,0.4-0.3s0.2-0.1,0.2-0.1c0.3,0,0.9,0.3,1.4,0.3c-0.3,0.1-0.7,0.2-1,0.3s-0.5,0.2-0.6,0.3s-0.2,0.1-0.5,0.2
							c-0.2,0-0.3,0.1-0.5,0.1c-0.1,0.1-0.3,0.2-0.3,0.4s0.1,0.3,0.2,0.3c0.1,0.1,0.2,0.1,0.4,0.1c0.3,0.1,0.6,0.2,0.9,0.4
							s0.4,0.4,0.4,0.5s0,0.2,0,0.2c0,0.4-0.1,0.9-0.3,1.2c0,0-0.1,0.1-0.3,0.1c-0.3,0-0.7-0.1-1.1-0.1c-0.3,0-0.9-0.1-1.4-0.1
							c-0.3,0-0.5,0-0.7,0.1c-0.4,0.2-0.4,0.8-0.5,1.2c0,0.4,0.1,0.7,0.1,1c0,0.1,0,0.2,0,0.3c0,0.2-0.1,0.3-0.2,0.4
							c-0.2,0.2-0.2,0.4-0.2,0.7c0,0.2,0.1,0.4,0.2,0.6c0.1,0.1,0.2,0.3,0.3,0.4c0.1,0.2,0.2,0.3,0.4,0.4c0.1,0,0.1,0,0.2,0
							c0.2,0,0.3,0,0.5,0c0.1,0,0.2,0,0.2,0.1c0.1,0.1,0.2,0.3,0.3,0.5c0,0.1,0.1,0.2,0.1,0.3l0,0l0,0c-0.3,0.2-0.5,0.4-0.8,0.6
							c-0.1,0.1-0.2,0.2-0.3,0.3h-0.1c-0.1,0-0.2,0.1-0.2,0.1c-0.2,0.2-0.5,0.6-0.7,1.3c-0.2,0.5-0.1,0.9-0.2,1.2
							c0,0.3-0.1,0.5-0.2,0.5c-0.5,0.3-1.4,0.9-1.8,1.4c-0.2,0.3-0.4,0.8-0.6,1.4c-0.2,0.6-0.4,1.1-0.6,1.5
							c-0.2,0.3-0.2,0.6-0.2,0.8c0,0.6,0.3,1,0.3,1.3c0.1,0.3,0.2,0.7,0.2,1.1c0,0.3-0.1,0.6-0.2,0.9c-0.3,0.4-0.4,0.8-0.4,1
							c0,0.1-0.1,0.2-0.1,0.2s-0.1,0-0.1,0.1c-0.1,0-0.1,0.1-0.1,0.2c0,0.2,0.1,0.2,0.1,0.3c0.1,0.2,0.3,0.3,0.3,0.6v0.1
							c0,0.2-0.1,0.4-0.1,0.7c0,0.3,0.2,0.8,0.6,1c0.8,0.5,1.2,0.9,1.4,1.5c0.3,0.8,1.4,1.9,1.4,1.9s0.8,0.9,1.2,1.3
							c0.2,0.2,0.3,0.3,0.5,0.3s0.3-0.1,0.4-0.3c0.1-0.1,0.1-0.3,0.1-0.4s0.1-0.1,0.3-0.2c0.2-0.1,0.5-0.1,0.8-0.1
							c0.4,0,0.8,0.1,1.3,0.1c0.2,0,0.3,0,0.5,0c0.7-0.1,1.4-0.7,1.5-0.8c0.2-0.1,0.6-0.4,1-0.4c0.1,0,0.2,0,0.3,0.1
							c0.3,0.2,0.3,0.4,0.4,0.7c0.1,0.3,0.1,0.5,0.3,0.8c0.1,0.2,0.4,0.3,0.6,0.3c0.4,0,0.7-0.2,1-0.5c0.1-0.1,0.1-0.1,0.1-0.1
							c0.1,0.1,0.2,0.2,0.3,0.3c0.3,0.2,0.4,0.4,0.4,0.5s0,0.2-0.2,0.3c-0.3,0.3-0.3,0.7-0.3,1.1s0,0.7-0.2,1.1
							c-0.1,0.3-0.2,0.6-0.2,0.8c0,0.2,0.1,0.3,0.2,0.5c0.1,0.1,0.2,0.2,0.4,0.3c0.2,0.1,0.5,0.7,0.8,1.3c0.3,0.6,0.6,1.2,0.8,1.5
							c0,0,0.1,0.2,0.1,0.4s0,0.5,0,0.8s0,0.7,0.2,1c0.2,0.5,0.4,0.9,0.4,1s0,0.1-0.1,0.2c-0.4,0.3-1.1,1-1.1,2.3v0.3
							c0,1,0.2,1.7,0.4,2.2c0.2,0.4,0.6,1.5,0.9,1.9c0.2,0.3,0.5,1.3,0.5,1.9v0.9c0,0.3,0,0.6,0.2,0.9s0.3,0.9,0.8,1.4
							c0.2,0.2,0.3,0.5,0.4,0.8s0.1,0.5,0.1,0.5l0,0c0,0,0,0.1,0.1,0.3c0,0.2,0.1,0.4,0.1,0.7c0,0.3,0,0.6,0.1,0.9s0.3,0.5,0.5,0.7
							c0.3,0.2,0.5,0.3,0.7,0.3l0,0c0.2,0,0.4-0.1,0.5-0.3c0,0,0,0,0.1-0.1c0.2-0.1,0.5-0.1,0.8-0.1c0.1,0,0.3,0,0.4,0
							c0.2,0,0.3,0,0.4,0h0.1c0.6,0,1.3-0.4,1.9-0.9c0.6-0.6,1.5-1.9,1.8-2.3c0.1-0.2,0.4-0.4,0.6-0.7c0.2-0.3,0.4-0.6,0.4-0.9v-0.1
							c-0.1-0.3-0.1-0.5-0.1-0.7l0,0c0-0.1,0-0.1,0.1-0.2c0,0,0.1,0,0.1-0.1c0.2-0.1,0.4-0.3,0.7-0.4c0.3-0.2,0.5-0.4,0.6-0.7v-0.1
							c0-0.1,0-0.2,0-0.4c-0.1-0.6-0.3-1.5-0.4-1.7l0,0c0-0.2,0.2-0.6,0.5-1.1c0.1-0.2,0.5-0.5,0.8-0.7c0.2-0.1,0.3-0.2,0.5-0.3
							c0.1-0.1,0.3-0.1,0.3-0.3c0.2-0.3,0.7-1.3,0.8-2.1c0-0.1,0-0.3,0-0.4c0-0.5-0.1-1-0.1-1.3c0-0.1,0-0.3,0-0.3
							c0.1-0.2,0.1-0.3,0.1-0.5c0-0.4-0.2-0.7-0.5-1c-0.1-0.1-0.2-0.6-0.3-1c0-0.2,0-0.4-0.1-0.6c0-0.2,0-0.3-0.1-0.4
							c0,0,0-0.2,0-0.3c0-0.2,0-0.4,0.1-0.6c0-0.1,0-0.2,0.1-0.2l0,0c0.1-0.1,0.2-0.2,0.3-0.3c0.3-0.4,0.7-1.2,1-1.5
							c0.2-0.3,0.5-0.8,0.9-1.3c0.3-0.4,0.7-0.9,0.9-0.9c0.3-0.1,0.7-0.4,0.9-0.7c0.3-0.3,0.5-0.7,0.5-1.1c0-0.1,0.3-0.8,0.7-1.4
							c0.2-0.3,0.3-0.6,0.5-0.9c0.1-0.3,0.2-0.4,0.3-0.6c0-0.1,0.1-0.5,0.2-0.9s0.2-0.8,0.2-1.1c0-0.1,0-0.3-0.1-0.4
							c-0.1-0.2-0.3-0.2-0.4-0.2c-0.7,0-1.9,0.6-2.1,0.7c-0.3,0.1-0.8,0.5-1.3,0.5h-0.1c-0.2,0-0.2-0.1-0.2-0.1s0-0.1,0-0.2
							s0-0.3,0-0.5v-0.1c0-0.1-0.1-0.3-0.1-0.4l0.1,0.1c0.1,0,0.2,0.1,0.3,0.1c0.3,0,0.6-0.1,1-0.2c0.3-0.1,0.6-0.2,0.7-0.3
							c0.2-0.2,1.7-1.1,2.1-1.1c0.3,0,0.5-0.2,0.7-0.4l0,0c0.2-0.1,0.3-0.2,0.6-0.3c0.8-0.2,1.3-0.9,1.7-1.3c0.5-0.5,1-1.7,1.2-2.1
							c0.1-0.3,0.4-0.5,0.5-1c0-0.1,0-0.3-0.1-0.4c-0.2-0.3-0.4-0.6-0.8-0.8c-0.3-0.3-0.6-0.4-0.9-0.5l0,0c0-0.1-0.1-0.2-0.1-0.4
							c0-0.1,0-0.1-0.1-0.2c0-0.1-0.2-0.2-0.3-0.2c-0.1,0-0.3,0.1-0.3,0.1c-0.2,0.2-0.2,0.4-0.4,0.6c-0.2,0.1-0.4,0.3-0.6,0.5
							s-0.3,0.2-0.4,0.2c0,0,0,0,0-0.1s0-0.3-0.2-0.5c0-0.1-0.1-0.2-0.2-0.3c-0.3-0.3-0.4-0.4-0.5-0.5s-0.1-0.2-0.1-0.3
							c0-0.2-0.1-0.3-0.2-0.5c-0.3-0.4-0.9-1-0.9-1.3v-0.1c0-0.1,0.1-0.3,0.2-0.5c0.1-0.1,0.2-0.2,0.3-0.2l0,0
							c0.2,0.5,0.4,1.4,1.1,1.8c0,0,0.1,0,0.1,0.1c0.2,0.1,0.5,0.3,0.7,0.5s0.4,0.4,0.6,0.5h0.1c0.3,0,0.5-0.2,0.7-0.3
							c0.1-0.1,0.2-0.1,0.3-0.2h0.1c0.1,0.1,0.2,0.3,0.4,0.6c0.2,0.3,0.4,0.6,0.7,0.7c0.3,0.1,0.7,0.2,1.1,0.2s0.8,0.1,0.9,0.1h0.3
							c0.2,0,0.4,0,0.7,0c0.2-0.1,0.4-0.1,0.6-0.4c0.1-0.2,0.1-0.2,0.1-0.2h0.2c0.1,0.1,0.2,0.3,0.3,0.5c0.2,0.3,0.3,0.5,0.6,0.6
							c0.1,0,0.2,0.1,0.3,0.1c0-0.3,0-0.6-0.1-0.8c-0.1-0.6-0.1-1.2-0.2-1.7c-0.2-1.2-0.4-2.4-0.6-3.5c0-0.1,0-0.1,0-0.2
							c-0.3-1.1-0.6-2.3-0.9-3.4c0,0,0,0,0-0.1v-0.1c-0.3-0.9-0.6-1.8-1-2.7c-0.1-0.2-0.1-0.3-0.2-0.5c-0.7-1.8-1.6-3.6-2.5-5.3
							c-0.1-0.1-0.2-0.3-0.2-0.4c-0.4-0.7-0.9-1.4-1.3-2.1c-0.1-0.1-0.2-0.3-0.3-0.4c-0.5-0.8-1.1-1.6-1.7-2.4c0,0,0-0.1-0.1-0.1
							c-0.5-0.7-1.1-1.4-1.7-2.1c-0.1-0.2-0.3-0.3-0.4-0.5c-0.5-0.6-1.1-1.2-1.6-1.8c-0.1-0.1-0.2-0.2-0.3-0.3
							c-0.7-0.7-1.3-1.3-2-1.9c-0.1-0.1-0.1-0.1-0.2-0.2c-0.6-0.1-1.4-0.1-2.3-0.5C366.5,223.7,366.3,223.6,365.8,223.4z
							 M374.4,239.9L374.4,239.9c0.2,0,0.5,0.1,0.9,0.1c0.1,0,0.3,0,0.4-0.1c0.3-0.3,0.7-0.6,0.8-0.7c0.1,0,0.3,0.1,0.5,0.1
							c0.2,0.1,0.3,0.2,0.3,0.3c0.1,0.2,0.2,0.4,0.3,0.6c0.1,0.1,0.1,0.2,0.1,0.2l0,0c-0.1,0-0.3,0.1-0.5,0.1s-0.3-0.1-0.3-0.1
							c-0.1-0.1-0.3-0.2-0.4-0.2c-0.4,0-0.9,0.4-0.9,1v0.2c0,0.1,0,0.2,0.1,0.3c0,0.1,0.2,0.2,0.3,0.2c0.1,0,0.1,0,0.2,0l0,0
							c0.2,0.2,0.3,0.5,0.5,0.8c0.1,0.3,0.3,0.3,0.5,0.4c0.1,0,0.2,0.1,0.2,0.1s-0.1,0.1-0.2,0.2c-0.1,0.1-0.2,0.2-0.2,0.5
							c0,0.2,0.1,0.3,0.2,0.4c0.1,0.1,0.3,0.5,0.3,0.9c0.1,0.4,0.1,0.8,0.2,1c0,0-0.2,0.1-0.3,0.2c-0.2,0-0.4,0.1-0.6,0.1h-0.1
							c-0.3-0.1-1.2-0.4-1.5-0.6c0,0,0-0.1-0.1-0.1c0,0,0-0.1-0.1-0.2c0-0.2-0.1-0.3-0.1-0.5c0-0.1,0-0.2,0-0.2h0.1
							c0.2,0,0.4-0.1,0.5-0.2c0.2-0.1,0.3-0.3,0.5-0.5c0.1-0.1,0.2-0.3,0.2-0.4c0-0.2-0.1-0.3-0.2-0.4c-0.3-0.3-0.9-0.4-1-0.4
							c-0.1-0.1-0.3-0.4-0.5-0.7s-0.4-0.7-0.5-0.9c0-0.1-0.1-0.2-0.1-0.3C373.9,240.6,374,240.2,374.4,239.9z M355.3,233.5
							c0,0.1,0,0.1,0.1,0.2c0.1,0.1,0.3,0.2,0.4,0.2h0.1c0.3-0.1,2-0.5,2-0.5l0,0c0,0,0.6-0.3,0.6-0.9v-0.2l0,0
							c0-0.1,0.1-0.3,0.3-0.5c0.2-0.2,0.3-0.4,0.4-0.5s0.3-0.5,0.4-0.9c0-0.3-0.2-0.5-0.4-0.6c-0.2-0.1-0.4-0.1-0.5-0.2h-0.1
							c0,0,0,0,0-0.1s0.1-0.1,0.2-0.3c0.3-0.3,0.4-0.3,0.7-0.3c0.2,0,0.5-0.1,0.9-0.5c-0.1,0.2-0.2,0.4-0.2,0.6
							c0,0.3,0.1,0.5,0.2,0.7c0.1,0.1,0.2,0.4,0.3,0.6c0,0.1,0.1,0.2,0.2,0.3s0.2,0.2,0.4,0.2h0.1c0.4-0.1,0.9-0.5,1.2-0.4h0.1
							c0.1,0,0.2,0,0.3,0c0.4,0,0.9-0.1,1.1-0.1c0,0,0.1,0.1,0.2,0.2c0.1,0.1,0.1,0.2,0.1,0.2c-0.3,0.1-0.7,0-1.4,0.1
							c-0.4,0-0.8,0.1-1.1,0.1c-0.2,0-0.3,0-0.4,0.1c-0.1,0-0.1,0-0.2,0.1c-0.1,0-0.1,0.1-0.1,0.3c0,0.1,0.1,0.2,0.1,0.2
							c0.1,0.1,0.3,0.2,0.4,0.3c0.1,0,0.1,0.1,0.2,0.1h-0.1c-0.2,0-0.4-0.2-0.8-0.2h-0.1c-0.3,0-0.6,0.3-0.7,0.6
							c-0.2,0.3-0.3,0.6-0.3,0.8c0,0.1,0,0.3,0,0.4c0,0.2,0,0.3,0,0.4v0.1h-0.1c-0.4-0.2-0.8-0.3-1.1-0.3c-0.2,0-0.3,0-0.5,0.1
							c-0.1,0.1-0.7,0.3-1.1,0.5c-0.1,0-0.1,0-0.1,0s-0.2-0.3-0.6-0.3h-0.1c-0.6,0-0.6,0-0.6,0l0,0l-0.3,0.1
							c-0.1-0.1-0.1-0.2-0.2-0.3L355.3,233.5z M350,237.2L350,237.2c0,0.1-0.1,0.1-0.2,0.2h-0.1C349.9,237.3,350,237.2,350,237.2z
							 M367,250C366.9,250,366.9,250,367,250c0,0.1-0.1,0.1-0.2,0.1s-0.3,0-0.4,0c-0.1-0.2-0.3-0.4-0.6-0.4c-0.1,0-0.1,0-0.2,0
							c-0.3,0.1-0.6,0.1-0.9,0.3c0,0,0,0,0-0.1s0-0.1-0.1-0.2c-0.1-0.2-0.3-0.2-0.5-0.3c-0.2,0-0.4,0-0.6,0c-0.3,0-0.7,0-0.9,0
							c-0.5,0-0.9-0.4-1.5-0.6c0,0-0.1,0-0.2,0c-0.3,0-0.6,0.2-0.9,0.4s-0.5,0.5-0.7,0.8c-0.2,0.2-0.2,0.2-0.3,0.2
							c-0.1,0-0.3-0.1-0.7-0.1c-0.1,0-0.4-0.2-0.6-0.3c-0.2-0.2-0.4-0.3-0.4-0.3h-0.1c0,0-0.2-0.1-0.4-0.2c-0.3-0.1-0.5-0.2-0.7-0.2
							c0,0-0.1,0-0.2-0.1s-0.3-0.2-0.4-0.4c-0.1-0.1-0.2-0.1-0.2-0.2c-0.1-0.1-0.1-0.1-0.3-0.1l-0.1-0.1c-0.1-0.1-0.1-0.1-0.1-0.1
							c0.1,0,0.1,0,0.3-0.1c0.1,0,0.2,0,0.3-0.1c0.1-0.1,0.1-0.2,0.1-0.3c0-0.2-0.1-0.4-0.2-0.8c-0.2-0.8-0.7-1.1-1.1-1.1
							c-0.3,0-0.5,0.1-0.7,0.2l0,0c-0.3,0.1-1,0.1-1.6,0.1H351c-0.1,0-0.2,0-0.4,0.1c-0.5,0.2-1.3,0.5-1.6,0.7
							c-0.4,0.2-1,0.5-1.3,0.6l0,0c-0.2,0-0.5-0.1-0.9-0.1c0-0.1,0.1-0.2,0.1-0.3s0-0.1,0.1-0.2c0.1,0,0.2,0.1,0.3,0.1
							c0.3,0,0.7-0.2,1-0.2s0.5-0.3,0.7-0.4c0.2-0.2,0.3-0.4,0.5-0.5c0.1-0.1,0.2-0.1,0.2-0.2c0.1-0.1,0.1-0.2,0.1-0.3
							c0-0.2-0.1-0.2-0.1-0.3s-0.1-0.1-0.1-0.2l0,0c0,0,0.1-0.2,0.2-0.3c0.1-0.2,0.3-0.3,0.5-0.5c0.1-0.1,0.2-0.1,0.4-0.2
							c0.1,0,0.2,0,0.3-0.1c0.1-0.1,0.3-0.2,0.3-0.4c0.1-0.2,0.1-0.5,0.2-0.8c0-0.1,0.1-0.2,0.1-0.3l0,0c0.3,0.1,0.8,0.3,1.2,0.3
							c0.3,0,0.5-0.2,0.8-0.4c0.2-0.2,0.5-0.4,0.5-0.4h0.1c0.1,0,0.2,0,0.3,0.1c0.1,0.1,0.1,0.1,0.2,0.2c0.1,0.3,0.3,0.7,0.5,0.9
							c0.3,0.3,0.5,0.4,0.6,0.5s0.4,0.2,0.8,0.4c0.2,0.1,0.3,0.2,0.5,0.2c0.1,0.1,0.2,0.1,0.2,0.1c0.1,0.1,0.4,0.6,0.5,1
							c0.1,0.3,0.2,0.5,0.5,0.5s0.4-0.3,0.4-0.5V245c0-0.3-0.1-0.6-0.1-0.7l0,0c0.3,0,0.6-0.1,0.6-0.1c0.1,0,0.1-0.1,0.1-0.2
							c0.2,0.4,0.4,0.8,0.5,0.9c0,0.1,0.2,0.5,0.3,0.8c0.1,0.4,0.3,0.8,0.3,0.9c0.1,0.2,0.3,0.3,0.4,0.3c0.3,0,0.6-0.3,0.8-0.5
							c0.1-0.1,0.2-0.2,0.4-0.3c0.2-0.1,0.3-0.3,0.3-0.7v-0.1c0-0.3-0.2-0.6-0.4-0.7c-0.1-0.1-0.2-0.2-0.3-0.2c0,0,0.1,0,0.1-0.1
							c0.1-0.1,0.3-0.1,0.4-0.3c0.1-0.1,0.4-0.3,0.4-0.3l0,0c0,0,0.1,0.5,0.1,0.9v0.6c0,0.2,0,0.3,0.1,0.4c0.1,0.2,0.2,0.2,0.3,0.3
							c0.2,0.1,0.4,0.2,0.6,0.3s0.3,0.2,0.3,0.3c0.3,0.3,0.7,0.4,1,0.4c0.2,0,0.3,0,0.4-0.1l0,0c0.2,0,0.6,0.2,0.8,0.2
							c0.1,0,0.1,0,0.2,0c0.3,0,0.7-0.2,1-0.3c0.2-0.1,0.3-0.1,0.4-0.2v0.2c0,0.7-0.2,1.9-0.6,2.3C367.1,249.6,367,249.9,367,250z
							 M371.7,261.9c0,0.1,0,0.1,0.1,0.2c-0.1-0.1-0.2-0.3-0.3-0.4c-0.1-0.1-0.2-0.3-0.3-0.3c0,0-0.2-0.2-0.4-0.4
							c-0.2-0.2-0.3-0.5-0.4-0.8c-0.2-0.7-0.5-1.6-0.9-2.1c-0.3-0.4-0.5-1.6-0.9-2.5c-0.3-0.8-0.7-1.8-1-2.6c0-0.1-0.1-0.2-0.1-0.3
							c0.2-0.1,0.4-0.1,0.5-0.1l0,0c0.1,0.5,0.6,1.3,0.7,1.8c0,0.4,0.3,0.6,0.4,0.7c0.1,0.1,0.2,0.1,0.2,0.3c0,0.3,0.2,0.8,0.3,1.3
							c0.1,0.2,0.2,0.4,0.2,0.6c0.1,0.2,0.1,0.3,0.2,0.4s0.3,0.3,0.5,0.6c0.2,0.3,0.5,0.6,0.5,0.7c0.1,0.3,0.3,0.8,0.4,1.6
							C371.5,260.9,371.6,261.4,371.7,261.9z M367.8,241.1c0.2-0.1,0.4-0.3,0.5-0.6c0.1,0,0.1,0,0.1,0c0,0.2,0.1,0.2,0.2,0.3
							s0.3,0.2,0.5,0.3c0.4,0.2,0.9,0.8,1.6,1.2c0.3,0.2,0.4,0.5,0.4,0.7c0,0.1,0,0.2,0,0.2c-0.3,0.1-1,0.2-1.5,0.2
							c-0.1,0-0.2,0-0.3,0c-0.3,0-0.8-0.5-1.5-0.7c-0.2,0-0.4-0.1-0.6-0.1c-0.5,0-0.9,0.1-1.2,0.5c0,0.1-0.2,0.2-0.5,0.1
							c-0.2,0-0.5,0-0.7,0s-0.4,0.1-0.6,0.2c0-0.1,0-0.3,0-0.4c0-0.2,0-0.4-0.2-0.5c0-0.1,0.2-0.5,0.4-0.6c0.3-0.3,0.6-0.9,0.9-1.5
							c0.2-0.4,0.4-0.4,0.5-0.4h0.1c0.1,0.1,0.2,0.3,0.4,0.6c0.1,0.3,0.3,0.6,0.3,0.7c0,0.2,0.2,0.3,0.4,0.3c0.2,0,0.3-0.1,0.4-0.2
							C367.6,241.2,367.7,241.1,367.8,241.1z"/>
					</g>
				</g>
			</g>
		</g>
		<g>
			<g>
				<g>
					<rect x="137.5" y="291" class="st7" width="222.3" height="34.3"/>
				</g>
			</g>
			<g>
				<g>
					<path class="st8" d="M362.2,327.7H135v-39.2h227.1v39.2H362.2z M139.9,322.8h217.4v-29.4H139.9V322.8z"/>
				</g>
			</g>
			<g>
				<g>
					<rect x="325.3" y="291" class="st8" width="34.4" height="34.3"/>
				</g>
				<g>
					<path class="st8" d="M362.2,327.7H323v-39.2h39.2V327.7z M327.8,322.8h29.5v-29.4h-29.5V322.8z"/>
				</g>
			</g>
			<g>
				<g>
					<g>
						<path class="st9" d="M354.6,320.3C354.6,320.3,354.6,320.4,354.6,320.3c-1.2,1.1-3,1-4.1-0.2l-8.2-9.6l1.2-1.2l1.3-1.3
							l9.6,8.2C355.7,317.3,355.7,319.2,354.6,320.3z"/>
					</g>
				</g>
				<g>
					<g>
						<g>
							<path class="st9" d="M345.2,297.7L345.2,297.7c-0.2-0.2-0.5-0.5-0.8-0.7c-0.1-0.1-0.2-0.2-0.4-0.3c-0.2-0.1-0.4-0.3-0.5-0.4
								c-1.3-0.8-2.7-1.2-4.2-1.3c-0.2,0-0.4,0-0.6,0s-0.4,0-0.5,0c-1.5,0.1-2.9,0.5-4.2,1.3c-0.4,0.2-0.8,0.5-1.1,0.8
								c-0.2,0.2-0.4,0.3-0.5,0.5c-2.3,2.3-3.1,5.5-2.4,8.4c0.1,0.4,0.2,0.8,0.3,1.2c0.4,1.2,1.1,2.3,2.1,3.3
								c0.2,0.2,0.4,0.3,0.5,0.5c0.3,0.3,0.7,0.5,1,0.7c0,0,0.1,0,0.1,0.1c0.8,0.5,1.6,0.8,2.4,1c0.6,0.2,1.2,0.3,1.8,0.3
								c0.2,0,0.4,0,0.5,0c0.2,0,0.4,0,0.6,0c0.6,0,1.2-0.1,1.7-0.3c0.9-0.2,1.8-0.6,2.6-1.1c0.1-0.1,0.3-0.2,0.4-0.3
								c0.4-0.3,0.8-0.6,1.1-0.9l0,0C348.7,307,348.7,301.3,345.2,297.7z M344.1,308.2c-0.2,0.2-0.4,0.5-0.6,0.7
								c-1.2,1.2-2.6,1.8-4.2,1.9c-0.2,0-0.4,0-0.6,0s-0.4,0-0.5,0c-1.5-0.1-3-0.8-4.2-1.9l0,0c-0.5-0.5-0.8-1-1.1-1.5
								c-0.3-0.5-0.5-1.1-0.6-1.7c-0.1-0.3-0.1-0.6-0.1-0.9l0,0c0-0.1,0-0.3,0-0.4c0-0.3,0-0.6,0-0.8l0,0c0.1-0.9,0.3-1.8,0.8-2.6
								c0.3-0.5,0.7-1,1.1-1.5l0,0c1.2-1.2,2.7-1.8,4.2-1.9c0.2,0,0.4,0,0.5,0c0.2,0,0.4,0,0.6,0c1,0.1,1.9,0.4,2.8,0.9
								c0.3,0.2,0.6,0.4,0.9,0.6c0.2,0.1,0.3,0.3,0.5,0.4c0.2,0.2,0.4,0.4,0.6,0.7c0.5,0.7,0.9,1.4,1.1,2.2c0.3,1.2,0.3,2.5,0,3.7
								C344.9,306.8,344.6,307.5,344.1,308.2z"/>
						</g>
					</g>
				</g>
			</g>
		</g>
		<g>
			<g>
				<path class="st3" d="M160.4,301.6l-2,7.5l7.7,1.1c3.8,0.6,7.8,0.9,11.7,0.9c4.4,0,8.9-0.4,13.3-1.1l7.7-1.2l-2.2-7.5
					c-0.8-2.7-0.6-5.4,0.5-7.8h-37.5C160.8,295.9,161.1,298.8,160.4,301.6z"/>
			</g>
			<g>
				<path class="st3" d="M221.9,299l6.3-4.7c0.4-0.3,0.8-0.6,1.2-0.9h-10.6L221.9,299z"/>
			</g>
			<g>
				<g>
					<path class="st10" d="M214.7,288.5c1,0.7,1.8,1.5,2.5,2.4c0.3,0.4,0.6,0.8,0.8,1.2l0.7,1.2h10.6c1-0.8,2-1.6,3-2.4
						c0.9-0.8,1.9-1.6,2.8-2.4L214.7,288.5L214.7,288.5z"/>
				</g>
				<g>
					<path class="st10" d="M135,299.6L135,299.6l2.4-4.4l1.3-2.4c0.4-0.7,0.8-1.3,1.3-1.9c0.8-1,1.8-1.8,2.8-2.4H135V299.6z"/>
				</g>
				<g>
					<path class="st10" d="M158,291c0.6,0.7,1.1,1.6,1.6,2.4h37.5c0.4-0.9,0.9-1.7,1.4-2.4c0.7-0.9,1.5-1.8,2.5-2.4h-45.8
						C156.3,289.2,157.2,290,158,291z"/>
				</g>
			</g>
		</g>
		<g>
			<path class="st11" d="M397,184.5l-0.1,0.1c-4.7,2.4-8.5,6.2-10.9,10.9l0,0l0,0c-2.4-4.7-6.2-8.5-10.9-10.9l-0.1-0.1l0.1-0.1
				c4.7-2.4,8.5-6.2,10.9-10.9l0,0l0,0c2.4,4.7,6.2,8.5,10.9,10.9L397,184.5z"/>
		</g>
		<g>
			<path class="st11" d="M92.6,202.1L92.6,202.1c-2.9,1.5-5.2,3.8-6.6,6.6l0,0l0,0c-1.4-2.8-3.7-5.2-6.6-6.6h-0.1h0.1
				c2.8-1.5,5.1-3.8,6.6-6.6l0,0l0,0C87.4,198.3,89.7,200.6,92.6,202.1L92.6,202.1z"/>
		</g>
		<g>
			<circle class="st11" cx="155.2" cy="118.9" r="4.4"/>
		</g>
		<g>
			<g>
				<polygon class="st3" points="268.7,188.3 265.3,184.9 293.9,155.9 309.4,172.6 339.9,142.3 357.4,160.4 353.9,163.8 
					339.8,149.3 309.3,179.6 293.8,162.9 				"/>
			</g>
			<g>
				<circle class="st11" cx="293.8" cy="159.4" r="5.4"/>
			</g>
			<g>
				<circle class="st11" cx="309.4" cy="175.9" r="5.4"/>
			</g>
			<g>
				<circle class="st11" cx="340.4" cy="146.6" r="5.4"/>
			</g>
			<g>
				<polygon class="st3" points="360.7,197.9 264.6,197.9 264.6,122.5 269.4,122.5 269.4,193 360.7,193 				"/>
			</g>
		</g>
		<g>
			<g>
				<path class="st7" d="M177.9,203.6c10.4,0,19.2,6.8,22.3,16.1l0.1,0.1l31.2-15.3c-3.7-8.7-0.2-18.8,7.9-23.4
					c-4.5-6.1-10-11.6-16.3-16.2c-4.5,8.2-14.4,11.8-23.3,8.3c-8.9-3.6-13.5-13.2-10.9-22.2c-7.7-1.1-15.5-1-23,0.2
					c2.6,8.9-1.8,18.6-10.6,22.3l16.4,31C173.6,204,175.7,203.6,177.9,203.6z"/>
			</g>
			<g>
				<path class="st12" d="M168.5,248.9c-8.3-3.6-14.2-12-14.2-21.7c0-10.8,7.3-19.9,17.3-22.6l-16.4-31c-8.8,3.8-18.8,0.2-23.4-7.9
					c-6.1,4.5-11.5,10-16.1,16.4c8.2,4.5,11.8,14.4,8.3,23.3c-3.6,8.9-13.2,13.4-22.2,10.9c-1.1,7.7-1,15.5,0.2,23
					c8.9-2.6,18.6,1.8,22.3,10.6c3.7,8.8,0.2,18.8-7.9,23.4c4.5,6.1,10,11.5,16.4,16.1c4.5-8.1,14.3-11.8,23.2-8.3L168.5,248.9
					L168.5,248.9z"/>
			</g>
			<g>
				<path class="st13" d="M167,303.4c7.7,1.1,15.5,1,23-0.2c-2.6-8.9,1.8-18.6,10.6-22.3c8.8-3.7,18.8-0.2,23.4,7.9
					c6.1-4.6,11.5-10,16.1-16.4c-8.2-4.5-11.9-14.4-8.3-23.3c3.6-8.8,13.2-13.4,22.1-10.9c1.1-7.7,1-15.5-0.2-23
					c-8.9,2.6-18.5-1.9-22.3-10.6l0,0l-31.2,15.3l-0.1-0.1c0.8,2.4,1.3,4.8,1.3,7.5c0,13.1-10.6,23.7-23.7,23.7
					c-3.4,0-6.5-0.7-9.4-2l0,0l-12.5,32.3h0.1C164.9,284.8,169.5,294.4,167,303.4z"/>
			</g>
			<g>
				<path class="st14" d="M174.6,203.9c0.5-0.1,1.1-0.1,1.6-0.2c0.5-0.1,1.1-0.1,1.6-0.1v-14c-4.6,0-9,0.8-13.1,2.3l6.7,12.6
					C172.5,204.2,173.6,204,174.6,203.9z"/>
			</g>
			<g>
				<path class="st15" d="M164.6,246.7c-0.4-0.2-0.8-0.5-1.2-0.8c-1.1-0.8-2.2-1.9-3.1-2.9c-0.4-0.4-0.7-0.7-1-1.1
					c-1.3-1.7-2.5-3.6-3.3-5.6c-0.2-0.5-0.4-1.1-0.6-1.6c-0.1-0.2-0.2-0.5-0.2-0.7c-0.2-0.6-0.4-1.2-0.5-1.9s-0.3-1.3-0.3-2
					c-0.1-0.9-0.2-1.9-0.2-2.8c0-0.8,0-1.6,0.1-2.5c0.1-0.8,0.2-1.5,0.4-2.2c0.1-0.9,0.4-1.8,0.7-2.6c0.1-0.4,0.3-0.9,0.5-1.3
					c0.7-2.1,1.9-4,3.3-5.8c3-4,7.3-7,12.3-8.4l-6.7-12.6c-5.2,1.9-9.7,4.9-13.6,8.7c-6.8,6.8-11,16.2-11,26.6
					c0,15.6,9.6,29.1,23.2,34.8l5.1-13.1C167.1,248.3,165.8,247.6,164.6,246.7z"/>
			</g>
			<g>
				<path class="st16" d="M173,250.4c-0.8-0.1-1.5-0.4-2.3-0.6c-0.8-0.2-1.5-0.5-2.2-0.8l-5.1,13.1c4.5,1.9,9.4,2.9,14.5,2.9v-14
					C176.2,250.9,174.6,250.7,173,250.4z"/>
			</g>
			<g>
				<path class="st7" d="M180.7,203.8c0.5,0,1.1,0.1,1.6,0.3c0.4,0,0.8,0.1,1.1,0.2c1.9,0.4,3.6,1.1,5.3,2c0.5,0.3,1.1,0.6,1.6,0.9
					c1.6,1,3.1,2.1,4.4,3.5c2.5,2.5,4.5,5.6,5.6,9l12.7-6.2c-5.5-14-19.1-24-35.1-24v14C178.8,203.6,179.7,203.6,180.7,203.8z"/>
			</g>
			<g>
				<path class="st13" d="M200.3,219.8c0.4,1.1,0.7,2.3,0.8,3.6c0.3,1.2,0.4,2.5,0.4,3.8c0,13.1-10.6,23.6-23.6,23.6v14
					c20.8,0,37.7-16.9,37.7-37.7c0-4.8-0.9-9.4-2.6-13.6L200.3,219.8z"/>
			</g>
		</g>
		<g>
			<g>
				<circle class="st13" cx="215.6" cy="118.9" r="26.7"/>
			</g>
			<g>
				<path class="st11" d="M205.2,112.9c0.1,0,0.2,0.1,0.2,0.1v10.5c0,0.1-0.1,0.1-0.2,0.1h-1.7c-0.1,0-0.2-0.1-0.2-0.1v-4.2h-4v4.2
					c0,0.1-0.1,0.1-0.2,0.1h-1.7c-0.1,0-0.2-0.1-0.2-0.1V113c0-0.1,0.1-0.1,0.2-0.1h1.7c0.1,0,0.2,0.1,0.2,0.1v4.2h4V113
					c0-0.1,0.1-0.1,0.2-0.1H205.2z"/>
				<path class="st11" d="M213.2,114.6c0,0.1-0.1,0.1-0.2,0.1h-2v8.7c0,0.1-0.1,0.1-0.2,0.1h-1.7c-0.1,0-0.2-0.1-0.2-0.1v-8.7h-2
					c-0.1,0-0.2-0.1-0.2-0.1V113c0-0.1,0.1-0.1,0.2-0.1h6.1c0.1,0,0.2,0.1,0.2,0.1L213.2,114.6L213.2,114.6z"/>
				<path class="st11" d="M226.1,123.5c0,0.1-0.1,0.1-0.2,0.1h-1.7c-0.1,0-0.2-0.1-0.2-0.1v-5.9l-2.7,5.5l-0.1,0.1h-1.6
					c0,0-0.1,0-0.1-0.1l-2.9-5.6v6c0,0.1-0.1,0.1-0.2,0.1h-1.8c-0.1,0-0.1-0.1-0.1-0.1V113c0-0.1,0-0.1,0.1-0.1h1.8
					c0,0,0.1,0,0.1,0.1l3.8,7.9l3.7-7.9l0.1-0.1h1.8c0.1,0,0.2,0.1,0.2,0.1L226.1,123.5L226.1,123.5z"/>
				<path class="st11" d="M234.3,121.6c0.1,0,0.2,0.1,0.2,0.1v1.7c0,0.1-0.1,0.1-0.2,0.1h-5.6c-0.1,0-0.2-0.1-0.2-0.1V113
					c0-0.1,0.1-0.1,0.2-0.1h1.8c0.1,0,0.1,0.1,0.1,0.1v8.6H234.3z"/>
			</g>
		</g>
		<g>
			<g>
				<g>
					<path class="st13" d="M306.2,129.2c-1.8,0-3.4-0.7-4.7-1.9l-2.2-2.2c-1.2-1.2-1.9-2.9-1.9-4.7c0-1.8,0.7-3.4,1.9-4.7l2.6-2.6
						c1.2-1.2,2.9-1.9,4.7-1.9c1.8,0,3.4,0.7,4.7,1.9l2.2,2.2c2.6,2.6,2.6,6.8,0,9.3l-2.6,2.6C309.7,128.6,308,129.2,306.2,129.2z
						 M306.6,115.1c-0.7,0-1.4,0.3-1.9,0.8l-2.6,2.6c-0.5,0.5-0.8,1.2-0.8,1.9c0,0.7,0.3,1.4,0.8,1.9l2.2,2.2c1,1,2.8,1,3.9,0
						l2.6-2.6c1.1-1.1,1.1-2.8,0-3.9l-2.2-2.2C308.1,115.4,307.4,115.1,306.6,115.1z"/>
				</g>
			</g>
			<g>
				<g>
					<path class="st13" d="M321.3,114.5c-1.8,0-3.4-0.7-4.7-1.9l-2.2-2.2c-2.6-2.6-2.6-6.8,0-9.3l2.6-2.6c1.2-1.2,2.9-1.9,4.7-1.9
						c1.8,0,3.4,0.7,4.7,1.9l2.2,2.2c2.6,2.6,2.6,6.8,0,9.3l-2.6,2.6C324.7,113.8,323,114.5,321.3,114.5z M321.7,100.4
						c-0.7,0-1.4,0.3-1.9,0.8l-2.6,2.6c-1.1,1.1-1.1,2.8,0,3.9l2.2,2.2c1,1,2.8,1,3.9,0l2.6-2.6c1.1-1.1,1.1-2.8,0-3.9l-2.2-2.2
						C323.1,100.7,322.4,100.4,321.7,100.4z"/>
				</g>
			</g>
			<g>
				<g>
					
						<rect x="303.7" y="111" transform="matrix(0.7071 -0.7071 0.7071 0.7071 12.1585 255.1946)" class="st13" width="20.8" height="3.9"/>
				</g>
			</g>
		</g>
	</g>
</g>
</svg>
