<?xml version="1.0" encoding="utf-8"?>
<!-- Generator: Adobe Illustrator 22.0.1, SVG Export Plug-In . SVG Version: 6.00 Build 0)  -->
<svg version="1.1" id="Layer_1" xmlns="http://www.w3.org/2000/svg" xmlns:xlink="http://www.w3.org/1999/xlink" x="0px" y="0px"
	 viewBox="0 0 512 512" style="enable-background:new 0 0 512 512;" xml:space="preserve">
<style type="text/css">
	.st0{display:none;fill:#F4F9FB;enable-background:new    ;}
	.st1{font-family:'ArialMT';}
	.st2{font-size:29.2349px;}
	.st3{fill:#FFFFFF;}
	.st4{fill:#CECECE;}
	.st5{fill:#D1EAF8;}
	.st6{fill:#8FCBCC;}
	.st7{fill:#49BEDF;}
	.st8{fill:#5B6374;}
	.st9{fill:#DE632E;}
	.st10{fill:#ECCA64;}
	.st11{fill:#B3D137;}
</style>
<g>
	<text transform="matrix(1 0 0 1 61.3479 424.9553)" class="st0 st1 st2">SEO CONTENT MANAGEMENT</text>
	<g>
		<g>
			<g>
				<g>
					<rect x="348.6" y="109.1" class="st3" width="80.5" height="102.2"/>
				</g>
			</g>
			<g>
				<g>
					<rect x="378" y="122.7" class="st4" width="38.8" height="3.2"/>
				</g>
			</g>
			<g>
				<g>
					<rect x="378" y="134.8" class="st4" width="38.9" height="3.2"/>
				</g>
			</g>
			<g>
				<g>
					<rect x="361" y="146.9" class="st4" width="55.9" height="3.2"/>
				</g>
			</g>
			<g>
				<g>
					<rect x="361" y="159" class="st4" width="55.9" height="3.2"/>
				</g>
			</g>
			<g>
				<g>
					<rect x="361" y="171.1" class="st4" width="55.9" height="3.2"/>
				</g>
			</g>
			<g>
				<g>
					<rect x="361" y="183.2" class="st4" width="55.9" height="3.2"/>
				</g>
			</g>
			<g>
				<g>
					<rect x="361" y="195.3" class="st4" width="55.9" height="3.2"/>
				</g>
			</g>
			<g>
				<g>
					<path class="st4" d="M363.8,137.4c-3.7,0-6.6-3-6.6-6.6v-28.3c0-5.6,4.6-10.2,10.2-10.2s10.2,4.6,10.2,10.2v6.6h-4.9v-6.6
						c0-2.9-2.4-5.3-5.3-5.3s-5.3,2.4-5.3,5.3v28.3c0,1,0.8,1.8,1.8,1.8c1.6,0,1.8-2.3,1.8-3v-26.8h4.9v26.8
						C370.4,134.9,367,137.4,363.8,137.4z"/>
				</g>
			</g>
		</g>
		<g>
			<path class="st5" d="M390.1,330.2H123.5c-4.3,0-7.7-3.5-7.7-7.7v-11.9h282.1v11.9C397.9,326.7,394.4,330.2,390.1,330.2z"/>
		</g>
		<g>
			<path class="st6" d="M281.5,320.3h-49.3c-5.4,0-9.8-4.4-9.8-9.8l0,0h69l0,0C291.3,316,286.9,320.3,281.5,320.3z"/>
		</g>
		<g>
			<g>
				<rect x="88.2" y="85.9" class="st3" width="65.1" height="51"/>
			</g>
			<g>
				<rect x="93.5" y="90.8" class="st7" width="54.2" height="36"/>
			</g>
			<g>
				<polygon class="st8" points="137.1,119.8 137.1,126.7 93.5,126.7 93.5,111.6 110.2,98.1 				"/>
			</g>
			<g>
				<polygon class="st8" points="136.6,106.2 125.4,114.7 125.4,126.8 147.8,126.8 147.8,114.7 				"/>
			</g>
			<g>
				<circle class="st9" cx="127.7" cy="99.6" r="3.8"/>
			</g>
		</g>
		<g>
			<path class="st8" d="M375.8,310.5H137.9c-3.2,0-5.7-2.6-5.7-5.7V151.4c0-3.2,2.6-5.7,5.7-5.7h237.9c3.2,0,5.7,2.6,5.7,5.7v153.4
				C381.5,308,378.9,310.5,375.8,310.5z"/>
		</g>
		<g>
			<rect x="147.1" y="160.9" class="st3" width="219.4" height="137.1"/>
		</g>
		<g>
			<g>
				<circle class="st7" cx="397.9" cy="258.1" r="25.5"/>
			</g>
			<g>
				<polygon class="st3" points="390.8,249.1 406.6,258.1 390.8,267.2 				"/>
			</g>
		</g>
		<g>
			<rect x="167.7" y="176.1" class="st9" width="175.8" height="23"/>
		</g>
		<g>
			<g>
				<path class="st10" d="M308.5,98.6c-6.3-9.4-17-15.5-29.2-15.5c-19.5,0-35.3,15.8-35.3,35.2c0,10.6,4.7,20.1,12,26.5
					c3.9,3.4,8.6,6,13.8,7.4c0.2,0.1,0.5,0.1,0.7,0.2l-4,12.7c0,0,20.7-12.5,20.9-12.6c15.5-3.7,27.1-17.6,27.1-34.3
					C314.5,111,312.3,104.2,308.5,98.6z"/>
			</g>
			<g>
				<rect x="259.8" y="116.3" class="st3" width="38.9" height="4.1"/>
			</g>
			<g>
				<rect x="259.8" y="104.2" class="st3" width="38.9" height="4.1"/>
			</g>
			<g>
				<rect x="259.8" y="128.4" class="st3" width="38.9" height="4.1"/>
			</g>
		</g>
		<g>
			<rect x="167.7" y="211.4" class="st7" width="33.9" height="34.9"/>
		</g>
		<g>
			<rect x="215" y="211.4" class="st11" width="33.9" height="34.9"/>
		</g>
		<g>
			<rect x="262.3" y="211.4" class="st7" width="33.9" height="34.9"/>
		</g>
		<g>
			<rect x="309.6" y="211.4" class="st11" width="33.9" height="34.9"/>
		</g>
		<g>
			<rect x="167.7" y="258.1" class="st4" width="33.9" height="4.2"/>
		</g>
		<g>
			<rect x="167.7" y="269.5" class="st4" width="33.9" height="4.2"/>
		</g>
		<g>
			<rect x="167.7" y="281.3" class="st4" width="33.9" height="4.2"/>
		</g>
		<g>
			<rect x="215" y="258.1" class="st4" width="33.9" height="4.2"/>
		</g>
		<g>
			<rect x="215" y="269.5" class="st4" width="33.9" height="4.2"/>
		</g>
		<g>
			<rect x="215" y="281.3" class="st4" width="33.9" height="4.2"/>
		</g>
		<g>
			<rect x="262.3" y="258.1" class="st4" width="33.9" height="4.2"/>
		</g>
		<g>
			<rect x="262.3" y="269.5" class="st4" width="33.9" height="4.2"/>
		</g>
		<g>
			<rect x="262.3" y="281.3" class="st4" width="33.9" height="4.2"/>
		</g>
		<g>
			<rect x="309.6" y="258.1" class="st4" width="33.9" height="4.2"/>
		</g>
		<g>
			<rect x="309.6" y="269.5" class="st4" width="33.9" height="4.2"/>
		</g>
		<g>
			<rect x="309.6" y="281.3" class="st4" width="33.9" height="4.2"/>
		</g>
		<g>
			<g>
				<circle class="st11" cx="136.9" cy="243" r="35.9"/>
			</g>
			<g>
				<circle class="st11" cx="136.9" cy="243" r="35.9"/>
			</g>
			<g>
				<path class="st3" d="M123.6,246.5c0.1-0.1,0.2-0.1,0.3,0l1.9,2c0.1,0.1,0.1,0.2,0,0.3c-1.5,1.5-3.6,2.5-6,2.5
					c-4.7,0-8.5-3.4-8.5-8.7c0-5.1,3.6-8.7,8.5-8.7c2.4,0,4.5,0.9,6,2.5c0.1,0.1,0.1,0.2,0,0.3l-1.9,1.9c-0.1,0.1-0.2,0.1-0.3,0
					c-1-1-2.3-1.6-3.7-1.6c-3.3,0-5.3,2.3-5.3,5.6c0,3.4,2.3,5.6,5.3,5.6C121.3,248.1,122.6,247.5,123.6,246.5z"/>
				<path class="st3" d="M147.1,250.8c0,0.1-0.1,0.2-0.2,0.2h-2.8c-0.1,0-0.2-0.1-0.2-0.2v-9.3l-4.3,8.7c0,0-0.1,0.1-0.2,0.1h-2.6
					c-0.1,0-0.2-0.1-0.2-0.1l-4.6-8.9v9.5c0,0.1-0.1,0.2-0.2,0.2H129c-0.1,0-0.2-0.1-0.2-0.2v-16.6c0-0.1,0.1-0.2,0.2-0.2h2.8
					c0.1,0,0.2,0.1,0.2,0.1l6.1,12.4l5.8-12.4c0,0,0.1-0.1,0.2-0.1h2.8c0.1,0,0.2,0.1,0.2,0.2V250.8z"/>
				<path class="st3" d="M150.2,246.2c0-0.1,0.1-0.2,0.2-0.2h2.8c0.1,0,0.2,0.1,0.2,0.2c0,1.2,1.1,1.9,2.2,1.9
					c1.2,0,2.2-0.8,2.2-1.9c0-1.3-1.2-2.1-2.2-2.1c-0.1,0-1.3,0-2.6-0.6c-1.8-0.8-2.8-2.4-2.8-4.4c0-3.3,2.6-5.3,5.4-5.3
					c3,0,5.3,2,5.3,5c0,0.1-0.1,0.2-0.2,0.2H158c-0.1,0-0.2-0.1-0.2-0.2c0-1.2-1-1.8-2.1-1.8c-1.2,0-2.2,0.7-2.2,2.1
					c0,1.3,1.1,1.9,2.2,1.9c0.1,0,1.3,0,2.6,0.6c1.8,0.8,2.8,2.6,2.8,4.6c0,3.3-2.6,5.1-5.4,5.1
					C152.6,251.2,150.3,249.4,150.2,246.2z"/>
			</g>
		</g>
		<g>
			<g>
				<path class="st3" d="M201.1,115.3v5.7v8.1c-0.6-0.4-1.3-0.6-2.1-0.6c-2.1,0-3.9,1.7-3.9,3.9c0,2.1,1.7,3.9,3.9,3.9
					c2.1,0,3.9-1.7,3.9-3.9v-12.1l12.7-5.2v10.2c-0.6-0.4-1.3-0.6-2.1-0.6c-2.1,0-3.9,1.7-3.9,3.9c0,2.1,1.7,3.9,3.9,3.9
					c2.1,0,3.9-1.7,3.9-3.9v-14.2v-2.9v-2.8L201.1,115.3z"/>
			</g>
		</g>
	</g>
</g>
</svg>
