<?xml version="1.0" encoding="utf-8"?>
<!-- Generator: Adobe Illustrator 22.0.1, SVG Export Plug-In . SVG Version: 6.00 Build 0)  -->
<svg version="1.1" id="Layer_1" xmlns="http://www.w3.org/2000/svg" xmlns:xlink="http://www.w3.org/1999/xlink" x="0px" y="0px"
	 viewBox="0 0 512 512" style="enable-background:new 0 0 512 512;" xml:space="preserve">
<style type="text/css">
	.st0{display:none;fill:#F4F9FB;enable-background:new    ;}
	.st1{font-family:'ArialMT';}
	.st2{font-size:29.2349px;}
	.st3{fill:#2593A0;}
	.st4{fill:#8FCBCC;}
	.st5{fill:#FFFFFF;}
	.st6{fill:#FBC254;}
	.st7{fill:#E89E23;}
	.st8{fill:#CECECE;}
	.st9{fill:#F6CD72;}
	.st10{fill:#DE632E;}
	.st11{fill:#CFD6DA;}
	.st12{fill:#237F84;}
</style>
<g>
	<text transform="matrix(1 0 0 1 153.7438 429.4248)" class="st0 st1 st2">SEO PACKAGES</text>
	<g>
		<g>
			<g>
				<rect x="143.6" y="227" class="st3" width="153.6" height="117.3"/>
			</g>
			<g>
				<rect x="232.6" y="227" class="st4" width="135.8" height="117.3"/>
			</g>
			<g>
				<polygon class="st5" points="368.4,227 294.6,227 232.6,227 270.9,266.9 294.6,266.9 406.7,266.9 				"/>
			</g>
			<g>
				<path class="st5" d="M227.3,210.7L227.3,210.7c-1.5,0.8-2.7,2-3.5,3.5l0,0l0,0c-0.8-1.5-2-2.7-3.4-3.5l0,0l0,0
					c1.5-0.8,2.7-2,3.4-3.5l0,0l0,0C224.6,208.7,225.8,210,227.3,210.7L227.3,210.7z"/>
			</g>
			<g>
				<path class="st5" d="M393.8,219.4L393.8,219.4c-0.9,0.5-1.6,1.2-2.1,2.1l0,0l0,0c-0.4-0.9-1.2-1.6-2-2.1l0,0l0,0
					c0.9-0.5,1.6-1.2,2-2.1l0,0l0,0C392.2,218.2,392.9,218.9,393.8,219.4L393.8,219.4z"/>
			</g>
			<g>
				<path class="st5" d="M322.8,121.2L322.8,121.2c-2.5,1.3-4.5,3.3-5.7,5.7l0,0l0,0c-1.2-2.4-3.2-4.4-5.7-5.7h-0.1h0.1
					c2.4-1.3,4.4-3.2,5.7-5.7l0,0l0,0C318.4,118,320.4,119.9,322.8,121.2L322.8,121.2z"/>
			</g>
			<g>
				<path class="st5" d="M186.9,139.1L186.9,139.1c-2.5,1.3-4.5,3.3-5.7,5.7l0,0l0,0c-1.2-2.4-3.2-4.4-5.7-5.7h-0.1h0.1
					c2.4-1.3,4.4-3.2,5.7-5.7l0,0l0,0C182.5,135.8,184.4,137.8,186.9,139.1L186.9,139.1z"/>
			</g>
			<g>
				<circle class="st5" cx="293.8" cy="202.4" r="2.7"/>
			</g>
			<g>
				<circle class="st5" cx="123.3" cy="219.4" r="2.7"/>
			</g>
			<g>
				<g>
					<path class="st5" d="M364.9,212.2L317.6,195c-1.9-0.7-2.8-2.7-2.1-4.6l17.2-47.3c0.7-1.9,2.7-2.8,4.6-2.1l47.3,17.2
						c1.9,0.7,2.8,2.7,2.1,4.6l-17.2,47.3C368.8,211.9,366.8,212.9,364.9,212.2z"/>
				</g>
				<g>
					<path class="st6" d="M386.7,162.8l-1,2.6l-54-19.7l1-2.6c0.7-1.9,2.7-2.8,4.6-2.2l47.3,17.2
						C386.4,158.9,387.4,160.9,386.7,162.8z"/>
				</g>
				<g>
					<path class="st6" d="M386.7,162.8l-1.5,4.2l-54-19.7l1.5-4.2c0.7-1.9,2.7-2.8,4.6-2.2l47.3,17.2
						C386.4,158.9,387.4,160.9,386.7,162.8z"/>
				</g>
				<g>
					<circle class="st7" cx="338.4" cy="145.9" r="2.1"/>
				</g>
				<g>
					<circle class="st7" cx="344.2" cy="148" r="2.1"/>
				</g>
				<g>
					<circle class="st7" cx="350" cy="150.2" r="2.1"/>
				</g>
				<g>
					
						<rect x="332.6" y="159.6" transform="matrix(0.342 -0.9397 0.9397 0.342 61.4924 437.0751)" class="st8" width="20.5" height="30.1"/>
				</g>
				<g>
					
						<rect x="323.7" y="182.3" transform="matrix(0.342 -0.9397 0.9397 0.342 38.7478 433.3133)" class="st8" width="10.2" height="13.4"/>
				</g>
				<g>
					
						<rect x="339.4" y="188" transform="matrix(0.342 -0.9397 0.9397 0.342 43.7071 451.824)" class="st8" width="10.2" height="13.4"/>
				</g>
				<g>
					
						<rect x="347.3" y="182.6" transform="matrix(0.342 -0.9397 0.9397 0.342 61.7169 466.7067)" class="st8" width="33.6" height="13.4"/>
				</g>
				<g>
					
						<rect x="354" y="139.7" transform="matrix(0.342 -0.9397 0.9397 0.342 80.9559 441.7991)" class="st8" width="3.8" height="46.7"/>
				</g>
			</g>
			<g>
				<g>
					<path class="st9" d="M176.3,161.7l-17.4,6.3c-2.2,0.8-4.7,0.2-6.3-1.4l0,0c-1.4-1.4-3.5-1.9-5.4-1.2l-7.1,2.6
						c-2.6,1-4,3.9-3,6.5l2,5.5l8.6,23.6c0.8,2.3,3.4,3.5,5.7,2.6l34.5-12.6c2.3-0.8,3.5-3.4,2.6-5.7l-8.6-23.6
						C181.2,162.1,178.6,160.9,176.3,161.7z"/>
				</g>
				<g>
					
						<rect x="145.1" y="170" transform="matrix(0.9397 -0.342 0.342 0.9397 -52.3496 67.0807)" class="st5" width="37.9" height="24"/>
				</g>
				<g>
					<path class="st9" d="M182.5,165.7l8.6,23.6c0.8,2.3-0.3,4.8-2.6,5.7L154,207.6c-2.3,0.8-4.8-0.4-5.7-2.7l-7.9-21.8
						c1,2.6,3.9,4,6.5,3l6.1-2.2c1.9-0.7,3.2-2.4,3.3-4.4c0.2-2.3,1.7-4.4,3.9-5.2l18.4-6.7c1.6-0.6,3.1-2.2,3.3-3.8
						C182,164.6,182.2,165.1,182.5,165.7z"/>
				</g>
			</g>
			<g>
				<polygon class="st4" points="143.6,227 152.9,227 232.6,227 194.3,266.9 152.9,266.9 105.3,266.9 				"/>
			</g>
			<g>
				<g>
					<g>
						<polygon class="st5" points="292.8,97.5 292.8,189.5 211.2,189.6 211.2,78.6 273.7,78.6 						"/>
					</g>
					<g>
						<polygon class="st10" points="292.8,78.6 292.8,111.2 211.2,111.2 211.2,78.6 273.7,78.6 						"/>
					</g>
				</g>
				<g>
					<g>
						<rect x="262.6" y="136.1" class="st11" width="4.2" height="17.2"/>
					</g>
					<g>
						<rect x="254" y="139.1" class="st11" width="4.2" height="14.2"/>
					</g>
					<g>
						<rect x="271.3" y="138.1" class="st11" width="4.2" height="15.2"/>
					</g>
					<g>
						<rect x="280" y="141.5" class="st11" width="4.2" height="11.8"/>
					</g>
					<g>
						<rect x="228" y="118.4" class="st11" width="4.2" height="34.9"/>
					</g>
					<g>
						<rect x="219.3" y="126.9" class="st11" width="4.2" height="26.4"/>
					</g>
					<g>
						<rect x="236.7" y="128.7" class="st11" width="4.2" height="24.6"/>
					</g>
					<g>
						<rect x="245.3" y="133.8" class="st11" width="4.2" height="19.5"/>
					</g>
				</g>
				<g>
					<path class="st5" d="M227.6,99.7c0-0.1,0.1-0.2,0.3-0.2h3.2c0.1,0,0.3,0.1,0.3,0.2c0.1,1.4,1.2,2.2,2.5,2.2s2.5-0.9,2.5-2.2
						c0-1.5-1.4-2.4-2.5-2.4c-0.2,0-1.5,0-3-0.7c-2.1-1-3.3-2.7-3.3-5.1c0-3.8,3.1-6.1,6.3-6.1c3.4,0,6.1,2.3,6.2,5.7
						c0,0.1-0.1,0.2-0.3,0.2h-3.2c-0.1,0-0.3-0.1-0.3-0.2c-0.1-1.4-1.1-2.1-2.5-2.1s-2.5,0.8-2.5,2.4c0,1.5,1.2,2.2,2.5,2.2
						c0.1,0,1.5,0,3,0.7c2.1,1,3.3,3,3.3,5.3c0,3.8-3,5.9-6.2,5.9C230.4,105.4,227.7,103.4,227.6,99.7z"/>
					<path class="st5" d="M247.3,89.2v4.4h7.7c0.1,0,0.3,0.1,0.3,0.2v3.1c0,0.1-0.1,0.2-0.3,0.2h-7.7v4.4h9.3c0.2,0,0.3,0.1,0.3,0.2
						v3.2c0,0.1-0.1,0.2-0.3,0.2h-12.8c-0.2,0-0.3-0.1-0.3-0.2V85.8c0-0.1,0.1-0.2,0.3-0.2h12.5c0.2,0,0.3,0.1,0.3,0.2v3.1
						c0,0.1-0.1,0.2-0.3,0.2L247.3,89.2L247.3,89.2z"/>
					<path class="st5" d="M278.6,95.4c0,5-3.2,10.1-9.7,10.1s-9.7-5.1-9.7-10.1s3.2-10,9.7-10C275.4,85.3,278.6,90.4,278.6,95.4z
						 M274.8,95.4c0-3.3-2-6.6-5.9-6.6s-5.9,3.3-5.9,6.6c0,3.2,2,6.5,5.9,6.5C272.9,101.9,274.8,98.7,274.8,95.4z"/>
				</g>
				<g>
					<g>
						<rect x="235.6" y="166.8" class="st8" width="49.2" height="5"/>
					</g>
					<g>
						<rect x="219.3" y="166.8" class="st8" width="11.1" height="5"/>
					</g>
					<g>
						<rect x="235.6" y="176.7" class="st8" width="49.2" height="5"/>
					</g>
					<g>
						<rect x="219.3" y="176.7" class="st8" width="11.1" height="5"/>
					</g>
				</g>
				<g>
					<rect x="219.3" y="159.7" class="st11" width="65.5" height="0.6"/>
				</g>
			</g>
		</g>
		<g>
			<polygon class="st12" points="143.6,274.2 216.5,344.3 232.6,344.3 232.6,227 194.3,266.9 143.6,266.9 			"/>
		</g>
	</g>
</g>
</svg>
