<?xml version="1.0" encoding="utf-8"?>
<!-- Generator: Adobe Illustrator 22.0.1, SVG Export Plug-In . SVG Version: 6.00 Build 0)  -->
<svg version="1.1" id="Layer_1" xmlns="http://www.w3.org/2000/svg" xmlns:xlink="http://www.w3.org/1999/xlink" x="0px" y="0px"
	 viewBox="0 0 512 512" style="enable-background:new 0 0 512 512;" xml:space="preserve">
<style type="text/css">
	.st0{display:none;fill:#F4F9FB;enable-background:new    ;}
	.st1{font-family:'ArialMT';}
	.st2{font-size:29.2349px;}
	.st3{fill:#FFFFFF;}
	.st4{fill:#5B6374;}
	.st5{fill:#DE632E;}
	.st6{fill:#B3D137;}
	.st7{fill:#CECECE;}
	.st8{fill:#49BEDF;}
	.st9{fill:#0A75B4;}
	.st10{fill:#FDFEFF;}
	.st11{fill:#F36F3B;}
	.st12{fill:#BEC4C6;}
</style>
<g>
	<text transform="matrix(1 0 0 1 57.3129 436.1118)" class="st0 st1 st2">SOCIAL MEDIA MARKETING</text>
	<g>
		<g>
			<path class="st3" d="M211.4,265.9c-4.3,0-8.5-0.3-12.6-0.8l0.6-4.8c3.9,0.5,7.9,0.8,11.9,0.8l0.1,4.4V265.9
				C211.5,265.9,211.4,265.9,211.4,265.9z M224.1,265.1l-0.6-4.8c4-0.5,8-1.3,11.8-2.3l1.3,4.7C232.5,263.7,228.3,264.5,224.1,265.1
				z M186.4,262.7c-4.1-1.1-8.1-2.5-12-4.1l1.9-4.5c3.7,1.5,7.6,2.8,11.4,3.9L186.4,262.7z M248.6,258.5l-1.9-4.5
				c3.7-1.5,7.3-3.3,10.8-5.3l2.4,4.2C256.3,255,252.5,256.9,248.6,258.5z M163,253c-3.7-2.1-7.2-4.5-10.6-7l3-3.9
				c3.2,2.4,6.6,4.7,10,6.7L163,253z M270.5,245.9l-3-3.9c3.2-2.4,6.2-5.1,9.1-8l3.4,3.4C277,240.5,273.8,243.3,270.5,245.9z
				 M142.9,237.6c-3-3-5.8-6.2-8.4-9.5l3.9-3c2.4,3.2,5.1,6.2,8,9L142.9,237.6z M288.4,228l-3.9-3c2.4-3.2,4.7-6.6,6.7-10l4.2,2.4
				C293.3,221.1,291,224.6,288.4,228z M127.4,217.6c-2.1-3.6-4-7.5-5.6-11.4l4.5-1.9c1.5,3.7,3.3,7.3,5.4,10.8L127.4,217.6z
				 M301.1,206l-4.5-1.9c1.5-3.7,2.8-7.5,3.9-11.4l4.7,1.3C304,198.1,302.7,202.1,301.1,206z M117.7,194.2
				c-1.1-4.1-1.9-8.3-2.5-12.4l4.8-0.6c0.5,4,1.3,7.9,2.4,11.8L117.7,194.2z M307.6,181.6l-4.8-0.6c0.5-4,0.8-8,0.8-12v-0.4h4.9v0.4
				C308.4,173.1,308.1,177.4,307.6,181.6z M114.4,169.1v-0.2c0-4.2,0.3-8.4,0.8-12.5l4.8,0.6c-0.5,3.9-0.8,7.9-0.8,11.8L114.4,169.1
				z M302.7,156.5c-0.5-4-1.3-7.9-2.4-11.8l4.7-1.3c1.1,4.1,1.9,8.2,2.5,12.4L302.7,156.5z M122.3,145.3l-4.7-1.2
				c1.1-4.1,2.4-8.1,4.1-12l4.5,1.9C124.6,137.5,123.3,141.4,122.3,145.3z M296.4,133.3c-1.5-3.7-3.4-7.3-5.4-10.8l4.2-2.5
				c2.1,3.6,4,7.5,5.7,11.3L296.4,133.3z M131.5,123l-4.2-2.4c2.1-3.6,4.5-7.2,7-10.6l3.9,3C135.7,116.2,133.5,119.5,131.5,123z
				 M284.3,112.6c-2.5-3.2-5.1-6.2-8-9l3.4-3.5c3,3,5.8,6.2,8.4,9.5L284.3,112.6z M146.1,103.9l-3.5-3.4c3-3,6.2-5.8,9.5-8.4l3,3.9
				C152,98.4,148.9,101.1,146.1,103.9z M267.2,95.6c-3.2-2.4-6.6-4.7-10-6.7l2.4-4.2c3.7,2.1,7.2,4.5,10.6,7L267.2,95.6z
				 M165.1,89.2l-2.5-4.2c3.6-2.1,7.5-4,11.4-5.6l1.9,4.5C172.2,85.4,168.6,87.2,165.1,89.2z M246.4,83.6c-3.7-1.5-7.5-2.8-11.4-3.8
				l1.2-4.7c4.1,1.1,8.1,2.4,12,4L246.4,83.6z M187.3,80l-1.3-4.7c4.1-1.1,8.3-1.9,12.4-2.5l0.6,4.8C195.1,78.1,191.1,78.9,187.3,80
				z M223.1,77.5c-3.9-0.5-7.8-0.7-11.7-0.7h-0.3v-4.9h0.3c4.1,0,8.3,0.3,12.4,0.8L223.1,77.5z"/>
		</g>
		<g>
			<g>
				<g>
					<g>
						<path class="st4" d="M305.5,337.7H165.7c-9.2,0-16.6-7.4-16.6-16.6v-200c0-9.2,7.4-16.6,16.6-16.6h139.7
							c9.2,0,16.6,7.4,16.6,16.6v200C322.1,330.3,314.7,337.7,305.5,337.7z"/>
					</g>
					<g>
						<rect x="164.8" y="134.9" class="st3" width="141.7" height="172.2"/>
					</g>
					<g>
						<rect x="176.2" y="145.2" class="st5" width="119.4" height="14.1"/>
					</g>
					<g>
						<polygon class="st6" points="176.2,227.5 176.2,244.9 176.2,267.1 211.4,267.1 211.4,244.9 211.4,227.5 						"/>
					</g>
					<g>
						<polygon class="st6" points="218,227.5 218,244.9 218,267.1 253.2,267.1 253.2,244.9 253.2,227.5 						"/>
					</g>
					<g>
						<polygon class="st6" points="260.5,227.5 260.5,244.9 260.5,267.1 295.7,267.1 295.7,244.9 295.7,227.5 						"/>
					</g>
					<g>
						<path class="st7" d="M246.9,327.9h-22.6c-2.8,0-5-2.3-5-5l0,0c0-2.8,2.3-5,5-5h22.6c2.8,0,5,2.3,5,5l0,0
							C251.9,325.6,249.7,327.9,246.9,327.9z"/>
					</g>
					<g>
						<rect x="176.2" y="168.9" class="st8" width="119.4" height="52.2"/>
					</g>
				</g>
			</g>
			<g>
				<rect x="176.2" y="273.1" class="st7" width="35.2" height="3.8"/>
			</g>
			<g>
				<rect x="176.2" y="283.3" class="st7" width="35.2" height="3.8"/>
			</g>
			<g>
				<rect x="176.2" y="293.4" class="st7" width="35.2" height="3.8"/>
			</g>
			<g>
				<rect x="218" y="273.1" class="st7" width="35.2" height="3.8"/>
			</g>
			<g>
				<rect x="218" y="283.3" class="st7" width="35.2" height="3.8"/>
			</g>
			<g>
				<rect x="218" y="293.4" class="st7" width="35.2" height="3.8"/>
			</g>
			<g>
				<rect x="260.5" y="273.1" class="st7" width="35.2" height="3.8"/>
			</g>
			<g>
				<rect x="260.5" y="283.3" class="st7" width="35.2" height="3.8"/>
			</g>
			<g>
				<rect x="260.5" y="293.4" class="st7" width="35.2" height="3.8"/>
			</g>
		</g>
		<g>
			<g>
				<circle class="st8" cx="304.5" cy="121.6" r="33.9"/>
			</g>
			<g>
				<path class="st3" d="M314.3,114.5c0,2.9,0,7.1,0,7.1h9.3l-1.1,9.6h-8.1V154c-3.1,0.9-6.4,1.5-9.9,1.5v-24.1h-8.1v-9.8h8.3v-9.3
					c0,0,1.1-9.8,10.8-9.8h8.5v8.9h-6.4C317.7,111.5,314.3,111.7,314.3,114.5z"/>
			</g>
		</g>
		<g>
			<g>
				<circle class="st3" cx="149.1" cy="322.8" r="44.2"/>
			</g>
			<g>
				<path class="st8" d="M139.5,338.5c0,0-8.1,6.1-16.6,4.4c0,0,18.1,13.5,38.6-2.1c0,0,12.7-9.9,12.1-27.8l6-5.9l-6.4,2.1
					c0,0,3.9-3.3,4.5-6.4l-6.8,2.8c0,0-6.6-5.9-13.5-2.8s-6.8,9.4-6.5,13c0,0-10.2,2.5-24.5-11.7c0,0-4.7,7.9,3.2,15.3
					c0,0-4,0.8-5.2-0.9c0,0,0.6,9.3,9.3,11.3c0,0-2.8,1.2-5,0C128.7,329.8,129.4,336.9,139.5,338.5z"/>
			</g>
		</g>
		<g>
			<g>
				<circle class="st5" cx="87.1" cy="238.6" r="19.7"/>
			</g>
			<g>
				<g>
					<path class="st9" d="M84.5,240.8c0,2.1,0,4.2,0,6.3c0,0.2,0,0.2,0.2,0.2c1.2,0,2.4,0,3.6,0c0.2,0,0.2,0,0.2-0.2
						c0-2.1,0-4.2,0-6.3c0-0.6,0-1.2,0.2-1.8c0.2-0.5,0.5-1,1-1.2s0.9-0.3,1.4-0.2c0.8,0.1,1.4,0.5,1.6,1.2c0.2,0.5,0.2,1.1,0.2,1.6
						c0,2.2,0,4.5,0,6.7c0,0.2,0,0.2,0.2,0.2c1.2,0,2.4,0,3.7,0c0.2,0,0.2,0,0.2-0.2c0-2.5,0-4.9,0-7.4c0-1.1-0.1-2.1-0.5-3.1
						c-0.4-1.1-1.1-1.9-2.1-2.3c-1-0.4-2.1-0.5-3.1-0.3c-1.2,0.2-2.2,0.8-2.9,1.9c0,0,0,0.1-0.1,0.1s0-0.1,0-0.1c0-0.5,0-1,0-1.5
						c0-0.2,0-0.2-0.2-0.2c-1.2,0-2.3,0-3.5,0c-0.2,0-0.2,0-0.2,0.2C84.5,236.6,84.5,238.7,84.5,240.8z M77.9,240.7
						c0,2.1,0,4.2,0,6.3c0,0.1,0,0.2,0.2,0.2c1.2,0,2.4,0,3.7,0c0.1,0,0.2,0,0.2-0.2c0-4.2,0-8.5,0-12.7c0-0.2,0-0.2-0.2-0.2
						c-1.2,0-2.4,0-3.6,0c-0.2,0-0.2,0-0.2,0.2C77.9,236.6,77.9,238.7,77.9,240.7z M77.6,230.1c0,1.3,1.1,2.4,2.3,2.4
						c1.3,0,2.4-1.1,2.4-2.4c0-1.3-1.1-2.4-2.4-2.3C78.6,227.8,77.6,228.8,77.6,230.1z"/>
				</g>
				<g>
					<path class="st10" d="M84.5,240.8c0-2.1,0-4.2,0-6.3c0-0.2,0.1-0.2,0.2-0.2c1.2,0,2.3,0,3.5,0c0.2,0,0.2,0,0.2,0.2
						c0,0.5,0,1,0,1.5v0.1c0.1,0,0.1,0,0.1-0.1c0.7-1.1,1.7-1.7,2.9-1.9c1.1-0.2,2.1-0.1,3.1,0.3c1.1,0.4,1.8,1.2,2.1,2.3
						c0.4,1,0.5,2.1,0.5,3.1c0,2.5,0,4.9,0,7.4c0,0.2-0.1,0.2-0.2,0.2c-1.2,0-2.4,0-3.7,0c-0.2,0-0.2,0-0.2-0.2c0-2.2,0-4.5,0-6.7
						c0-0.5-0.1-1.1-0.2-1.6c-0.3-0.8-0.8-1.2-1.6-1.2c-0.5,0-1,0-1.4,0.2c-0.5,0.3-0.8,0.7-1,1.2c-0.2,0.6-0.2,1.2-0.2,1.8
						c0,2.1,0,4.2,0,6.3c0,0.2,0,0.2-0.2,0.2c-1.2,0-2.4,0-3.6,0c-0.2,0-0.2,0-0.2-0.2C84.5,245,84.5,242.9,84.5,240.8z"/>
				</g>
				<g>
					<path class="st10" d="M77.9,240.7c0-2.1,0-4.2,0-6.3c0-0.2,0-0.2,0.2-0.2c1.2,0,2.4,0,3.6,0c0.1,0,0.2,0,0.2,0.2
						c0,4.2,0,8.5,0,12.7c0,0.2,0,0.2-0.2,0.2c-1.2,0-2.4,0-3.7,0c-0.2,0-0.2-0.1-0.2-0.2C77.9,245,77.9,242.9,77.9,240.7z"/>
				</g>
				<g>
					<path class="st10" d="M77.6,230.1c0-1.3,1-2.4,2.3-2.4s2.4,1.1,2.4,2.3c0,1.3-1.1,2.4-2.4,2.4
						C78.6,232.5,77.6,231.4,77.6,230.1z"/>
				</g>
			</g>
		</g>
		<g>
			<g>
				<circle class="st6" cx="128.3" cy="129.1" r="23.2"/>
			</g>
			<g>
				<g>
					<polygon class="st3" points="143.6,129.8 143.6,127.4 140.2,127.4 140.2,123.9 137.8,123.9 137.8,127.4 134.3,127.4 
						134.3,129.8 137.8,129.8 137.8,133.2 140.2,133.2 140.2,129.8 					"/>
				</g>
				<g>
					<path class="st3" d="M131.8,127.2h-9.1v3.9h5.2c-0.7,3.2-3.7,3.9-5.5,3.9s-5.4-1.6-5.4-5.8s3.5-5.8,5.7-5.8s3.6,1.4,3.6,1.4
						l2.9-2.8c0,0-1.2-0.9-1.3-1c-1.1-0.7-2.2-1.2-3.5-1.5c-3.1-0.7-6.3,0.4-8.5,2.6c-2.7,2.6-3.5,6.7-2.4,10.3
						c1.9,6.2,9.6,8.6,14.8,4.7C131.3,134.8,132.5,130.8,131.8,127.2z"/>
				</g>
			</g>
		</g>
		<g>
			<g>
				<g>
					<g>
						<polygon class="st11" points="334.7,238.6 295.5,232.8 295.5,185.7 334.7,180 						"/>
					</g>
				</g>
				<g>
					<g>
						<path class="st3" d="M295.5,224.6h-7.7c-5.2,0-9.4-4.2-9.4-9.4v-11.3c0-5.2,4.2-9.4,9.4-9.4h7.7V224.6z"/>
					</g>
				</g>
				<g>
					<g>
						<polygon class="st3" points="334.7,184.7 334.7,209 334.7,209.2 334.7,233.5 388.8,264.1 388.8,209.2 388.8,209 388.8,154.1 
													"/>
					</g>
				</g>
				<g>
					<g>
						<path class="st11" d="M388.8,264.1h8.7c4.8,0,8.7-3.9,8.7-8.7v-92.5c0-4.8-3.9-8.7-8.7-8.7h-8.7V264.1z"/>
					</g>
				</g>
				<g>
					<g>
						<path class="st3" d="M411.9,219.2h-5.7v-22.5h5.7c6.2,0,11.3,5,11.3,11.3l0,0C423.1,214.2,418.1,219.2,411.9,219.2z"/>
					</g>
				</g>
				<g>
					<g>
						<path class="st3" d="M326.2,237.3v37.4c0,4.4-3.6,8-8,8l0,0c-4,0-7.4-2.9-7.9-6.9l-5.8-41.7L326.2,237.3z"/>
					</g>
				</g>
				<g>
					<g>
						<polygon class="st12" points="326.2,237.3 326.2,247.9 306,244.8 304.5,234.1 						"/>
					</g>
				</g>
			</g>
			<g>
				<g>
					<g>
						<rect x="434.9" y="204.9" class="st3" width="19.8" height="7.2"/>
					</g>
				</g>
				<g>
					<g>
						
							<rect x="425.1" y="173.6" transform="matrix(0.7071 -0.7071 0.7071 0.7071 2.0725 359.4862)" class="st3" width="19.8" height="7.2"/>
					</g>
				</g>
				<g>
					<g>
						
							<rect x="431.4" y="229.9" transform="matrix(0.7069 -0.7074 0.7074 0.7069 -42.0771 377.9544)" class="st3" width="7.2" height="19.7"/>
					</g>
				</g>
			</g>
			<g>
				<polygon class="st7" points="326.2,237.3 326.2,247.9 306,244.8 304.5,234.1 				"/>
			</g>
		</g>
	</g>
</g>
</svg>
