<?xml version="1.0" encoding="utf-8"?>
<!-- Generator: Adobe Illustrator 22.0.1, SVG Export Plug-In . SVG Version: 6.00 Build 0)  -->
<svg version="1.1" id="Layer_1" xmlns="http://www.w3.org/2000/svg" xmlns:xlink="http://www.w3.org/1999/xlink" x="0px" y="0px"
	 viewBox="0 0 2500 1200" style="enable-background:new 0 0 2500 1200;" xml:space="preserve">
<style type="text/css">
	.st0{display:none;fill:#F4F9FB;enable-background:new    ;}
	.st1{font-family:'ArialMT';}
	.st2{font-size:68.5193px;}
	.st3{fill:#DE632E;}
	.st4{fill:#5B6374;}
	.st5{fill:#FFFFFF;}
	.st6{fill:#EEED8E;}
	.st7{fill:#E0DD85;}
	.st8{fill:#D1EAF8;}
	.st9{fill:#CFD6DA;}
	.st10{fill:#49BEDF;}
	.st11{fill:#ABABAB;}
	.st12{fill:#8FCBCC;}
	.st13{fill:#B3D137;}
	.st14{fill:#E89E23;}
	.st15{fill:#FBC254;}
	.st16{fill:#F4F9FB;}
</style>
<g>
	<text transform="matrix(1 0 0 1 926.9133 1023.3755)" class="st0 st1 st2">SUPPORT SERVICES</text>
	<g>
		<g>
			<circle class="st3" cx="1538.8" cy="646.4" r="73.8"/>
		</g>
		<g>
			<g>
				<path class="st4" d="M1401.6,790.5c0.7,38.2-30,69.4-68.2,69.4h-84.6H1164c-38.2,0-68.9-31.4-68.2-69.4l0,0
					c8.7-55.8,63.3-96.8,122.8-96.8h60.5C1338.6,694,1393.4,735,1401.6,790.5L1401.6,790.5z"/>
			</g>
			<g>
				<path class="st4" d="M1302.7,696.3l-54.4,153.5L1194,696.6c0,0,0,0,0.2,0s0.5,0,0.9-0.2c0.2,0,0.5,0,0.9-0.2
					c7.3-1.2,14.8-1.9,22.3-1.9h60.5C1287,694,1295.2,694.7,1302.7,696.3z"/>
			</g>
			<g>
				<path class="st5" d="M1302.7,696.3l-54.4,153.5L1194,696.6c0,0,0,0,0.2,0s0.5,0,0.9-0.2c0.2,0,0.5,0,0.9-0.2
					c7.3-1.2,14.8-1.9,22.3-1.9h60.5C1287,694,1295.2,694.7,1302.7,696.3z"/>
			</g>
			<g>
				<g>
					<path class="st4" d="M1156.7,630c1.4-12.2,2.1-27,2.1-44.8h93.8v99.1h-46.9C1176.4,684.4,1153.4,659.1,1156.7,630z"/>
				</g>
				<g>
					<path class="st4" d="M1340.5,630c-1.2-12.2-2.1-27-2.1-44.8h-93.8v99.1h46.6C1320.5,684.4,1343.3,659.3,1340.5,630z"/>
				</g>
				<g>
					<rect x="1317.7" y="569.1" class="st4" width="20.6" height="16.2"/>
				</g>
				<g>
					<rect x="1211.8" y="656" class="st6" width="73.1" height="38.2"/>
				</g>
				<g>
					<path class="st7" d="M1284.7,654.1v23.4c-8.4,4.5-18,6.8-28.1,6.8h-16.4c-10.3,0-20.2-2.6-28.6-7.3v-23.2c0.2,0,0.2,0,0.2,0
						c8.4,4.5,18.3,7,28.6,7h16.4C1266.9,660.9,1276.3,658.4,1284.7,654.1z"/>
				</g>
				<g>
					<path class="st6" d="M1253.3,667h-9.8c-35.6,0-64.2-28.8-64.2-64.2v-35.2c0-35.6,28.8-64.2,64.2-64.2h9.8
						c35.6,0,64.2,28.8,64.2,64.2v35.2C1317.7,638.4,1288.9,667,1253.3,667z"/>
				</g>
				<g>
					<circle class="st6" cx="1179.2" cy="585.2" r="17.8"/>
				</g>
				<g>
					<circle class="st6" cx="1317.7" cy="585.2" r="17.8"/>
				</g>
				<g>
					<path class="st4" d="M1307.7,500.4c0,0-11,31.4-47.8,57.4c-26.7,18.8-59.3,27.7-91.9,27.7h-9.4c0,0-12.4-77.6,61.9-102
						C1272,466.4,1307.7,500.4,1307.7,500.4z"/>
				</g>
				<g>
					<path class="st4" d="M1280.5,531.8c0,0,0,0.7,0.2,1.9c4.9,22.7,25.3,38.4,48.5,38.4h8.2c0,0,4.7-60.5-30.7-68.7
						C1306.7,503.4,1285.2,503.4,1280.5,531.8z"/>
				</g>
			</g>
		</g>
		<g>
			<path class="st3" d="M1179.2,610.1H1156c-2.3,0-4.5-1.9-4.5-4.5v-44.1c0-2.3,1.9-4.5,4.5-4.5h23.2V610.1z"/>
		</g>
		<g>
			<path class="st3" d="M1317.7,610.1h23.2c2.3,0,4.5-1.9,4.5-4.5v-44.1c0-2.3-1.9-4.5-4.5-4.5h-23.2V610.1z"/>
		</g>
		<g>
			<path class="st3" d="M1337.2,558.8h-11.5c0-42-34.2-76.2-76.2-76.2s-76.2,34.2-76.2,76.2h-11.5v-1.4c0.7-47.6,39.8-86,87.4-86
				s86.7,38.4,87.4,86l0,0v1.4H1337.2z"/>
		</g>
		<g>
			<path class="st3" d="M1260.5,652.5V641c53,0,61.6-31.2,62.1-32.3l11,2.8C1333.2,613.1,1322.9,652.5,1260.5,652.5z"/>
		</g>
		<g>
			<path class="st3" d="M1262.7,656h-23.9c-2.1,0-3.8-1.6-3.8-3.8v-12.4c0-2.1,1.6-3.8,3.8-3.8h23.9c2.1,0,3.8,1.6,3.8,3.8v12.4
				C1266.4,654.4,1264.8,656,1262.7,656z"/>
			<path class="st3" d="M1257.3,661.9h-13.1c-8.2,0-15-6.8-15-15v-1.4c0-8.2,6.8-15,15-15h13.1c8.2,0,15,6.8,15,15v1.4
				C1272.3,655.1,1265.5,661.9,1257.3,661.9z M1244.1,641.7c-1.9,0-3.5,1.6-3.5,3.5v1.4c0,1.9,1.6,3.5,3.5,3.5h13.1
				c1.9,0,3.5-1.6,3.5-3.5v-1.4c0-1.9-1.6-3.5-3.5-3.5H1244.1z"/>
		</g>
		<g>
			
				<rect x="1062.1" y="358.1" transform="matrix(0.533 -0.8461 0.8461 0.533 125.2578 1109.6376)" class="st3" width="11.5" height="166.4"/>
		</g>
		<g>
			
				<rect x="1350.5" y="437" transform="matrix(0.846 -0.5331 0.5331 0.846 -14.9502 833.679)" class="st3" width="170.9" height="11.5"/>
		</g>
		<g>
			<rect x="1244.8" y="282.4" class="st3" width="11.5" height="148.6"/>
		</g>
		<g>
			<circle class="st3" cx="1514.1" cy="397" r="73.8"/>
		</g>
		<g>
			
				<ellipse transform="matrix(0.7071 -0.7071 0.7071 0.7071 11.4689 821.6884)" class="st3" cx="997.6" cy="397" rx="73.8" ry="73.8"/>
		</g>
		<g>
			<circle class="st3" cx="1250.7" cy="282.4" r="115.1"/>
		</g>
		<g>
			<g>
				<polygon class="st8" points="1258,197.3 1247.2,197.3 1241.1,225.5 1247.2,239.5 1247.2,289.2 1258,289.2 1258,239.5 
					1264.3,225.5 				"/>
			</g>
			<g>
				<path class="st9" d="M1260.8,367.3h-16.2c-5.4,0-9.6-4.2-9.6-9.6v-70.1c0-5.4,4.2-9.6,9.6-9.6h16.2c5.4,0,9.6,4.2,9.6,9.6v70.1
					C1270.4,362.8,1266.2,367.3,1260.8,367.3z"/>
			</g>
			<g>
				<g>
					<path class="st10" d="M1244.6,353.9L1244.6,353.9c-2.3,0-4.2-1.9-4.2-4.2v-49c0-2.3,1.9-4.2,4.2-4.2l0,0c2.3,0,4.2,1.9,4.2,4.2
						v49C1249.1,351.8,1247,353.9,1244.6,353.9z"/>
				</g>
				<g>
					<path class="st10" d="M1260.5,353.9L1260.5,353.9c-2.3,0-4.2-1.9-4.2-4.2v-49c0-2.3,1.9-4.2,4.2-4.2l0,0c2.3,0,4.2,1.9,4.2,4.2
						v49C1264.8,351.8,1262.9,353.9,1260.5,353.9z"/>
				</g>
			</g>
			<g>
				<polygon class="st11" points="1258,197.3 1258,239.5 1264.3,225.5 				"/>
			</g>
		</g>
		<g>
			<path class="st3" d="M1385.5,652.3v-80.2c0-74.8-60.7-135.5-135.5-135.5s-135.5,60.7-135.5,135.5v80.2H961.3v-11.5H1103v-68.7
				c0-81.1,65.9-147,147-147s147,65.9,147,147v68.7l141.8-0.5v11.5L1385.5,652.3z"/>
		</g>
		<g>
			<circle class="st3" cx="961.3" cy="646.4" r="73.8"/>
		</g>
		<g>
			<g>
				<path class="st8" d="M1042.3,403.8c-3.3,0.9-6.8-0.7-8.2-4c-1.4-3.3,0-6.8,2.8-8.7c-1.6-2.3-3.8-4.2-6.1-5.9
					c-1.6,3-5.4,4.2-8.4,3c-3.3-1.4-4.9-4.9-4-8.2c-2.8-0.5-5.6-0.5-8.4,0c0.9,3.3-0.7,6.8-4,8.2c-3.3,1.4-6.8,0-8.7-2.8
					c-2.3,1.6-4.2,3.8-5.9,6.1c3,1.6,4.2,5.4,3,8.4c-1.4,3.3-4.9,4.9-8.2,4c-0.5,2.8-0.5,5.6,0,8.4c3.3-0.9,6.8,0.7,8.2,4
					s0,6.8-2.8,8.7c1.6,2.3,3.8,4.2,6.1,5.9c1.6-3,5.4-4.5,8.4-3c3.3,1.4,4.9,4.9,4,8.2c2.8,0.5,5.6,0.5,8.4,0
					c-0.9-3.3,0.7-6.8,4-8.2c3.3-1.4,6.8,0,8.7,2.8c2.3-1.6,4.2-3.8,5.9-6.1c-3-1.6-4.5-5.4-3-8.4c1.4-3.3,4.9-4.9,8.2-4
					C1042.8,409.5,1042.8,406.6,1042.3,403.8z M1014.5,417c-4.7,0-8.7-4-8.7-8.7s4-8.7,8.7-8.7s8.7,4,8.7,8.7
					C1023.1,413.2,1019.1,417,1014.5,417z"/>
			</g>
			<g>
				<g>
					<path class="st12" d="M1014.5,417c-4.7,0-8.7-4-8.7-8.7s4-8.7,8.7-8.7l0,0v-5.2l0,0c-7.5,0-13.8,6.1-13.8,13.8
						c0,7.7,6.1,13.8,13.8,13.8l0,0V417L1014.5,417z"/>
				</g>
				<g>
					<path class="st8" d="M1028.3,408.3c0-7.5-6.1-13.8-13.8-13.8v5.2c4.7,0,8.7,4,8.7,8.7s-4,8.7-8.7,8.7v5.2
						C1022,422.1,1028.3,416,1028.3,408.3z"/>
				</g>
			</g>
		</g>
		<g>
			<g>
				<path class="st13" d="M991,379c-2.3,0.7-4.7-0.5-5.6-2.6c-0.9-2.1,0-4.7,1.9-5.9c-1.2-1.6-2.6-2.8-4.2-4c-1.2,2.1-3.8,3-5.9,2.1
					c-2.3-0.9-3.3-3.3-2.8-5.6c-1.9-0.2-4-0.2-5.9,0c0.7,2.3-0.5,4.7-2.6,5.6s-4.7,0-5.9-1.9c-1.6,1.2-2.8,2.6-4,4.2
					c2.1,1.2,3,3.8,2.1,5.9c-0.9,2.3-3.3,3.3-5.6,2.8c-0.2,1.9-0.2,4,0,5.9c2.3-0.7,4.7,0.5,5.6,2.6s0,4.7-1.9,5.9
					c1.2,1.6,2.6,2.8,4.2,4c1.2-2.1,3.8-3,5.9-2.1c2.1,0.9,3.3,3.3,2.8,5.6c1.9,0.2,4,0.2,5.9,0c-0.7-2.3,0.5-4.7,2.6-5.6
					s4.7,0,5.9,1.9c1.6-1.2,2.8-2.6,4-4.2c-2.1-1.2-3-3.8-2.1-5.9s3.3-3.3,5.6-2.8C991.3,382.7,991.3,380.9,991,379z M971.8,387.9
					c-3.3,0-5.9-2.6-5.9-5.9s2.6-5.9,5.9-5.9s5.9,2.6,5.9,5.9C977.9,385.3,975.1,387.9,971.8,387.9z"/>
			</g>
			<g>
				<g>
					<path class="st14" d="M971.8,387.9c-3.3,0-5.9-2.6-5.9-5.9s2.6-5.9,5.9-5.9l0,0v-3.5l0,0c-5.2,0-9.6,4.2-9.6,9.6
						c0,5.2,4.2,9.6,9.6,9.6l0,0V387.9L971.8,387.9z"/>
				</g>
				<g>
					<path class="st13" d="M981.4,382c0-5.2-4.2-9.6-9.6-9.6v3.5c3.3,0,5.9,2.6,5.9,5.9s-2.6,5.9-5.9,5.9v3.5
						C977.2,391.6,981.4,387.2,981.4,382z"/>
				</g>
			</g>
		</g>
		<g>
			<g>
				<g>
					<g>
						<path class="st10" d="M1514.1,438.8c-23,0-41.7-18.8-41.7-41.7c0-23,18.8-41.7,41.7-41.7s41.7,18.8,41.7,41.7
							C1555.9,420,1537.1,438.8,1514.1,438.8z M1514.1,360.9c-19.9,0-36.1,16.2-36.1,36.1s16.2,36.1,36.1,36.1s36.1-16.2,36.1-36.1
							S1533.8,360.9,1514.1,360.9z"/>
					</g>
				</g>
				<g>
					<g>
						<path class="st10" d="M1514.1,438.8c-12,0-18.5-21.6-18.5-41.7c0-20.2,6.6-41.7,18.5-41.7s18.5,21.6,18.5,41.7
							C1532.7,417.2,1526.1,438.8,1514.1,438.8z M1514.1,360.9c-6.1,0-12.7,15.5-12.7,36.1s6.8,36.1,12.7,36.1
							c6.1,0,12.7-15.5,12.7-36.1C1526.8,376.4,1520,360.9,1514.1,360.9z"/>
					</g>
				</g>
				<g>
					<g>
						<path class="st10" d="M1514.1,385.5c-18,0-29.5-9.1-30-9.6l3.5-4.5c0,0,10.5,8.4,26.5,8.4s26.3-8.2,26.3-8.4l3.5,4.5
							C1543.4,376.2,1532,385.5,1514.1,385.5z"/>
					</g>
				</g>
				<g>
					<g>
						<path class="st10" d="M1540.4,423.8c0,0-10.5-8.4-26.5-8.4s-26.3,8.2-26.3,8.4l-3.5-4.5c0.5-0.5,12-9.6,30-9.6
							s29.5,9.1,30,9.6L1540.4,423.8z"/>
					</g>
				</g>
			</g>
			<g>
				<g>
					<rect x="1475" y="394.2" class="st10" width="77.8" height="5.6"/>
				</g>
			</g>
		</g>
		<g>
			<g>
				<rect x="1536.4" y="633.3" class="st8" width="6.1" height="49.7"/>
			</g>
			<g>
				<path class="st15" d="M1574.6,633.3H1505c-3.3,0-5.9-2.6-5.9-5.9V618c0-3.3,2.6-5.9,5.9-5.9h69.6c3.3,0,5.9,2.6,5.9,5.9v9.4
					C1580.7,630.5,1577.9,633.3,1574.6,633.3z"/>
			</g>
			<g>
				<path class="st15" d="M1574.6,663.3H1505c-3.3,0-5.9-2.6-5.9-5.9V648c0-3.3,2.6-5.9,5.9-5.9h69.6c3.3,0,5.9,2.6,5.9,5.9v9.4
					C1580.7,660.5,1577.9,663.3,1574.6,663.3z"/>
			</g>
			<g>
				<rect x="1499.1" y="678.3" class="st8" width="81.6" height="5.2"/>
			</g>
			<g>
				<path class="st15" d="M1543.9,685.3h-8.9c-2.3,0-4.5-1.9-4.5-4.5v-1.2c0-2.3,1.9-4.5,4.5-4.5h8.9c2.3,0,4.5,1.9,4.5,4.5v1.2
					C1548.4,683.4,1546.3,685.3,1543.9,685.3z"/>
			</g>
		</g>
		<g>
			<path class="st5" d="M1522.3,628.8h-4c-0.7,0-1.4-0.7-1.4-1.4v-9.6c0-0.7,0.7-1.4,1.4-1.4h4c0.7,0,1.4,0.7,1.4,1.4v9.6
				C1523.8,628.4,1523.3,628.8,1522.3,628.8z"/>
		</g>
		<g>
			<path class="st5" d="M1541.8,628.8h-4c-0.7,0-1.4-0.7-1.4-1.4v-9.6c0-0.7,0.7-1.4,1.4-1.4h4c0.7,0,1.4,0.7,1.4,1.4v9.6
				C1543.2,628.4,1542.5,628.8,1541.8,628.8z"/>
		</g>
		<g>
			<path class="st5" d="M1560.1,628.8h-4c-0.7,0-1.4-0.7-1.4-1.4v-9.6c0-0.7,0.7-1.4,1.4-1.4h4c0.7,0,1.4,0.7,1.4,1.4v9.6
				C1561.5,628.4,1561,628.8,1560.1,628.8z"/>
		</g>
		<g>
			<path class="st5" d="M1522.3,658.8h-4c-0.7,0-1.4-0.7-1.4-1.4v-9.6c0-0.7,0.7-1.4,1.4-1.4h4c0.7,0,1.4,0.7,1.4,1.4v9.6
				C1523.8,658.1,1523.3,658.8,1522.3,658.8z"/>
		</g>
		<g>
			<path class="st5" d="M1541.8,658.8h-4c-0.7,0-1.4-0.7-1.4-1.4v-9.6c0-0.7,0.7-1.4,1.4-1.4h4c0.7,0,1.4,0.7,1.4,1.4v9.6
				C1543.2,658.1,1542.5,658.8,1541.8,658.8z"/>
		</g>
		<g>
			<path class="st5" d="M1560.1,658.8h-4c-0.7,0-1.4-0.7-1.4-1.4v-9.6c0-0.7,0.7-1.4,1.4-1.4h4c0.7,0,1.4,0.7,1.4,1.4v9.6
				C1561.5,658.1,1561,658.8,1560.1,658.8z"/>
		</g>
		<g>
			<g>
				<path class="st16" d="M937.6,666.3c0,0.2-0.2,0.5-0.7,0.5h-7c-0.2,0-0.5-0.2-0.5-0.5v-12.4h-16.9c-0.5,0-0.7-0.2-0.7-0.5v-6.8
					l17.6-23c0,0,0.2-0.2,0.5-0.2h7c0.5,0,0.7,0.2,0.7,0.5L937.6,666.3L937.6,666.3z M920.2,646.9h9.4v-11.7L920.2,646.9z"/>
			</g>
			<g>
				<path class="st16" d="M959.6,667.5c-6.6,0-12.9-4.2-12.9-12.4v-19.5c0-8.2,6.3-12.4,12.9-12.4c6.3,0,12.9,4.2,12.9,12.4v19.5
					C972.5,663.3,965.9,667.5,959.6,667.5z M959.6,630.2c-2.3,0-4.7,1.6-4.7,4.7v20.4c0,3,2.3,4.7,4.7,4.7s4.7-1.6,4.7-4.7v-20.4
					C964.3,631.9,962,630.2,959.6,630.2z"/>
			</g>
			<g>
				<path class="st16" d="M1004.4,666.3c0,0.2-0.2,0.5-0.7,0.5h-7c-0.2,0-0.5-0.2-0.5-0.5v-12.4h-16.9c-0.5,0-0.7-0.2-0.7-0.5v-6.8
					l17.6-23c0,0,0.2-0.2,0.5-0.2h7c0.5,0,0.7,0.2,0.7,0.5L1004.4,666.3L1004.4,666.3z M987,646.9h9.4v-11.7L987,646.9z"/>
			</g>
		</g>
	</g>
</g>
</svg>
