<?xml version="1.0" encoding="utf-8"?>
<!-- Generator: Adobe Illustrator 22.0.1, SVG Export Plug-In . SVG Version: 6.00 Build 0)  -->
<svg version="1.1" id="Layer_1" xmlns="http://www.w3.org/2000/svg" xmlns:xlink="http://www.w3.org/1999/xlink" x="0px" y="0px"
	 viewBox="0 0 2500 1200" style="enable-background:new 0 0 2500 1200;" xml:space="preserve">
<style type="text/css">
	.st0{display:none;fill:#F4F9FB;enable-background:new    ;}
	.st1{font-family:'ArialMT';}
	.st2{font-size:68.5193px;}
	.st3{fill:#FFFFFF;}
	.st4{fill:#FBC254;}
	.st5{fill:#E89E23;}
	.st6{fill:#5B6374;}
	.st7{fill:#B3D137;}
	.st8{fill:#ECCA64;}
	.st9{fill:#CECECE;}
	.st10{fill:#F36F3B;}
	.st11{fill:#E9EAEB;}
	.st12{fill:#ABABAB;}
	.st13{fill:#D1EAF8;}
	.st14{fill:#49BEDF;}
	.st15{fill:#00AAD1;}
	.st16{fill:#494F5B;}
</style>
<g>
	<text transform="matrix(1 0 0 1 957.407 979.6277)" class="st0 st1 st2">KEYWORD RANKINGS</text>
	<g>
		<g>
			<g>
				<g>
					<path class="st3" d="M1466.6,750.9h-402.4c-15.9,0-28.8-12.9-28.8-28.8V319.7c0-15.9,12.9-28.8,28.8-28.8h402.4
						c15.9,0,28.8,12.9,28.8,28.8v402.4C1495.4,738,1482.5,750.9,1466.6,750.9z"/>
				</g>
				<g>
					<path class="st4" d="M1495.2,319.7V342h-459.8v-22.3c0-15.9,12.9-28.8,28.8-28.8h402.2C1482.3,290.9,1495.2,303.8,1495.2,319.7
						z"/>
				</g>
				<g>
					<path class="st4" d="M1495.2,319.7v35.9h-459.8v-35.9c0-15.9,12.9-28.8,28.8-28.8h402.2
						C1482.3,290.9,1495.2,303.8,1495.2,319.7z"/>
				</g>
				<g>
					<circle class="st5" cx="1070.2" cy="323.4" r="10.8"/>
				</g>
				<g>
					<circle class="st5" cx="1102.8" cy="323.4" r="10.8"/>
				</g>
				<g>
					<circle class="st5" cx="1135.2" cy="323.4" r="10.8"/>
				</g>
				<g>
					<rect x="1035.3" y="355.8" class="st6" width="459.8" height="28.8"/>
				</g>
				<g>
					<rect x="1063.7" y="409" class="st7" width="106.2" height="306.6"/>
				</g>
				<g>
					<g>
						<path class="st8" d="M1456.3,649.2V704h-252.2v-54.8H1456.3 M1467.7,637.7h-275.2v77.8h275.2V637.7L1467.7,637.7z"/>
					</g>
				</g>
				<g>
					<rect x="1242" y="417" class="st9" width="11.5" height="193.4"/>
				</g>
				<g>
					<rect x="1294.5" y="417" class="st9" width="11.5" height="193.4"/>
				</g>
				<g>
					<rect x="1346.8" y="433.1" class="st9" width="11.5" height="193.4"/>
				</g>
				<g>
					<rect x="1399.3" y="433.1" class="st9" width="11.5" height="193.4"/>
				</g>
				<g>
					<g>
						<path class="st9" d="M1456.3,420.5v185.9h-252.2V420.5H1456.3 M1467.7,409h-275.2v208.6h275.2V409L1467.7,409z"/>
					</g>
				</g>
				<g>
					<polygon class="st9" points="1299,581.5 1246.3,501.1 1203.1,531.3 1196.6,522 1249.3,484.9 1301.6,564.6 1350.5,524.1 
						1402.1,524.1 1455.5,449.8 1464.9,456.3 1408,535.5 1354.5,535.5 					"/>
				</g>
				<g>
					<circle class="st10" cx="1247.7" cy="492.9" r="14.5"/>
				</g>
				<g>
					<circle class="st10" cx="1300.2" cy="573" r="14.5"/>
				</g>
				<g>
					<circle class="st10" cx="1352.7" cy="531.8" r="14.5"/>
				</g>
				<g>
					<circle class="st10" cx="1404.9" cy="531.8" r="14.5"/>
				</g>
				<g>
					<rect x="1223.8" y="661.6" class="st9" width="57.2" height="9.6"/>
				</g>
				<g>
					<rect x="1223.8" y="683.2" class="st9" width="57.2" height="9.6"/>
				</g>
				<g>
					<rect x="1301.6" y="661.6" class="st9" width="57.2" height="9.6"/>
				</g>
				<g>
					<rect x="1301.6" y="683.2" class="st9" width="57.2" height="9.6"/>
				</g>
				<g>
					<rect x="1381" y="661.6" class="st9" width="57.2" height="9.6"/>
				</g>
				<g>
					<rect x="1381" y="683.2" class="st9" width="57.2" height="9.6"/>
				</g>
			</g>
			<g>
				<g>
					<g>
						<path class="st11" d="M1494,621.8L1494,621.8c-4.9,4.9-10.1,9.4-15.5,13.4c-2.1,1.4-4,2.8-6.1,4.2c-11,7-23.2,12.2-35.4,15.5
							c-8,2.1-16.2,3.5-24.4,4c-5.2,0.5-10.3,0.5-15.5,0c-8.4-0.5-16.9-1.6-25.1-4c-11.7-3-23.4-8-34-14.5c-0.5-0.2-0.9-0.7-1.4-0.9
							c-4.9-3-9.6-6.6-14.1-10.3c-2.6-2.1-5.2-4.5-7.5-6.8c-13.4-13.4-23-28.8-29.1-45.2c-1.9-5.4-3.5-10.8-4.7-16.2
							c-9.1-41,2.1-85.5,34-117.4c2.3-2.3,4.9-4.7,7.5-6.8c4.9-4.2,10.1-8,15.5-11.3c18-11.3,38.4-17.3,59.1-18.5
							c5.2-0.5,10.3-0.2,15.5,0c20.4,1.2,40.5,7.5,58.4,18.5c2.6,1.6,5.2,3.3,7.5,5.2c1.6,1.2,3.5,2.6,5.2,4c3.5,2.8,7,5.9,10.3,9.1
							c0,0,0,0,0.2,0.2C1543.2,492.4,1543.2,572.6,1494,621.8z"/>
					</g>
				</g>
				<g>
					<g>
						<path class="st9" d="M1338.1,424.9v215.4c-0.5-0.2-0.9-0.7-1.4-0.9c-4.9-3-9.6-6.6-14.1-10.3V436.4
							C1327.3,432,1332.7,428.2,1338.1,424.9z"/>
					</g>
				</g>
				<g>
					<g>
						<path class="st9" d="M1412.7,406.4v252.2c-5.2,0.5-10.3,0.5-15.5,0V406.4C1402.1,405.9,1407.5,405.9,1412.7,406.4z"/>
					</g>
				</g>
				<g>
					<g>
						<g>
							<path class="st9" d="M1494,443c-3.3-3.3-6.8-6.3-10.3-9.1c-1.6-1.4-3.3-2.6-5.2-4V635c5.4-4,10.5-8.2,15.5-13.1
								c0,0,0,0,0.2-0.2L1494,443C1494,443.2,1494,443,1494,443z M1336.5,639.1c0.5,0.2,0.9,0.7,1.4,0.9c10.8,6.6,22.3,11.5,34,14.5
								h64.7c12.4-3.3,24.4-8.4,35.4-15.5L1336.5,639.1L1336.5,639.1z"/>
						</g>
					</g>
				</g>
				<g>
					<g>
						<path class="st9" d="M1483.7,433.8l-5.2,7l-14.3,19.9l-42.9,59.5l-8.7,12.2l-3.8,5.2h-75.7l-10.5,8.7l-3.8,3l-4.9,4l-27.9,23
							c-1.9-5.4-3.5-10.8-4.7-16.2l29.1-23.9l1.2-0.9l11-9.1l4.9-4.2h73.4l7-9.8l4.7-6.3l38.9-53.9l19.5-27.2
							c2.6,1.6,5.2,3.3,7.5,5.2C1480.2,431.3,1482,432.4,1483.7,433.8z"/>
					</g>
				</g>
				<g>
					<g>
						<circle class="st10" cx="1330.4" cy="532.7" r="20.6"/>
					</g>
				</g>
				<g>
					<g>
						<circle class="st10" cx="1404.9" cy="532.7" r="20.6"/>
					</g>
				</g>
			</g>
			<g>
				<g>
					<path class="st9" d="M1062.5,288.3c-5.2-0.5-9.1-4.9-9.4-10.1c0-5.4,3.8-9.6,8.9-10.3c-1.2-4-2.8-8-4.9-11.7
						c-4,3.3-9.8,3-13.8-0.7c-3.8-3.8-4.2-9.6-0.9-13.8c-3.8-2.1-7.7-3.8-12-4.7c-0.5,5.2-4.9,9.1-10.1,9.4c-5.4,0-9.8-3.8-10.5-8.9
						c-4,1.2-8,2.8-11.7,5.2c3.3,4,3,9.8-0.7,13.8c-3.8,3.8-9.6,4.2-13.8,0.9c-2.1,3.8-3.8,7.7-4.7,12c5.2,0.5,9.1,4.9,9.4,10.1
						c0,5.4-3.8,9.8-8.9,10.5c1.2,4,2.8,8,5.2,11.7c4-3.3,9.8-3,13.8,0.7c3.8,3.8,4.2,9.6,0.9,13.8c3.8,2.1,7.7,3.8,12,4.7
						c0.5-5.2,4.9-9.1,10.1-9.4c5.4,0,9.8,3.8,10.3,8.9c4.2-1.2,8-2.8,11.7-5.2c-3.3-4-3-9.8,0.7-13.8c3.8-3.8,9.6-4.2,13.8-0.9
						C1059.9,296.5,1061.6,292.5,1062.5,288.3z M1015.9,290.9c-6.8-2.8-10.1-10.3-7.3-17.1s10.3-10.1,17.1-7.3
						c6.8,2.8,10.1,10.3,7.3,17.1C1030.4,290.4,1022.7,293.7,1015.9,290.9z"/>
				</g>
				<g>
					<g>
						<path class="st12" d="M1020.8,291.8c-7.3,0-13.1-5.9-13.1-13.1s5.9-13.1,13.1-13.1l0,0v-7.7l0,0c-11.5,0-20.9,9.4-20.9,20.9
							s9.4,21.1,20.9,21.1l0,0V291.8L1020.8,291.8z"/>
					</g>
					<g>
						<path class="st9" d="M1041.9,278.7c0-11.5-9.4-20.9-21.1-20.9v7.7c7.3,0,13.1,5.9,13.1,13.1s-5.9,13.1-13.1,13.1v7.7
							C1032.5,299.8,1041.9,290.2,1041.9,278.7z"/>
					</g>
				</g>
			</g>
			<g>
				<g>
					<path class="st13" d="M1004.8,594.1V423l-28.6-38.4H961l-24.1,37.7v33l19.9,16.2l-13.1,10.8v27.4l-6.8,4.9v12.7l19.9,16.2v17.8
						l-19.9,17.8v15c-42.7,14.3-73.4,54.4-73.4,101.7c0,59.3,48,107.3,107.3,107.3c59.3,0,107.3-48,107.3-107.3
						C1078.2,648.5,1047.5,608.4,1004.8,594.1z M938.8,724c0-17.6,14.3-32.1,32.1-32.1c17.6,0,32.1,14.3,32.1,32.1
						c0,17.6-14.3,32.1-32.1,32.1C953,755.9,938.8,741.6,938.8,724z"/>
				</g>
				<g>
					<path class="st12" d="M979.3,593.9V388.8l-3-4.2h-8.7v179.1C967.6,563.7,965.2,585.9,979.3,593.9z"/>
				</g>
			</g>
			<g>
				<g>
					<path class="st14" d="M1625.2,757.7c-0.2,0.2-0.5,0.5-0.7,0.5c-15.9,15.2-41.5,14.1-55.8-2.8l-114.1-133.8l16.4-16.4l18-18
						l133.8,114.1C1640.2,715.8,1641.2,741.8,1625.2,757.7z"/>
				</g>
				<g>
					<g>
						<path class="st6" d="M1494,443.2L1494,443.2c-3.5-3.5-7-6.6-10.5-9.4c-1.6-1.4-3.3-2.6-5.2-4c-2.3-1.9-4.9-3.5-7.5-5.2
							c-17.8-11-38-17.3-58.4-18.5c-2.8-0.2-5.4-0.2-8-0.2s-4.9,0-7.5,0.2c-20.6,1.2-41,7.3-59.1,18.5c-5.4,3.3-10.5,7-15.5,11.3
							c-2.6,2.1-5.2,4.5-7.5,6.8c-31.9,31.9-43.1,76.4-34,117.4c1.2,5.4,2.8,10.8,4.7,16.2c6.1,16.6,15.7,32.1,29.1,45.2
							c2.3,2.3,4.9,4.7,7.5,6.8c4.5,4,9.1,7.3,14.1,10.3c0.5,0.2,0.9,0.7,1.4,0.9c10.8,6.6,22.3,11.5,34,14.5
							c8.2,2.1,16.6,3.5,25.1,4c2.3,0.2,4.9,0.2,7.5,0.2s5.4,0,8-0.2c8.2-0.5,16.4-1.6,24.4-4c12.4-3.3,24.4-8.4,35.4-15.5
							c2.1-1.4,4.2-2.8,6.1-4.2c5.4-4,10.5-8.2,15.5-13.1c0,0,0,0,0.2-0.2C1543.2,572.6,1543.2,492.4,1494,443.2z M1478.5,589
							c-2.3,3.3-5.2,6.3-8.2,9.4c-16.2,16.2-36.8,25.1-57.9,27c-2.6,0.2-5.4,0.5-8,0.5s-4.9,0-7.5-0.2c-21.3-1.6-42.2-10.8-58.6-27
							c-0.2-0.2-0.2-0.5-0.5-0.5c-6.3-6.3-11.5-13.6-15.5-21.1c-4-7.3-7-15-8.7-23.2c-0.9-4-1.6-8-1.9-12l0,0
							c-0.2-2.1-0.5-4-0.5-6.1c-0.2-4,0-8,0.5-11.7l0,0c1.2-12.4,4.7-24.4,10.8-35.6c4-7.5,9.1-14.5,15.5-21.1
							c0.2-0.2,0.2-0.5,0.5-0.5c16.2-16.2,37-25.3,58.6-27c2.6-0.2,4.9-0.2,7.5-0.2c2.8,0,5.4,0,8,0.5c13.6,1.2,26.7,5.2,38.9,12.2
							c4.5,2.6,8.7,5.6,12.7,8.9c2.1,1.6,4.2,3.8,6.3,5.6c3,3,5.6,6.1,8.2,9.4c7.3,9.4,12.4,19.9,15.5,30.9
							c4.7,16.6,4.7,34.7,0,51.3C1490.9,569.3,1485.8,579.6,1478.5,589z"/>
					</g>
				</g>
			</g>
			<g>
				<path class="st15" d="M1624.8,758.2c-15.9,15.2-41.5,14.1-55.8-2.8l-114.1-133.8l16.4-16.4L1624.8,758.2z"/>
			</g>
			<g>
				<path class="st16" d="M1494,621.8L1494,621.8c-4.9,4.9-10.1,9.4-15.5,13.4c-2.1,1.4-4,2.8-6.1,4.2c-11,7-23.2,12.2-35.4,15.5
					c-8,2.1-16.2,3.5-24.4,4c-2.8,0.2-5.4,0.2-8,0.2v-33.3c2.6,0,5.4-0.2,8-0.5c21.1-1.9,41.7-10.8,57.9-27c3-3,5.6-6.1,8.2-9.4
					c7.3-9.4,12.4-19.9,15.5-30.9c4.7-16.9,4.7-34.7,0-51.3c-3-11-8.2-21.3-15.5-30.9c-2.3-3.3-5.2-6.3-8.2-9.4
					c-2.1-2.1-4-4-6.3-5.6c-4-3.5-8.2-6.3-12.7-8.9c-12-7-25.3-11-38.9-12.2c-2.6-0.2-5.4-0.5-8-0.5v-33.3c2.6,0,5.4,0,8,0.2
					c20.4,1.2,40.5,7.5,58.4,18.5c2.6,1.6,5.2,3.3,7.5,5.2c1.6,1.2,3.5,2.6,5.2,4c3.5,2.8,7,5.9,10.3,9.1c0,0,0,0,0.2,0.2
					C1543.2,492.4,1543.2,572.6,1494,621.8z"/>
			</g>
		</g>
		<g>
			<g>
				<path class="st14" d="M1505,221c-33.8,0-60.9,27.2-60.9,60.9s27.2,60.9,60.9,60.9s60.9-27.2,60.9-60.9H1505V221z"/>
			</g>
			<g>
				<path class="st7" d="M1517.4,210.9v60.9h60.9C1578.4,238.4,1551.2,210.9,1517.4,210.9z"/>
			</g>
		</g>
	</g>
</g>
</svg>
