<?xml version="1.0" encoding="utf-8"?>
<!-- Generator: Adobe Illustrator 22.0.1, SVG Export Plug-In . SVG Version: 6.00 Build 0)  -->
<svg version="1.1" id="Layer_1" xmlns="http://www.w3.org/2000/svg" xmlns:xlink="http://www.w3.org/1999/xlink" x="0px" y="0px"
	 viewBox="0 0 2500 1200" style="enable-background:new 0 0 2500 1200;" xml:space="preserve">
<style type="text/css">
	.st0{display:none;fill:#F4F9FB;enable-background:new    ;}
	.st1{font-family:'ArialMT';}
	.st2{font-size:68.5193px;}
	.st3{fill:#FBC254;}
	.st4{fill:#F36F3B;}
	.st5{fill:#FFFFFF;}
	.st6{fill:#FFFEFC;}
	.st7{fill:#E06131;}
	.st8{fill:#5B6374;}
	.st9{fill:#B3D137;}
	.st10{fill:#49BEDF;}
	.st11{fill:#EEED8E;}
	.st12{fill:#00AAD1;}
</style>
<g>
	<text transform="matrix(1 0 0 1 967.5635 990.1848)" class="st0 st1 st2">VIDEO MARKETING</text>
	<g>
		<g>
			<path class="st3" d="M1164,826.6c-4.9,0-9.8-0.2-15-0.5l0.9-11.5c9.4,0.7,19,0.7,28.6,0l0.9,11.5
				C1174.3,826.4,1169.1,826.6,1164,826.6z M1119.2,821.7c-9.8-2.1-19.5-5.2-28.8-8.9l4.2-10.5c8.9,3.5,18,6.3,27.2,8.4
				L1119.2,821.7z M1209.2,821.5l-2.6-11c9.4-2.1,18.5-4.9,27.2-8.4l4.2,10.5C1228.9,816.3,1219.1,819.4,1209.2,821.5z M1063,799.7
				c-8.7-4.9-17.1-10.8-25.1-17.1l7-8.9c7.5,5.9,15.5,11.3,23.7,16.2L1063,799.7z M1265.5,799.5l-5.6-9.8
				c8.2-4.7,16.2-10.1,23.4-16.2l7,8.9C1282.6,788.7,1274.1,794.5,1265.5,799.5z M1015.9,762.2c-6.8-7.3-13.1-15.2-19-23.7l9.4-6.6
				c5.4,7.7,11.5,15.2,17.8,22.3L1015.9,762.2z M1312.6,761.7l-8.4-7.7c6.6-7,12.4-14.5,17.8-22.3l9.4,6.3
				C1325.7,746.5,1319.4,754.5,1312.6,761.7z M981.9,712.3c-4.5-9.1-8.2-18.5-11-28.1l11-3.3c2.8,9.1,6.3,18,10.5,26.5L981.9,712.3z
				 M1346.6,712l-10.3-4.9c4.2-8.7,7.7-17.6,10.3-26.5l11,3.3C1354.5,693.5,1351,702.9,1346.6,712z M964.1,654.8
				c-1.4-9.8-2.3-20.2-2.3-30.2h11.5c0,9.6,0.7,19,2.1,28.4L964.1,654.8z M1364.4,654.4l-11.3-1.6c1.4-9.4,2.1-19,2.1-28.4v-0.7
				h11.5v0.7C1366.5,634.2,1365.8,644.5,1364.4,654.4z M975.1,596l-11.3-1.6c1.4-9.8,3.8-19.9,6.6-29.5l11,3.3
				C978.6,577.3,976.5,586.6,975.1,596z M1352.9,595.1c-1.4-9.4-3.5-18.8-6.3-27.9l10.8-3.5c3,9.6,5.4,19.5,6.8,29.5L1352.9,595.1z
				 M991.7,541.6l-10.3-4.9c4.5-9.1,9.4-17.8,15-26.3l9.4,6.3C1000.6,524.8,995.9,533.2,991.7,541.6z M1336,540.7
				c-4.2-8.4-8.9-16.9-14.3-24.6l9.4-6.6c5.6,8.2,10.8,17.1,15.2,26L1336,540.7z M1023.8,494.5l-8.4-7.7c6.8-7.3,14.3-14.3,22-20.6
				l7.3,8.9C1037.2,481.2,1030.2,487.7,1023.8,494.5z M1303.7,493.8c-6.6-7-13.6-13.4-21.1-19.5l7-8.9c8,6.3,15.2,13.1,22.3,20.4
				L1303.7,493.8z M1068.1,458.9l-5.9-9.8c8.7-5.2,17.8-9.6,27.2-13.1l4.2,10.5C1085,450,1076.3,454.2,1068.1,458.9z M1259.1,458.4
				c-8.2-4.7-16.9-8.9-25.8-12.4l4.2-10.5c9.4,3.8,18.5,8,27.2,13.1L1259.1,458.4z M1121.1,438l-2.6-11c9.8-2.3,19.9-3.8,30-4.5
				l0.9,11.5C1139.8,434.5,1130.2,435.9,1121.1,438z M1205.9,437.8c-9.1-2.1-18.8-3.5-28.1-4.2l0.7-11.5c10.1,0.7,20.2,2.1,30,4.5
				L1205.9,437.8z"/>
		</g>
		<g>
			<path class="st3" d="M1399.5,435.5h-0.5c-10.1,0-19.9-1.4-29.8-3.8l3-11c8.7,2.3,17.3,3.5,26.3,3.5h0.5v5.9l0.9,5.6L1399.5,435.5
				z M1429.1,431.7l-3-11c8.7-2.3,17.1-5.9,25.1-10.3l5.6,9.8C1448,425.2,1438.7,428.9,1429.1,431.7z M1341.6,420.2
				c-8.7-4.9-16.6-11.3-23.9-18.3l8-8c6.3,6.3,13.6,12,21.6,16.4L1341.6,420.2z M1480.6,401.7l-8-8c6.3-6.3,12-13.6,16.4-21.6
				l9.8,5.6C1493.8,386.7,1487.7,394.7,1480.6,401.7z M1299.5,378c-5.2-8.7-8.9-18-11.5-27.7l11-3c2.3,8.7,5.9,17.1,10.3,25.1
				L1299.5,378z M1510.4,350.2l-11-3c2.3-8.7,3.5-17.8,3.5-27l11.5-0.5v0.5C1514.4,330.5,1513,340.5,1510.4,350.2z M1284,320.6
				L1284,320.6c0-10.3,1.2-20.2,3.8-29.8l11,2.8c-2.3,8.7-3.5,17.6-3.5,26.7L1284,320.6z M1499.1,293.2c-2.3-8.7-5.9-17.1-10.5-24.8
				l9.8-5.9c5.2,8.7,8.9,18,11.7,27.7L1499.1,293.2z M1309.1,268.6l-9.8-5.6c4.9-8.7,11.3-16.6,18.3-23.9l8.2,8
				C1319.1,253.6,1313.8,260.9,1309.1,268.6z M1472.2,246.8c-6.3-6.3-13.6-12-21.6-16.4l5.6-9.8c8.7,4.9,16.6,11,23.9,18.3
				L1472.2,246.8z M1347,230.6l-5.9-9.8c8.7-5.2,18-8.9,27.7-11.5l3,11C1363.2,222.7,1354.8,226.2,1347,230.6z M1425.5,220.1
				c-8.7-2.3-17.6-3.5-26.5-3.5l-0.2-9.4v-2.1l0,0c10.3,0,20.2,1.2,29.5,3.8L1425.5,220.1z"/>
		</g>
		<g>
			<g>
				<g>
					<path class="st4" d="M1050.1,346.6v354.8h448.8V346.6H1050.1z M1116.6,665.2h-33.5v-33.5h33.5V665.2z M1116.6,583.6h-33.5
						v-33.5h33.5V583.6z M1116.6,502.3h-33.5v-33.5h33.5V502.3z M1116.6,420.7h-33.5v-33.5h33.5V420.7z M1465.9,665.2h-33.5v-33.5
						h33.5V665.2z M1465.9,583.6h-33.5v-33.5h33.5V583.6z M1465.9,502.3h-33.5v-33.5h33.5V502.3z M1465.9,420.7h-33.5v-33.5h33.5
						V420.7z"/>
				</g>
			</g>
			<g>
				<polygon class="st5" points="1343,613.8 1187.4,524.1 1343,434.3 				"/>
			</g>
		</g>
		<g>
			<g>
				<path class="st6" d="M1584.5,701.5c0,0-56.7-75.7-139.7-75.7s-139.7,75.7-139.7,75.7s56.7,75.7,139.7,75.7
					S1584.5,701.5,1584.5,701.5z"/>
			</g>
			<g>
				<g>
					<rect x="1432.3" y="631.6" class="st6" width="33.5" height="33.5"/>
				</g>
				<g>
					<path class="st7" d="M1465.9,665.2h-33.5v-33.5h33.5V665.2z"/>
				</g>
			</g>
			<g>
				<path class="st6" d="M1584.5,701.5c0,0-56.7-75.7-139.7-75.7s-139.7,75.7-139.7,75.7s56.7,75.7,139.7,75.7
					S1584.5,701.5,1584.5,701.5z"/>
			</g>
			<g>
				<circle class="st8" cx="1445" cy="698" r="55.8"/>
			</g>
			<g>
				<circle class="st6" cx="1417.8" cy="686.3" r="30.2"/>
			</g>
		</g>
		<g>
			<g>
				<g>
					<polygon class="st9" points="1045.9,228.8 1045.9,228.8 1022.2,228.8 1022.2,259.9 1045.9,259.9 1045.9,259.9 1076.3,286.9 
						1076.3,244.5 1076.3,201.8 					"/>
				</g>
			</g>
			<g>
				<g>
					<path class="st5" d="M1103.8,244.2c0,9.8-3.8,19.2-10.1,26.5l-8.9-4.2c6.3-5.9,9.8-13.8,9.8-22.3c0-9.1-4-17.6-11-23.4l8.9-4.5
						C1099.8,223.8,1103.8,233.7,1103.8,244.2z"/>
				</g>
			</g>
			<g>
				<g>
					<path class="st5" d="M1123,244.2c0,12.7-4.5,24.6-12.9,34l-8.9-4.2c8-8,12.4-18.5,12.4-30c0-12-5.2-23.4-14.1-31.4l8.9-4.5
						C1117.8,218,1123,230.9,1123,244.2z"/>
				</g>
			</g>
			<g>
				<g>
					<path class="st5" d="M1142.2,244.2c0,15.5-5.4,30.2-15.7,41.7l-8.9-4.2c9.8-10.1,15.2-23.4,15.2-37.5c0-15-6.1-29.1-17.1-39.4
						l0,0l8.7-4.5C1135.9,212.1,1142.2,228,1142.2,244.2z"/>
				</g>
			</g>
		</g>
		<g>
			<g>
				
					<ellipse transform="matrix(0.7071 -0.7071 0.7071 0.7071 -123.5623 862.2942)" class="st10" cx="979.1" cy="580.3" rx="81.3" ry="81.3"/>
			</g>
			<g>
				<path class="st5" d="M973.9,555.7c0.5,0,0.7,0.2,0.7,0.5v50.4c0,0.2-0.2,0.7-0.7,0.7h-8.4c-0.5,0-0.7-0.2-0.7-0.7v-20.4h-19.5
					v20.4c0,0.2-0.2,0.7-0.7,0.7h-8.4c-0.5,0-0.7-0.2-0.7-0.7v-50.4c0-0.2,0.2-0.5,0.7-0.5h8.4c0.5,0,0.7,0.2,0.7,0.5v20.4h19.5
					v-20.4c0-0.2,0.2-0.5,0.7-0.5H973.9L973.9,555.7z"/>
				<path class="st5" d="M995,555.7c12.7,0,30.2,2.8,30.2,25.8c0,22-17.3,25.8-30.2,25.8h-8.4c-0.5,0-0.7-0.2-0.7-0.7v-50.4
					c0-0.2,0.2-0.5,0.7-0.5L995,555.7L995,555.7z M995.7,597.9c6.3,0.2,19.5-0.5,19.5-16.2c0-12.2-8.2-16.9-19.5-16.4V597.9z"/>
			</g>
		</g>
		<g>
			<path class="st11" d="M1332.5,272.6L1332.5,272.6c2.8-5.6,4-12.2,1.2-19.5c-2.8-7-8.9-12.4-16.2-14.1c-15-3.3-28.4,8-28.4,22.5
				c0-14.5-13.4-25.8-28.4-22.5c-7.3,1.6-13.6,7-16.2,14.1c-2.8,7.3-1.6,13.8,1.2,19.5l0,0l31.2,44.3c2.8,4,7.3,6.3,12.2,6.3l0,0
				c4.9,0,9.4-2.3,12.2-6.3L1332.5,272.6z"/>
		</g>
		<g>
			<g>
				<g>
					<polygon class="st5" points="995,399.8 935,399.8 935,375.7 941.6,375.7 941.6,393.3 988.4,393.3 988.4,375.7 995,375.7 					
						"/>
				</g>
			</g>
			<g>
				<g>
					<rect x="961.7" y="342.9" class="st5" width="6.6" height="40.5"/>
				</g>
			</g>
			<g>
				<g>
					<polygon class="st5" points="964.8,389.1 944.6,368.9 949.3,364.2 964.8,379.9 980.5,364.2 985.2,368.9 					"/>
				</g>
			</g>
		</g>
		<g>
			<rect x="1432.3" y="387.2" class="st7" width="33.5" height="33.5"/>
		</g>
		<g>
			<path class="st7" d="M1450.4,468.8c4.9,2.6,10.1,4.7,15.5,6.6v-6.6H1450.4z"/>
		</g>
		<g>
			<circle class="st12" cx="1496.1" cy="382" r="74.3"/>
		</g>
		<g>
			<path class="st5" d="M1496.1,415.3c-18.3,0-33.3-15-33.3-33.3s15-33.3,33.3-33.3s33.3,15,33.3,33.3
				C1529.4,400.5,1514.6,415.3,1496.1,415.3z M1496.1,362.6c-10.8,0-19.5,8.7-19.5,19.5s8.7,19.5,19.5,19.5s19.5-8.7,19.5-19.5
				C1515.5,371.5,1506.9,362.6,1496.1,362.6z"/>
		</g>
		<g>
			<path class="st5" d="M1496.1,443.9c-34,0-61.6-27.7-61.6-61.6s27.7-61.6,61.6-61.6s61.6,27.7,61.6,61.6
				S1530.1,443.9,1496.1,443.9z M1496.1,334.2c-26.3,0-47.8,21.3-47.8,47.8c0,26.3,21.3,47.8,47.8,47.8c26.3,0,47.8-21.3,47.8-47.8
				C1543.9,355.8,1522.6,334.2,1496.1,334.2z"/>
		</g>
		<g>
			<rect x="1496.1" y="379.2" class="st5" width="57.7" height="5.6"/>
		</g>
		<g>
			<polygon class="st9" points="1550.7,382 1560.8,392.8 1602.5,392.8 1591.3,382 1602.5,371.5 1560.8,371.5 			"/>
		</g>
	</g>
</g>
</svg>
