<?xml version="1.0" encoding="utf-8"?>
<!-- Generator: Adobe Illustrator 22.0.1, SVG Export Plug-In . SVG Version: 6.00 Build 0)  -->
<svg version="1.1" id="Layer_1" xmlns="http://www.w3.org/2000/svg" xmlns:xlink="http://www.w3.org/1999/xlink" x="0px" y="0px"
	 viewBox="0 0 512 512" style="enable-background:new 0 0 512 512;" xml:space="preserve">
<style type="text/css">
	.st0{display:none;fill:#F4F9FB;enable-background:new    ;}
	.st1{font-family:'ArialMT';}
	.st2{font-size:29.2349px;}
	.st3{fill:#5B6374;}
	.st4{fill:#EEED8E;}
	.st5{fill:#49BEDF;}
	.st6{fill:#E0DD85;}
	.st7{fill:#F68B66;}
	.st8{fill:#F36F3B;}
	.st9{fill:#D1EAF8;}
	.st10{fill:#99B33C;}
	.st11{fill:#B3D137;}
	.st12{fill:#FFFFFF;}
	.st13{fill:#8FCBCC;}
	.st14{fill:#FFFEFC;}
</style>
<g>
	<text transform="matrix(1 0 0 1 139.351 427.3096)" class="st0 st1 st2">VIRTUAL REALITY</text>
	<g>
		<g>
			<g>
				<path class="st3" d="M184.1,241.4c0,0,11.4-14.2,11.4-67.5h63.9v67.5H184.1z"/>
			</g>
			<g>
				<path class="st3" d="M329.2,241.4c0,0-11.4-11.7-11.4-67.5h-63.9v67.5H329.2z"/>
			</g>
			<g>
				<path class="st4" d="M262.2,229.7H251c-22.9,0-41.5-18.6-41.5-41.5v-28.5c0-22.9,18.6-41.5,41.5-41.5h11.2
					c22.9,0,41.5,18.6,41.5,41.5v28.5C303.7,211.1,285.1,229.7,262.2,229.7z"/>
			</g>
			<g>
				<circle class="st4" cx="209.5" cy="173.9" r="12.2"/>
			</g>
			<g>
				<rect x="303.7" y="162.9" class="st3" width="14.1" height="11"/>
			</g>
			<g>
				<circle class="st4" cx="303.7" cy="173.9" r="12.2"/>
			</g>
			<g>
				<path class="st3" d="M296.9,116.1c0,0-7.5,21.3-32.5,39c-18.2,12.8-40.3,18.8-62.5,18.8h-6.4c0,0-8.4-52.9,42.2-69.5
					C272.6,93,296.9,116.1,296.9,116.1z"/>
			</g>
			<g>
				<path class="st3" d="M278.9,135.5c0,0,0.1,0.5,0.2,1.3c3.3,15.4,17.3,26.2,33.1,26.2h5.6c0,0,3.2-41.1-20.9-46.8
					C296.9,116.1,282.2,116.1,278.9,135.5z"/>
			</g>
			<g>
				<path class="st5" d="M354.4,303.3c0.4,24.2-19.1,44-43.2,44h-54.6h-54.7c-24.2,0-43.7-19.8-43.2-44l0,0
					c5.5-35.7,40.5-61.9,78.6-61.9H276C314.1,241.4,349.1,267.7,354.4,303.3L354.4,303.3z"/>
			</g>
			<g>
				<rect x="231.5" y="224.9" class="st4" width="49.7" height="23.3"/>
			</g>
			<g>
				<path class="st4" d="M291.2,242.9c-0.7,18.6-16,33.4-34.8,33.4s-34-14.6-34.8-33.3c5.1-1.1,10.4-1.6,15.6-1.6h38.7
					C281.1,241.4,286.2,241.9,291.2,242.9z"/>
			</g>
			<g>
				<path class="st6" d="M281.3,225v11.8c-5.8,3-12.3,4.7-19.1,4.7H251c-7.1,0-13.7-1.8-19.5-4.9v-11.7c0.1,0,0.1,0,0.1,0
					c5.8,3.1,12.5,4.8,19.4,4.8h11.2C269,229.7,275.5,228,281.3,225z"/>
			</g>
		</g>
		<g>
			<g>
				<rect x="300.5" y="160.2" class="st7" width="20.1" height="17.7"/>
			</g>
			<g>
				<rect x="247.7" y="98.1" class="st7" width="17.7" height="51.4"/>
			</g>
			<g>
				<rect x="192.2" y="160.2" class="st7" width="20.1" height="17.7"/>
			</g>
			<g>
				<path class="st8" d="M275.2,192.8h16.6c8.6,0,15.2-7.5,14.1-16l-1.1-21.9c-1-8-7.9-14.1-16-14.1h-10.3h-15.8H250h-19.7h-6.4
					c-8.1,0-15,6-16,14.1l-1.1,21.9c-1.1,8.5,5.5,16,14.1,16h16.6c3,0,5.5-2.1,6.1-5l0,0c0.6-2.9,3.1-5,6.1-5H263c3,0,5.5,2.1,6.1,5
					l0,0C269.7,190.7,272.2,192.8,275.2,192.8z"/>
			</g>
			<g>
				<path class="st7" d="M276.4,185.1c-1.7-5.9-7.1-10.1-13.4-10.1h-13.3c-6.2,0-11.7,4.2-13.4,10.1h-15.4c-1.9,0-3.6-0.8-4.9-2.2
					c-1.3-1.4-1.8-3.2-1.6-5.1v-0.3l1-21.8c0.6-4.1,4.2-7.1,8.3-7.1h65.1c4.1,0,7.7,3,8.3,7.1l1,21.8v0.3c0.2,1.9-0.3,3.7-1.6,5.1
					c-1.3,1.4-3,2.2-4.9,2.2H276.4z"/>
			</g>
		</g>
		<g>
			<g>
				<g>
					<path class="st9" d="M398,208.5h-3.1v-7.1c0-3.7-3-6.6-6.6-6.6c-3.7,0-6.6,3-6.6,6.6v7.1h-3.1v-7.1c0-5.4,4.4-9.8,9.8-9.8
						s9.8,4.4,9.8,9.8v7.1H398z"/>
				</g>
			</g>
			<g>
				<rect x="367.6" y="205.8" class="st10" width="40.3" height="46"/>
			</g>
			<g>
				<rect x="367.6" y="211.3" class="st11" width="40.3" height="46"/>
			</g>
			<g>
				<path class="st10" d="M380,221.4L380,221.4c-1.3,0-2.3-1-2.3-2.3l0,0c0-1.3,1-2.3,2.3-2.3l0,0c1.3,0,2.3,1,2.3,2.3l0,0
					C382.2,220.4,381.2,221.4,380,221.4z"/>
			</g>
			<g>
				<path class="st10" d="M396.4,221.4L396.4,221.4c-1.3,0-2.3-1-2.3-2.3l0,0c0-1.3,1-2.3,2.3-2.3l0,0c1.3,0,2.3,1,2.3,2.3l0,0
					C398.7,220.4,397.6,221.4,396.4,221.4z"/>
			</g>
			<g>
				<g>
					<path class="st9" d="M396.4,220L396.4,220c-0.9,0-1.6-0.7-1.6-1.6v-6.8c0-3.5-2.5-6.6-6-6.9c-4-0.4-7.3,2.7-7.3,6.6v7
						c0,0.9-0.7,1.6-1.6,1.6l0,0c-0.9,0-1.6-0.7-1.6-1.6v-6.7c0-5,3.6-9.4,8.5-10c6-0.8,11.1,3.9,11.1,9.7v7
						C398,219.3,397.3,220,396.4,220z"/>
				</g>
			</g>
		</g>
		<g>
			<g>
				<circle class="st3" cx="158.6" cy="297.8" r="39.6"/>
			</g>
			<g>
				<g>
					<polygon class="st12" points="170.7,317.1 138.4,298.4 170.7,279.7 					"/>
				</g>
			</g>
		</g>
		<g>
			<g>
				<path class="st12" d="M359.9,97c-6.6-9.8-17.9-16.3-30.7-16.3c-20.5,0-37.1,16.6-37.1,37c0,11.1,4.9,21.1,12.7,27.9
					c4.1,3.6,9.1,6.3,14.5,7.8c0.2,0.1,0.5,0.1,0.7,0.2l-4.2,13.4c0,0,21.7-13.2,22-13.2c16.3-3.9,28.4-18.5,28.4-36.1
					C366.2,110,363.9,102.9,359.9,97z"/>
			</g>
			<g>
				<g>
					<g>
						<rect x="308.7" y="116" class="st13" width="40.9" height="3.4"/>
					</g>
				</g>
				<g>
					<g>
						<rect x="308.7" y="102.5" class="st13" width="40.9" height="3.4"/>
					</g>
				</g>
				<g>
					<g>
						<rect x="308.7" y="129.6" class="st13" width="40.9" height="3.4"/>
					</g>
				</g>
			</g>
		</g>
		<g>
			<g>
				<path class="st14" d="M375.9,335.2c0,0-14.8-19.7-36.4-19.7s-36.4,19.7-36.4,19.7s14.8,19.7,36.4,19.7
					C361.1,354.9,375.9,335.2,375.9,335.2z"/>
			</g>
			<g>
				<circle class="st3" cx="339.5" cy="334.3" r="14.5"/>
			</g>
			<g>
				<circle class="st14" cx="332.5" cy="331.2" r="7.9"/>
			</g>
		</g>
		<g>
			<g>
				<path class="st12" d="M177.7,95.7v5.6v7.8c-0.6-0.4-1.3-0.6-2-0.6c-2.1,0-3.8,1.7-3.8,3.8c0,2.1,1.7,3.8,3.8,3.8
					s3.8-1.7,3.8-3.8v-11.7l12.3-5v9.9c-0.6-0.4-1.3-0.6-2-0.6c-2.1,0-3.8,1.7-3.8,3.8c0,2.1,1.7,3.8,3.8,3.8s3.8-1.7,3.8-3.8v-14
					v-2.8v-2.7L177.7,95.7z"/>
			</g>
		</g>
		<g>
			<g>
				<g>
					<circle class="st5" cx="135.4" cy="206.8" r="27.1"/>
				</g>
			</g>
			<g>
				<g>
					<circle class="st12" cx="135.4" cy="206.8" r="19.1"/>
				</g>
			</g>
			<g>
				<g>
					<g>
						<path class="st5" d="M123.7,175.5l-14.4,9.8l-4.7-6.9c-1-1.5-0.6-3.5,0.9-4.4l9.1-6.2c1.5-1,3.5-0.6,4.4,0.9L123.7,175.5z"/>
					</g>
				</g>
				<g>
					<g>
						<path class="st5" d="M147.2,175.5l14.4,9.8l4.7-6.9c1-1.5,0.6-3.5-0.9-4.4l-9.1-6.2c-1.5-1-3.5-0.6-4.4,0.9L147.2,175.5z"/>
					</g>
				</g>
			</g>
			<g>
				<g>
					<polygon class="st3" points="128.6,215.5 126.2,212.8 133.6,206 133.6,193.1 137.3,193.1 137.3,207.6 					"/>
				</g>
			</g>
		</g>
	</g>
</g>
</svg>
