<?xml version="1.0" encoding="utf-8"?>
<!-- Generator: Adobe Illustrator 22.0.1, SVG Export Plug-In . SVG Version: 6.00 Build 0)  -->
<svg version="1.1" id="Layer_1" xmlns="http://www.w3.org/2000/svg" xmlns:xlink="http://www.w3.org/1999/xlink" x="0px" y="0px"
	 viewBox="0 0 512 512" style="enable-background:new 0 0 512 512;" xml:space="preserve">
<style type="text/css">
	.st0{display:none;fill:#F4F9FB;enable-background:new    ;}
	.st1{font-family:'ArialMT';}
	.st2{font-size:29.2349px;}
	.st3{fill:#FFFFFF;}
	.st4{fill:#49BEDF;}
	.st5{fill:#F36F3B;}
	.st6{fill:#ECCA64;}
	.st7{fill:#B3D137;}
	.st8{fill:#00AAD1;}
	.st9{fill:#CECECE;}
	.st10{fill:#CFE6C2;}
	.st11{fill:#B7B7B7;}
	.st12{fill:#FFFEFC;}
	.st13{fill:#BACCB0;}
</style>
<g>
	<text transform="matrix(1 0 0 1 128.4927 423.0703)" class="st0 st1 st2">WEB DEVELOPMENT</text>
	<g>
		<g>
			<g>
				<circle class="st3" cx="272.9" cy="225.9" r="98.6"/>
			</g>
			<g>
				<g>
					<g>
						<path class="st4" d="M273.6,327.8c-56.2,0-101.9-45.7-101.9-101.9S217.5,124,273.6,124s101.9,45.7,101.9,101.9
							S329.8,327.8,273.6,327.8z M273.6,137.9c-48.5,0-88,39.5-88,88s39.5,88,88,88s88-39.5,88-88S322.2,137.9,273.6,137.9z"/>
					</g>
				</g>
				<g>
					<g>
						<path class="st4" d="M273.7,327.8c-29.2,0-45-52.5-45-101.9s15.8-101.9,45-101.9s45,52.5,45,101.9S302.9,327.8,273.7,327.8z
							 M273.7,137.9c-14.7,0-31.1,37.6-31.1,88s16.4,88,31.1,88s31.1-37.6,31.1-88S288.4,137.9,273.7,137.9z"/>
					</g>
				</g>
				<g>
					<g>
						<path class="st4" d="M273.7,197.8c-43.7,0-71.9-22.5-73.1-23.4l8.8-10.8c0.2,0.2,25.7,20.3,64.3,20.3s63.9-20.1,64.1-20.3
							l8.8,10.8C345.5,175.3,317.5,197.8,273.7,197.8z"/>
					</g>
				</g>
				<g>
					<g>
						<path class="st4" d="M337.9,291.3c-0.2-0.2-25.7-20.3-64.3-20.3s-63.9,20.1-64.1,20.3l-8.8-10.8c1.2-1,29.2-23.4,72.9-23.4
							s71.9,22.5,73.1,23.4L337.9,291.3z"/>
					</g>
				</g>
			</g>
			<g>
				<g>
					<rect x="178.7" y="218.9" class="st4" width="189.9" height="13.9"/>
				</g>
			</g>
		</g>
		<g>
			<g>
				<path class="st5" d="M200.6,174.4c0.1,0.1,0.5,0.4,1.1,0.9c2.7-3.8,5.7-7.4,8.9-10.7c-0.8-0.6-1.3-0.9-1.3-1L200.6,174.4z"/>
			</g>
		</g>
		<g>
			<path class="st5" d="M224.7,149.6c-0.7-2.8-1.8-5.6-3.1-8.1c-0.3-0.7-0.7-1.4-1.2-2.1c-6.7-11.1-18.8-18.4-32.6-18.4
				c-21,0-38,17-38,38.1c0,17.1,11.3,31.6,26.9,36.4c0.7,0.2,1.4,0.4,2,0.6c2.9,0.7,5.8,1.1,8.9,1.1h0.2c12.3,0,23.2-5.8,30.1-14.8
				c2.3-2.9,4.1-6.2,5.5-9.7c1.6-4.2,2.5-8.8,2.5-13.5C225.9,155.8,225.5,152.6,224.7,149.6z"/>
		</g>
		<g>
			<path class="st3" d="M181.4,142.7c0.3,0,0.4,0.2,0.4,0.4v22.8c0,9.7-9.8,9.7-9.8,9.7h-4c-0.3,0-0.5-0.2-0.5-0.4v-5.3
				c0-0.2,0.2-0.4,0.5-0.4h4c3.6,0,3.6-3.6,3.6-3.6v-17.5h-5.3c-0.3,0-0.5-0.2-0.5-0.4v-5c0-0.2,0.2-0.4,0.5-0.4L181.4,142.7
				L181.4,142.7z"/>
			<path class="st3" d="M187.5,166.3c0-0.2,0.2-0.4,0.5-0.4h5.3c0.2,0,0.5,0.2,0.5,0.4c0.1,2.4,2.1,3.6,4.2,3.6
				c2.2,0,4.2-1.5,4.2-3.7c0-2.5-2.3-4-4.2-4.1c-0.3,0-2.6,0-5-1.1c-3.5-1.6-5.5-4.6-5.5-8.5c0-6.3,5.1-10.2,10.5-10.2
				c5.8,0,10.3,3.9,10.4,9.6c0,0.1-0.2,0.3-0.5,0.3h-5.3c-0.2,0-0.5-0.2-0.5-0.3c-0.1-2.4-1.9-3.5-4.1-3.5c-2.3,0-4.2,1.4-4.2,4.1
				c0,2.4,2.1,3.7,4.2,3.7c0.2,0,2.6,0,5,1.1c3.6,1.6,5.5,5,5.5,8.9c0,6.3-5.1,9.8-10.4,9.8C192.2,175.8,187.6,172.5,187.5,166.3z"
				/>
		</g>
		<g>
			<path class="st6" d="M238.1,309.7c3.3,20.4-14,37.7-34.4,34.4c-12.3-2-22.3-12-24.3-24.3c-3.3-20.4,14-37.7,34.4-34.4
				C226.1,287.4,236.1,297.4,238.1,309.7z"/>
		</g>
		<g>
			<path class="st3" d="M199.4,311.6c0,5-5.3,5-5.7,5h-2.5v6.6c0,0.1-0.1,0.2-0.2,0.2h-2.8c-0.1,0-0.2-0.1-0.2-0.2v-16.6
				c0-0.1,0.1-0.2,0.2-0.2h5.5C194.4,306.5,199.4,306.6,199.4,311.6z M196.2,311.6c0-1.9-2.1-2-2.5-2h-2.5v3.9h2.5
				C194.1,313.5,196.2,313.4,196.2,311.6z"/>
			<path class="st3" d="M214.6,306.5c0.1,0,0.2,0.1,0.2,0.2v16.5c0,0.1-0.1,0.2-0.2,0.2h-2.8c-0.1,0-0.2-0.1-0.2-0.2v-6.9h-6.3v6.9
				c0,0.1-0.1,0.2-0.2,0.2h-2.7c-0.1,0-0.2-0.1-0.2-0.2v-16.5c0-0.1,0.1-0.2,0.2-0.2h2.7c0.1,0,0.2,0.1,0.2,0.2v6.6h6.3v-6.6
				c0-0.1,0.1-0.2,0.2-0.2H214.6z"/>
			<path class="st3" d="M230,311.6c0,5-5.3,5-5.7,5h-2.5v6.6c0,0.1-0.1,0.2-0.2,0.2h-2.8c-0.1,0-0.2-0.1-0.2-0.2v-16.6
				c0-0.1,0.1-0.2,0.2-0.2h5.5C225,306.5,230,306.6,230,311.6z M226.8,311.6c0-1.9-2.1-2-2.5-2h-2.5v3.9h2.5
				C224.7,313.5,226.8,313.4,226.8,311.6z"/>
		</g>
		<g>
			<circle class="st7" cx="384.6" cy="314.7" r="23"/>
		</g>
		<g>
			<path class="st3" d="M375.4,318.2c0.1,0,0.2,0,0.2,0l1.2,1.2c0.1,0,0.1,0.1,0,0.2c-0.9,0.9-2.3,1.5-3.7,1.5
				c-2.9,0-5.3-2.1-5.3-5.4c0-3.2,2.2-5.4,5.3-5.4c1.5,0,2.8,0.6,3.7,1.5c0.1,0,0.1,0.1,0,0.2l-1.2,1.2c-0.1,0-0.1,0-0.2,0
				c-0.6-0.6-1.4-1-2.3-1c-2,0-3.3,1.5-3.3,3.5c0,2.1,1.5,3.5,3.3,3.5C374,319.2,374.8,318.8,375.4,318.2z"/>
			<path class="st3" d="M378.2,318c0-0.1,0.1-0.1,0.2-0.1h1.7c0.1,0,0.1,0.1,0.1,0.1c0,0.8,0.7,1.2,1.4,1.2c0.7,0,1.4-0.5,1.4-1.2
				c0-0.8-0.7-1.3-1.4-1.3c-0.1,0-0.8,0-1.6-0.4c-1.1-0.5-1.8-1.5-1.8-2.7c0-2,1.6-3.3,3.4-3.3s3.3,1.2,3.3,3.1l-0.1,0.1H383
				c-0.1,0-0.1-0.1-0.1-0.1c0-0.8-0.6-1.1-1.3-1.1c-0.7,0-1.4,0.4-1.4,1.3c0,0.8,0.7,1.2,1.4,1.2c0.1,0,0.8,0,1.6,0.4
				c1.1,0.5,1.8,1.6,1.8,2.9c0,2-1.6,3.2-3.3,3.2C379.7,321.1,378.2,320,378.2,318z"/>
			<path class="st3" d="M386.3,318c0-0.1,0.1-0.1,0.1-0.1h1.7c0.1,0,0.1,0.1,0.1,0.1c0,0.8,0.7,1.2,1.4,1.2c0.7,0,1.4-0.5,1.4-1.2
				c0-0.8-0.7-1.3-1.4-1.3c-0.1,0-0.8,0-1.6-0.4c-1.1-0.5-1.8-1.5-1.8-2.7c0-2,1.6-3.3,3.4-3.3s3.3,1.2,3.3,3.1l-0.1,0.1h-1.7
				c-0.1,0-0.1-0.1-0.1-0.1c0-0.8-0.6-1.1-1.3-1.1c-0.7,0-1.4,0.4-1.4,1.3c0,0.8,0.7,1.2,1.4,1.2c0.1,0,0.8,0,1.6,0.4
				c1.1,0.5,1.8,1.6,1.8,2.9c0,2-1.6,3.2-3.3,3.2C387.8,321.1,386.4,320,386.3,318z"/>
			<path class="st3" d="M397.8,312.4h-3.2c-0.1,0-0.1-0.1-0.1-0.1v-1.7c0-0.1,0.1-0.1,0.1-0.1h6c0.1,0,0.2,0.1,0.1,0.2l-2.2,3.9
				c1.4,0.4,2.2,1.6,2.2,3.3c0,2.3-1.7,3.3-3.4,3.3s-3.2-1.2-3.2-3.1c0-0.1,0.1-0.1,0.1-0.1h1.7c0.1,0,0.1,0.1,0.1,0.1
				c0,0.7,0.6,1.2,1.2,1.2c0.9,0,1.4-0.7,1.4-1.5c0-0.9-0.6-1.6-1.4-1.6h-1.4c-0.1,0-0.2-0.1-0.1-0.2L397.8,312.4z"/>
		</g>
		<g>
			<circle class="st8" cx="136.1" cy="270.8" r="14.1"/>
		</g>
		<g>
			<path class="st3" d="M129,270.7c-0.7-1-1.5-2.1-2.2-3.1c0-0.1,0-0.1,0.1-0.1h1.3h0.1l1.5,2.1l1.5-2.1h0.1h1.3
				c0.1,0,0.1,0.1,0.1,0.1l-2.2,3.1c0.7,1,1.5,2.1,2.2,3.1c0,0.1,0,0.1-0.1,0.1h-1.3h-0.1l-1.5-2.1l-1.5,2.1h-0.1h-1.3
				c-0.1,0-0.1-0.1-0.1-0.1L129,270.7z"/>
			<path class="st3" d="M140.6,273.8C140.6,273.9,140.5,273.9,140.6,273.8l-1.1,0.1c-0.1,0-0.1,0-0.1-0.1v-3.5l-1.6,3.3h-0.1h-1
				h-0.1l-1.8-3.4v3.6c0,0,0,0.1-0.1,0.1h-1.1c-0.1,0-0.1,0-0.1-0.1v-6.3c0,0,0-0.1,0.1-0.1h1.1h0.1l2.3,4.7l2.2-4.7h0.1h1.1
				c0.1,0,0.1,0,0.1,0.1L140.6,273.8L140.6,273.8z"/>
			<path class="st3" d="M145.5,272.7C145.5,272.7,145.6,272.7,145.5,272.7l0.1,1.1c0,0,0,0.1-0.1,0.1h-3.4c-0.1,0-0.1,0-0.1-0.1
				v-6.3c0,0,0-0.1,0.1-0.1h1.1c0,0,0.1,0,0.1,0.1v5.2L145.5,272.7L145.5,272.7z"/>
		</g>
		<g>
			<path class="st9" d="M345.3,175c0,0.1-0.1,0.2-0.1,0.4c0.1-0.1,0.1-0.1,0.2-0.1C345.4,175.1,345.4,175.1,345.3,175z"/>
		</g>
		<g>
			<path class="st9" d="M352.2,186.5c-0.8,8.3-1.1,16.7-1.1,25.1v7.4h10.2C360.4,207.3,357.2,196.4,352.2,186.5z"/>
		</g>
		<g>
			<path class="st9" d="M351.2,232.8c0.7,6.4,3.5,11.8,7.5,15.1c1.3-4.9,2.1-9.9,2.5-15.1H351.2z"/>
		</g>
		<g>
			<path class="st9" d="M355.1,164.8c-0.3,1.8-0.6,3.6-0.9,5.4c10.9,15.9,17.2,35.1,17.2,55.8c0,8.8-1.1,17.3-3.3,25.5h4.2
				c2.1-8.2,3.2-16.7,3.2-25.5C375.5,203,367.9,181.8,355.1,164.8z"/>
		</g>
		<g>
			<path class="st9" d="M352.2,186.5c5,9.9,8.2,20.8,9.1,32.4h7.2v13.9h-7.2c-0.4,5.2-1.2,10.2-2.5,15.1c2.6,2.2,5.6,3.4,8.9,3.4
				h0.5c2.2-8.1,3.3-16.7,3.3-25.5c0-20.7-6.4-39.9-17.2-55.8C353.4,175.5,352.7,181,352.2,186.5L352.2,186.5z"/>
		</g>
		<g>
			<path class="st9" d="M361.5,225.9c0-2.3-0.1-4.7-0.3-7H351v10.7c0,1.1,0.1,2.1,0.2,3.2h10C361.5,230.6,361.5,228.2,361.5,225.9z"
				/>
		</g>
		<g>
			<path class="st9" d="M361.3,232.8h7.2v-13.9h-7.2c0.2,2.3,0.3,4.6,0.3,7C361.5,228.2,361.5,230.6,361.3,232.8z"/>
		</g>
		<g>
			<rect x="323.4" y="88.4" class="st3" width="21" height="31.7"/>
		</g>
		<g>
			<path class="st10" d="M344.4,117.1c0-3.1,2.5-5.6,5.6-5.6s5.6,2.5,5.6,5.6V91.5c0,3.1-2.5,5.6-5.6,5.6s-5.6-2.5-5.6-5.6V117.1z"
				/>
		</g>
		<g>
			<path class="st3" d="M384.8,88.4h-29.3v31.7h29.3c0,0-0.2-17.1,14.2-17.5c12.3-0.3,14.6,10.4,14.6,10.4v-8.7
				C413.7,104.3,406.2,88.4,384.8,88.4z"/>
		</g>
		<g>
			<rect x="360.4" y="120.1" class="st10" width="19.8" height="53.8"/>
		</g>
		<g>
			<path class="st9" d="M373,251.4h-5.3c-9.2,0-16.6-9.7-16.6-21.7v-18.1c0-17.8,1.7-35.6,5.2-52.9l0.2-0.9h27.7l0,0
				c3.7,17.9,5.5,36.3,5.5,54.8v17.1C389.6,241.7,382.2,251.4,373,251.4z"/>
		</g>
		<g>
			<circle class="st11" cx="370.6" cy="173" r="7.9"/>
		</g>
		<g>
			<circle class="st11" cx="370.1" cy="203.3" r="7.9"/>
		</g>
		<g>
			<circle class="st11" cx="370.1" cy="234.1" r="7.9"/>
		</g>
		<g>
			<path class="st12" d="M262.1,84.9h-15.8l-7.9,13.7l7.9,13.7h15.8l7.9-13.7L262.1,84.9z M254.3,105.6c-3.9,0-7-3.1-7-7s3.1-7,7-7
				c3.9,0,7,3.1,7,7S258.1,105.6,254.3,105.6z"/>
		</g>
		<g>
			<polygon class="st12" points="110.2,228 98.3,216.1 110.2,204.2 113.2,207.3 104.4,216.1 113.2,224.9 			"/>
		</g>
		<g>
			<polygon class="st12" points="133.7,228 130.7,224.9 139.5,216.1 130.7,207.3 133.7,204.2 145.6,216.1 			"/>
		</g>
		<g>
			<polygon class="st12" points="118.5,233.6 114.5,232.2 125.9,197.8 129.9,199.1 			"/>
		</g>
		<g>
			<rect x="360.4" y="120.1" class="st13" width="19.8" height="7.2"/>
		</g>
	</g>
</g>
</svg>
