<?xml version="1.0" encoding="utf-8"?>
<!-- Generator: Adobe Illustrator 22.0.1, SVG Export Plug-In . SVG Version: 6.00 Build 0)  -->
<svg version="1.1" id="Layer_1" xmlns="http://www.w3.org/2000/svg" xmlns:xlink="http://www.w3.org/1999/xlink" x="0px" y="0px"
	 viewBox="0 0 512 512" style="enable-background:new 0 0 512 512;" xml:space="preserve">
<style type="text/css">
	.st0{display:none;fill:#F4F9FB;enable-background:new    ;}
	.st1{font-family:'ArialMT';}
	.st2{font-size:29.2349px;}
	.st3{fill:#2593A0;}
	.st4{fill:#237F84;}
	.st5{fill:#D1EAF8;}
	.st6{fill:#5B6374;}
	.st7{fill:#FFFFFF;}
	.st8{fill:#CECECE;}
	.st9{fill:#DE632E;}
	.st10{fill:#ABABAB;}
	.st11{fill:#49BEDF;}
	.st12{fill:#37B2CD;}
	.st13{fill:#F36F3B;}
	.st14{fill:#B3D137;}
	.st15{display:none;}
	.st16{display:inline;fill:#DE632E;}
</style>
<g>
	<text transform="matrix(1 0 0 1 126.3878 440.0847)" class="st0 st1 st2">SEO MAINTENANCE</text>
	<g>
		<g>
			<g>
				<rect x="319.3" y="83.7" class="st3" width="81.9" height="64.6"/>
			</g>
			<g>
				<rect x="355" y="118.4" class="st4" width="10.6" height="9.4"/>
			</g>
			<g>
				<rect x="316.9" y="79.2" class="st3" width="86.7" height="34.5"/>
			</g>
			<g>
				<rect x="319.3" y="113.7" class="st4" width="81.9" height="9.4"/>
			</g>
			<g>
				<g>
					<polygon class="st4" points="372.2,79.2 366.6,79.2 366.6,73.5 353.8,73.5 353.8,79.2 348.2,79.2 348.2,67.9 372.2,67.9 					
						"/>
				</g>
			</g>
			<g>
				<rect x="355" y="113.7" class="st5" width="10.6" height="9.4"/>
			</g>
		</g>
		<g>
			<g>
				<rect x="179.7" y="131.4" class="st6" width="158.8" height="196.8"/>
			</g>
			<g>
				<path class="st6" d="M279.4,115.8c-2-9.4-10.4-16.4-20.4-16.4s-18.3,7-20.4,16.4h-24.9v15.6h90.6v-15.6
					C304.3,115.8,279.4,115.8,279.4,115.8z M259,119.1c-2.1,0-3.8-1.7-3.8-3.8c0-2.1,1.7-3.8,3.8-3.8s3.8,1.7,3.8,3.8
					C262.8,117.5,261.1,119.1,259,119.1z"/>
			</g>
			<g>
				<rect x="196.4" y="146" class="st7" width="125.2" height="167.4"/>
			</g>
			<g>
				<polygon class="st8" points="290.4,162.5 227.7,162.5 227.7,131.4 232.6,131.4 232.6,157.7 285.5,157.7 285.5,131.4 
					290.4,131.4 				"/>
			</g>
			<g>
				<g>
					<rect x="234.7" y="219" class="st8" width="73" height="3.2"/>
				</g>
				<g>
					<rect x="234.7" y="227.6" class="st8" width="73" height="3.2"/>
				</g>
				<g>
					<g>
						<polygon class="st8" points="225.6,232 212.3,232 212.3,218.3 222.4,218.3 222.4,220.7 214.8,220.7 214.8,229.6 223.2,229.6 
							223.2,226.7 225.6,226.7 						"/>
					</g>
				</g>
				<g>
					<polygon class="st9" points="217.9,221.9 220.6,225.2 218.9,225 230.1,218 220.4,226.9 219.6,227.7 218.7,226.7 216,223.4 
											"/>
				</g>
			</g>
			<g>
				<g>
					<rect x="234.7" y="249.1" class="st8" width="73" height="3.2"/>
				</g>
				<g>
					<rect x="234.7" y="257.7" class="st8" width="73" height="3.2"/>
				</g>
				<g>
					<g>
						<polygon class="st8" points="225.6,262.2 212.3,262.2 212.3,248.4 222.4,248.4 222.4,250.9 214.8,250.9 214.8,259.8 
							223.2,259.8 223.2,256.8 225.6,256.8 						"/>
					</g>
				</g>
				<g>
					<polygon class="st9" points="217.9,252.1 220.6,255.4 218.9,255.2 230.1,248.2 220.4,257.1 219.6,257.9 218.7,256.9 216,253.6 
											"/>
				</g>
			</g>
			<g>
				<g>
					<rect x="234.7" y="279.3" class="st8" width="73" height="3.2"/>
				</g>
				<g>
					<rect x="234.7" y="287.9" class="st8" width="73" height="3.2"/>
				</g>
				<g>
					<g>
						<polygon class="st8" points="225.6,292.4 212.3,292.4 212.3,278.6 222.4,278.6 222.4,281 214.8,281 214.8,289.9 223.2,289.9 
							223.2,287 225.6,287 						"/>
					</g>
				</g>
				<g>
					<polygon class="st9" points="217.9,282.2 220.6,285.5 218.9,285.3 230.1,278.4 220.4,287.3 219.6,288.1 218.7,287.1 216,283.8 
											"/>
				</g>
			</g>
		</g>
		<g>
			<g>
				<path class="st5" d="M307.2,343.8l4.6-4.6c0.8-0.7,1.6-1.5,2.3-2.3l31.5-31.5c0.8-0.7,1.6-1.5,2.3-2.3l4.6-4.6
					c8.9,3.1,19.1,1.1,26.2-6c6.7-6.7,8.8-16.2,6.5-24.6l-12.7,12.7l-16.4-1.1l-1.1-16.4l12.7-12.7c-8.5-2.4-18-0.2-24.6,6.5
					c-7.1,7.1-9.1,17.3-6,26.2l-4.6,4.6c-0.8,0.7-1.6,1.5-2.3,2.3l-31.5,31.5c-0.8,0.7-1.6,1.5-2.3,2.3l-4.6,4.6
					c-8.9-3.1-19.1-1.1-26.2,6c-6.7,6.7-8.8,16.1-6.5,24.6l12.7-12.7l16.4,1.1l1.1,16.4l-12.7,12.7c8.5,2.4,18,0.2,24.6-6.5
					C308.3,362.9,310.3,352.6,307.2,343.8z"/>
			</g>
			<g>
				<polygon class="st10" points="344.2,291.5 342.2,293.2 345.9,296.8 333.3,309.4 318.4,324.3 305.8,336.9 305.9,340.6 315.5,331 
					340,306.5 349.6,296.9 				"/>
			</g>
		</g>
		<g>
			<g>
				<g>
					<path class="st11" d="M193.6,128.9c-3.8,1.1-8-0.8-9.6-4.6c-1.6-3.8-0.1-8.1,3.4-10.1c-2-2.6-4.3-5-7.1-7
						c-1.9,3.5-6.2,5.1-10.1,3.6c-3.8-1.6-5.8-5.7-4.7-9.6c-3.3-0.5-6.7-0.4-9.9,0.1c1.1,3.9-0.8,8-4.6,9.6s-8.1,0.1-10.1-3.4
						c-2.6,2-5,4.3-7,7.1c3.5,1.9,5.1,6.2,3.6,10.1c-1.6,3.8-5.7,5.8-9.6,4.7c-0.5,3.3-0.4,6.7,0.1,9.9c3.9-1.1,8,0.8,9.6,4.6
						s0.1,8.1-3.4,10.1c2,2.6,4.3,5,7.1,7c1.9-3.5,6.2-5.1,10.1-3.6c3.8,1.5,5.8,5.7,4.7,9.6c3.3,0.5,6.7,0.4,9.9-0.1
						c-1.1-3.8,0.8-8,4.6-9.6s8.1-0.1,10.1,3.4c2.6-2,5-4.3,7-7.1c-3.5-1.9-5.1-6.2-3.6-10.1c1.5-3.8,5.7-5.8,9.6-4.7
						C194.2,135.5,194.1,132.2,193.6,128.9z M160.8,144.4c-5.6,0-10.2-4.6-10.2-10.2c0-5.6,4.6-10.2,10.2-10.2
						c5.7,0,10.2,4.6,10.2,10.2C171,139.8,166.4,144.4,160.8,144.4z"/>
				</g>
			</g>
			<g>
				<g>
					<path class="st12" d="M160.8,144.4c-5.6,0-10.2-4.6-10.2-10.2c0-5.6,4.6-10.2,10.2-10.2l0,0v-6.1l0,0c-9,0-16.3,7.3-16.3,16.3
						s7.3,16.3,16.3,16.3l0,0V144.4L160.8,144.4z"/>
				</g>
				<g>
					<path class="st11" d="M177,134.1c0-9-7.3-16.3-16.3-16.3v6.1c5.6,0,10.2,4.6,10.2,10.2s-4.6,10.2-10.2,10.2v6.1
						C169.8,150.4,177,143.1,177,134.1z"/>
				</g>
			</g>
		</g>
		<g>
			<g>
				<g>
					<path class="st13" d="M382.5,225.6c-4.7,0-9.1-1.7-12.6-4.9l3.3-3.7c2.5,2.3,5.8,3.6,9.2,3.6c7.6,0,13.7-6.2,13.7-13.7h5
						C401.2,217.2,392.8,225.6,382.5,225.6z"/>
				</g>
			</g>
			<g>
				<g>
					<path class="st13" d="M368.8,206.9h-5c0-10.3,8.4-18.7,18.7-18.7c4.8,0,9.4,1.8,12.9,5.2L392,197c-2.6-2.5-5.9-3.8-9.5-3.8
						C374.9,193.1,368.8,199.3,368.8,206.9z"/>
				</g>
			</g>
			<g>
				<g>
					<polygon class="st13" points="398.8,194.6 390.5,206.9 394.9,206.9 398.8,206.9 402.6,206.9 407,206.9 					"/>
				</g>
			</g>
			<g>
				<g>
					<polygon class="st13" points="366.3,219.2 374.5,206.9 370.2,206.9 366.3,206.9 362.4,206.9 358.1,206.9 					"/>
				</g>
			</g>
		</g>
		<g>
			<g>
				<circle class="st14" cx="157.1" cy="309.2" r="52.1"/>
			</g>
			<g>
				<g>
					<g>
						<rect x="128.8" y="297.9" class="st9" width="10.9" height="41.9"/>
					</g>
					<g>
						<rect x="144" y="287.2" class="st9" width="10.9" height="52.6"/>
					</g>
					<g>
						<rect x="159.3" y="299.9" class="st9" width="10.9" height="39.9"/>
					</g>
					<g>
						<rect x="174.5" y="290" class="st9" width="10.9" height="49.8"/>
					</g>
				</g>
				<g>
					<g>
						<polygon class="st5" points="164.6,293.1 149.3,279.7 135.4,288.8 133.2,285.5 149.7,274.8 164.9,288.2 177.9,279.8 
							180,283.1 						"/>
					</g>
				</g>
				<g>
					<circle class="st7" cx="134.3" cy="287.2" r="4.2"/>
				</g>
				<g>
					<circle class="st7" cx="149.5" cy="277.2" r="4.2"/>
				</g>
				<g>
					<circle class="st7" cx="165" cy="290" r="4.2"/>
				</g>
				<g>
					<circle class="st7" cx="180" cy="282" r="4.2"/>
				</g>
			</g>
		</g>
		<g class="st15">
			<path class="st16" d="M226.4,193.5c0-0.1,0.1-0.3,0.4-0.3h4.2c0.2,0,0.4,0.1,0.4,0.3c0.1,1.9,1.6,2.8,3.3,2.8
				c1.8,0,3.3-1.2,3.3-3c0-2-1.8-3.1-3.3-3.2c-0.2,0-2,0-3.9-0.9c-2.8-1.3-4.3-3.6-4.3-6.7c0-5,4-8,8.3-8c4.5,0,8.1,3.1,8.2,7.6
				c0,0.1-0.1,0.3-0.4,0.3h-4.2c-0.2,0-0.4-0.1-0.4-0.3c-0.1-1.9-1.5-2.8-3.2-2.8c-1.8,0-3.3,1.1-3.3,3.2c0,1.9,1.6,2.9,3.3,2.9
				c0.2,0,2,0,3.9,0.9c2.8,1.3,4.3,3.9,4.3,7c0,5-4,7.8-8.2,7.8C230.1,201,226.5,198.3,226.4,193.5z"/>
			<path class="st16" d="M252.3,179.6v5.8h10.1c0.2,0,0.3,0.1,0.3,0.3v4.1c0,0.1-0.1,0.3-0.3,0.3h-10.1v5.8h12.3
				c0.2,0,0.4,0.1,0.4,0.3v4.2c0,0.1-0.1,0.3-0.4,0.3h-16.8c-0.2,0-0.4-0.1-0.4-0.3v-25.2c0-0.1,0.1-0.3,0.4-0.3h16.5
				c0.2,0,0.4,0.1,0.4,0.3v4.1c0,0.1-0.1,0.3-0.4,0.3L252.3,179.6L252.3,179.6z"/>
			<path class="st16" d="M293.7,187.8c0,6.6-4.3,13.3-12.7,13.3c-8.6,0-12.8-6.7-12.8-13.3s4.2-13.3,12.8-13.3
				C289.4,174.5,293.7,181.2,293.7,187.8z M288.7,187.9c0-4.3-2.6-8.6-7.8-8.6c-5.2,0-7.8,4.3-7.8,8.6s2.6,8.6,7.8,8.6
				C286.1,196.4,288.7,192.1,288.7,187.9z"/>
		</g>
	</g>
</g>
<path class="st9" d="M212.2,185.4c-0.3-0.5-0.7-0.9-1.2-1.2c-0.5-0.3-1.1-0.5-1.8-0.5c-0.3,0-0.6,0-0.9,0.1
	c-0.3,0.1-0.6,0.2-0.8,0.3c-0.2,0.1-0.4,0.3-0.6,0.6c-0.1,0.3-0.2,0.5-0.2,0.8c0,0.5,0.2,1,0.7,1.3c0.5,0.3,1.2,0.5,2.2,0.7
	c1.4,0.3,2.4,0.7,3.1,1.3c0.7,0.5,1,1.4,1,2.2c0,0.6-0.1,1.2-0.4,1.7c-0.3,0.5-0.6,0.8-1,1.1c-0.4,0.3-0.9,0.5-1.4,0.6
	c-0.5,0.1-1.1,0.2-1.6,0.2c-0.9,0-1.8-0.2-2.6-0.6c-0.8-0.4-1.6-1-2.1-1.7l1.4-1c0.3,0.5,0.8,1,1.3,1.3c0.6,0.4,1.3,0.5,1.9,0.5
	c0.4,0,0.7,0,1.1-0.1c0.3-0.1,0.6-0.2,0.9-0.4c0.2-0.2,0.5-0.4,0.6-0.6c0.2-0.3,0.2-0.6,0.2-1c0-0.6-0.3-1.2-0.9-1.4
	c-0.8-0.4-1.7-0.7-2.6-0.9c-0.4-0.1-0.7-0.2-1.1-0.3c-0.4-0.1-0.8-0.3-1.1-0.6c-0.3-0.2-0.6-0.6-0.8-0.9c-0.2-0.4-0.3-0.9-0.3-1.4
	c0-0.5,0.1-1.1,0.4-1.6c0.2-0.4,0.6-0.8,0.9-1.1c0.4-0.3,0.9-0.5,1.4-0.6c0.5-0.1,1-0.2,1.6-0.2c0.8,0,1.7,0.2,2.4,0.6
	c0.7,0.3,1.3,0.9,1.7,1.6L212.2,185.4z"/>
<path class="st9" d="M222.3,178.1c0,0.3-0.1,0.7-0.4,0.9c-0.2,0.2-0.5,0.3-0.8,0.3c-0.3,0-0.6-0.1-0.8-0.3c-0.2-0.2-0.4-0.5-0.4-0.9
	c0-0.3,0.1-0.7,0.4-0.9c0.2-0.2,0.5-0.3,0.8-0.3c0.3,0,0.6,0.1,0.8,0.3C222.2,177.4,222.3,177.7,222.3,178.1z M222,194.5h-1.7v-11.8
	h1.7V194.5z"/>
<path class="st9" d="M232.4,188.3l-4.4-5.7h2.2l3.2,4.5l3.2-4.5h2.1l-4.3,5.6l4.7,6.2H237l-3.5-4.9l-3.6,4.9h-2.1L232.4,188.3z"/>
<path class="st9" d="M247.1,178.1c0,0.3-0.1,0.7-0.4,0.9c-0.5,0.5-1.2,0.5-1.7,0c-0.5-0.4-0.5-1.2-0.1-1.7c0,0,0,0,0.1-0.1
	c0.5-0.5,1.2-0.5,1.7,0C246.9,177.4,247.1,177.7,247.1,178.1z M246.7,194.5H245v-11.8h1.7C246.7,182.6,246.7,194.5,246.7,194.5z"/>
<path class="st9" d="M255.9,182.6c0,0.3,0.1,0.7,0.1,1.1s0,0.7,0,1h0.1c0.4-0.7,0.9-1.3,1.6-1.7c0.7-0.4,1.6-0.6,2.4-0.6
	c1.5,0,2.6,0.4,3.4,1.3c0.8,0.9,1.1,2.1,1.1,3.5v7.3h-1.7v-6.6c0-0.6,0-1.1-0.2-1.7c-0.1-0.5-0.3-0.9-0.5-1.3
	c-0.2-0.4-0.6-0.7-1-0.8c-0.5-0.2-1-0.3-1.6-0.3c-0.5,0-0.9,0.1-1.3,0.3c-0.4,0.2-0.8,0.5-1.2,0.8c-0.4,0.4-0.6,0.9-0.8,1.4
	c-0.2,0.7-0.3,1.4-0.3,2.1v6.1h-1.7v-9.2c0-0.3,0-0.7,0-1.2c0-0.5,0-1-0.1-1.4L255.9,182.6L255.9,182.6z"/>
<path class="st9" d="M278.5,185.4c-0.3-0.5-0.7-0.9-1.2-1.2c-0.5-0.3-1.1-0.5-1.8-0.5c-0.3,0-0.6,0-0.9,0.1
	c-0.3,0.1-0.6,0.2-0.8,0.3c-0.2,0.1-0.4,0.3-0.6,0.6c-0.1,0.3-0.2,0.5-0.2,0.8c0,0.5,0.2,1,0.7,1.3c0.5,0.3,1.2,0.5,2.2,0.7
	c1.4,0.3,2.4,0.7,3.1,1.3c0.7,0.5,1,1.4,1,2.2c0.1,1.1-0.5,2.2-1.4,2.8c-0.4,0.3-0.9,0.5-1.4,0.6c-0.5,0.1-1.1,0.2-1.6,0.2
	c-0.9,0-1.8-0.2-2.6-0.6c-0.8-0.4-1.6-1-2.1-1.7l1.4-1c0.7,1.1,1.9,1.8,3.3,1.8c0.4,0,0.7,0,1.1-0.1c0.3-0.1,0.6-0.2,0.9-0.4
	c0.5-0.4,0.9-1,0.8-1.6c0-0.6-0.3-1.2-0.9-1.4c-0.8-0.4-1.7-0.7-2.6-0.9c-0.4-0.1-0.7-0.2-1.1-0.3c-0.4-0.1-0.8-0.3-1.1-0.6
	c-0.3-0.2-0.6-0.6-0.8-0.9c-0.2-0.4-0.3-0.9-0.3-1.4c0-0.5,0.1-1.1,0.4-1.6c0.2-0.4,0.6-0.8,0.9-1.1c0.4-0.3,0.9-0.5,1.4-0.6
	c0.5-0.1,1-0.2,1.6-0.2c0.8,0,1.7,0.2,2.4,0.6c0.7,0.3,1.3,0.9,1.7,1.6L278.5,185.4z"/>
<path class="st9" d="M288.6,178.1c0,0.3-0.1,0.7-0.4,0.9c-0.5,0.5-1.2,0.5-1.7,0c-0.5-0.4-0.5-1.2-0.1-1.7c0,0,0,0,0.1-0.1
	c0.5-0.5,1.2-0.5,1.7,0C288.5,177.4,288.6,177.7,288.6,178.1z M288.3,194.5h-1.7v-11.8h1.7V194.5z"/>
<path class="st9" d="M298.7,188.3l-4.4-5.7h2.2l3.2,4.5l3.2-4.5h2.1l-4.3,5.6l4.7,6.2h-2.2l-3.5-4.9l-3.6,4.9h-2.1L298.7,188.3z"/>
<path class="st9" d="M313.6,193.2c0,0.4-0.1,0.7-0.4,0.9c-0.5,0.5-1.4,0.6-1.9,0c0,0,0,0,0,0c-0.5-0.5-0.5-1.4,0-1.9
	c0.5-0.5,1.4-0.6,1.9,0c0,0,0,0,0,0C313.5,192.5,313.6,192.9,313.6,193.2z"/>
</svg>
