<?xml version="1.0" encoding="utf-8"?>
<!-- Generator: Adobe Illustrator 22.0.1, SVG Export Plug-In . SVG Version: 6.00 Build 0)  -->
<svg version="1.1" id="Layer_1" xmlns="http://www.w3.org/2000/svg" xmlns:xlink="http://www.w3.org/1999/xlink" x="0px" y="0px"
	 viewBox="0 0 512 512" style="enable-background:new 0 0 512 512;" xml:space="preserve">
<style type="text/css">
	.st0{display:none;fill:#F4F9FB;enable-background:new    ;}
	.st1{font-family:'ArialMT';}
	.st2{font-size:29.2349px;}
	.st3{fill:#5B6374;}
	.st4{fill:#FBC254;}
	.st5{fill:#EEED8E;}
	.st6{fill:#49BEDF;}
	.st7{fill:#E0DD85;}
	.st8{fill:#D1EAF8;}
	.st9{fill:#8FCBCC;}
	.st10{fill:#FFFFFF;}
	.st11{fill:#F1C967;}
	.st12{fill:#DE632E;}
	.st13{fill:#EDB94C;}
	.st14{fill:#F4F9FB;}
	.st15{fill:#CECECE;}
	.st16{fill:#CFD6DA;}
</style>
<g>
	<text transform="matrix(1 0 0 1 106.8853 421.6375)" class="st0 st1 st2">SOCIAL ENGAGEMENT</text>
	<g>
		<g>
			<circle class="st3" cx="296" cy="306.1" r="24.8"/>
		</g>
		<g>
			<path class="st4" d="M285.3,306.3c0.2-1.4,0.3-3.1,0.3-5.2h10.9v11.5H291C287.6,312.6,284.9,309.7,285.3,306.3z"/>
		</g>
		<g>
			<path class="st4" d="M306.7,306.3c-0.1-1.4-0.2-3.1-0.2-5.2h-10.9v11.5h5.4C304.4,312.6,307,309.7,306.7,306.3z"/>
		</g>
		<g>
			<path class="st5" d="M296.7,310.6h-1.5c-4,0-7.3-3.3-7.3-7.3v-4.5c0-4,3.3-7.3,7.3-7.3h1.5c4,0,7.3,3.3,7.3,7.3v4.5
				C304,307.4,300.8,310.6,296.7,310.6z"/>
		</g>
		<g>
			<circle class="st5" cx="287.9" cy="301.1" r="2.1"/>
		</g>
		<g>
			<rect x="304" y="299.2" class="st4" width="2.4" height="1.9"/>
		</g>
		<g>
			<circle class="st5" cx="304" cy="301.1" r="2.1"/>
		</g>
		<g>
			<path class="st4" d="M302.9,291.2c0,0-1.3,3.6-5.6,6.7c-3.1,2.2-6.9,3.2-10.7,3.2h-1.1c0,0-1.4-9,7.2-11.9
				C298.7,287.3,302.9,291.2,302.9,291.2z"/>
		</g>
		<g>
			<path class="st4" d="M299.8,294.5c0,0,0,0.1,0,0.2c0.6,2.6,3,4.5,5.7,4.5h1c0,0,0.6-7-3.6-8C302.9,291.2,300.4,291.2,299.8,294.5
				z"/>
		</g>
		<g>
			<path class="st6" d="M312.8,324.2c-4.4,4.1-10.4,6.7-16.9,6.7s-12.5-2.5-16.9-6.7l0.1-0.9c0.9-6.1,6.9-10.6,13.4-10.6h6.6
				c6.5,0,12.5,4.5,13.4,10.6L312.8,324.2z"/>
		</g>
		<g>
			<rect x="291.7" y="309.8" class="st5" width="8.5" height="4"/>
		</g>
		<g>
			<path class="st5" d="M301.9,312.9c-0.1,3.2-2.7,5.7-5.9,5.7c-3.2,0-5.8-2.5-5.9-5.7c0.9-0.2,1.8-0.3,2.7-0.3h6.6
				C300.2,312.6,301,312.7,301.9,312.9z"/>
		</g>
		<g>
			<path class="st7" d="M300.2,309.8v2c-1,0.5-2.1,0.8-3.3,0.8H295c-1.2,0-2.3-0.3-3.3-0.8v-2l0,0c1,0.5,2.1,0.8,3.3,0.8h1.9
				C298.1,310.6,299.2,310.3,300.2,309.8z"/>
		</g>
		<g>
			<path class="st8" d="M296,333.3c-15,0-27.2-12.2-27.2-27.2s12.2-27.2,27.2-27.2s27.2,12.2,27.2,27.2S311,333.3,296,333.3z
				 M296,283.7c-12.3,0-22.3,10-22.3,22.3s10,22.3,22.3,22.3s22.3-10,22.3-22.3C318.3,293.8,308.3,283.7,296,283.7z"/>
		</g>
		<g>
			
				<rect x="273.8" y="213.6" transform="matrix(0.9446 -0.3283 0.3283 0.9446 -66.4679 104.4878)" class="st8" width="4.9" height="71"/>
		</g>
		<g>
			<path class="st8" d="M261.9,338.4c-0.7,0-1.4-0.3-1.9-0.9c-0.8-1-0.7-2.6,0.3-3.4l16.1-13.1c1-0.9,2.6-0.7,3.4,0.3
				s0.7,2.6-0.3,3.4l-16.1,13.1C262.9,338.2,262.4,338.4,261.9,338.4z"/>
		</g>
		<g>
			<circle class="st8" cx="261.9" cy="336" r="6"/>
		</g>
		<g>
			<path class="st8" d="M178.6,292.1c-1,0-2-0.7-2.3-1.7l-9.9-31.1c-0.4-1.3,0.3-2.7,1.6-3.1s2.7,0.3,3.1,1.6l9.9,31.1
				c0.4,1.3-0.3,2.7-1.6,3.1C179.1,292.1,178.8,292.1,178.6,292.1z"/>
		</g>
		<g>
			<circle class="st8" cx="178.6" cy="289.7" r="9.4"/>
		</g>
		<g>
			<path class="st8" d="M271.2,302.9c-0.4,0-0.8-0.1-1.1-0.3l-35.7-19c-1.2-0.6-1.6-2.1-1-3.3c0.6-1.2,2.1-1.6,3.3-1l35.7,19
				c1.2,0.6,1.6,2.1,1,3.3C272.9,302.5,272,302.9,271.2,302.9z"/>
		</g>
		<g>
			<circle class="st8" cx="235.4" cy="281.5" r="16.7"/>
		</g>
		<g>
			<path class="st8" d="M366.6,278.9c-0.1,0-0.2,0-0.3,0c-1.3-0.2-2.3-1.4-2.1-2.7L369,236c0.2-1.3,1.4-2.3,2.7-2.1
				c1.3,0.2,2.3,1.4,2.1,2.7l-4.8,40.2C368.8,278,367.8,278.9,366.6,278.9z"/>
		</g>
		<g>
			<circle class="st9" cx="366.6" cy="276.5" r="16.7"/>
		</g>
		<g>
			<circle class="st10" cx="284.9" cy="142.5" r="27.8"/>
		</g>
		<g>
			<path class="st3" d="M272.9,142.8c0.2-1.6,0.3-3.5,0.3-5.8h12.3v13h-6.1C275.5,149.9,272.5,146.6,272.9,142.8z"/>
		</g>
		<g>
			<path class="st3" d="M296.9,142.8c-0.2-1.6-0.3-3.5-0.3-5.9h-12.3v13h6.1C294.3,149.9,297.3,146.6,296.9,142.8z"/>
		</g>
		<g>
			<path class="st5" d="M286.7,147.6h-3.5c-4,0-7.3-3.3-7.3-7.3v-6.8c0-4,3.3-7.3,7.3-7.3h3.5c4,0,7.3,3.3,7.3,7.3v6.8
				C294,144.4,290.7,147.6,286.7,147.6z"/>
		</g>
		<g>
			<circle class="st5" cx="275.9" cy="136.9" r="2.3"/>
		</g>
		<g>
			<rect x="294" y="134.8" class="st3" width="2.7" height="2.1"/>
		</g>
		<g>
			<circle class="st5" cx="294" cy="136.9" r="2.3"/>
		</g>
		<g>
			<path class="st3" d="M292.7,125.8c0,0-1.4,4.1-6.2,7.5c-3.5,2.5-7.7,3.6-12,3.6h-1.2c0,0-1.6-10.1,8.1-13.3
				C288,121.4,292.7,125.8,292.7,125.8z"/>
		</g>
		<g>
			<path class="st3" d="M289.2,129.6c0,0,0,0.1,0,0.2c0.6,3,3.3,5,6.3,5h1.1c0,0,0.6-7.9-4-9C292.7,125.8,289.8,125.8,289.2,129.6z"
				/>
		</g>
		<g>
			<rect x="280.1" y="146.7" class="st5" width="9.5" height="4.5"/>
		</g>
		<g>
			<path class="st7" d="M289.7,146.7v2.3c-1.1,0.6-2.4,0.9-3.7,0.9h-2.1c-1.4,0-2.6-0.3-3.7-0.9v-2.2l0,0c1.1,0.6,2.4,0.9,3.7,0.9
				h2.1C287.3,147.6,288.6,147.3,289.7,146.7z"/>
		</g>
		<g>
			<circle class="st11" cx="375.1" cy="200.2" r="35.4"/>
		</g>
		<g>
			<path class="st3" d="M357.4,209.6c0,0,2.8-3.5,2.8-16.5h15.6v16.5H357.4z"/>
		</g>
		<g>
			<path class="st3" d="M392.9,209.6c0,0-2.8-2.9-2.8-16.5h-15.6v16.5H392.9z"/>
		</g>
		<g>
			<path class="st5" d="M376.5,206.7h-2.7c-5.6,0-10.1-4.5-10.1-10.1v-7c0-5.6,4.5-10.1,10.1-10.1h2.7c5.6,0,10.1,4.5,10.1,10.1v7
				C386.6,202.2,382.1,206.7,376.5,206.7z"/>
		</g>
		<g>
			<circle class="st5" cx="363.6" cy="193.1" r="3"/>
		</g>
		<g>
			<rect x="386.6" y="190.4" class="st3" width="3.4" height="2.7"/>
		</g>
		<g>
			<circle class="st5" cx="386.6" cy="193.1" r="3"/>
		</g>
		<g>
			<path class="st3" d="M385,178.9c0,0-1.8,5.2-8,9.5c-4.4,3.1-9.9,4.6-15.3,4.6h-1.6c0,0-2.1-12.9,10.3-17
				C379,173.3,385,178.9,385,178.9z"/>
		</g>
		<g>
			<path class="st3" d="M380.6,183.7c0,0,0,0.1,0.1,0.3c0.8,3.8,4.2,6.4,8.1,6.4h1.4c0,0,0.8-10.1-5.1-11.4
				C385,178.9,381.4,178.9,380.6,183.7z"/>
		</g>
		<g>
			<path class="st12" d="M399.2,226c-6.3,5.9-14.8,9.5-24.1,9.5S357.3,232,351,226l0.2-1.3c1.3-8.7,9.9-15.1,19.2-15.1h9.5
				c9.3,0,17.9,6.4,19.2,15.1L399.2,226z"/>
		</g>
		<g>
			<rect x="369" y="205.5" class="st5" width="12.2" height="5.7"/>
		</g>
		<g>
			<path class="st5" d="M383.6,209.9c-0.2,4.6-3.9,8.2-8.5,8.2s-8.3-3.6-8.5-8.1c1.2-0.3,2.5-0.4,3.8-0.4h9.5
				C381.1,209.6,382.4,209.7,383.6,209.9z"/>
		</g>
		<g>
			<path class="st7" d="M381.2,205.5v2.9c-1.4,0.7-3,1.1-4.7,1.1h-2.7c-1.7,0-3.3-0.4-4.8-1.2v-2.9l0,0c1.4,0.8,3,1.2,4.8,1.2h2.7
				C378.2,206.7,379.7,206.3,381.2,205.5z"/>
		</g>
		<g>
			<path class="st8" d="M375.1,238c-20.9,0-37.8-17-37.8-37.8c0-20.9,17-37.8,37.8-37.8c20.9,0,37.8,17,37.8,37.8S396,238,375.1,238
				z M375.1,167.2c-18.2,0-33,14.8-33,33s14.8,33,33,33s33-14.8,33-33S393.3,167.2,375.1,167.2z"/>
		</g>
		<g>
			
				<rect x="284.5" y="206.8" transform="matrix(0.9851 -0.1718 0.1718 0.9851 -31.3023 56.772)" class="st8" width="55.6" height="4.9"/>
		</g>
		<g>
			<path class="st8" d="M404,181.4c-0.8,0-1.5-0.4-2-1.1c-0.8-1.1-0.5-2.6,0.6-3.4l16.7-11.3c1.1-0.8,2.6-0.5,3.4,0.6
				s0.5,2.6-0.6,3.4l-16.7,11.3C404.9,181.2,404.4,181.4,404,181.4z"/>
		</g>
		<g>
			<circle class="st8" cx="420.6" cy="167.6" r="6.6"/>
		</g>
		<g>
			<path class="st8" d="M274.5,119.2c-0.9,0-1.8-0.5-2.2-1.4l-10.9-22c-0.6-1.2-0.1-2.7,1.1-3.3c1.2-0.6,2.7-0.1,3.3,1.1l10.9,22
				c0.6,1.2,0.1,2.7-1.1,3.3C275.2,119.1,274.9,119.2,274.5,119.2z"/>
		</g>
		<g>
			
				<ellipse transform="matrix(0.1602 -0.9871 0.9871 0.1602 127.8988 339.727)" class="st8" cx="263.6" cy="94.7" rx="8.3" ry="8.3"/>
		</g>
		<g>
			<circle class="st12" cx="155.7" cy="210.9" r="49.4"/>
		</g>
		<g>
			<path class="st5" d="M157.7,220.1h-3.8c-7.8,0-14.2-6.3-14.2-14.2v-9.7c0-7.8,6.3-14.2,14.2-14.2h3.8c7.8,0,14.2,6.3,14.2,14.2
				v9.7C171.8,213.7,165.5,220.1,157.7,220.1z"/>
		</g>
		<g>
			<circle class="st5" cx="171.8" cy="201" r="4.1"/>
		</g>
		<g>
			<path class="st4" d="M159.9,187.9c0,0,0,0.2,0.1,0.4c1.1,5.3,5.9,8.9,11.3,8.9h1.9c0,0,2.6-14.5-7.1-16
				C166,181.3,161,181.3,159.9,187.9z"/>
		</g>
		<g>
			<path class="st3" d="M189.4,247.1c-8.8,8.3-20.7,13.3-33.7,13.3s-24.9-5-33.7-13.3l0.3-1.9c1.9-12.2,13.8-21.1,26.8-21.1h13.2
				c13,0,25,8.9,26.8,21.1L189.4,247.1z"/>
		</g>
		<g>
			<path class="st3" d="M167.5,224.6l-11.9,33.5l-11.9-33.5c0,0,0,0,0.1,0c0,0,0.1,0,0.2,0c0.1,0,0.1,0,0.2,0
				c1.6-0.3,3.2-0.4,4.9-0.4h13.2C164.1,224.1,165.9,224.3,167.5,224.6z"/>
		</g>
		<g>
			<rect x="147.2" y="218.4" class="st5" width="17" height="7.9"/>
		</g>
		<g>
			<path class="st7" d="M164.2,218.5v4c-2,1-4.2,1.6-6.5,1.6h-3.8c-2.4,0-4.7-0.6-6.7-1.7v-4l0,0c2,1.1,4.3,1.6,6.6,1.6h3.8
				C160,220.1,162.2,219.5,164.2,218.5z"/>
		</g>
		<g>
			
				<rect x="224.1" y="191.3" transform="matrix(8.789642e-02 -0.9961 0.9961 8.789642e-02 -5.3496 419.8538)" class="st8" width="4.9" height="43"/>
		</g>
		<g>
			<path class="st8" d="M117.7,180.9c-0.5,0-1-0.2-1.5-0.5l-19.7-15.1c-1.1-0.8-1.3-2.3-0.5-3.4c0.8-1.1,2.3-1.3,3.4-0.5l19.7,15.1
				c1.1,0.8,1.3,2.3,0.5,3.4C119.1,180.6,118.4,180.9,117.7,180.9z"/>
		</g>
		<g>
			<circle class="st8" cx="96.3" cy="161.5" r="11.5"/>
		</g>
		<g>
			<path class="st8" d="M177.6,169.1c-0.4,0-0.8-0.1-1.2-0.3c-1.2-0.7-1.6-2.1-0.9-3.3l16.2-29c0.7-1.2,2.1-1.6,3.3-0.9
				c1.2,0.7,1.6,2.1,0.9,3.3l-16.2,29C179.3,168.6,178.5,169.1,177.6,169.1z"/>
		</g>
		<g>
			<circle class="st5" cx="200.9" cy="122.5" r="24.2"/>
		</g>
		<g>
			<circle class="st5" cx="139.7" cy="201" r="4.1"/>
		</g>
		<g>
			<path class="st4" d="M166,181.5c0,0-0.2,7.1-8.7,13.1c-6.2,4.4-11.7,3.9-19.3,3.9c-1.2,0-1.2-6.5-1.2-7.3
				c0.8-8.5,9-14.4,17.1-14.6c3.1-0.1,6.2,0.7,8.9,2.3C163.3,179.2,165.6,180.8,166,181.5z"/>
		</g>
		<g>
			<path class="st10" d="M167.5,224.6l-11.9,33.5l-11.9-33.5c0,0,0,0,0.1,0c0,0,0.1,0,0.2,0c0.1,0,0.1,0,0.2,0
				c1.6-0.3,3.2-0.4,4.9-0.4h13.2C164.1,224.1,165.9,224.3,167.5,224.6z"/>
		</g>
		<g>
			
				<ellipse transform="matrix(0.1602 -0.9871 0.9871 0.1602 8.9635 438.5353)" class="st13" cx="262.2" cy="214" rx="25.3" ry="25.3"/>
		</g>
		<g>
			<polygon class="st3" points="155.7,224.1 155.7,224.1 151.4,224.1 153.6,228.5 155.7,228.5 155.7,228.5 157.8,228.5 160,224.1 
							"/>
		</g>
		<g>
			<polygon class="st3" points="157.8,228.5 155.7,228.5 155.7,228.6 155.7,228.5 153.6,228.5 151,248.4 155.7,258.1 155.7,257.9 
				155.7,258.1 160.4,248.4 			"/>
		</g>
		<g>
			<path class="st8" d="M155.7,262.8c-28.6,0-51.8-23.3-51.8-51.8s23.3-51.8,51.8-51.8s51.8,23.3,51.8,51.8S184.3,262.8,155.7,262.8
				z M155.7,164c-25.9,0-47,21.1-47,47s21.1,47,47,47s47-21.1,47-47C202.7,185,181.6,164,155.7,164z"/>
		</g>
		<g>
			
				<rect x="311.6" y="127.9" transform="matrix(0.9062 -0.4228 0.4228 0.9062 -24.6321 149.5769)" class="st8" width="26.6" height="4.9"/>
		</g>
		<g>
			<g>
				<g>
					
						<ellipse transform="matrix(0.1602 -0.9871 0.9871 0.1602 -4.5556 437.4456)" class="st14" cx="254.8" cy="221.4" rx="3.4" ry="3.4"/>
				</g>
			</g>
			<g>
				<g>
					<path class="st14" d="M267.1,224.8l-4.1-0.1v-0.2c0-6.7-4.7-11.4-11.4-11.4l-0.3-4.1h0.3c9,0,15.5,6.5,15.5,15.5V224.8z"/>
				</g>
			</g>
			<g>
				<g>
					<path class="st14" d="M275.4,224.8h-4.1v-0.3c0-11.6-8.1-19.6-19.6-19.6h-0.3l-0.1-4.1c0.2,0,0.3,0,0.4,0
						c13.7,0,23.7,10,23.7,23.7L275.4,224.8z"/>
				</g>
			</g>
		</g>
		<g>
			
				<rect x="264.4" y="178.2" transform="matrix(0.2964 -0.9551 0.9551 0.2964 21.5786 390.5394)" class="st8" width="22.8" height="4.9"/>
		</g>
		<g>
			<path class="st3" d="M303.8,162.8c-5,4.6-11.6,7.5-18.9,7.5s-13.9-2.8-18.9-7.5l0.2-1c1-6.8,7.7-11.8,15-11.8h7.4
				c7.3,0,14,5,15,11.8L303.8,162.8z"/>
		</g>
		<g>
			<path class="st10" d="M291.5,150.2l-6.7,18.8l-6.7-18.8l0,0h0.1h0.1c0.9-0.2,1.8-0.2,2.7-0.2h7.4
				C289.6,149.9,290.6,150,291.5,150.2z"/>
		</g>
		<g>
			<path class="st8" d="M284.9,172.7c-16.7,0-30.2-13.6-30.2-30.2s13.6-30.2,30.2-30.2c16.7,0,30.2,13.6,30.2,30.2
				S301.6,172.7,284.9,172.7z M284.9,117.2c-14,0-25.3,11.4-25.3,25.3s11.4,25.3,25.3,25.3s25.3-11.4,25.3-25.3
				S298.9,117.2,284.9,117.2z"/>
		</g>
		<g>
			<path class="st14" d="M213.5,131.5h-24.8c-0.6,0-1.2-0.5-1.2-1.2v-15.1c0-0.6,0.5-1.2,1.2-1.2h24.8c0.6,0,1.2,0.5,1.2,1.2v15.1
				C214.6,131,214.1,131.5,213.5,131.5z"/>
		</g>
		<g>
			<g>
				<path class="st15" d="M214.5,115.9l-13.4,7.1l-13.4-7.2c-0.1,0.3-0.2,0.7-0.2,1v0.7l7.4,3.9l2.6,1.4l3.7,1.9l3.8-2l2.6-1.4
					l7.2-3.9v-0.7C214.7,116.6,214.6,116.2,214.5,115.9z"/>
			</g>
		</g>
		<g>
			<g>
				<path class="st15" d="M214.6,129.3c-0.1,0.5-0.3,0.9-0.7,1.2l-9.8-8.2l1.7-0.6l1.1,1L214.6,129.3z"/>
			</g>
		</g>
		<g>
			<g>
				<path class="st15" d="M187.5,129.3c0.1,0.5,0.3,0.9,0.7,1.2l9.8-8.2l-1.7-0.6l-1.1,1L187.5,129.3z"/>
			</g>
		</g>
		<g>
			<g>
				<path class="st8" d="M363.4,274.6l0.4-0.4c1.5-1.7,2.3-3.9,2.4-6.2c0,0,0,0,0-0.1l0,0c0-0.8,0.7-1.5,1.5-1.5l0,0
					c0.7,0,1.3,0.5,1.4,1.1l0.1,0.3c0.4,1.5,0.4,4-0.1,5.4l0,0h4.3c1.8,0,3.1,1.6,2.6,3.4l-1,4c-0.3,1.2-1.4,2.1-2.6,2.1h-9
					L363.4,274.6L363.4,274.6z"/>
			</g>
			<g>
				<path class="st8" d="M357.1,274.2v9.1h5.1v-9.1H357.1z M360.6,276.8c-0.5,0-0.9-0.4-0.9-0.9s0.4-0.9,0.9-0.9s0.9,0.4,0.9,0.9
					S361.1,276.8,360.6,276.8z"/>
			</g>
		</g>
		<g>
			<circle class="st16" cx="346.4" cy="120.2" r="12.9"/>
		</g>
		<g>
			<path class="st12" d="M352.5,119.9L352.5,119.9c0.4-0.8,0.6-1.7,0.2-2.7s-1.2-1.7-2.3-2c-2.1-0.5-3.9,1.1-3.9,3.1
				c0-2-1.9-3.6-3.9-3.1c-1,0.2-1.9,1-2.3,2s-0.2,1.9,0.2,2.7l0,0l4.4,6.2c0.4,0.6,1,0.9,1.7,0.9l0,0c0.7,0,1.3-0.3,1.7-0.9
				L352.5,119.9z"/>
		</g>
		<g>
			
				<rect x="195.4" y="169.4" transform="matrix(0.8852 -0.4653 0.4653 0.8852 -53.6267 126.4083)" class="st8" width="67.7" height="4.9"/>
		</g>
		<g>
			
				<rect x="325.7" y="145.3" transform="matrix(0.5082 -0.8612 0.8612 0.5082 17.2372 364.8764)" class="st8" width="4.9" height="44.1"/>
		</g>
		<g>
			
				<rect x="295.3" y="254.3" transform="matrix(0.5322 -0.8466 0.8466 0.5322 -62.2761 400.8765)" class="st8" width="72.6" height="4.9"/>
		</g>
		<g>
			<polygon class="st11" points="235.4,270.4 238.9,276.5 245.8,277.9 241.1,283.1 241.8,290.1 235.4,287.2 229,290.1 229.8,283.1 
				225.1,277.9 232,276.5 			"/>
		</g>
	</g>
</g>
</svg>
